<svg width="20" height="20" viewBox="0 0 20 20" fill="none" xmlns="http://www.w3.org/2000/svg">
<path fill-rule="evenodd" clip-rule="evenodd" d="M5.653 5.04818C5.75911 4.53618 5.90999 4.01563 6.12251 3.52368C6.42242 2.82945 6.86187 2.15276 7.50929 1.64765C8.1688 1.13312 8.9981 0.833328 10 0.833328C11.0019 0.833328 11.8312 1.13312 12.4907 1.64765C13.1382 2.15276 13.5776 2.82946 13.8775 3.52368C14.09 4.01563 14.2409 4.53619 14.347 5.04819C15.2652 5.23209 16.0242 5.92663 16.2591 6.85979C19.201 18.5481 16.5845 18.4593 11.8468 18.2984C11.2614 18.2785 10.6437 18.2576 10 18.2576C9.35636 18.2576 8.73861 18.2785 8.15325 18.2984C3.41546 18.4593 0.799005 18.5482 3.74093 6.85979C3.9758 5.92662 4.73476 5.23208 5.653 5.04818ZM7.37532 4.99999C7.4493 4.71879 7.54055 4.44382 7.65251 4.18464C7.87761 3.66359 8.16941 3.24654 8.53449 2.96171C8.88748 2.68631 9.35192 2.49999 10 2.49999C10.6481 2.49999 11.1125 2.68631 11.4655 2.96171C11.8306 3.24654 12.1224 3.66359 12.3475 4.18464C12.4595 4.44382 12.5507 4.71879 12.6247 4.99999H7.37532Z" fill="#175CFF"/>
</svg>
