<svg width="20" height="20" viewBox="0 0 20 20" fill="none" xmlns="http://www.w3.org/2000/svg">
<path d="M11.25 12.4999V16.6666C11.25 17.3569 11.8097 17.9166 12.5 17.9166H16.6667C17.357 17.9166 17.9167 17.3569 17.9167 16.6666V12.4999C17.9167 11.8096 17.357 11.2499 16.6667 11.2499H12.5C11.8097 11.2499 11.25 11.8096 11.25 12.4999Z" fill="#175CFF"/>
<path d="M4.19258 11.5844L2.00114 13.7758C1.5552 14.2217 1.5552 14.9448 2.00114 15.3907L4.19258 17.5821C4.63852 18.0281 5.36152 18.0281 5.80746 17.5821L7.9989 15.3907C8.44484 14.9448 8.44484 14.2217 7.9989 13.7758L5.80746 11.5844C5.36152 11.1384 4.63852 11.1384 4.19258 11.5844Z" fill="#175CFF"/>
<path d="M2.08335 3.33325L2.08335 7.49992C2.08335 8.19027 2.643 8.74992 3.33335 8.74992H7.50002C8.19038 8.74992 8.75002 8.19027 8.75002 7.49992V3.33325C8.75002 2.6429 8.19038 2.08325 7.50002 2.08325L3.33335 2.08325C2.643 2.08325 2.08335 2.6429 2.08335 3.33325Z" fill="#175CFF"/>
<path d="M14.5834 8.74992C16.4243 8.74992 17.9167 7.25753 17.9167 5.41658C17.9167 3.57564 16.4243 2.08325 14.5834 2.08325C12.7424 2.08325 11.25 3.57564 11.25 5.41658C11.25 7.25753 12.7424 8.74992 14.5834 8.74992Z" fill="#175CFF"/>
</svg>
