<svg width="20" height="20" viewBox="0 0 20 20" fill="none" xmlns="http://www.w3.org/2000/svg">
<path fill-rule="evenodd" clip-rule="evenodd" d="M6.28174 5.55558H4.35185C3.3291 5.55558 2.5 6.38469 2.5 7.40743V7.80944L8.55531 10.0575C8.89842 10.1849 9.26139 10.2501 9.62727 10.2501H10.3727C10.7386 10.2501 11.1016 10.1849 11.4447 10.0575L17.5 7.80944V7.40743C17.5 6.38469 16.6709 5.55558 15.6481 5.55558H13.7183C13.3555 4.27315 12.1764 3.3335 10.7778 3.3335H9.22224C7.82365 3.3335 6.64453 4.27315 6.28174 5.55558ZM8.11113 5.55558H11.8889C11.6355 5.21831 11.2321 5.00016 10.7778 5.00016H9.22224C8.76791 5.00016 8.36453 5.21831 8.11113 5.55558ZM10.8333 7.91683C10.8333 7.45659 10.4602 7.0835 10 7.0835C9.53976 7.0835 9.16667 7.45659 9.16667 7.91683V8.65757C9.16667 9.11781 9.53976 9.4909 10 9.4909C10.4602 9.4909 10.8333 9.11781 10.8333 8.65757V7.91683Z" fill="#175CFF"/>
<path d="M3.77239 14.4186L3.25002 9.2594L8.82982 11.326C9.10774 11.4289 9.40174 11.4816 9.69811 11.4816H10.3019C10.5983 11.4816 10.8923 11.4289 11.1702 11.326L16.75 9.2594L16.2276 14.4186C16.0984 15.6953 15.0236 16.6668 13.7404 16.6668H6.25968C4.97648 16.6668 3.90166 15.6953 3.77239 14.4186Z" fill="#175CFF"/>
</svg>