<svg width="20" height="20" viewBox="0 0 20 20" fill="none" xmlns="http://www.w3.org/2000/svg">
<path fill-rule="evenodd" clip-rule="evenodd" d="M14.1667 17.5H14C14.0941 17.4294 14.1836 17.3519 14.2678 17.2678C14.7366 16.7989 15 16.163 15 15.5C15 14.837 14.7366 14.2011 14.2678 13.7322C13.7989 13.2634 13.1631 13 12.5 13H11.5C11.3674 13 11.2402 12.9473 11.1465 12.8536C11.0527 12.7598 11 12.6326 11 12.5C11 12.3674 11.0527 12.2402 11.1465 12.1464C11.2402 12.0527 11.3674 12 11.5 12H14C14.5523 12 15 11.5523 15 11C15 10.4477 14.5523 10 14 10H13C13 9.44772 12.5523 9 12 9C11.4477 9 11 9.44772 11 10V10.0505C10.5233 10.1478 10.0814 10.383 9.73225 10.7322C9.26341 11.2011 9.00002 11.837 9.00002 12.5C9.00002 13.163 9.26341 13.7989 9.73225 14.2678C10.2011 14.7366 10.837 15 11.5 15H12.5C12.6326 15 12.7598 15.0527 12.8536 15.1464C12.9473 15.2402 13 15.3674 13 15.5C13 15.6326 12.9473 15.7598 12.8536 15.8536C12.7598 15.9473 12.6326 16 12.5 16H10C9.44774 16 9.00002 16.4477 9.00002 17C9.00002 17.1821 9.04872 17.3529 9.1338 17.5H5.83335C5.39133 17.5 4.9674 17.3244 4.65484 17.0118C4.34228 16.6993 4.16669 16.2754 4.16669 15.8333V4.16667C4.16669 3.72464 4.34228 3.30072 4.65484 2.98816C4.9674 2.67559 5.39133 2.5 5.83335 2.5H11.6667L15.8334 6.66667V15.8333C15.8334 16.2754 15.6578 16.6993 15.3452 17.0118C15.0326 17.3244 14.6087 17.5 14.1667 17.5ZM11.6667 6.16667V4.16667L14.1667 6.66667H12.1667C12.0341 6.66667 11.9069 6.61399 11.8131 6.52022C11.7194 6.42645 11.6667 6.29927 11.6667 6.16667Z" fill="#175CFF"/>
</svg>