<svg width="32" height="32" viewBox="0 0 32 32" fill="none" xmlns="http://www.w3.org/2000/svg">
<path d="M15.868 29.875C16.8472 29.875 17.641 29.0812 17.641 28.102C17.641 27.1228 16.8472 26.329 15.868 26.329C14.8888 26.329 14.095 27.1228 14.095 28.102C14.095 29.0812 14.8888 29.875 15.868 29.875Z" fill="url(#paint0_radial_10024_21551)"/>
<path d="M18.047 22.172H13.766C13.0756 22.172 12.516 22.7316 12.516 23.422V27.641C12.516 28.3314 13.0756 28.891 13.766 28.891H18.047C18.7373 28.891 19.297 28.3314 19.297 27.641V23.422C19.297 22.7316 18.7373 22.172 18.047 22.172Z" fill="url(#paint1_linear_10024_21551)"/>
<path d="M18.047 22.172H13.766C13.0756 22.172 12.516 22.7316 12.516 23.422V27.641C12.516 28.3314 13.0756 28.891 13.766 28.891H18.047C18.7373 28.891 19.297 28.3314 19.297 27.641V23.422C19.297 22.7316 18.7373 22.172 18.047 22.172Z" fill="url(#paint2_linear_10024_21551)"/>
<path d="M18.047 22.172H13.766C13.0756 22.172 12.516 22.7316 12.516 23.422V27.641C12.516 28.3314 13.0756 28.891 13.766 28.891H18.047C18.7373 28.891 19.297 28.3314 19.297 27.641V23.422C19.297 22.7316 18.7373 22.172 18.047 22.172Z" fill="url(#paint3_radial_10024_21551)"/>
<path d="M18.047 22.172H13.766C13.0756 22.172 12.516 22.7316 12.516 23.422V27.641C12.516 28.3314 13.0756 28.891 13.766 28.891H18.047C18.7373 28.891 19.297 28.3314 19.297 27.641V23.422C19.297 22.7316 18.7373 22.172 18.047 22.172Z" fill="url(#paint4_linear_10024_21551)"/>
<g filter="url(#filter0_i_10024_21551)">
<path d="M15.767 22.969H15.821C16.377 22.966 17.655 22.945 18.168 22.852C18.718 22.752 18.789 22.477 18.887 22.047C19.489 19.393 20.499 18.373 21.175 17.691C21.2796 17.5863 21.375 17.4877 21.461 17.395C21.754 17.073 22.008 16.789 22.201 16.57C23.3563 15.3434 24.128 13.8059 24.4215 12.1466C24.7149 10.4873 24.5171 8.77843 23.8526 7.22998C23.188 5.68153 22.0855 4.36096 20.6806 3.43056C19.2757 2.50015 17.6296 2.00045 15.9446 1.99286C14.2595 1.98526 12.609 2.4701 11.1958 3.3878C9.78253 4.3055 8.66819 5.61607 7.98967 7.15847C7.31115 8.70087 7.09802 10.4079 7.37646 12.0698C7.65489 13.7317 8.41278 15.276 9.55697 16.513C9.75697 16.739 10.029 17.044 10.349 17.395C10.4414 17.4965 10.5368 17.5952 10.635 17.691C11.31 18.373 12.321 19.394 12.923 22.047C13.021 22.477 13.092 22.752 13.642 22.852C14.153 22.945 15.188 22.966 15.712 22.968L15.767 22.969Z" fill="url(#paint5_radial_10024_21551)"/>
<path d="M15.767 22.969H15.821C16.377 22.966 17.655 22.945 18.168 22.852C18.718 22.752 18.789 22.477 18.887 22.047C19.489 19.393 20.499 18.373 21.175 17.691C21.2796 17.5863 21.375 17.4877 21.461 17.395C21.754 17.073 22.008 16.789 22.201 16.57C23.3563 15.3434 24.128 13.8059 24.4215 12.1466C24.7149 10.4873 24.5171 8.77843 23.8526 7.22998C23.188 5.68153 22.0855 4.36096 20.6806 3.43056C19.2757 2.50015 17.6296 2.00045 15.9446 1.99286C14.2595 1.98526 12.609 2.4701 11.1958 3.3878C9.78253 4.3055 8.66819 5.61607 7.98967 7.15847C7.31115 8.70087 7.09802 10.4079 7.37646 12.0698C7.65489 13.7317 8.41278 15.276 9.55697 16.513C9.75697 16.739 10.029 17.044 10.349 17.395C10.4414 17.4965 10.5368 17.5952 10.635 17.691C11.31 18.373 12.321 19.394 12.923 22.047C13.021 22.477 13.092 22.752 13.642 22.852C14.153 22.945 15.188 22.966 15.712 22.968L15.767 22.969Z" fill="url(#paint6_radial_10024_21551)"/>
</g>
<path d="M17.462 10.281C19.3 10.281 20.79 8.791 20.79 6.953C20.79 5.115 19.3 3.625 17.462 3.625C15.624 3.625 14.134 5.115 14.134 6.953C14.134 8.791 15.624 10.281 17.462 10.281Z" fill="url(#paint7_linear_10024_21551)"/>
<g filter="url(#filter1_i_10024_21551)">
<path d="M15.479 22.966C15.444 20.794 15.271 19.364 15.007 18.368C14.704 17.221 14.279 16.648 13.829 16.195L13.824 16.189L13.818 16.184C13.3841 15.7736 13.0833 15.2424 12.9546 14.6592C12.8259 14.076 12.8751 13.4676 13.096 12.9127C13.3169 12.3577 13.6992 11.8819 14.1934 11.5466C14.6877 11.2114 15.2712 11.0321 15.8685 11.0321C16.4657 11.0321 17.0492 11.2114 17.5435 11.5466C18.0378 11.8819 18.4201 12.3577 18.6409 12.9127C18.8618 13.4676 18.9111 14.076 18.7824 14.6592C18.6536 15.2424 18.3529 15.7736 17.919 16.184L17.913 16.189L17.907 16.195C17.466 16.641 17.035 17.175 16.728 18.313C16.462 19.298 16.288 20.733 16.253 22.964C16.555 22.959 16.916 22.95 17.254 22.934C17.29 20.766 17.46 19.438 17.694 18.574C17.946 17.637 18.271 17.249 18.612 16.904C19.1895 16.3553 19.5894 15.646 19.7598 14.8678C19.9302 14.0896 19.8634 13.2782 19.5679 12.5383C19.2725 11.7984 18.7621 11.1641 18.1025 10.7173C17.443 10.2705 16.6646 10.0316 15.868 10.0316C15.0713 10.0316 14.293 10.2705 13.6334 10.7173C12.9739 11.1641 12.4634 11.7984 12.168 12.5383C11.8726 13.2782 11.8058 14.0896 11.9762 14.8678C12.1466 15.646 12.5464 16.3553 13.124 16.904C13.457 17.241 13.786 17.662 14.041 18.624C14.273 19.503 14.441 20.828 14.478 22.934C14.825 22.954 15.19 22.962 15.478 22.966" fill="#FFAD55"/>
</g>
<g filter="url(#filter2_f_10024_21551)">
<path d="M16.879 22.739C16.879 17.968 17.61 17.206 18.394 16.415C18.9006 15.9358 19.2518 15.3157 19.4021 14.6347C19.5524 13.9538 19.4949 13.2434 19.237 12.5955C18.9792 11.9476 18.5328 11.3919 17.9557 11.0005C17.3786 10.6091 16.6973 10.3998 16 10.3998C15.3027 10.3998 14.6214 10.6091 14.0443 11.0005C13.4672 11.3919 13.0208 11.9476 12.7629 12.5955C12.5051 13.2434 12.4476 13.9538 12.5979 14.6347C12.7482 15.3157 13.0994 15.9358 13.606 16.415C14.39 17.206 15.117 18.576 15.117 22.739" stroke="url(#paint8_linear_10024_21551)" stroke-width="0.125"/>
</g>
<g filter="url(#filter3_f_10024_21551)">
<path d="M18.6303 24.1515L12.9585 25.0402C12.6666 25.0859 12.4671 25.3596 12.5128 25.6516C12.5585 25.9435 12.8323 26.143 13.1242 26.0973L18.796 25.2086C19.0879 25.1629 19.2874 24.8891 19.2417 24.5972C19.196 24.3053 18.9223 24.1058 18.6303 24.1515Z" fill="#7E6693"/>
</g>
<g filter="url(#filter4_f_10024_21551)">
<path d="M18.6303 26.5225L12.9585 27.4112C12.6666 27.4569 12.4671 27.7306 12.5128 28.0226C12.5585 28.3145 12.8323 28.514 13.1242 28.4683L18.796 27.5796C19.0879 27.5339 19.2874 27.2601 19.2417 26.9682C19.196 26.6763 18.9223 26.4768 18.6303 26.5225Z" fill="#7E6693"/>
</g>
<path d="M19.3604 26.2604L12.2294 27.3777C11.9287 27.4248 11.7232 27.7067 11.7703 28.0074C11.8174 28.308 12.0993 28.5135 12.3999 28.4664L19.5309 27.3491C19.8316 27.302 20.0371 27.0201 19.99 26.7194C19.9429 26.4188 19.661 26.2133 19.3604 26.2604Z" fill="url(#paint9_linear_10024_21551)"/>
<path d="M19.3604 26.2604L12.2294 27.3777C11.9287 27.4248 11.7232 27.7067 11.7703 28.0074C11.8174 28.308 12.0993 28.5135 12.3999 28.4664L19.5309 27.3491C19.8316 27.302 20.0371 27.0201 19.99 26.7194C19.9429 26.4188 19.661 26.2133 19.3604 26.2604Z" fill="url(#paint10_linear_10024_21551)"/>
<path d="M19.3604 26.2604L12.2294 27.3777C11.9287 27.4248 11.7232 27.7067 11.7703 28.0074C11.8174 28.308 12.0993 28.5135 12.3999 28.4664L19.5309 27.3491C19.8316 27.302 20.0371 27.0201 19.99 26.7194C19.9429 26.4188 19.661 26.2133 19.3604 26.2604Z" fill="url(#paint11_linear_10024_21551)"/>
<path d="M19.3604 26.2604L12.2294 27.3777C11.9287 27.4248 11.7232 27.7067 11.7703 28.0074C11.8174 28.308 12.0993 28.5135 12.3999 28.4664L19.5309 27.3491C19.8316 27.302 20.0371 27.0201 19.99 26.7194C19.9429 26.4188 19.661 26.2133 19.3604 26.2604Z" fill="url(#paint12_radial_10024_21551)"/>
<path d="M19.3604 23.8834L12.2294 25.0007C11.9287 25.0478 11.7232 25.3297 11.7703 25.6304C11.8174 25.931 12.0993 26.1365 12.3999 26.0894L19.5309 24.9721C19.8316 24.925 20.0371 24.6431 19.99 24.3424C19.9429 24.0418 19.661 23.8363 19.3604 23.8834Z" fill="url(#paint13_linear_10024_21551)"/>
<path d="M19.3604 23.8834L12.2294 25.0007C11.9287 25.0478 11.7232 25.3297 11.7703 25.6304C11.8174 25.931 12.0993 26.1365 12.3999 26.0894L19.5309 24.9721C19.8316 24.925 20.0371 24.6431 19.99 24.3424C19.9429 24.0418 19.661 23.8363 19.3604 23.8834Z" fill="url(#paint14_linear_10024_21551)"/>
<path d="M19.3604 23.8834L12.2294 25.0007C11.9287 25.0478 11.7232 25.3297 11.7703 25.6304C11.8174 25.931 12.0993 26.1365 12.3999 26.0894L19.5309 24.9721C19.8316 24.925 20.0371 24.6431 19.99 24.3424C19.9429 24.0418 19.661 23.8363 19.3604 23.8834Z" fill="url(#paint15_linear_10024_21551)"/>
<path d="M19.3604 23.8834L12.2294 25.0007C11.9287 25.0478 11.7232 25.3297 11.7703 25.6304C11.8174 25.931 12.0993 26.1365 12.3999 26.0894L19.5309 24.9721C19.8316 24.925 20.0371 24.6431 19.99 24.3424C19.9429 24.0418 19.661 23.8363 19.3604 23.8834Z" fill="url(#paint16_radial_10024_21551)"/>
<defs>
<filter id="filter0_i_10024_21551" x="7.25757" y="1.99277" width="17.421" height="21.0512" filterUnits="userSpaceOnUse" color-interpolation-filters="sRGB">
<feFlood flood-opacity="0" result="BackgroundImageFix"/>
<feBlend mode="normal" in="SourceGraphic" in2="BackgroundImageFix" result="shape"/>
<feColorMatrix in="SourceAlpha" type="matrix" values="0 0 0 0 0 0 0 0 0 0 0 0 0 0 0 0 0 0 127 0" result="hardAlpha"/>
<feOffset dx="0.125" dy="0.075"/>
<feGaussianBlur stdDeviation="0.25"/>
<feComposite in2="hardAlpha" operator="arithmetic" k2="-1" k3="1"/>
<feColorMatrix type="matrix" values="0 0 0 0 0.992157 0 0 0 0 0.666667 0 0 0 0 0.309804 0 0 0 1 0"/>
<feBlend mode="normal" in2="shape" result="effect1_innerShadow_10024_21551"/>
</filter>
<filter id="filter1_i_10024_21551" x="11.884" y="10.0316" width="8.09302" height="12.9344" filterUnits="userSpaceOnUse" color-interpolation-filters="sRGB">
<feFlood flood-opacity="0" result="BackgroundImageFix"/>
<feBlend mode="normal" in="SourceGraphic" in2="BackgroundImageFix" result="shape"/>
<feColorMatrix in="SourceAlpha" type="matrix" values="0 0 0 0 0 0 0 0 0 0 0 0 0 0 0 0 0 0 127 0" result="hardAlpha"/>
<feOffset dx="0.125"/>
<feGaussianBlur stdDeviation="0.125"/>
<feComposite in2="hardAlpha" operator="arithmetic" k2="-1" k3="1"/>
<feColorMatrix type="matrix" values="0 0 0 0 1 0 0 0 0 0.572549 0 0 0 0 0.254902 0 0 0 1 0"/>
<feBlend mode="normal" in2="shape" result="effect1_innerShadow_10024_21551"/>
</filter>
<filter id="filter2_f_10024_21551" x="12.3285" y="10.2123" width="7.34302" height="12.6517" filterUnits="userSpaceOnUse" color-interpolation-filters="sRGB">
<feFlood flood-opacity="0" result="BackgroundImageFix"/>
<feBlend mode="normal" in="SourceGraphic" in2="BackgroundImageFix" result="shape"/>
<feGaussianBlur stdDeviation="0.0625" result="effect1_foregroundBlur_10024_21551"/>
</filter>
<filter id="filter3_f_10024_21551" x="12.3813" y="24.02" width="6.99194" height="2.20885" filterUnits="userSpaceOnUse" color-interpolation-filters="sRGB">
<feFlood flood-opacity="0" result="BackgroundImageFix"/>
<feBlend mode="normal" in="SourceGraphic" in2="BackgroundImageFix" result="shape"/>
<feGaussianBlur stdDeviation="0.0625" result="effect1_foregroundBlur_10024_21551"/>
</filter>
<filter id="filter4_f_10024_21551" x="12.3813" y="26.391" width="6.99194" height="2.20883" filterUnits="userSpaceOnUse" color-interpolation-filters="sRGB">
<feFlood flood-opacity="0" result="BackgroundImageFix"/>
<feBlend mode="normal" in="SourceGraphic" in2="BackgroundImageFix" result="shape"/>
<feGaussianBlur stdDeviation="0.0625" result="effect1_foregroundBlur_10024_21551"/>
</filter>
<radialGradient id="paint0_radial_10024_21551" cx="0" cy="0" r="1" gradientUnits="userSpaceOnUse" gradientTransform="translate(16.337 29.11) rotate(96.6541) scale(0.943858 2.18614)">
<stop offset="0.268" stop-color="#AC90C6"/>
<stop offset="1" stop-color="#8E6AAA"/>
</radialGradient>
<linearGradient id="paint1_linear_10024_21551" x1="19.297" y1="25.802" x2="12.516" y2="25.802" gradientUnits="userSpaceOnUse">
<stop stop-color="#CDC2D1"/>
<stop offset="1" stop-color="#947C8D"/>
</linearGradient>
<linearGradient id="paint2_linear_10024_21551" x1="12.181" y1="26.313" x2="13.837" y2="26.313" gradientUnits="userSpaceOnUse">
<stop stop-color="#8A7B88"/>
<stop offset="1" stop-color="#8A7B88" stop-opacity="0"/>
</linearGradient>
<radialGradient id="paint3_radial_10024_21551" cx="0" cy="0" r="1" gradientUnits="userSpaceOnUse" gradientTransform="translate(17.305 22.64) rotate(88.6357) scale(0.824874 3.67242)">
<stop offset="0.229" stop-color="#EDE2EB"/>
<stop offset="1" stop-color="#C8BCCB" stop-opacity="0"/>
</radialGradient>
<linearGradient id="paint4_linear_10024_21551" x1="17.462" y1="28.891" x2="17.462" y2="27.625" gradientUnits="userSpaceOnUse">
<stop stop-color="#7E5F9E"/>
<stop offset="1" stop-color="#7E5F9E" stop-opacity="0"/>
</linearGradient>
<radialGradient id="paint5_radial_10024_21551" cx="0" cy="0" r="1" gradientUnits="userSpaceOnUse" gradientTransform="translate(19.5559 8.1261) rotate(138.066) scale(9.91369 8.17473)">
<stop offset="0.286" stop-color="#FFEC87"/>
<stop offset="1" stop-color="#FFCD4B"/>
</radialGradient>
<radialGradient id="paint6_radial_10024_21551" cx="0" cy="0" r="1" gradientUnits="userSpaceOnUse" gradientTransform="translate(20.493 13.438) rotate(-147.604) scale(14.5819 14.0258)">
<stop offset="0.622" stop-color="#FFB239" stop-opacity="0"/>
<stop offset="1" stop-color="#FFB239"/>
</radialGradient>
<linearGradient id="paint7_linear_10024_21551" x1="16.298" y1="8.027" x2="19.72" y2="5.361" gradientUnits="userSpaceOnUse">
<stop stop-color="white" stop-opacity="0"/>
<stop offset="0.594" stop-color="white"/>
</linearGradient>
<linearGradient id="paint8_linear_10024_21551" x1="19.72" y1="10.997" x2="15.714" y2="20.54" gradientUnits="userSpaceOnUse">
<stop stop-color="#FFBF5C"/>
<stop offset="1" stop-color="#FFBF5C" stop-opacity="0"/>
</linearGradient>
<linearGradient id="paint9_linear_10024_21551" x1="15.6965" y1="26.8436" x2="15.9626" y2="28.0317" gradientUnits="userSpaceOnUse">
<stop stop-color="#B1969A"/>
<stop offset="1" stop-color="#DAD2E2"/>
</linearGradient>
<linearGradient id="paint10_linear_10024_21551" x1="16.8214" y1="27.7504" x2="16.697" y2="26.9692" gradientUnits="userSpaceOnUse">
<stop stop-color="#8A68A9"/>
<stop offset="1" stop-color="#DEC2E3" stop-opacity="0"/>
</linearGradient>
<linearGradient id="paint11_linear_10024_21551" x1="11.6846" y1="28.0937" x2="14.4151" y2="27.516" gradientUnits="userSpaceOnUse">
<stop stop-color="#958387"/>
<stop offset="1" stop-color="#958387" stop-opacity="0"/>
</linearGradient>
<radialGradient id="paint12_radial_10024_21551" cx="0" cy="0" r="1" gradientUnits="userSpaceOnUse" gradientTransform="translate(18.5552 26.7681) rotate(81.4165) scale(0.837514 4.95711)">
<stop offset="0.127" stop-color="#FCF0FC"/>
<stop offset="1" stop-color="#E5C9E3" stop-opacity="0"/>
</radialGradient>
<linearGradient id="paint13_linear_10024_21551" x1="15.6966" y1="24.4676" x2="15.9626" y2="25.6547" gradientUnits="userSpaceOnUse">
<stop stop-color="#B1969A"/>
<stop offset="1" stop-color="#DAD2E2"/>
</linearGradient>
<linearGradient id="paint14_linear_10024_21551" x1="16.8214" y1="25.3734" x2="16.697" y2="24.5922" gradientUnits="userSpaceOnUse">
<stop stop-color="#8A68A9"/>
<stop offset="1" stop-color="#DEC2E3" stop-opacity="0"/>
</linearGradient>
<linearGradient id="paint15_linear_10024_21551" x1="11.6848" y1="25.7176" x2="14.4151" y2="25.139" gradientUnits="userSpaceOnUse">
<stop stop-color="#958387"/>
<stop offset="1" stop-color="#958387" stop-opacity="0"/>
</linearGradient>
<radialGradient id="paint16_radial_10024_21551" cx="0" cy="0" r="1" gradientUnits="userSpaceOnUse" gradientTransform="translate(18.5552 24.3911) rotate(81.4165) scale(0.837513 4.95709)">
<stop offset="0.127" stop-color="#FCF0FC"/>
<stop offset="1" stop-color="#E5C9E3" stop-opacity="0"/>
</radialGradient>
</defs>
</svg>
