<svg width="20" height="20" viewBox="0 0 20 20" fill="none" xmlns="http://www.w3.org/2000/svg">
<path d="M1.50466 3.77538C1.17922 4.10081 1.17922 4.62845 1.50466 4.95389C1.8301 5.27932 2.35773 5.27932 2.68317 4.95389L4.74557 2.89149C5.071 2.56605 5.071 2.03842 4.74557 1.71298C4.42013 1.38754 3.89249 1.38754 3.56705 1.71298L1.50466 3.77538Z" fill="#667185"/>
<path d="M15.2441 1.91075C15.5695 1.58531 16.0972 1.58531 16.4226 1.91075L18.485 3.97315C18.8104 4.29858 18.8104 4.82622 18.485 5.15166C18.1595 5.47709 17.6319 5.47709 17.3065 5.15166L15.2441 3.08926C14.9186 2.76383 14.9186 2.23619 15.2441 1.91075Z" fill="#667185"/>
<path fill-rule="evenodd" clip-rule="evenodd" d="M10 17.5C14.1421 17.5 17.5 14.1421 17.5 10C17.5 5.85787 14.1421 2.50001 10 2.50001C5.85787 2.50001 2.5 5.85787 2.5 10C2.5 14.1421 5.85787 17.5 10 17.5ZM10 7.50001C10 7.03977 9.62691 6.66667 9.16667 6.66667C8.70643 6.66667 8.33334 7.03977 8.33334 7.50001V11.6667C8.33334 12.1269 8.70643 12.5 9.16667 12.5H11.6667C12.1269 12.5 12.5 12.1269 12.5 11.6667C12.5 11.2064 12.1269 10.8333 11.6667 10.8333H10V7.50001Z" fill="#175CFF"/>
</svg>
