<svg width="17" height="16" viewBox="0 0 17 16" fill="none" xmlns="http://www.w3.org/2000/svg">
<path d="M1.70381 3.02029C1.44346 3.28064 1.44346 3.70275 1.70381 3.9631C1.96416 4.22345 2.38627 4.22345 2.64662 3.9631L4.29653 2.31319C4.55688 2.05284 4.55688 1.63073 4.29653 1.37038C4.03618 1.11003 3.61407 1.11003 3.35372 1.37038L1.70381 3.02029Z" fill="#175CFF"/>
<path d="M12.6953 1.5286C12.9557 1.26825 13.3778 1.26825 13.6382 1.5286L15.2881 3.17851C15.5484 3.43886 15.5484 3.86097 15.2881 4.12132C15.0277 4.38167 14.6056 4.38167 14.3453 4.12132L12.6953 2.4714C12.435 2.21105 12.435 1.78894 12.6953 1.5286Z" fill="#175CFF"/>
<path fill-rule="evenodd" clip-rule="evenodd" d="M8.50008 14C11.8138 14 14.5001 11.3137 14.5001 8C14.5001 4.68629 11.8138 2 8.50008 2C5.18637 2 2.50008 4.68629 2.50008 8C2.50008 11.3137 5.18637 14 8.50008 14ZM8.50008 6C8.50008 5.63181 8.2016 5.33333 7.83342 5.33333C7.46523 5.33333 7.16675 5.63181 7.16675 6V9.33333C7.16675 9.70152 7.46523 10 7.83342 10H9.83342C10.2016 10 10.5001 9.70152 10.5001 9.33333C10.5001 8.96514 10.2016 8.66667 9.83342 8.66667H8.50008V6Z" fill="#175CFF"/>
</svg>
