<svg width="18" height="14" viewBox="0 0 18 14" fill="none" xmlns="http://www.w3.org/2000/svg">
<path fill-rule="evenodd" clip-rule="evenodd" d="M3.16797 0.332031H14.8346C16.2153 0.332031 17.3346 1.45132 17.3346 2.83203V11.1654C17.3346 12.5461 16.2153 13.6654 14.8346 13.6654H3.16797C1.78726 13.6654 0.667969 12.5461 0.667969 11.1654V2.83203C0.667969 1.45132 1.78726 0.332031 3.16797 0.332031ZM3.41205 5.08795C3.08661 4.76251 3.08661 4.23487 3.41205 3.90943C3.73748 3.584 4.26512 3.584 4.59056 3.90943L7.39111 6.70998L8.47419 5.82547C8.81452 5.54753 9.31218 5.5816 9.61146 5.90333L12.337 8.83329L13.3934 7.70652C13.7081 7.37076 14.2355 7.35374 14.5713 7.66852C14.907 7.98329 14.924 8.51066 14.6093 8.84642L12.9426 10.6242C12.7847 10.7926 12.5639 10.888 12.333 10.8876C12.1021 10.8871 11.8817 10.7909 11.7245 10.6218L8.92328 7.61055L7.86175 8.47747C7.53037 8.74809 7.04791 8.7238 6.74538 8.42128L3.41205 5.08795Z" fill="#667185"/>
</svg>
