<svg width="20" height="20" viewBox="0 0 20 20" fill="none" xmlns="http://www.w3.org/2000/svg">
<path d="M1.50384 3.77522C1.17841 4.10066 1.17841 4.6283 1.50384 4.95373C1.82928 5.27917 2.35692 5.27917 2.68235 4.95373L4.74475 2.89134C5.07019 2.5659 5.07019 2.03826 4.74475 1.71283C4.41931 1.38739 3.89167 1.38739 3.56624 1.71283L1.50384 3.77522Z" fill="#F3A218"/>
<path d="M9.99919 7.49985C9.99919 7.03962 9.62609 6.66652 9.16585 6.66652C8.70562 6.66652 8.33252 7.03962 8.33252 7.49985V11.6665C8.33252 12.1268 8.70562 12.4999 9.16585 12.4999H11.6659C12.1261 12.4999 12.4992 12.1268 12.4992 11.6665C12.4992 11.2063 12.1261 10.8332 11.6659 10.8332H9.99919V7.49985Z" fill="#F3A218"/>
<path fill-rule="evenodd" clip-rule="evenodd" d="M9.99919 1.66652C5.39681 1.66652 1.66585 5.39748 1.66585 9.99985C1.66585 14.6022 5.39681 18.3332 9.99919 18.3332C14.6016 18.3332 18.3325 14.6022 18.3325 9.99985C18.3325 5.39748 14.6016 1.66652 9.99919 1.66652ZM3.33252 9.99985C3.33252 6.31796 6.31729 3.33319 9.99919 3.33319C13.6811 3.33319 16.6659 6.31796 16.6659 9.99985C16.6659 13.6818 13.6811 16.6665 9.99919 16.6665C6.31729 16.6665 3.33252 13.6818 3.33252 9.99985Z" fill="#F3A218"/>
<path d="M15.2433 1.9106C15.5687 1.58516 16.0963 1.58516 16.4218 1.9106L18.4842 3.97299C18.8096 4.29843 18.8096 4.82607 18.4842 5.1515C18.1587 5.47694 17.6311 5.47694 17.3057 5.1515L15.2433 3.08911C14.9178 2.76367 14.9178 2.23604 15.2433 1.9106Z" fill="#F3A218"/>
</svg>
