<svg width="32" height="32" viewBox="0 0 32 32" fill="none" xmlns="http://www.w3.org/2000/svg">
<path fill-rule="evenodd" clip-rule="evenodd" d="M9.33333 1.33301C6.38782 1.33301 4 3.72082 4 6.66634V25.333C4 28.2785 6.38781 30.6663 9.33333 30.6663H22.6667C25.6122 30.6663 28 28.2785 28 25.333V12.1145C28 10.8669 27.5626 9.6587 26.7638 8.70022L22.2237 3.25202C21.2104 2.03606 19.7093 1.33301 18.1265 1.33301H9.33333ZM6.66667 6.66634C6.66667 5.19358 7.86057 3.99967 9.33333 3.99967H17.3333V7.99967C17.3333 10.9452 19.7211 13.333 22.6667 13.333H25.3333V25.333C25.3333 26.8058 24.1394 27.9997 22.6667 27.9997H9.33333C7.86057 27.9997 6.66667 26.8058 6.66667 25.333V6.66634ZM24.9058 10.6663C24.8478 10.5767 24.7842 10.4902 24.7153 10.4074L20.1751 4.95918C20.1196 4.89255 20.0611 4.82901 20 4.76866V7.99967C20 9.47243 21.1939 10.6663 22.6667 10.6663H24.9058Z" fill="#344054"/>
<path d="M22.3326 25.0397C22.0926 25.0397 21.8659 24.9597 21.6659 24.7864C20.8793 24.0931 20.4393 23.7997 20.2126 23.6664C20.0926 23.7597 19.9326 23.8797 19.7859 23.9997C18.9059 24.6797 18.4126 25.0397 17.8793 25.0397C17.1459 25.0397 16.0259 24.7864 15.3059 23.4397L15.0126 23.8797C14.5459 24.5731 13.9726 24.9331 13.3326 24.9464C12.3459 24.9331 11.6393 24.2531 10.9726 23.4264C10.5859 23.8531 10.1593 24.2931 9.69259 24.7597C9.29259 25.1464 8.66592 25.1464 8.27926 24.7597C7.89259 24.3731 7.89259 23.7331 8.27926 23.3464C8.89259 22.7331 9.39926 22.1864 9.82592 21.7064C9.27926 20.6931 8.74592 19.3997 8.71926 18.2664C8.70592 17.2531 9.01259 16.3731 9.59926 15.7731C10.0393 15.3197 10.6126 15.0664 11.1993 15.0664C12.4259 15.0664 13.6793 15.4397 13.6793 18.2531C13.6793 19.3064 13.2126 20.4931 12.2526 21.8531C12.2926 21.9064 12.3326 21.9597 12.3726 22.0131C12.8259 22.6131 13.0926 22.8397 13.2259 22.9331C13.2526 22.8931 13.2926 22.8531 13.3326 22.7864L14.8126 20.5997C15.0526 20.2531 15.4659 20.0931 15.8793 20.1864C16.2793 20.2797 16.5859 20.6264 16.6393 21.0264C16.8526 22.7331 17.3859 23.0131 17.7059 23.0531C17.9193 22.9197 18.3059 22.6264 18.5459 22.4397C19.2793 21.8664 19.6259 21.6131 20.0793 21.6131C20.6526 21.6131 21.3593 21.9064 22.9593 23.3197C23.3726 23.6797 23.4126 24.3197 23.0526 24.7331C22.8526 24.9597 22.5726 25.0664 22.3059 25.0664L22.3326 25.0397ZM11.5326 17.0131C11.5326 17.0131 11.3459 17.0397 11.2259 17.0397C11.1993 17.0397 11.1326 17.0664 11.0526 17.1464C10.9593 17.2397 10.7326 17.5464 10.7459 18.2131C10.7459 18.6664 10.9326 19.2531 11.1726 19.8397C11.6126 19.0664 11.7059 18.5464 11.7059 18.2264C11.7059 17.2531 11.5326 17.0264 11.5326 17.0264V17.0131Z" fill="#344054"/>
<path d="M14.8802 10H9.54687C9.00021 10 8.54688 9.54667 8.54688 9C8.54688 8.45333 9.00021 8 9.54687 8H14.8802C15.4269 8 15.8802 8.45333 15.8802 9C15.8802 9.54667 15.4269 10 14.8802 10Z" fill="#344054"/>
</svg>
