<svg width="20" height="21" viewBox="0 0 20 21" fill="none" xmlns="http://www.w3.org/2000/svg">
<path fill-rule="evenodd" clip-rule="evenodd" d="M10.834 2.99996C10.834 2.53972 10.4609 2.16663 10.0006 2.16663C9.54038 2.16663 9.16728 2.53972 9.16728 2.99996V3.47568C6.34052 3.8799 4.16729 6.31015 4.16729 9.24905L4.16728 12.5827C4.16728 12.5827 4.16729 12.5826 4.16728 12.5827C4.1672 12.5843 4.16664 12.5955 4.16302 12.6173C4.15869 12.6436 4.15098 12.6793 4.13827 12.7252C4.1125 12.8183 4.07148 12.9342 4.01418 13.0712C3.89929 13.3459 3.73732 13.6622 3.55819 13.9813C3.2214 14.5812 3.05164 15.2961 3.17909 15.976C3.31349 16.693 3.77499 17.3182 4.56317 17.6183C5.26726 17.8864 6.20448 18.1315 7.44217 18.2775C7.47162 18.303 7.50644 18.3322 7.54645 18.3642C7.67169 18.4644 7.85062 18.5943 8.07675 18.7235C8.52556 18.98 9.18914 19.25 10.0006 19.25C10.8121 19.25 11.4757 18.98 11.9245 18.7235C12.1506 18.5943 12.3295 18.4644 12.4548 18.3642C12.4948 18.3322 12.5296 18.303 12.5591 18.2775C13.7968 18.1315 14.734 17.8864 15.4381 17.6183C16.2262 17.3182 16.6877 16.693 16.8221 15.976C16.9496 15.2961 16.7798 14.5812 16.443 13.9813C16.2639 13.6622 16.1019 13.3459 15.9871 13.0712C15.9298 12.9342 15.8887 12.8183 15.863 12.7252C15.8503 12.6793 15.8426 12.6436 15.8382 12.6173C15.8346 12.5955 15.834 12.5845 15.834 12.5829C15.834 12.5828 15.834 12.5829 15.834 12.5829L15.834 12.5759V9.24944C15.834 6.31062 13.6608 3.87997 10.834 3.47569V2.99996ZM5.83395 9.24905C5.83395 6.94806 7.69923 5.08329 10.0006 5.08329C12.3019 5.08329 14.1673 6.94837 14.1673 9.24944V12.5833C14.1673 12.9691 14.3118 13.3852 14.4494 13.7142C14.5989 14.0717 14.7948 14.45 14.9897 14.7971C15.1792 15.1347 15.2244 15.4536 15.184 15.6689C15.1506 15.8471 15.0615 15.9783 14.845 16.0607C13.9493 16.4018 12.4372 16.75 10.0006 16.75C7.56401 16.75 6.05196 16.4018 5.15624 16.0607C4.93969 15.9783 4.85063 15.8471 4.81722 15.6689C4.77686 15.4536 4.82205 15.1347 5.01153 14.7971C5.2064 14.45 5.40231 14.0717 5.5518 13.7142C5.68941 13.3852 5.83395 12.9691 5.83395 12.5833V9.24905Z" fill="#175CFF"/>
</svg>
