<svg width="20" height="20" viewBox="0 0 20 20" fill="none" xmlns="http://www.w3.org/2000/svg">
<g id="icon / bell-slash">
<g id="icon">
<path d="M10.8334 2.97606C11.8393 3.11992 12.7624 3.52037 13.5343 4.109L12.3407 5.3026C11.6736 4.84885 10.8678 4.58366 10 4.58366C7.69863 4.58366 5.83335 6.44842 5.83335 8.74941V11.81L3.19387 14.4495C3.26246 14.1106 3.38913 13.7817 3.55759 13.4816C3.73672 13.1625 3.89869 12.8463 4.01358 12.5716C4.07088 12.4345 4.1119 12.3186 4.13767 12.2256C4.15038 12.1797 4.15809 12.144 4.16243 12.1177C4.16604 12.0958 4.16659 12.0849 4.16667 12.0833L4.16669 12.0767V8.74941C4.16669 5.81052 6.33992 3.38026 9.16669 2.97605V2.50033C9.16669 2.04009 9.53978 1.66699 10 1.66699C10.4603 1.66699 10.8334 2.04009 10.8334 2.50033V2.97606Z" fill="#98A2B3"/>
<path d="M14.1338 8.22359L15.5145 6.84285C15.7211 7.44039 15.8334 8.08198 15.8334 8.74981V12.0831C15.8334 12.0831 15.8337 12.094 15.8376 12.1177C15.842 12.144 15.8497 12.1797 15.8624 12.2256C15.8881 12.3186 15.9292 12.4345 15.9865 12.5716C16.1013 12.8463 16.2633 13.1625 16.4424 13.4816C16.7792 14.0816 16.949 14.7965 16.8215 15.4764C16.6871 16.1933 16.2257 16.8186 15.4375 17.1187C14.7334 17.3868 13.7961 17.6319 12.5584 17.7779C12.529 17.8034 12.4942 17.8326 12.4542 17.8646C12.3289 17.9648 12.15 18.0946 11.9239 18.2239C11.4751 18.4803 10.8115 18.7503 10 18.7503C9.18852 18.7503 8.52494 18.4803 8.07613 18.2239C7.85 18.0946 7.67107 17.9648 7.54583 17.8646C7.50582 17.8326 7.471 17.8034 7.44155 17.7779C6.47773 17.6642 5.69613 17.4904 5.06493 17.2924L6.43029 15.9271C7.30718 16.1134 8.47174 16.2503 10 16.2503C12.4366 16.2503 13.9487 15.9022 14.8444 15.5611C15.0609 15.4786 15.15 15.3475 15.1834 15.1693C15.2238 14.954 15.1786 14.635 14.9891 14.2975C14.7942 13.9503 14.5983 13.5721 14.4488 13.2146C14.3112 12.8855 14.1667 12.4694 14.1667 12.0837V8.74981C14.1667 8.57157 14.1555 8.39594 14.1338 8.22359Z" fill="#98A2B3"/>
<path d="M17.2559 2.7444C17.5814 3.06984 17.5814 3.59748 17.2559 3.92291L3.92259 17.2562C3.59715 17.5817 3.06951 17.5817 2.74408 17.2562C2.41864 16.9308 2.41864 16.4032 2.74408 16.0777L16.0774 2.7444C16.4028 2.41897 16.9305 2.41897 17.2559 2.7444Z" fill="#98A2B3"/>
</g>
</g>
</svg>
