<svg width="20" height="20" viewBox="0 0 20 20" fill="none" xmlns="http://www.w3.org/2000/svg">
<path fill-rule="evenodd" clip-rule="evenodd" d="M10.834 2.50008C10.834 2.03984 10.4609 1.66675 10.0006 1.66675C9.54038 1.66675 9.16728 2.03984 9.16728 2.50008V2.9758C6.34052 3.38002 4.16729 5.81028 4.16729 8.74917L4.16728 12.0828C4.16728 12.0828 4.16729 12.0827 4.16728 12.0828C4.1672 12.0844 4.16664 12.0956 4.16302 12.1175C4.15869 12.1437 4.15098 12.1794 4.13827 12.2253C4.1125 12.3184 4.07148 12.4343 4.01418 12.5713C3.89929 12.846 3.73732 13.1623 3.55819 13.4814C3.2214 14.0813 3.05164 14.7963 3.17909 15.4761C3.31349 16.1931 3.77499 16.8183 4.56317 17.1184C5.26726 17.3865 6.20448 17.6317 7.44217 17.7776C7.47162 17.8031 7.50644 17.8323 7.54645 17.8643C7.67169 17.9645 7.85062 18.0944 8.07675 18.2236C8.52556 18.4801 9.18914 18.7501 10.0006 18.7501C10.8121 18.7501 11.4757 18.4801 11.9245 18.2236C12.1506 18.0944 12.3295 17.9645 12.4548 17.8643C12.4948 17.8323 12.5296 17.8031 12.5591 17.7776C13.7968 17.6317 14.734 17.3865 15.4381 17.1184C16.2262 16.8183 16.6877 16.1931 16.8221 15.4761C16.9496 14.7963 16.7798 14.0813 16.443 13.4814C16.2639 13.1623 16.1019 12.846 15.9871 12.5713C15.9298 12.4343 15.8887 12.3184 15.863 12.2253C15.8503 12.1794 15.8426 12.1437 15.8382 12.1175C15.8346 12.0956 15.834 12.0846 15.834 12.083C15.834 12.0829 15.834 12.083 15.834 12.083L15.834 12.076V8.74957C15.834 5.81075 13.6608 3.38009 10.834 2.97581V2.50008ZM5.83395 8.74917C5.83395 6.44818 7.69923 4.58341 10.0006 4.58341C12.3019 4.58341 14.1673 6.44849 14.1673 8.74957V12.0834C14.1673 12.4692 14.3118 12.8853 14.4494 13.2143C14.5989 13.5718 14.7948 13.9501 14.9897 14.2972C15.1792 14.6348 15.2244 14.9537 15.184 15.169C15.1506 15.3472 15.0615 15.4784 14.845 15.5609C13.9493 15.9019 12.4372 16.2501 10.0006 16.2501C7.56401 16.2501 6.05196 15.9019 5.15624 15.5609C4.93969 15.4784 4.85063 15.3472 4.81722 15.169C4.77686 14.9537 4.82205 14.6348 5.01153 14.2972C5.2064 13.9501 5.40231 13.5718 5.5518 13.2143C5.68941 12.8853 5.83395 12.4692 5.83395 12.0834V8.74917Z" fill="#98A2B3"/>
</svg>
