<svg width="29" height="28" viewBox="0 0 29 28" fill="none" xmlns="http://www.w3.org/2000/svg">
<path d="M11.5841 2.04102C11.0992 2.04102 10.6648 2.341 10.4931 2.79451L10.2252 3.50183C9.65098 3.44446 9.12193 3.38719 8.69366 3.33911C8.37352 3.30316 8.11034 3.27242 7.92754 3.2507L7.71666 3.22539L7.64505 3.21664C7.00561 3.13746 6.42213 3.59153 6.34295 4.23097C6.26376 4.87042 6.71795 5.45299 7.35739 5.53217L7.43532 5.5417L7.65229 5.56774C7.83936 5.58997 8.10754 5.62129 8.4333 5.65787C9.08426 5.73096 9.96777 5.82531 10.8947 5.90991C12.1451 6.02403 13.5158 6.12435 14.5008 6.12435C15.4858 6.12435 16.8564 6.02403 18.1068 5.90991C19.0338 5.82531 19.9173 5.73096 20.5682 5.65787C20.894 5.62129 21.1622 5.58997 21.3493 5.56774L21.5662 5.5417L21.644 5.53219C22.2834 5.453 22.7378 4.87042 22.6586 4.23097C22.5794 3.59153 21.9969 3.13735 21.3574 3.21652L21.2849 3.22539L21.074 3.2507C20.8912 3.27242 20.628 3.30316 20.3079 3.33911C19.8796 3.38719 19.3506 3.44446 18.7764 3.50183L18.5085 2.79451C18.3368 2.341 17.9024 2.04102 17.4174 2.04102H11.5841Z" fill="#D42620"/>
<path d="M13.3341 13.7077C13.3341 13.0633 12.8118 12.541 12.1674 12.541C11.5231 12.541 11.0008 13.0633 11.0008 13.7077V19.541C11.0008 20.1853 11.5231 20.7077 12.1674 20.7077C12.8118 20.7077 13.3341 20.1853 13.3341 19.541V13.7077Z" fill="#D42620"/>
<path d="M16.8341 12.541C17.4784 12.541 18.0008 13.0633 18.0008 13.7077V19.541C18.0008 20.1853 17.4784 20.7077 16.8341 20.7077C16.1898 20.7077 15.6674 20.1853 15.6674 19.541V13.7077C15.6674 13.0633 16.1898 12.541 16.8341 12.541Z" fill="#D42620"/>
<path fill-rule="evenodd" clip-rule="evenodd" d="M22.562 9.39167C22.6678 7.91144 21.3916 6.72475 19.9413 6.89236C18.4572 7.06387 16.1672 7.29102 14.5008 7.29102C12.8344 7.29102 10.5443 7.06387 9.06026 6.89236C7.60995 6.72475 6.33378 7.91144 6.43951 9.39167L7.43904 23.385C7.5148 24.4457 8.30491 25.3426 9.38919 25.5057C10.5519 25.6805 12.6854 25.9598 14.5021 25.9577C16.2965 25.9556 18.4387 25.6775 19.6065 25.5043C20.6927 25.3431 21.4867 24.4457 21.5627 23.3818L22.562 9.39167ZM20.2092 9.21027C20.2132 9.2098 20.2163 9.21008 20.2163 9.21008L20.2194 9.21078C20.222 9.21168 20.226 9.21381 20.2301 9.21762C20.2327 9.22014 20.2347 9.22322 20.2347 9.22322L20.2346 9.22542L19.2364 23.2003C18.0806 23.3711 16.0997 23.6225 14.4994 23.6243C12.8818 23.6262 10.9131 23.3745 9.76529 23.2026L8.76692 9.22542L8.76683 9.22322C8.76683 9.22322 8.76881 9.22014 8.77147 9.21762C8.7755 9.21381 8.77956 9.21168 8.78216 9.21078L8.78524 9.21008C8.78524 9.21008 8.78834 9.2098 8.79239 9.21027C10.2791 9.38208 12.6871 9.62435 14.5008 9.62435C16.3144 9.62435 18.7225 9.38208 20.2092 9.21027Z" fill="#D42620"/>
</svg>
