<svg width="20" height="21" viewBox="0 0 20 21" fill="none" xmlns="http://www.w3.org/2000/svg">
<path d="M6.66667 5.5026C6.20643 5.5026 5.83333 5.8757 5.83333 6.33594C5.83333 6.79617 6.20643 7.16927 6.66667 7.16927H13.3333C13.7936 7.16927 14.1667 6.79617 14.1667 6.33594C14.1667 5.8757 13.7936 5.5026 13.3333 5.5026H6.66667Z" fill="white"/>
<path d="M5.83333 10.5026C5.83333 10.0424 6.20643 9.66927 6.66667 9.66927H13.3333C13.7936 9.66927 14.1667 10.0424 14.1667 10.5026C14.1667 10.9628 13.7936 11.3359 13.3333 11.3359H6.66667C6.20643 11.3359 5.83333 10.9628 5.83333 10.5026Z" fill="white"/>
<path d="M6.66667 13.8359C6.20643 13.8359 5.83333 14.209 5.83333 14.6693C5.83333 15.1295 6.20643 15.5026 6.66667 15.5026H8.88889C9.34913 15.5026 9.72222 15.1295 9.72222 14.6693C9.72222 14.209 9.34913 13.8359 8.88889 13.8359H6.66667Z" fill="white"/>
<path d="M11.1111 13.8359C10.6509 13.8359 10.2778 14.209 10.2778 14.6693C10.2778 15.1295 10.6509 15.5026 11.1111 15.5026H13.3333C13.7936 15.5026 14.1667 15.1295 14.1667 14.6693C14.1667 14.209 13.7936 13.8359 13.3333 13.8359H11.1111Z" fill="white"/>
<path fill-rule="evenodd" clip-rule="evenodd" d="M12.9015 18.7536C12.9952 18.7771 13.0861 18.8107 13.1724 18.8538C15.1607 19.848 17.5 18.4022 17.5 16.1793V4.66927C17.5 2.82832 16.0076 1.33594 14.1667 1.33594H5.83333C3.99238 1.33594 2.5 2.82832 2.5 4.66927V16.1793C2.5 18.4022 4.83933 19.848 6.82757 18.8538C6.91395 18.8107 7.00479 18.7771 7.09848 18.7536L9.59577 18.1293C9.86117 18.063 10.1388 18.063 10.4042 18.1293L12.9015 18.7536ZM4.16667 4.66927C4.16667 3.7488 4.91286 3.0026 5.83333 3.0026H14.1667C15.0871 3.0026 15.8333 3.7488 15.8333 4.66927V16.1793C15.8333 17.1632 14.7979 17.8032 13.9178 17.3631C13.7226 17.2656 13.5174 17.1896 13.3057 17.1367L10.8085 16.5124C10.2777 16.3797 9.72235 16.3797 9.19155 16.5124L6.69426 17.1367C6.48259 17.1896 6.27736 17.2656 6.08221 17.3631C5.20214 17.8032 4.16667 17.1632 4.16667 16.1793V4.66927Z" fill="white"/>
</svg>
