<svg width="32" height="32" viewBox="0 0 32 32" fill="none" xmlns="http://www.w3.org/2000/svg">
<g id="icon / box">
<path id="icon" fill-rule="evenodd" clip-rule="evenodd" d="M1.18449 9.20663C1.21522 8.95974 1.26373 8.62977 1.36732 8.32656C1.43087 8.01816 1.57077 7.7717 1.69375 7.60038C1.86275 7.36494 2.06971 7.17276 2.25955 7.02063C2.6397 6.71599 3.12923 6.43227 3.64226 6.17295C4.68172 5.64755 6.05857 5.10366 7.47487 4.59732C10.3211 3.57977 13.5071 2.6508 14.9069 2.25389C15.636 2.04719 16.3936 2.05698 17.1157 2.27954C18.5104 2.70944 21.6898 3.70958 24.5286 4.74988C25.9423 5.26794 27.3075 5.80891 28.333 6.30416C28.8388 6.54844 29.3141 6.80615 29.6809 7.06877C29.8617 7.19816 30.0667 7.36413 30.2394 7.56824C30.3542 7.70394 30.5395 7.9553 30.6229 8.30239C30.7323 8.61212 30.7826 8.95314 30.8142 9.20659C30.8618 9.58935 30.8945 10.0516 30.917 10.5574C30.9621 11.5725 30.9697 12.8469 30.9565 14.1834C30.93 16.8609 30.819 19.8591 30.742 21.6835C30.6756 23.2549 29.6894 24.6262 28.2403 25.2059L17.4849 29.508C16.5312 29.8895 15.4674 29.8895 14.5137 29.508L3.75838 25.2059C2.30926 24.6262 1.32301 23.2548 1.25667 21.6835C1.17964 19.8591 1.06868 16.8608 1.04221 14.1834C1.029 12.8469 1.03661 11.5725 1.08173 10.5574C1.10421 10.0516 1.13685 9.58938 1.18449 9.20663ZM14.6659 26.6968V14.8988C14.6159 14.8811 14.5662 14.8623 14.5168 14.8426L3.75229 10.5368L3.74576 10.6758C3.70383 11.6193 3.69571 12.8378 3.70875 14.157C3.73479 16.7909 3.84429 19.755 3.92096 21.571C3.94253 22.0818 4.26289 22.5356 4.74875 22.7299L14.6659 26.6968ZM17.3326 26.6969V14.8989C17.3826 14.8811 17.4324 14.8624 17.4819 14.8426L28.2464 10.5367L28.2529 10.6758C28.2949 11.6193 28.303 12.8378 28.29 14.157C28.2639 16.7909 28.1544 19.755 28.0777 21.571C28.0561 22.0818 27.7357 22.5356 27.2499 22.7299L17.3326 26.6969ZM23.6111 7.25372C24.6675 7.64087 25.6518 8.0252 26.4605 8.37902L22.6878 9.88808L12.8954 5.62575C14.0327 5.2788 15.0095 4.9966 15.6343 4.81943C15.8659 4.75377 16.0981 4.75637 16.3302 4.8279C17.7142 5.25448 20.8397 6.23813 23.6111 7.25372ZM9.06244 6.86573L19.2059 11.2809L16.4915 12.3666C16.1736 12.4938 15.825 12.4938 15.5071 12.3666L5.35713 8.30663C6.18733 7.9246 7.23461 7.51517 8.37257 7.10835C8.60048 7.02687 8.83083 6.94591 9.06244 6.86573Z" fill="#344054"/>
</g>
</svg>
