<svg width="20" height="20" viewBox="0 0 20 20" fill="none" xmlns="http://www.w3.org/2000/svg">
<path d="M7.91634 5.83333C7.91634 6.29357 7.54324 6.66667 7.08301 6.66667H6.24967C5.78944 6.66667 5.41634 6.29357 5.41634 5.83333C5.41634 5.3731 5.78944 5 6.24967 5H7.08301C7.54324 5 7.91634 5.3731 7.91634 5.83333Z" fill="#98A2B3"/>
<path d="M10.4163 9.16667C10.8766 9.16667 11.2497 8.79357 11.2497 8.33333C11.2497 7.8731 10.8766 7.5 10.4163 7.5H9.58301C9.12277 7.5 8.74967 7.8731 8.74967 8.33333C8.74967 8.79357 9.12277 9.16667 9.58301 9.16667H10.4163Z" fill="#98A2B3"/>
<path d="M7.91634 10.8333C7.91634 11.2936 7.54324 11.6667 7.08301 11.6667H6.24967C5.78944 11.6667 5.41634 11.2936 5.41634 10.8333C5.41634 10.3731 5.78944 10 6.24967 10H7.08301C7.54324 10 7.91634 10.3731 7.91634 10.8333Z" fill="#98A2B3"/>
<path d="M10.4163 6.66667C10.8766 6.66667 11.2497 6.29357 11.2497 5.83333C11.2497 5.3731 10.8766 5 10.4163 5H9.58301C9.12277 5 8.74967 5.3731 8.74967 5.83333C8.74967 6.29357 9.12277 6.66667 9.58301 6.66667H10.4163Z" fill="#98A2B3"/>
<path d="M7.91634 8.33333C7.91634 8.79357 7.54324 9.16667 7.08301 9.16667H6.24967C5.78944 9.16667 5.41634 8.79357 5.41634 8.33333C5.41634 7.8731 5.78944 7.5 6.24967 7.5H7.08301C7.54324 7.5 7.91634 7.8731 7.91634 8.33333Z" fill="#98A2B3"/>
<path d="M10.4163 11.6667C10.8766 11.6667 11.2497 11.2936 11.2497 10.8333C11.2497 10.3731 10.8766 10 10.4163 10H9.58301C9.12277 10 8.74967 10.3731 8.74967 10.8333C8.74967 11.2936 9.12277 11.6667 9.58301 11.6667H10.4163Z" fill="#98A2B3"/>
<path d="M7.91634 13.3333C7.91634 13.7936 7.54324 14.1667 7.08301 14.1667H6.24967C5.78944 14.1667 5.41634 13.7936 5.41634 13.3333C5.41634 12.8731 5.78944 12.5 6.24967 12.5H7.08301C7.54324 12.5 7.91634 12.8731 7.91634 13.3333Z" fill="#98A2B3"/>
<path d="M10.4163 14.1667C10.8766 14.1667 11.2497 13.7936 11.2497 13.3333C11.2497 12.8731 10.8766 12.5 10.4163 12.5H9.58301C9.12277 12.5 8.74967 12.8731 8.74967 13.3333C8.74967 13.7936 9.12277 14.1667 9.58301 14.1667H10.4163Z" fill="#98A2B3"/>
<path fill-rule="evenodd" clip-rule="evenodd" d="M3.33301 4.16667C3.33301 3.24619 4.0792 2.5 4.99967 2.5H11.6663C12.5868 2.5 13.333 3.24619 13.333 4.16667V7.5H15.833C16.7535 7.5 17.4997 8.24619 17.4997 9.16667V15.8333H18.333C18.7932 15.8333 19.1663 16.2064 19.1663 16.6667C19.1663 17.1269 18.7932 17.5 18.333 17.5H1.66634C1.2061 17.5 0.833008 17.1269 0.833008 16.6667C0.833008 16.2064 1.2061 15.8333 1.66634 15.8333H3.33301V4.16667ZM4.99967 15.8333H11.6663V4.16667H4.99967V15.8333ZM15.833 12.5V11.6667H15.4163C14.9561 11.6667 14.583 11.2936 14.583 10.8333C14.583 10.3731 14.9561 10 15.4163 10H15.833V9.16667H13.333V15.8333H15.833V14.1667H15.4163C14.9561 14.1667 14.583 13.7936 14.583 13.3333C14.583 12.8731 14.9561 12.5 15.4163 12.5H15.833Z" fill="#98A2B3"/>
</svg>
