<svg width="21" height="20" viewBox="0 0 21 20" fill="none" xmlns="http://www.w3.org/2000/svg">
<path d="M8.41671 5.83333C8.41671 6.29357 8.04361 6.66667 7.58337 6.66667H6.75004C6.2898 6.66667 5.91671 6.29357 5.91671 5.83333C5.91671 5.3731 6.2898 5 6.75004 5H7.58337C8.04361 5 8.41671 5.3731 8.41671 5.83333Z" fill="#98A2B3"/>
<path d="M10.9167 9.16667C11.3769 9.16667 11.75 8.79357 11.75 8.33333C11.75 7.8731 11.3769 7.5 10.9167 7.5H10.0834C9.62314 7.5 9.25004 7.8731 9.25004 8.33333C9.25004 8.79357 9.62314 9.16667 10.0834 9.16667H10.9167Z" fill="#98A2B3"/>
<path d="M8.41671 10.8333C8.41671 11.2936 8.04361 11.6667 7.58337 11.6667H6.75004C6.2898 11.6667 5.91671 11.2936 5.91671 10.8333C5.91671 10.3731 6.2898 10 6.75004 10H7.58337C8.04361 10 8.41671 10.3731 8.41671 10.8333Z" fill="#98A2B3"/>
<path d="M10.9167 6.66667C11.3769 6.66667 11.75 6.29357 11.75 5.83333C11.75 5.3731 11.3769 5 10.9167 5H10.0834C9.62314 5 9.25004 5.3731 9.25004 5.83333C9.25004 6.29357 9.62314 6.66667 10.0834 6.66667H10.9167Z" fill="#98A2B3"/>
<path d="M8.41671 8.33333C8.41671 8.79357 8.04361 9.16667 7.58337 9.16667H6.75004C6.2898 9.16667 5.91671 8.79357 5.91671 8.33333C5.91671 7.8731 6.2898 7.5 6.75004 7.5H7.58337C8.04361 7.5 8.41671 7.8731 8.41671 8.33333Z" fill="#98A2B3"/>
<path d="M10.9167 11.6667C11.3769 11.6667 11.75 11.2936 11.75 10.8333C11.75 10.3731 11.3769 10 10.9167 10H10.0834C9.62314 10 9.25004 10.3731 9.25004 10.8333C9.25004 11.2936 9.62314 11.6667 10.0834 11.6667H10.9167Z" fill="#98A2B3"/>
<path d="M8.41671 13.3333C8.41671 13.7936 8.04361 14.1667 7.58337 14.1667H6.75004C6.2898 14.1667 5.91671 13.7936 5.91671 13.3333C5.91671 12.8731 6.2898 12.5 6.75004 12.5H7.58337C8.04361 12.5 8.41671 12.8731 8.41671 13.3333Z" fill="#98A2B3"/>
<path d="M10.9167 14.1667C11.3769 14.1667 11.75 13.7936 11.75 13.3333C11.75 12.8731 11.3769 12.5 10.9167 12.5H10.0834C9.62314 12.5 9.25004 12.8731 9.25004 13.3333C9.25004 13.7936 9.62314 14.1667 10.0834 14.1667H10.9167Z" fill="#98A2B3"/>
<path fill-rule="evenodd" clip-rule="evenodd" d="M3.83337 4.16667C3.83337 3.24619 4.57957 2.5 5.50004 2.5H12.1667C13.0872 2.5 13.8334 3.24619 13.8334 4.16667V7.5H16.3334C17.2538 7.5 18 8.24619 18 9.16667V15.8333H18.8334C19.2936 15.8333 19.6667 16.2064 19.6667 16.6667C19.6667 17.1269 19.2936 17.5 18.8334 17.5H2.16671C1.70647 17.5 1.33337 17.1269 1.33337 16.6667C1.33337 16.2064 1.70647 15.8333 2.16671 15.8333H3.83337V4.16667ZM5.50004 15.8333H12.1667V4.16667H5.50004V15.8333ZM16.3334 12.5V11.6667H15.9167C15.4565 11.6667 15.0834 11.2936 15.0834 10.8333C15.0834 10.3731 15.4565 10 15.9167 10H16.3334V9.16667H13.8334V15.8333H16.3334V14.1667H15.9167C15.4565 14.1667 15.0834 13.7936 15.0834 13.3333C15.0834 12.8731 15.4565 12.5 15.9167 12.5H16.3334Z" fill="#98A2B3"/>
</svg>
