<svg width="21" height="20" viewBox="0 0 21 20" fill="none" xmlns="http://www.w3.org/2000/svg">
<path d="M4.66699 14.5833C4.66699 14.1231 5.04009 13.75 5.50033 13.75H11.3337C11.7939 13.75 12.167 14.1231 12.167 14.5833C12.167 15.0436 11.7939 15.4167 11.3337 15.4167H5.50033C5.04009 15.4167 4.66699 15.0436 4.66699 14.5833Z" fill="#175CFF"/>
<path d="M13.8337 13.75C13.3734 13.75 13.0003 14.1231 13.0003 14.5833C13.0003 15.0436 13.3734 15.4167 13.8337 15.4167H15.5003C15.9606 15.4167 16.3337 15.0436 16.3337 14.5833C16.3337 14.1231 15.9606 13.75 15.5003 13.75H13.8337Z" fill="#175CFF"/>
<path fill-rule="evenodd" clip-rule="evenodd" d="M7.16699 1.25C7.62723 1.25 8.00033 1.6231 8.00033 2.08333V2.91667H13.0003V2.08333C13.0003 1.6231 13.3734 1.25 13.8337 1.25C14.2939 1.25 14.667 1.6231 14.667 2.08333V2.91667H15.5003C17.3413 2.91667 18.8337 4.40905 18.8337 6.25V15.4167C18.8337 17.2576 17.3413 18.75 15.5003 18.75H5.50033C3.65938 18.75 2.16699 17.2576 2.16699 15.4167V6.25C2.16699 4.40905 3.65938 2.91667 5.50033 2.91667H6.33366V2.08333C6.33366 1.6231 6.70676 1.25 7.16699 1.25ZM13.0003 4.58333C13.0003 5.04357 13.3734 5.41667 13.8337 5.41667C14.2939 5.41667 14.667 5.04357 14.667 4.58333H15.5003C16.4208 4.58333 17.167 5.32953 17.167 6.25V6.66667H3.83366V6.25C3.83366 5.32953 4.57985 4.58333 5.50033 4.58333H6.33366C6.33366 5.04357 6.70676 5.41667 7.16699 5.41667C7.62723 5.41667 8.00033 5.04357 8.00033 4.58333H13.0003ZM17.167 8.33333H3.83366V15.4167C3.83366 16.3371 4.57985 17.0833 5.50033 17.0833H15.5003C16.4208 17.0833 17.167 16.3371 17.167 15.4167V8.33333Z" fill="#175CFF"/>
</svg>
