<svg width="32" height="33" viewBox="0 0 32 33" fill="none" xmlns="http://www.w3.org/2000/svg">
<g id="fluent:call-end-24-regular">
<path id="Vector" d="M29.2052 18.1023L28.9492 19.1903C28.7456 20.0572 28.2335 20.8203 27.5085 21.3372C26.7835 21.8542 25.8951 22.0896 25.0092 21.9997L22.6706 21.7623C21.9086 21.6854 21.1899 21.3718 20.6153 20.8655C20.0407 20.3593 19.639 19.6858 19.4666 18.9397L18.9466 16.6917C18.9366 16.6485 18.9182 16.6078 18.8923 16.5718C18.8664 16.5359 18.8337 16.5055 18.7959 16.4823C18.3679 16.2197 17.4186 16.0557 15.9999 16.0557C14.9506 16.0557 14.1519 16.145 13.6172 16.3077C13.4306 16.365 13.2999 16.421 13.2172 16.4623L13.0959 16.5263L13.0772 16.5797L12.5319 18.9397C12.3599 19.6857 11.9587 20.3591 11.3846 20.8656C10.8105 21.372 10.0922 21.6861 9.33058 21.7637L7.00258 21.9997C6.11955 22.0893 5.23398 21.8556 4.51017 21.3419C3.78636 20.8283 3.27344 20.0695 3.06658 19.2063L2.80658 18.117C2.59823 17.245 2.62815 16.3331 2.89322 15.4767C3.15829 14.6202 3.64875 13.8508 4.31325 13.249C6.84524 10.9517 10.7519 9.83301 15.9999 9.83301C21.2559 9.83301 25.1666 10.9557 27.6999 13.2597C28.3217 13.825 28.7909 14.538 29.0643 15.3327C29.3377 16.1273 29.4063 16.9781 29.2639 17.8063L29.2052 18.1023ZM27.3026 17.417C27.3784 16.9271 27.3316 16.426 27.1664 15.9585C27.0012 15.4911 26.7228 15.0718 26.3559 14.7383C24.2466 12.821 20.8052 11.833 15.9999 11.833C11.2026 11.833 7.76391 12.8183 5.65325 14.729C5.25492 15.0902 4.96098 15.5517 4.80218 16.0654C4.64338 16.5791 4.62556 17.1261 4.75058 17.649L5.01058 18.7397C5.10441 19.1322 5.33751 19.4774 5.66659 19.7111C5.99566 19.9448 6.39836 20.0511 6.79991 20.0103L9.12791 19.773C9.4739 19.7377 9.80017 19.5951 10.061 19.365C10.3219 19.135 10.5042 18.8292 10.5826 18.4903L11.1466 16.0637L11.2039 15.8823C11.7039 14.5517 13.3239 14.0557 15.9999 14.0557C17.7559 14.0557 19.0199 14.2743 19.8399 14.7757C20.3746 15.1023 20.7559 15.6317 20.8959 16.2423L21.4159 18.489C21.5759 19.185 22.1612 19.701 22.8706 19.773L25.2106 20.0103C25.6133 20.0512 26.017 19.9441 26.3465 19.709C26.676 19.474 26.9088 19.127 27.0012 18.733L27.2572 17.645L27.3026 17.417Z" fill="white"/>
</g>
</svg>
