<svg width="18" height="18" viewBox="0 0 18 18" fill="none" xmlns="http://www.w3.org/2000/svg">
<path d="M2.40114 0.514853C1.88044 -0.00584599 1.03622 -0.00584639 0.515524 0.514853C-0.00517476 1.03555 -0.0051748 1.87977 0.515524 2.40047L7.11519 9.00013L0.515524 15.5998C-0.0051748 16.1205 -0.00517476 16.9647 0.515524 17.4854C1.03622 18.0061 1.88044 18.0061 2.40114 17.4854L9.00081 10.8858L15.6005 17.4854C16.1212 18.0061 16.9654 18.0061 17.4861 17.4854C18.0068 16.9647 18.0068 16.1205 17.4861 15.5998L10.8864 9.00013L17.4861 2.40047C18.0068 1.87977 18.0068 1.03555 17.4861 0.514853C16.9654 -0.00584595 16.1212 -0.00584547 15.6005 0.514853L9.00081 7.11452L2.40114 0.514853Z" fill="#98A2B3"/>
</svg>
