<svg width="20" height="20" viewBox="0 0 20 20" fill="none" xmlns="http://www.w3.org/2000/svg">
<path fill-rule="evenodd" clip-rule="evenodd" d="M2.08333 0.835938C1.6231 0.835938 1.25 1.20903 1.25 1.66927C1.25 2.12951 1.6231 2.5026 2.08333 2.5026C2.69035 2.5026 3.22066 2.94367 3.32984 3.56427L3.90141 6.81318L3.90192 6.81605L4.26813 8.86267C4.49716 10.1427 4.68006 11.1649 4.9113 11.9769C5.14977 12.8143 5.45884 13.5033 5.98376 14.0856C6.3443 14.4856 6.76614 14.828 7.23364 15.1012C7.91088 15.497 8.65747 15.6712 9.54511 15.7547C10.4099 15.836 11.4817 15.8359 12.8319 15.8359H13.2424C13.8429 15.8359 14.338 15.836 14.7459 15.8063C15.1708 15.7754 15.5575 15.7095 15.9327 15.5495C16.4799 15.3162 16.9591 14.9495 17.3221 14.4816C17.5727 14.1585 17.7291 13.8024 17.8574 13.4045C17.9798 13.0248 18.0915 12.5568 18.2256 11.9944L18.2425 11.9235C18.4465 11.0688 18.6131 10.3705 18.6937 9.80032C18.7767 9.2136 18.7858 8.66177 18.5969 8.12986C18.3313 7.38211 17.8086 6.75259 17.1246 6.34248C16.6428 6.05358 16.098 5.94054 15.4935 5.8876C14.9033 5.83592 14.1638 5.83593 13.2512 5.83594H5.42175L4.9713 3.2755C4.72412 1.87047 3.51195 0.835938 2.08333 0.835938ZM13.2122 7.5026C14.173 7.5026 14.8393 7.50336 15.3481 7.54792C15.851 7.59196 16.1024 7.67287 16.2676 7.7719C16.628 7.988 16.8934 8.31337 17.0264 8.68769C17.0843 8.85088 17.1108 9.09099 17.0435 9.56685C16.9751 10.0503 16.8276 10.6723 16.6118 11.5769C16.4684 12.1778 16.3713 12.5824 16.2711 12.8931C16.1746 13.1924 16.0921 13.348 16.0052 13.46C15.8193 13.6997 15.57 13.8923 15.2791 14.0163C15.139 14.0761 14.955 14.12 14.6249 14.144C14.2847 14.1688 13.8504 14.1693 13.2122 14.1693H12.874C11.4724 14.1693 10.4788 14.1684 9.70108 14.0953C8.93732 14.0235 8.45978 13.8873 8.0746 13.6622C7.75362 13.4746 7.46605 13.2408 7.22168 12.9697C6.93152 12.6478 6.71522 12.2262 6.51424 11.5205C6.30866 10.7985 6.13956 9.85911 5.90092 8.52542L5.7179 7.5026H13.2122Z" fill="#98A2B3"/>
<path d="M8.75 17.2943C8.75 17.8696 8.28363 18.3359 7.70833 18.3359C7.13304 18.3359 6.66667 17.8696 6.66667 17.2943C6.66667 16.719 7.13304 16.2526 7.70833 16.2526C8.28363 16.2526 8.75 16.719 8.75 17.2943Z" fill="#98A2B3"/>
<path d="M15.2083 18.3359C15.7836 18.3359 16.25 17.8696 16.25 17.2943C16.25 16.719 15.7836 16.2526 15.2083 16.2526C14.633 16.2526 14.1667 16.719 14.1667 17.2943C14.1667 17.8696 14.633 18.3359 15.2083 18.3359Z" fill="#98A2B3"/>
</svg>
