<svg width="20" height="20" viewBox="0 0 20 20" fill="none" xmlns="http://www.w3.org/2000/svg">
<path d="M4.16658 5.41732C3.70635 5.41732 3.33325 5.79041 3.33325 6.25065C3.33325 6.71089 3.70635 7.08398 4.16658 7.08398H5.83325C6.29349 7.08398 6.66658 6.71089 6.66658 6.25065C6.66658 5.79041 6.29349 5.41732 5.83325 5.41732H4.16658Z" fill="#175CFF"/>
<path d="M13.3333 6.25065C13.3333 5.79041 13.7063 5.41732 14.1666 5.41732H15.8333C16.2935 5.41732 16.6666 5.79041 16.6666 6.25065C16.6666 6.71089 16.2935 7.08398 15.8333 7.08398H14.1666C13.7063 7.08398 13.3333 6.71089 13.3333 6.25065Z" fill="#175CFF"/>
<path d="M4.16658 12.9173C3.70635 12.9173 3.33325 13.2904 3.33325 13.7507C3.33325 14.2109 3.70635 14.584 4.16658 14.584H5.83325C6.29349 14.584 6.66658 14.2109 6.66658 13.7507C6.66658 13.2904 6.29349 12.9173 5.83325 12.9173H4.16658Z" fill="#175CFF"/>
<path d="M13.3333 13.7507C13.3333 13.2904 13.7063 12.9173 14.1666 12.9173H15.8333C16.2935 12.9173 16.6666 13.2904 16.6666 13.7507C16.6666 14.2109 16.2935 14.584 15.8333 14.584H14.1666C13.7063 14.584 13.3333 14.2109 13.3333 13.7507Z" fill="#175CFF"/>
<path fill-rule="evenodd" clip-rule="evenodd" d="M9.99992 7.50065C11.3806 7.50065 12.4999 8.61994 12.4999 10.0007C12.4999 11.3814 11.3806 12.5007 9.99992 12.5007C8.61921 12.5007 7.49992 11.3814 7.49992 10.0007C7.49992 8.61994 8.61921 7.50065 9.99992 7.50065ZM10.8333 10.0007C10.8333 9.54041 10.4602 9.16732 9.99992 9.16732C9.53968 9.16732 9.16658 9.54041 9.16658 10.0007C9.16658 10.4609 9.53968 10.834 9.99992 10.834C10.4602 10.834 10.8333 10.4609 10.8333 10.0007Z" fill="#175CFF"/>
<path fill-rule="evenodd" clip-rule="evenodd" d="M4.16658 3.33398C2.32564 3.33398 0.833252 4.82637 0.833252 6.66732V13.334C0.833252 15.1749 2.32564 16.6673 4.16658 16.6673H15.8333C17.6742 16.6673 19.1666 15.1749 19.1666 13.334V6.66732C19.1666 4.82637 17.6742 3.33398 15.8333 3.33398H4.16658ZM2.49992 6.66732C2.49992 5.74684 3.24611 5.00065 4.16658 5.00065H15.8333C16.7537 5.00065 17.4999 5.74684 17.4999 6.66732V13.334C17.4999 14.2545 16.7537 15.0007 15.8333 15.0007H4.16658C3.24611 15.0007 2.49992 14.2545 2.49992 13.334V6.66732Z" fill="#175CFF"/>
</svg>
