<svg width="20" height="21" viewBox="0 0 20 21" fill="none" xmlns="http://www.w3.org/2000/svg">
<g id="icon / chats">
<g id="icon">
<path d="M4.99984 12.9993C4.5396 12.9993 4.1665 12.6263 4.1665 12.166C4.1665 11.7058 4.5396 11.3327 4.99984 11.3327C5.46007 11.3327 5.83317 11.7058 5.83317 12.166C5.83317 12.6263 5.46007 12.9993 4.99984 12.9993Z" fill="white"/>
<path d="M7.49984 12.166C7.49984 12.6263 7.87293 12.9993 8.33317 12.9993C8.79341 12.9993 9.1665 12.6263 9.1665 12.166C9.1665 11.7058 8.79341 11.3327 8.33317 11.3327C7.87293 11.3327 7.49984 11.7058 7.49984 12.166Z" fill="white"/>
<path d="M11.6665 12.9993C11.2063 12.9993 10.8332 12.6263 10.8332 12.166C10.8332 11.7058 11.2063 11.3327 11.6665 11.3327C12.1267 11.3327 12.4998 11.7058 12.4998 12.166C12.4998 12.6263 12.1267 12.9993 11.6665 12.9993Z" fill="white"/>
<path fill-rule="evenodd" clip-rule="evenodd" d="M17.0649 11.706L14.9969 11.9645C14.9988 12.0315 14.9998 12.0986 14.9998 12.166C14.9998 15.8479 12.0151 18.8327 8.33317 18.8327C7.78239 18.8327 7.24614 18.7657 6.73256 18.6391L3.15015 18.1913C2.26906 18.0812 1.65673 17.2598 1.80271 16.384L2.02246 15.0655L1.8601 13.7666C1.73347 13.2531 1.6665 12.7168 1.6665 12.166C1.6665 8.48412 4.65127 5.49935 8.33317 5.49935C8.42787 5.49935 8.52211 5.50133 8.61586 5.50524C9.30061 3.56055 11.1531 2.16602 13.3332 2.16602C16.0946 2.16602 18.3332 4.40459 18.3332 7.16602C18.3332 7.57388 18.2842 7.9714 18.1913 8.35256L18.0814 9.23217L18.2326 10.1397C18.3592 10.8988 17.8285 11.6106 17.0649 11.706ZM13.3332 3.83268C15.1741 3.83268 16.6665 5.32507 16.6665 7.16602C16.6665 7.45272 16.6305 7.7298 16.5632 7.99352L16.5502 8.04427L16.4219 9.07065C16.4057 9.20055 16.4084 9.33211 16.4299 9.46124L16.5351 10.0926L14.7401 10.317C14.1185 8.15936 12.4365 6.45102 10.2948 5.79261C10.8182 4.63649 11.9826 3.83268 13.3332 3.83268ZM8.33317 7.16602C5.57175 7.16602 3.33317 9.40459 3.33317 12.166C3.33317 12.5954 3.38711 13.011 3.48816 13.407L3.50112 13.4577L3.67813 14.8738C3.69687 15.0237 3.69377 15.1755 3.66894 15.3245L3.46454 16.551L7.04147 16.9981L7.09223 17.011C7.48815 17.1121 7.90376 17.166 8.33317 17.166C11.0946 17.166 13.3332 14.9274 13.3332 12.166C13.3332 9.40459 11.0946 7.16602 8.33317 7.16602Z" fill="white"/>
</g>
</g>
</svg>
