<svg width="20" height="21" viewBox="0 0 20 21" fill="none" xmlns="http://www.w3.org/2000/svg">
<g id="icon / chats">
<g id="icon">
<path d="M5.00008 12.9993C4.53984 12.9993 4.16675 12.6263 4.16675 12.166C4.16675 11.7058 4.53984 11.3327 5.00008 11.3327C5.46032 11.3327 5.83342 11.7058 5.83342 12.166C5.83342 12.6263 5.46032 12.9993 5.00008 12.9993Z" fill="#175CFF"/>
<path d="M7.50008 12.166C7.50008 12.6263 7.87318 12.9993 8.33342 12.9993C8.79365 12.9993 9.16675 12.6263 9.16675 12.166C9.16675 11.7058 8.79365 11.3327 8.33342 11.3327C7.87318 11.3327 7.50008 11.7058 7.50008 12.166Z" fill="#175CFF"/>
<path d="M11.6667 12.9993C11.2065 12.9993 10.8334 12.6263 10.8334 12.166C10.8334 11.7058 11.2065 11.3327 11.6667 11.3327C12.127 11.3327 12.5001 11.7058 12.5001 12.166C12.5001 12.6263 12.127 12.9993 11.6667 12.9993Z" fill="#175CFF"/>
<path fill-rule="evenodd" clip-rule="evenodd" d="M17.0651 11.706L14.9971 11.9645C14.9991 12.0315 15.0001 12.0986 15.0001 12.166C15.0001 15.8479 12.0153 18.8327 8.33342 18.8327C7.78264 18.8327 7.24638 18.7657 6.7328 18.6391L3.15039 18.1913C2.2693 18.0812 1.65698 17.2598 1.80295 16.384L2.0227 15.0655L1.86034 13.7666C1.73372 13.2531 1.66675 12.7168 1.66675 12.166C1.66675 8.48412 4.65152 5.49935 8.33342 5.49935C8.42812 5.49935 8.52236 5.50133 8.6161 5.50524C9.30085 3.56055 11.1534 2.16602 13.3334 2.16602C16.0948 2.16602 18.3334 4.40459 18.3334 7.16602C18.3334 7.57388 18.2844 7.9714 18.1916 8.35256L18.0816 9.23217L18.2329 10.1397C18.3594 10.8988 17.8287 11.6106 17.0651 11.706ZM13.3334 3.83268C15.1744 3.83268 16.6667 5.32507 16.6667 7.16602C16.6667 7.45272 16.6307 7.7298 16.5634 7.99352L16.5505 8.04427L16.4222 9.07065C16.4059 9.20055 16.4086 9.33211 16.4302 9.46124L16.5354 10.0926L14.7403 10.317C14.1188 8.15936 12.4368 6.45102 10.295 5.79261C10.8184 4.63649 11.9828 3.83268 13.3334 3.83268ZM8.33342 7.16602C5.57199 7.16602 3.33341 9.40459 3.33341 12.166C3.33341 12.5954 3.38736 13.011 3.48841 13.407L3.50136 13.4577L3.67838 14.8738C3.69711 15.0237 3.69402 15.1755 3.66919 15.3245L3.46478 16.551L7.04172 16.9981L7.09247 17.011C7.48839 17.1121 7.904 17.166 8.33342 17.166C11.0948 17.166 13.3334 14.9274 13.3334 12.166C13.3334 9.40459 11.0948 7.16602 8.33342 7.16602Z" fill="#175CFF"/>
</g>
</g>
</svg>
