<svg width="20" height="20" viewBox="0 0 20 20" fill="none" xmlns="http://www.w3.org/2000/svg">
<g id="icon / chat-alt">
<g id="icon">
<path d="M13.1248 9.99935C13.1248 10.5746 13.5912 11.041 14.1665 11.041C14.7418 11.041 15.2082 10.5746 15.2082 9.99935C15.2082 9.42405 14.7418 8.95768 14.1665 8.95768C13.5912 8.95768 13.1248 9.42405 13.1248 9.99935Z" fill="#98A2B3"/>
<path d="M9.99984 11.041C9.42454 11.041 8.95817 10.5746 8.95817 9.99935C8.95817 9.42405 9.42454 8.95768 9.99984 8.95768C10.5751 8.95768 11.0415 9.42405 11.0415 9.99935C11.0415 10.5746 10.5751 11.041 9.99984 11.041Z" fill="#98A2B3"/>
<path d="M4.7915 9.99935C4.7915 10.5746 5.25787 11.041 5.83317 11.041C6.40847 11.041 6.87484 10.5746 6.87484 9.99935C6.87484 9.42405 6.40847 8.95768 5.83317 8.95768C5.25787 8.95768 4.7915 9.42405 4.7915 9.99935Z" fill="#98A2B3"/>
<path fill-rule="evenodd" clip-rule="evenodd" d="M9.99984 1.66602C5.39746 1.66602 1.6665 5.39698 1.6665 9.99935C1.6665 10.693 1.75142 11.3679 1.91182 12.0138L2.12474 13.7171C2.12599 13.7271 2.12578 13.7372 2.12413 13.7472L1.83839 15.4616C1.67294 16.4542 2.36691 17.3851 3.36548 17.5099L7.98541 18.0874C8.63132 18.2478 9.30623 18.3327 9.99984 18.3327C14.6022 18.3327 18.3332 14.6017 18.3332 9.99935C18.3332 5.39698 14.6022 1.66602 9.99984 1.66602ZM3.33317 9.99935C3.33317 6.31745 6.31794 3.33268 9.99984 3.33268C13.6817 3.33268 16.6665 6.31745 16.6665 9.99935C16.6665 13.6812 13.6817 16.666 9.99984 16.666C9.42771 16.666 8.87358 16.5941 8.34546 16.4593L8.2947 16.4464L3.5722 15.8561C3.51347 15.8487 3.47264 15.794 3.48238 15.7356L3.76812 14.0211C3.79626 13.8523 3.79977 13.6802 3.77853 13.5104L3.5528 11.7045L3.53984 11.6537C3.40505 11.1256 3.33317 10.5715 3.33317 9.99935Z" fill="#98A2B3"/>
</g>
</g>
</svg>
