<svg width="27" height="28" viewBox="0 0 27 28" fill="none" xmlns="http://www.w3.org/2000/svg">
<path d="M18.5003 13.9974C18.5003 14.9179 19.2465 15.6641 20.167 15.6641C21.0875 15.6641 21.8337 14.9179 21.8337 13.9974C21.8337 13.0769 21.0875 12.3307 20.167 12.3307C19.2465 12.3307 18.5003 13.0769 18.5003 13.9974Z" fill="#475367"/>
<path d="M13.5003 15.6641C12.5799 15.6641 11.8337 14.9179 11.8337 13.9974C11.8337 13.0769 12.5799 12.3307 13.5003 12.3307C14.4208 12.3307 15.167 13.0769 15.167 13.9974C15.167 14.9179 14.4208 15.6641 13.5003 15.6641Z" fill="#475367"/>
<path d="M5.16699 13.9974C5.16699 14.9179 5.91318 15.6641 6.83366 15.6641C7.75413 15.6641 8.50033 14.9179 8.50033 13.9974C8.50033 13.0769 7.75413 12.3307 6.83366 12.3307C5.91318 12.3307 5.16699 13.0769 5.16699 13.9974Z" fill="#475367"/>
<path fill-rule="evenodd" clip-rule="evenodd" d="M13.5003 0.664062C6.13653 0.664062 0.166992 6.6336 0.166992 13.9974C0.166992 15.1072 0.302862 16.187 0.559501 17.2205L0.900167 19.9458C0.902166 19.9618 0.901835 19.978 0.899187 19.9939L0.442003 22.737C0.177298 24.3252 1.28765 25.8145 2.88535 26.0142L10.2772 26.9382C11.3107 27.1949 12.3906 27.3307 13.5003 27.3307C20.8641 27.3307 26.8337 21.3612 26.8337 13.9974C26.8337 6.6336 20.8641 0.664062 13.5003 0.664062ZM2.83366 13.9974C2.83366 8.10636 7.60929 3.33073 13.5003 3.33073C19.3914 3.33073 24.167 8.10636 24.167 13.9974C24.167 19.8884 19.3914 24.6641 13.5003 24.6641C12.5849 24.6641 11.6983 24.5491 10.8533 24.3334L10.7721 24.3127L3.21611 23.3682C3.12213 23.3564 3.05682 23.2688 3.07239 23.1754L3.52957 20.4323C3.5746 20.1621 3.58021 19.8868 3.54624 19.615L3.18506 16.7256L3.16434 16.6444C2.94866 15.7994 2.83366 14.9128 2.83366 13.9974Z" fill="#475367"/>
</svg>
