<svg width="39" height="40" viewBox="0 0 39 40" fill="none" xmlns="http://www.w3.org/2000/svg">
<rect y="0.5" width="39" height="39" rx="8" fill="#E3EAFB"/>
<path fill-rule="evenodd" clip-rule="evenodd" d="M26.6667 22.1673C26.6667 27.322 22.488 31.5007 17.3333 31.5007C16.5341 31.5007 15.7584 31.4002 15.0181 31.2112L9.20587 30.4847C8.54799 30.4025 8.09079 29.7892 8.19979 29.1353L8.55537 27.0017C8.57392 26.8905 8.57623 26.7771 8.56224 26.6652L8.28941 24.4826C8.10045 23.7422 8 22.9665 8 22.1673C8 17.0127 12.1787 12.834 17.3333 12.834C22.488 12.834 26.6667 17.0127 26.6667 22.1673ZM12 23.5007C11.2636 23.5007 10.6667 22.9037 10.6667 22.1673C10.6667 21.4309 11.2636 20.834 12 20.834C12.7364 20.834 13.3333 21.4309 13.3333 22.1673C13.3333 22.9037 12.7364 23.5007 12 23.5007ZM16 22.1673C16 22.9037 16.597 23.5007 17.3333 23.5007C18.0697 23.5007 18.6667 22.9037 18.6667 22.1673C18.6667 21.4309 18.0697 20.834 17.3333 20.834C16.597 20.834 16 21.4309 16 22.1673ZM22.6667 23.5007C21.9303 23.5007 21.3333 22.9037 21.3333 22.1673C21.3333 21.4309 21.9303 20.834 22.6667 20.834C23.403 20.834 24 21.4309 24 22.1673C24 22.9037 23.403 23.5007 22.6667 23.5007Z" fill="#175CFF"/>
<path fill-rule="evenodd" clip-rule="evenodd" d="M32.0003 14.1667C32.0003 10.4848 29.0155 7.5 25.3336 7.5C22.7855 7.5 20.5713 8.92959 19.4492 11.0305C24.1385 11.916 27.8071 15.6901 28.5351 20.4332L31.139 20.1077C31.6089 20.0489 31.9354 19.6109 31.8576 19.1438L31.6036 17.6198C31.5904 17.5404 31.5887 17.4594 31.5987 17.3795L31.7936 15.8204C31.9285 15.2916 32.0003 14.7375 32.0003 14.1667Z" fill="#FCC85C"/>
</svg>
