<svg width="20" height="21" viewBox="0 0 20 21" fill="none" xmlns="http://www.w3.org/2000/svg">
<g id="icon / check-circle">
<g id="icon">
<path d="M13.0629 9.44722C13.4023 9.13638 13.4255 8.60925 13.1146 8.26985C12.8038 7.93045 12.2767 7.9073 11.9372 8.21814L8.86052 11.036L8.06292 10.3055C7.72352 9.99466 7.19639 10.0178 6.88554 10.3572C6.5747 10.6966 6.59784 11.2237 6.93725 11.5346L8.29768 12.7806C8.6162 13.0723 9.10483 13.0723 9.42335 12.7806L13.0629 9.44722Z" fill="white"/>
<path fill-rule="evenodd" clip-rule="evenodd" d="M10.0001 2.16602C5.39771 2.16602 1.66675 5.89698 1.66675 10.4993C1.66675 15.1017 5.39771 18.8327 10.0001 18.8327C14.6025 18.8327 18.3334 15.1017 18.3334 10.4993C18.3334 5.89698 14.6025 2.16602 10.0001 2.16602ZM3.33341 10.4993C3.33341 6.81745 6.31818 3.83268 10.0001 3.83268C13.682 3.83268 16.6667 6.81745 16.6667 10.4993C16.6667 14.1812 13.682 17.166 10.0001 17.166C6.31818 17.166 3.33341 14.1812 3.33341 10.4993Z" fill="white"/>
</g>
</g>
</svg>
