<svg width="20" height="20" viewBox="0 0 20 20" fill="none" xmlns="http://www.w3.org/2000/svg">
<g id="icon / clock">
<g id="icon">
<path d="M10.0003 7.08366C10.0003 6.62342 9.62723 6.25033 9.16699 6.25033C8.70675 6.25033 8.33366 6.62342 8.33366 7.08366V11.2503C8.33366 11.7106 8.70675 12.0837 9.16699 12.0837H11.667C12.1272 12.0837 12.5003 11.7106 12.5003 11.2503C12.5003 10.7901 12.1272 10.417 11.667 10.417H10.0003V7.08366Z" fill="#667185"/>
<path fill-rule="evenodd" clip-rule="evenodd" d="M10.0003 1.66699C5.39795 1.66699 1.66699 5.39795 1.66699 10.0003C1.66699 14.6027 5.39795 18.3337 10.0003 18.3337C14.6027 18.3337 18.3337 14.6027 18.3337 10.0003C18.3337 5.39795 14.6027 1.66699 10.0003 1.66699ZM3.33366 10.0003C3.33366 6.31843 6.31843 3.33366 10.0003 3.33366C13.6822 3.33366 16.667 6.31843 16.667 10.0003C16.667 13.6822 13.6822 16.667 10.0003 16.667C6.31843 16.667 3.33366 13.6822 3.33366 10.0003Z" fill="#667185"/>
</g>
</g>
</svg>
