<svg width="28" height="29" viewBox="0 0 28 29" fill="none" xmlns="http://www.w3.org/2000/svg">
<path d="M6.99935 11.583C6.99935 8.03918 9.87219 5.16634 13.416 5.16634C16.5552 5.16634 19.17 7.42172 19.7242 10.4008C19.8019 10.8186 20.1006 11.161 20.5039 11.2948C22.8265 12.0651 24.4994 14.2552 24.4994 16.833C24.4994 20.0547 21.8877 22.6663 18.666 22.6663C18.0217 22.6663 17.4993 23.1887 17.4993 23.833C17.4993 24.4773 18.0217 24.9997 18.666 24.9997C23.1763 24.9997 26.8327 21.3433 26.8327 16.833C26.8327 13.4585 24.7866 10.5645 21.87 9.31918C20.872 5.58401 17.4664 2.83301 13.416 2.83301C8.58352 2.83301 4.66602 6.75052 4.66602 11.583C4.66602 11.7 4.66832 11.8165 4.67288 11.9325C2.57824 13.141 1.16602 15.4043 1.16602 17.9997C1.16602 21.8657 4.30002 24.9997 8.16602 24.9997C8.81035 24.9997 9.33268 24.4773 9.33268 23.833C9.33268 23.1887 8.81035 22.6663 8.16602 22.6663C5.58869 22.6663 3.49935 20.577 3.49935 17.9997C3.49935 16.0661 4.67556 14.4046 6.35611 13.6966C6.84242 13.4918 7.13067 12.986 7.05908 12.4632C7.01975 12.176 6.99935 11.8822 6.99935 11.583Z" fill="#475367"/>
<path d="M13.2243 17.1277C13.6663 16.7348 14.3324 16.7348 14.7744 17.1277L16.5244 18.6833C17.006 19.1113 17.0494 19.8487 16.6213 20.3303C16.2468 20.7516 15.6356 20.8376 15.166 20.5659V26.1663C15.166 26.8107 14.6437 27.333 13.9993 27.333C13.355 27.333 12.8327 26.8107 12.8327 26.1663V20.5659C12.3631 20.8376 11.7519 20.7516 11.3774 20.3303C10.9493 19.8487 10.9927 19.1113 11.4743 18.6833L13.2243 17.1277Z" fill="#475367"/>
</svg>
