<svg width="20" height="20" viewBox="0 0 20 20" fill="none" xmlns="http://www.w3.org/2000/svg">
<path fill-rule="evenodd" clip-rule="evenodd" d="M10.8333 1.66666H5.83334C4.45262 1.66666 3.33334 2.78594 3.33334 4.16666V15.8333C3.33334 17.214 4.45262 18.3333 5.83334 18.3333H14.1667C15.5474 18.3333 16.6667 17.214 16.6667 15.8333V8.33332H14.1667C12.3257 8.33332 10.8333 6.84094 10.8333 4.99999V1.66666ZM16.4971 6.66666C16.3997 6.41607 16.2619 6.18095 16.0872 5.97132L13.2496 2.5662C13.0391 2.31361 12.7837 2.10823 12.5 1.95783V4.99999C12.5 5.92046 13.2462 6.66666 14.1667 6.66666H16.4971ZM13.9646 15.65C13.8146 15.65 13.6729 15.6 13.5479 15.4917C13.0563 15.0584 12.7813 14.875 12.6396 14.7917C12.6184 14.8082 12.5952 14.826 12.5708 14.8447L12.5704 14.845C12.5085 14.8926 12.4386 14.9463 12.3729 15C11.8229 15.425 11.5146 15.65 11.1813 15.65C10.7229 15.65 10.0229 15.4917 9.57292 14.65L9.38959 14.925C9.09792 15.3584 8.73959 15.5834 8.33959 15.5917C7.72292 15.5834 7.28125 15.1584 6.86459 14.6417C6.62292 14.9084 6.35625 15.1834 6.06459 15.475C5.81459 15.7167 5.42292 15.7167 5.18125 15.475C4.93959 15.2334 4.93959 14.8334 5.18125 14.5917C5.56459 14.2084 5.88125 13.8667 6.14792 13.5667C5.80625 12.9334 5.47292 12.125 5.45625 11.4167C5.44792 10.7834 5.63959 10.2334 6.00625 9.85836C6.28125 9.57503 6.63959 9.4167 7.00625 9.4167C7.77292 9.4167 8.55625 9.65003 8.55625 11.4084C8.55625 12.0667 8.26459 12.8084 7.66459 13.6584L7.73959 13.7584C8.02292 14.1334 8.18959 14.275 8.27292 14.3334C8.27935 14.3237 8.28703 14.3141 8.29547 14.3035C8.30889 14.2866 8.32424 14.2673 8.33959 14.2417L9.26459 12.875C9.41459 12.6584 9.67292 12.5584 9.93125 12.6167C10.1813 12.675 10.3729 12.8917 10.4063 13.1417C10.5396 14.2084 10.8729 14.3834 11.0729 14.4084C11.2063 14.325 11.4479 14.1417 11.5979 14.025C12.0563 13.6667 12.2729 13.5084 12.5563 13.5084C12.9146 13.5084 13.3563 13.6917 14.3563 14.575C14.6146 14.8 14.6396 15.2 14.4146 15.4584C14.2896 15.6 14.1146 15.6667 13.9479 15.6667L13.9646 15.65ZM7.21459 10.6334C7.21459 10.6334 7.09792 10.65 7.02292 10.65C7.00625 10.65 6.96459 10.6667 6.91459 10.7167C6.85625 10.775 6.71459 10.9667 6.72292 11.3834C6.72292 11.6667 6.83959 12.0334 6.98959 12.4C7.26459 11.9167 7.32292 11.5917 7.32292 11.3917C7.32292 10.7834 7.21459 10.6417 7.21459 10.6417V10.6334ZM5.97331 6.24999H9.30664C9.64831 6.24999 9.93164 5.96666 9.93164 5.62499C9.93164 5.28332 9.64831 4.99999 9.30664 4.99999H5.97331C5.63164 4.99999 5.34831 5.28332 5.34831 5.62499C5.34831 5.96666 5.63164 6.24999 5.97331 6.24999Z" fill="#667185"/>
</svg>
