<svg width="21" height="20" viewBox="0 0 21 20" fill="none" xmlns="http://www.w3.org/2000/svg">
<path fill-rule="evenodd" clip-rule="evenodd" d="M6.33333 0.832031C4.49238 0.832031 3 2.32441 3 4.16536V15.832C3 17.673 4.49238 19.1654 6.33333 19.1654H14.6667C16.5076 19.1654 18 17.673 18 15.832V7.57049C18 6.7907 17.7266 6.03559 17.2274 5.43654L14.3898 2.03142C13.7565 1.27144 12.8183 0.832031 11.8291 0.832031H6.33333ZM4.66667 4.16536C4.66667 3.24489 5.41286 2.4987 6.33333 2.4987H11.3333V4.9987C11.3333 6.83965 12.8257 8.33203 14.6667 8.33203H16.3333V15.832C16.3333 16.7525 15.5871 17.4987 14.6667 17.4987H6.33333C5.41286 17.4987 4.66667 16.7525 4.66667 15.832V4.16536ZM16.0661 6.66536C16.0299 6.60931 15.9901 6.55525 15.947 6.50352L13.1094 3.09839C13.0747 3.05675 13.0382 3.01703 13 2.97932V4.9987C13 5.91917 13.7462 6.66536 14.6667 6.66536H16.0661Z" fill="#175CFF"/>
<path d="M14.4577 15.6513C14.3077 15.6513 14.1661 15.6013 14.0411 15.493C13.5494 15.0596 13.2744 14.8763 13.1327 14.793C13.0577 14.8513 12.9577 14.9263 12.8661 15.0013C12.3161 15.4263 12.0077 15.6513 11.6744 15.6513C11.2161 15.6513 10.5161 15.493 10.0661 14.6513L9.88275 14.9263C9.59108 15.3596 9.23275 15.5846 8.83275 15.593C8.21608 15.5846 7.77441 15.1596 7.35775 14.643C7.11608 14.9096 6.84941 15.1846 6.55775 15.4763C6.30775 15.718 5.91608 15.718 5.67441 15.4763C5.43275 15.2346 5.43275 14.8346 5.67441 14.593C6.05775 14.2096 6.37441 13.868 6.64108 13.568C6.29941 12.9346 5.96608 12.1263 5.94941 11.418C5.94108 10.7846 6.13275 10.2346 6.49941 9.85964C6.77441 9.5763 7.13275 9.41797 7.49941 9.41797C8.26608 9.41797 9.04941 9.6513 9.04941 11.4096C9.04941 12.068 8.75775 12.8096 8.15775 13.6596C8.18275 13.693 8.20775 13.7263 8.23275 13.7596C8.51608 14.1346 8.68275 14.2763 8.76608 14.3346C8.78275 14.3096 8.80775 14.2846 8.83275 14.243L9.75775 12.8763C9.90775 12.6596 10.1661 12.5596 10.4244 12.618C10.6744 12.6763 10.8661 12.893 10.8994 13.143C11.0327 14.2096 11.3661 14.3846 11.5661 14.4096C11.6994 14.3263 11.9411 14.143 12.0911 14.0263C12.5494 13.668 12.7661 13.5096 13.0494 13.5096C13.4077 13.5096 13.8494 13.693 14.8494 14.5763C15.1077 14.8013 15.1327 15.2013 14.9077 15.4596C14.7827 15.6013 14.6077 15.668 14.4411 15.668L14.4577 15.6513ZM7.70775 10.6346C7.70775 10.6346 7.59108 10.6513 7.51608 10.6513C7.49941 10.6513 7.45775 10.668 7.40775 10.718C7.34941 10.7763 7.20775 10.968 7.21608 11.3846C7.21608 11.668 7.33275 12.0346 7.48275 12.4013C7.75775 11.918 7.81608 11.593 7.81608 11.393C7.81608 10.7846 7.70775 10.643 7.70775 10.643V10.6346Z" fill="#175CFF"/>
<path d="M9.80013 6.25H6.4668C6.12513 6.25 5.8418 5.96667 5.8418 5.625C5.8418 5.28333 6.12513 5 6.4668 5H9.80013C10.1418 5 10.4251 5.28333 10.4251 5.625C10.4251 5.96667 10.1418 6.25 9.80013 6.25Z" fill="#175CFF"/>
</svg>
