<svg width="20" height="20" viewBox="0 0 20 20" fill="none" xmlns="http://www.w3.org/2000/svg">
<path fill-rule="evenodd" clip-rule="evenodd" d="M12 0C9.79086 0 8 1.79086 8 4V6H4C1.79086 6 0 7.79086 0 10V16C0 18.2091 1.79086 20 4 20H8C10.2091 20 12 18.2091 12 16V14H16C18.2091 14 20 12.2091 20 10V4C20 1.79086 18.2091 0 16 0H12ZM12 12H16C17.1046 12 18 11.1046 18 10V4C18 2.89543 17.1046 2 16 2H12C10.8954 2 10 2.89543 10 4V6.53513C11.1956 7.22675 12 8.51943 12 10V12ZM2 10C2 8.89543 2.89543 8 4 8H8C9.10457 8 10 8.89543 10 10V16C10 17.1046 9.10457 18 8 18H4C2.89543 18 2 17.1046 2 16V10Z" fill="#667185"/>
</svg>
