 <svg width="20" height="20" viewBox="0 0 33 32" fill="none" xmlns="http://www.w3.org/2000/svg">
              <path
                d="M29.7653 17.3231L29.5013 18.7058C29.2546 20.0004 28.0453 20.8698 26.6746 20.7378L23.9453 20.4738C22.756 20.3591 21.7426 19.5138 21.4413 18.3858L20.5986 15.2458C19.3533 14.7347 17.98 14.5013 16.4786 14.5458C15.0341 14.5768 13.6104 14.8973 12.292 15.4884L11.7706 18.4284C11.5733 19.5431 10.6533 20.3738 9.4893 20.4911L6.77596 20.7631C5.42263 20.8991 4.1253 20.0378 3.73997 18.7498L3.32797 17.3671C2.9173 15.9911 3.28397 14.5431 4.2893 13.5658C6.66352 11.2591 10.6226 10.1018 16.1666 10.0938C21.7177 10.0876 25.8 11.2378 28.4133 13.5444C29.512 14.5151 30.0266 15.9524 29.7666 17.3231"
                fill="white"
              />
            </svg>