<svg width="21" height="20" viewBox="0 0 21 20" fill="none" xmlns="http://www.w3.org/2000/svg">
<path fill-rule="evenodd" clip-rule="evenodd" d="M11.4329 1.66732C11.4329 1.20708 11.0598 0.833984 10.5996 0.833984C10.1394 0.833984 9.76628 1.20708 9.76628 1.66732V2.50065C7.46509 2.50065 5.59961 4.36613 5.59961 6.66732C5.59961 8.9685 7.46509 10.834 9.76628 10.834V15.834C8.38556 15.834 7.26628 14.7147 7.26628 13.334C7.26628 12.8737 6.89318 12.5007 6.43294 12.5007C5.97271 12.5007 5.59961 12.8737 5.59961 13.334C5.59961 15.6352 7.46509 17.5006 9.76628 17.5006V18.334C9.76628 18.7942 10.1394 19.1673 10.5996 19.1673C11.0598 19.1673 11.4329 18.7942 11.4329 18.334V17.5006C13.7341 17.5006 15.5996 15.6352 15.5996 13.334C15.5996 11.0328 13.7341 9.16732 11.4329 9.16732V4.16732C12.8137 4.16732 13.9329 5.28661 13.9329 6.66732C13.9329 7.12755 14.306 7.50065 14.7663 7.50065C15.2265 7.50065 15.5996 7.12755 15.5996 6.66732C15.5996 4.36613 13.7341 2.50065 11.4329 2.50065V1.66732ZM9.76628 4.16732C8.38556 4.16732 7.26628 5.28661 7.26628 6.66732C7.26628 8.04803 8.38556 9.16732 9.76628 9.16732V4.16732ZM11.4329 10.834V15.834C12.8137 15.834 13.9329 14.7147 13.9329 13.334C13.9329 11.9533 12.8137 10.834 11.4329 10.834Z" fill="#667185"/>
</svg>
