<svg width="26" height="26" viewBox="0 0 26 26" fill="none" xmlns="http://www.w3.org/2000/svg">
<g id="icon / dots-h">
<g id="icon">
<path d="M2.77441 12.9993C2.77441 13.8911 3.49729 14.6139 4.389 14.6139C5.28071 14.6139 6.00358 13.8911 6.00358 12.9993C6.00358 12.1076 5.28071 11.3848 4.389 11.3848C3.49729 11.3848 2.77441 12.1076 2.77441 12.9993Z" fill="#344054"/>
<path d="M13.0001 14.6139C12.1084 14.6139 11.3855 13.8911 11.3855 12.9993C11.3855 12.1076 12.1084 11.3848 13.0001 11.3848C13.8918 11.3848 14.6147 12.1076 14.6147 12.9993C14.6147 13.8911 13.8918 14.6139 13.0001 14.6139Z" fill="#344054"/>
<path d="M21.6112 14.6139C20.7195 14.6139 19.9966 13.8911 19.9966 12.9993C19.9966 12.1076 20.7195 11.3848 21.6112 11.3848C22.5029 11.3848 23.2258 12.1076 23.2258 12.9993C23.2258 13.8911 22.5029 14.6139 21.6112 14.6139Z" fill="#344054"/>
</g>
</g>
</svg>
