<svg width="20" height="21" viewBox="0 0 20 21" fill="none" xmlns="http://www.w3.org/2000/svg">
<g id="Icons">
<g id="Solid">
<path d="M10.8332 3.00033C10.8332 2.54009 10.4601 2.16699 9.99984 2.16699C9.5396 2.16699 9.1665 2.54009 9.1665 3.00033V10.9885L6.42243 8.2444C6.09699 7.91897 5.56935 7.91897 5.24392 8.2444C4.91848 8.56984 4.91848 9.09748 5.24392 9.42291L9.41058 13.5896C9.73602 13.915 10.2637 13.915 10.5891 13.5896L14.7558 9.42291C15.0812 9.09748 15.0812 8.56984 14.7558 8.2444C14.4303 7.91897 13.9027 7.91897 13.5772 8.2444L10.8332 10.9885V3.00033Z" fill="white"/>
<path d="M2.49984 12.167C2.96008 12.167 3.33317 12.5401 3.33317 13.0003V14.0003C3.33317 14.7141 3.33382 15.1994 3.36446 15.5745C3.39431 15.9398 3.44842 16.1266 3.51483 16.257C3.67462 16.5706 3.92958 16.8255 4.24319 16.9853C4.37352 17.0517 4.56036 17.1058 4.9257 17.1357C5.30078 17.1663 5.78602 17.167 6.49984 17.167H13.4998C14.2137 17.167 14.6989 17.1663 15.074 17.1357C15.4393 17.1058 15.6262 17.0517 15.7565 16.9853C16.0701 16.8255 16.3251 16.5706 16.4848 16.257C16.5513 16.1266 16.6054 15.9398 16.6352 15.5745C16.6659 15.1994 16.6665 14.7141 16.6665 14.0003V13.0003C16.6665 12.5401 17.0396 12.167 17.4998 12.167C17.9601 12.167 18.3332 12.5401 18.3332 13.0003V14.0348C18.3332 14.7056 18.3332 15.2592 18.2963 15.7102C18.2581 16.1786 18.1759 16.6092 17.9699 17.0136C17.6503 17.6408 17.1403 18.1508 16.5131 18.4703C16.1087 18.6764 15.6781 18.7586 15.2097 18.7968C14.7587 18.8337 14.2051 18.8337 13.5343 18.8337H6.46542C5.79461 18.8337 5.24098 18.8337 4.78998 18.7968C4.32157 18.7586 3.89098 18.6764 3.48654 18.4703C2.85933 18.1508 2.34939 17.6408 2.02982 17.0136C1.82374 16.6092 1.7416 16.1786 1.70333 15.7102C1.66649 15.2592 1.66649 14.7056 1.6665 14.0348V13.0003C1.6665 12.5401 2.0396 12.167 2.49984 12.167Z" fill="white"/>
</g>
</g>
</svg>
