<svg width="29" height="28" viewBox="0 0 29 28" fill="none" xmlns="http://www.w3.org/2000/svg">
<g id="icon / download">
<g id="icon">
<path d="M19.9913 15.9923L15.3246 20.6589C14.869 21.1146 14.1303 21.1146 13.6747 20.6589L9.00805 15.9923C8.55244 15.5367 8.55244 14.798 9.00805 14.3424C9.46366 13.8867 10.2024 13.8867 10.658 14.3424L13.333 17.0174V3.50065C13.333 2.85632 13.8553 2.33398 14.4997 2.33398C15.144 2.33398 15.6663 2.85632 15.6663 3.50065V17.0174L18.3414 14.3424C18.797 13.8867 19.5357 13.8867 19.9913 14.3424C20.4469 14.798 20.4469 15.5367 19.9913 15.9923Z" fill="#475367"/>
<path d="M5.16634 20.4173C5.16634 19.773 4.64401 19.2507 3.99967 19.2507C3.35534 19.2507 2.83301 19.773 2.83301 20.4173V22.1673C2.83301 24.7446 4.92235 26.834 7.49967 26.834H21.4997C24.077 26.834 26.1663 24.7446 26.1663 22.1673V20.4173C26.1663 19.773 25.644 19.2507 24.9997 19.2507C24.3553 19.2507 23.833 19.773 23.833 20.4173V22.1673C23.833 23.456 22.7883 24.5007 21.4997 24.5007H7.49967C6.21101 24.5007 5.16634 23.456 5.16634 22.1673V20.4173Z" fill="#475367"/>
</g>
</g>
</svg>
