<svg width="21" height="20" viewBox="0 0 21 20" fill="none" xmlns="http://www.w3.org/2000/svg">
<g id="button-icon">
<g id="icon">
<path d="M14.4227 11.4239L11.0893 14.7572C10.7639 15.0827 10.2363 15.0827 9.91083 14.7572L6.57749 11.4239C6.25206 11.0985 6.25206 10.5708 6.57749 10.2454C6.90293 9.91994 7.43057 9.91994 7.756 10.2454L9.66675 12.1561V2.5013C9.66675 2.04106 10.0398 1.66797 10.5001 1.66797C10.9603 1.66797 11.3334 2.04106 11.3334 2.5013V12.1561L13.2442 10.2454C13.5696 9.91994 14.0972 9.91994 14.4227 10.2454C14.7481 10.5708 14.7481 11.0985 14.4227 11.4239Z" fill="#175CFF"/>
<path d="M3.83341 14.5846C3.83341 14.1244 3.46032 13.7513 3.00008 13.7513C2.53984 13.7513 2.16675 14.1244 2.16675 14.5846V15.8346C2.16675 17.6756 3.65913 19.168 5.50008 19.168H15.5001C17.341 19.168 18.8334 17.6756 18.8334 15.8346V14.5846C18.8334 14.1244 18.4603 13.7513 18.0001 13.7513C17.5398 13.7513 17.1667 14.1244 17.1667 14.5846V15.8346C17.1667 16.7551 16.4206 17.5013 15.5001 17.5013H5.50008C4.57961 17.5013 3.83341 16.7551 3.83341 15.8346V14.5846Z" fill="#175CFF"/>
</g>
</g>
</svg>
