<svg width="20" height="20" viewBox="0 0 20 20" fill="none" xmlns="http://www.w3.org/2000/svg">
<g id="icon / download">
<g id="icon">
<path d="M13.9227 11.4229L10.5893 14.7562C10.2639 15.0817 9.73626 15.0817 9.41083 14.7562L6.07749 11.4229C5.75206 11.0975 5.75206 10.5698 6.07749 10.2444C6.40293 9.91897 6.93057 9.91897 7.256 10.2444L9.16675 12.1551V2.50033C9.16675 2.04009 9.53984 1.66699 10.0001 1.66699C10.4603 1.66699 10.8334 2.04009 10.8334 2.50033V12.1551L12.7442 10.2444C13.0696 9.91897 13.5972 9.91897 13.9227 10.2444C14.2481 10.5698 14.2481 11.0975 13.9227 11.4229Z" fill="white"/>
<path d="M3.33341 14.5837C3.33341 14.1234 2.96032 13.7503 2.50008 13.7503C2.03984 13.7503 1.66675 14.1234 1.66675 14.5837V15.8337C1.66675 17.6746 3.15913 19.167 5.00008 19.167H15.0001C16.841 19.167 18.3334 17.6746 18.3334 15.8337V14.5837C18.3334 14.1234 17.9603 13.7503 17.5001 13.7503C17.0398 13.7503 16.6667 14.1234 16.6667 14.5837V15.8337C16.6667 16.7541 15.9206 17.5003 15.0001 17.5003H5.00008C4.07961 17.5003 3.33341 16.7541 3.33341 15.8337V14.5837Z" fill="white"/>
</g>
</g>
</svg>
