<svg width="21" height="21" viewBox="0 0 21 21" fill="none" xmlns="http://www.w3.org/2000/svg">
<g clip-path="url(#clip0_1251_375526)">
<path fill-rule="evenodd" clip-rule="evenodd" d="M17.6627 2.92756C16.5406 1.8054 14.7212 1.8054 13.599 2.92756L6.49448 10.0321C5.98449 10.5421 5.65367 11.2037 5.55167 11.9177L5.34579 13.3589C5.18866 14.4588 6.13147 15.4016 7.23141 15.2445L8.67255 15.0386C9.38654 14.9366 10.0482 14.6058 10.5582 14.0958L17.6627 6.99125C18.7849 5.86909 18.7849 4.04971 17.6627 2.92756ZM14.9521 3.96132C15.4218 3.6411 16.0675 3.68935 16.4842 4.10607C16.9009 4.52278 16.9492 5.16844 16.629 5.63817L14.9521 3.96132ZM13.7587 5.12492L15.4654 6.83159L9.37966 12.9173C9.12466 13.1723 8.79384 13.3377 8.43685 13.3887L6.99571 13.5946L7.20159 12.1534C7.25259 11.7964 7.418 11.4656 7.67299 11.2106L13.7587 5.12492Z" fill="#175CFF"/>
<path d="M5.49935 2.16923C3.6584 2.16923 2.16602 3.66162 2.16602 5.50257V15.5026C2.16602 17.3435 3.6584 18.8359 5.49935 18.8359H15.4993C17.3403 18.8359 18.8327 17.3435 18.8327 15.5026V10.5026C18.8327 10.0423 18.4596 9.66923 17.9993 9.66923C17.5391 9.66923 17.166 10.0423 17.166 10.5026V15.5026C17.166 16.423 16.4198 17.1692 15.4993 17.1692H5.49935C4.57887 17.1692 3.83268 16.423 3.83268 15.5026V5.50257C3.83268 4.58209 4.57888 3.8359 5.49935 3.8359H7.73619C8.19643 3.8359 8.56952 3.4628 8.56952 3.00257C8.56952 2.54233 8.19643 2.16923 7.73619 2.16923H5.49935Z" fill="#175CFF"/>
</g>
<defs>
<clipPath id="clip0_1251_375526">
<rect x="0.5" y="0.5" width="20" height="20" rx="8" fill="white"/>
</clipPath>
</defs>
</svg>
