<svg width="20" height="21" viewBox="0 0 20 21" fill="none" xmlns="http://www.w3.org/2000/svg">
<path d="M4.99935 2.16406C3.1584 2.16406 1.66602 3.65645 1.66602 5.4974V15.4974C1.66602 17.3383 3.1584 18.8307 4.99935 18.8307H14.9993C16.8403 18.8307 18.3327 17.3383 18.3327 15.4974V10.4974C18.3327 10.0372 17.9596 9.66406 17.4993 9.66406C17.0391 9.66406 16.666 10.0372 16.666 10.4974V15.4974C16.666 16.4179 15.9198 17.1641 14.9993 17.1641H4.99935C4.07887 17.1641 3.33268 16.4179 3.33268 15.4974V5.4974C3.33268 4.57692 4.07888 3.83073 4.99935 3.83073H7.23619C7.69643 3.83073 8.06952 3.45763 8.06952 2.9974C8.06952 2.53716 7.69643 2.16406 7.23619 2.16406H4.99935Z" fill="white"/>
<path d="M5.67079 13.4716L5.87667 12.0305C5.95317 11.495 6.20128 10.9988 6.58377 10.6163L12.6695 4.53054L15.5547 7.41572L9.46895 13.5015C9.08646 13.884 8.59023 14.1321 8.05474 14.2086L6.6136 14.4144C6.06363 14.493 5.59222 14.0216 5.67079 13.4716Z" fill="white"/>
<path d="M16.7245 6.22847L13.8568 3.36077C14.6578 2.71866 15.8308 2.76898 16.5735 3.51172C17.3163 4.25447 17.3666 5.42744 16.7245 6.22847Z" fill="white"/>
</svg>
