<svg width="20" height="20" viewBox="0 0 20 20" fill="none" xmlns="http://www.w3.org/2000/svg">
<g id="Icon-right">
<g id="icon">
<path d="M9.99984 3.33366C6.31794 3.33366 3.33317 6.31843 3.33317 10.0003C3.33317 13.6822 6.31794 16.667 9.99984 16.667C13.6817 16.667 16.6665 13.6822 16.6665 10.0003C16.6665 9.62082 16.6349 9.24934 16.5743 8.88821C16.4981 8.43431 16.8044 8.00463 17.2583 7.92848C17.7122 7.85233 18.1418 8.15855 18.218 8.61245C18.2938 9.06433 18.3332 9.52805 18.3332 10.0003C18.3332 14.6027 14.6022 18.3337 9.99984 18.3337C5.39746 18.3337 1.6665 14.6027 1.6665 10.0003C1.6665 5.39795 5.39746 1.66699 9.99984 1.66699C11.3287 1.66699 12.5872 1.97867 13.704 2.53366C14.1162 2.73848 14.2843 3.23864 14.0794 3.65079C13.8746 4.06293 13.3745 4.23101 12.9623 4.02619C12.0708 3.58316 11.0657 3.33366 9.99984 3.33366Z" fill="#98A2B3"/>
<path d="M16.6665 2.50033C17.1267 2.50033 17.4998 2.87342 17.4998 3.33366V4.16699H18.3332C18.7934 4.16699 19.1665 4.54009 19.1665 5.00033C19.1665 5.46056 18.7934 5.83366 18.3332 5.83366H17.4998V6.66699C17.4998 7.12723 17.1267 7.50033 16.6665 7.50033C16.2063 7.50033 15.8332 7.12723 15.8332 6.66699V5.83366H14.9998C14.5396 5.83366 14.1665 5.46056 14.1665 5.00033C14.1665 4.54009 14.5396 4.16699 14.9998 4.16699H15.8332V3.33366C15.8332 2.87342 16.2063 2.50033 16.6665 2.50033Z" fill="#98A2B3"/>
<path d="M7.74392 12.7444C8.06935 12.419 8.59699 12.419 8.92243 12.7444C9.51746 13.3394 10.4822 13.3394 11.0772 12.7444C11.4027 12.419 11.9303 12.419 12.2558 12.7444C12.5812 13.0698 12.5812 13.5975 12.2558 13.9229C11.0098 15.1688 8.98983 15.1688 7.74392 13.9229C7.41848 13.5975 7.41848 13.0698 7.74392 12.7444Z" fill="#98A2B3"/>
<path d="M8.49985 7.91699C8.49985 7.22664 7.9402 6.66699 7.24985 6.66699C6.55949 6.66699 5.99985 7.22664 5.99985 7.91699C5.99985 8.60735 6.55949 9.16699 7.24985 9.16699C7.9402 9.16699 8.49985 8.60735 8.49985 7.91699Z" fill="#98A2B3"/>
<path d="M12.7498 6.66699C13.4402 6.66699 13.9998 7.22664 13.9998 7.91699C13.9998 8.60735 13.4402 9.16699 12.7498 9.16699C12.0595 9.16699 11.4998 8.60735 11.4998 7.91699C11.4998 7.22664 12.0595 6.66699 12.7498 6.66699Z" fill="#98A2B3"/>
</g>
</g>
</svg>
