<svg width="151" height="150" viewBox="0 0 151 150" fill="none" xmlns="http://www.w3.org/2000/svg">
<path d="M75.499 122.697C103.818 122.697 126.775 113.691 126.775 102.582C126.775 91.4727 103.818 82.4668 75.499 82.4668C47.1799 82.4668 24.2227 91.4727 24.2227 102.582C24.2227 113.691 47.1799 122.697 75.499 122.697Z" fill="#F9FAFB"/>
<path d="M77.1838 42.9941C77.0852 42.8608 76.9727 42.7386 76.8477 42.6288C76.406 42.2427 75.8088 42.0205 75.1463 42.0205C74.9421 42.0205 74.7283 42.0427 74.5116 42.0872C74.406 42.1094 74.3033 42.1372 74.2019 42.1677C74.1908 42.1705 74.1796 42.1733 74.1685 42.1761C74.1269 42.19 74.0852 42.2052 74.0435 42.2205C74.0269 42.2261 74.0088 42.2316 73.9922 42.2386C73.9241 42.2649 73.856 42.2927 73.7894 42.3219C73.7852 42.3233 73.781 42.3261 73.7783 42.3275C73.6866 42.3691 73.5977 42.415 73.5102 42.4636C73.5046 42.4663 73.5005 42.4691 73.4949 42.4719C73.4741 42.4844 73.4546 42.4983 73.4338 42.5108C73.3796 42.5441 73.3255 42.5774 73.2727 42.6122C73.263 42.6191 73.2519 42.6247 73.2421 42.6316C73.2213 42.6455 73.2019 42.6622 73.181 42.6774C73.138 42.7094 73.0949 42.7399 73.0519 42.7733C73.0394 42.783 73.0255 42.7927 73.0116 42.8025C72.9949 42.8163 72.9783 42.8316 72.9616 42.8455C72.9213 42.8788 72.8824 42.9136 72.8435 42.9483C72.8283 42.9622 72.813 42.9747 72.7977 42.9886C72.7685 43.0163 72.7394 43.0441 72.7116 43.0733C72.6741 43.1122 72.638 43.1511 72.6019 43.1899C72.5921 43.1997 72.5852 43.2108 72.5755 43.2219C72.5338 43.2691 72.4935 43.3191 72.4546 43.3677C72.4408 43.3858 72.4241 43.4025 72.4116 43.4205C72.4074 43.4261 72.4046 43.4316 72.4005 43.4372C72.3408 43.5163 72.2852 43.5983 72.2338 43.683C72.231 43.6872 72.2283 43.69 72.2255 43.6941C72.1894 43.7538 72.1546 43.815 72.1213 43.8761C72.1144 43.8886 72.1088 43.9025 72.1019 43.915C72.0796 43.9594 72.056 44.0038 72.0366 44.0483C72.031 44.0594 72.0283 44.0705 72.0227 44.0816C72.013 44.1052 72.0033 44.1288 71.9935 44.1538C71.9741 44.2011 71.956 44.2483 71.9394 44.2955C71.9296 44.3205 71.9213 44.3469 71.913 44.3719C71.8963 44.4219 71.8824 44.4705 71.8685 44.5205C71.863 44.5441 71.856 44.5663 71.8505 44.59C71.8324 44.6622 71.8171 44.7358 71.806 44.8094C71.7741 45.0066 71.763 45.2094 71.7783 45.4108L71.8505 46.4636L74.8533 50.5566L74.781 49.5038C74.7658 49.3011 74.7769 49.0997 74.8088 48.9025C74.8199 48.8288 74.8366 48.7552 74.8533 48.683C74.8588 48.6594 74.8658 48.6372 74.8713 48.6136C74.8852 48.5636 74.8991 48.5136 74.9144 48.465C74.9227 48.44 74.931 48.4136 74.9408 48.3886C74.9574 48.3413 74.9755 48.2941 74.9949 48.2469C75.0046 48.2233 75.0144 48.1997 75.0241 48.1761C75.0491 48.1205 75.0755 48.065 75.1033 48.0094C75.1102 47.9969 75.1158 47.983 75.1227 47.9705C75.1574 47.9052 75.1949 47.84 75.2338 47.7761C75.2852 47.6927 75.3421 47.6108 75.4005 47.5302C75.4185 47.5066 75.4366 47.4844 75.456 47.4608C75.4949 47.4108 75.5352 47.3622 75.5769 47.315C75.6213 47.265 75.6658 47.215 75.713 47.1663C75.756 47.1233 75.8005 47.083 75.8449 47.0413C75.8838 47.0066 75.9227 46.9719 75.963 46.9386C75.9922 46.9136 76.0227 46.8886 76.0533 46.865C76.0949 46.8316 76.138 46.7997 76.1824 46.7691C76.213 46.7469 76.2421 46.7247 76.2741 46.7038C76.3269 46.6691 76.381 46.6358 76.4352 46.6025C76.4616 46.5872 76.4866 46.5705 76.513 46.5552C76.6005 46.5066 76.6894 46.4608 76.781 46.4191C76.8519 46.3872 76.9227 46.3566 76.9963 46.3288C77.013 46.3219 77.031 46.3163 77.0477 46.3108C77.1005 46.2913 77.1533 46.2747 77.2074 46.258C77.3088 46.2274 77.4116 46.1983 77.5172 46.1775C77.7338 46.133 77.9477 46.1108 78.1519 46.1108C78.8158 46.1108 79.413 46.333 79.8533 46.7191C79.9783 46.8288 80.0908 46.9497 80.1894 47.0844L77.1838 42.9941Z" fill="#D0D5DD"/>
<path d="M74.8512 50.8355C74.765 50.8355 74.6803 50.7952 74.6275 50.7216L71.6248 46.6272C71.5942 46.5841 71.5748 46.5341 71.572 46.4813L71.4998 45.4286C71.4831 45.2147 71.4942 44.9897 71.5303 44.7633C71.5428 44.6883 71.5581 44.6091 71.5789 44.523C71.5831 44.5049 71.5887 44.4855 71.5928 44.4674L71.5984 44.4466C71.6137 44.3924 71.6289 44.3383 71.6456 44.2841C71.6553 44.2563 71.665 44.2286 71.6748 44.1994C71.6928 44.148 71.7123 44.0966 71.7345 44.0452L71.74 44.0299C71.7484 44.0091 71.7567 43.9883 71.7664 43.9674L71.7803 43.9327C71.8025 43.8841 71.8248 43.8397 71.8484 43.7938L71.8581 43.7744C71.8637 43.7633 71.8678 43.7536 71.8734 43.7424C71.9081 43.6758 71.9456 43.6105 71.9859 43.5452C71.9887 43.5397 71.997 43.5286 72.0012 43.523C72.0498 43.4452 72.1095 43.3549 72.1762 43.2674C72.1762 43.2661 72.1817 43.2577 72.1887 43.2494C72.1998 43.2355 72.2109 43.2216 72.2234 43.2077L72.2359 43.1924C72.2775 43.1383 72.3206 43.0855 72.3664 43.0341C72.3775 43.0188 72.3859 43.0105 72.3942 43.0008C72.4331 42.9563 72.4734 42.9147 72.5137 42.8744C72.5442 42.8438 72.5748 42.8133 72.6067 42.7841C72.6192 42.773 72.6317 42.7619 72.6442 42.7508L72.6567 42.7397C72.697 42.7022 72.74 42.6647 72.7831 42.6286L72.7984 42.6147C72.8109 42.6036 72.8234 42.5924 72.8373 42.5813C72.8484 42.573 72.8595 42.5647 72.8706 42.5563C72.9248 42.5133 72.972 42.4799 73.0192 42.4466L73.0373 42.4327C73.0525 42.4202 73.0678 42.4091 73.0845 42.398C73.0942 42.3911 73.1039 42.3855 73.1137 42.3786C73.1734 42.3383 73.2317 42.3036 73.29 42.2674L73.3081 42.2563C73.3234 42.2466 73.34 42.2355 73.3567 42.2258C73.3623 42.223 73.3748 42.2161 73.3803 42.2133C73.4678 42.1647 73.565 42.1147 73.6609 42.0702L73.6734 42.0633C73.7456 42.0313 73.8192 42.0008 73.8928 41.973C73.9053 41.9688 73.9192 41.9633 73.9317 41.9591L73.9706 41.9452C74.0081 41.9313 74.0456 41.9174 74.0845 41.9063C74.097 41.9022 74.1095 41.8994 74.122 41.8966C74.2456 41.8591 74.3525 41.8313 74.4567 41.8105C74.6914 41.7633 74.9234 41.7383 75.147 41.7383C75.8623 41.7383 76.5317 41.9786 77.0317 42.4147C77.172 42.5383 77.2998 42.6758 77.4081 42.8244L80.4109 46.9174C80.5012 47.0411 80.4748 47.2147 80.3512 47.3063C80.2275 47.3966 80.0539 47.3702 79.9623 47.2466V47.2452C79.8775 47.1299 79.7789 47.0216 79.6692 46.9258C79.2706 46.5772 78.7317 46.3855 78.1498 46.3855C77.9623 46.3855 77.7678 46.4063 77.5706 46.4466C77.4859 46.4647 77.3928 46.4883 77.2873 46.5202C77.2373 46.5355 77.1887 46.5508 77.14 46.5688L77.0928 46.5855C77.0262 46.6105 76.9609 46.6383 76.8956 46.6674C76.8137 46.7049 76.7303 46.7466 76.6484 46.7938C76.6345 46.8008 76.622 46.8091 76.6095 46.8174L76.5762 46.8369C76.5262 46.8674 76.4762 46.898 76.4275 46.9299C76.4039 46.9452 76.3831 46.9619 76.3609 46.9772L76.3442 46.9897C76.3039 47.0188 76.265 47.048 76.2262 47.0786C76.1984 47.1008 76.1706 47.123 76.1428 47.1466C76.1067 47.1772 76.0706 47.2091 76.0345 47.2411L76.022 47.2522C75.9845 47.2855 75.9484 47.3202 75.9123 47.3563C75.8692 47.4008 75.8275 47.4466 75.7873 47.4924C75.7484 47.5369 75.7123 47.5813 75.6762 47.6272L75.6539 47.6549C75.6442 47.6674 75.6345 47.6786 75.6248 47.6911C75.5692 47.7661 75.5178 47.8424 75.4706 47.9161C75.4345 47.9744 75.3998 48.0341 75.3678 48.0938L75.3498 48.1299C75.3248 48.1786 75.2998 48.2299 75.2775 48.2799L75.2511 48.3452C75.2331 48.3883 75.2164 48.4313 75.2012 48.4744C75.1928 48.498 75.1845 48.5202 75.1775 48.5438C75.1623 48.5897 75.1498 48.6341 75.1373 48.6799L75.1206 48.7424C75.1053 48.8077 75.0914 48.8744 75.0803 48.9397C75.0512 49.123 75.0428 49.3049 75.0553 49.4772L75.1275 50.5313C75.1359 50.6549 75.0623 50.7688 74.9456 50.8105C74.915 50.8299 74.8831 50.8355 74.8512 50.8355ZM72.1206 46.3647L74.5095 49.6216L74.5025 49.5244C74.4859 49.3105 74.497 49.0855 74.5331 48.8591C74.5456 48.7841 74.5609 48.7049 74.5817 48.6188C74.5859 48.6008 74.5914 48.5827 74.5956 48.5633L74.6012 48.5424C74.615 48.4883 74.6317 48.4341 74.6484 48.3799C74.6567 48.3522 74.6664 48.3244 74.6775 48.2952C74.6956 48.2438 74.715 48.1924 74.7373 48.1411L74.7442 48.1244C74.7525 48.1049 74.7609 48.0841 74.7692 48.0647C74.7956 48.0036 74.8248 47.9438 74.8553 47.8841L74.8762 47.8424C74.9137 47.7716 74.9539 47.7008 74.997 47.6327C75.0512 47.5438 75.1123 47.4549 75.1775 47.3674C75.1914 47.3494 75.2053 47.3313 75.2192 47.3147L75.2373 47.2924C75.2789 47.2397 75.322 47.1869 75.3678 47.1355C75.415 47.0813 75.4637 47.0272 75.515 46.9758C75.5567 46.9327 75.6012 46.8924 75.6456 46.8522L75.6581 46.8411C75.6998 46.8036 75.7414 46.7661 75.7845 46.7299C75.8164 46.7036 75.8484 46.6772 75.8817 46.6508C75.9275 46.6147 75.9734 46.5813 76.0206 46.548L76.0373 46.5355C76.065 46.5161 76.0914 46.4966 76.1192 46.4772C76.1762 46.4397 76.2345 46.4036 76.2928 46.3688L76.3192 46.3536C76.3387 46.3424 76.3567 46.3299 76.3775 46.3188C76.4734 46.2647 76.5706 46.2161 76.6664 46.1716C76.7428 46.1369 76.8192 46.1049 76.8984 46.0744L76.9539 46.0549C77.0109 46.0341 77.0678 46.0161 77.1262 45.998C77.2484 45.9605 77.3581 45.9313 77.4609 45.9105C78.0081 45.798 78.5373 45.8202 79.0178 45.9619L76.9623 43.1605C76.8775 43.0438 76.7775 42.9369 76.6678 42.8411C76.2692 42.4924 75.7289 42.3008 75.1484 42.3008C74.9623 42.3008 74.7664 42.3216 74.5692 42.3619C74.4831 42.3799 74.3928 42.4036 74.2859 42.4355C74.2748 42.4383 74.2637 42.4411 74.2525 42.4438C74.2234 42.4522 74.1928 42.4633 74.1623 42.4744L74.0928 42.4994C74.0289 42.523 73.9664 42.5494 73.9053 42.5772C73.8123 42.6202 73.7289 42.6633 73.6484 42.7091C73.6428 42.7119 73.6303 42.7188 73.6248 42.7216C73.6262 42.7216 73.6206 42.7258 73.6137 42.7299C73.6025 42.7383 73.59 42.7452 73.5775 42.7522C73.5275 42.7827 73.4775 42.8133 73.4289 42.8452C73.4206 42.8508 73.4109 42.8563 73.4025 42.8619C73.3928 42.8674 73.3859 42.8744 73.3789 42.8799C73.3678 42.8883 73.3567 42.8966 73.3456 42.9049C73.3053 42.9341 73.265 42.9633 73.2262 42.9938C73.2164 43.0008 73.2081 43.0077 73.1984 43.0147L73.1734 43.0355C73.1637 43.0438 73.1539 43.0536 73.1428 43.0619C73.1067 43.0924 73.0706 43.1244 73.0345 43.1563C73.0248 43.1661 73.015 43.173 73.0053 43.1813L72.9914 43.1938C72.965 43.2188 72.9387 43.2452 72.9123 43.2716C72.8775 43.3063 72.8442 43.3424 72.8109 43.3799C72.8012 43.3924 72.7942 43.4008 72.7859 43.4091C72.7484 43.4522 72.7123 43.498 72.6762 43.5424C72.6678 43.5536 72.6581 43.5647 72.6498 43.5744L72.6359 43.5911C72.6359 43.5911 72.6317 43.598 72.6262 43.6049C72.5692 43.6813 72.5178 43.7563 72.472 43.8313C72.4692 43.8355 72.465 43.8424 72.4609 43.848C72.4289 43.9008 72.3984 43.9549 72.3692 44.0091L72.3512 44.0452C72.3289 44.0897 72.3081 44.1286 72.2914 44.1674L72.2789 44.198C72.272 44.2133 72.2664 44.2286 72.2595 44.2452L72.2525 44.2619C72.2345 44.3049 72.2178 44.348 72.2025 44.3911C72.1942 44.4147 72.1859 44.4369 72.1789 44.4605C72.165 44.5049 72.1512 44.5508 72.1387 44.5952L72.122 44.6577C72.1067 44.723 72.0928 44.7883 72.0817 44.8549C72.0525 45.0383 72.0442 45.2202 72.0567 45.3924L72.1206 46.3647Z" fill="#F9FAFB"/>
<path d="M78.546 48.9191L75.5432 44.826C75.5112 44.783 75.4751 44.7427 75.4349 44.708C75.2904 44.583 75.0988 44.5107 74.8863 44.5107C74.8182 44.5121 74.7501 44.5191 74.6793 44.533C74.6418 44.5413 74.6043 44.551 74.5682 44.5621C74.5571 44.5663 74.5474 44.5705 74.5362 44.5746C74.5196 44.5802 74.5043 44.5871 74.489 44.5927C74.4751 44.5982 74.4599 44.6024 74.446 44.6094C74.421 44.6205 74.3988 44.633 74.3751 44.6455C74.3696 44.6482 74.364 44.651 74.3599 44.6538C74.3571 44.6552 74.3557 44.6566 74.3529 44.658C74.3251 44.6732 74.2987 44.6899 74.2724 44.708C74.2599 44.7163 74.2474 44.726 74.2363 44.7357C74.2307 44.7399 74.2238 44.7455 74.2182 44.7496C74.2126 44.7538 74.2057 44.758 74.2001 44.7621C74.1765 44.7816 74.1543 44.801 74.1321 44.8219C74.121 44.8316 74.1112 44.8427 74.1015 44.8524C74.089 44.8649 74.0765 44.8788 74.064 44.8913C74.0418 44.9149 74.021 44.9413 74.0015 44.9663C74.0001 44.9677 73.9987 44.9705 73.9974 44.9732C73.9932 44.9788 73.9904 44.9844 73.9862 44.9899C73.971 45.0121 73.9557 45.033 73.9418 45.0566C73.9349 45.0677 73.9293 45.0802 73.9238 45.0913C73.9154 45.1066 73.9071 45.1219 73.8987 45.1371C73.8932 45.1482 73.8863 45.1594 73.8807 45.1705C73.8724 45.1899 73.8654 45.2107 73.8585 45.2302C73.8529 45.2441 73.8474 45.258 73.8418 45.2732C73.8265 45.3191 73.814 45.3649 73.8071 45.4121C73.7974 45.476 73.7946 45.5413 73.7988 45.6066L73.8571 46.4649L76.8599 50.558L76.8015 49.6996C76.7974 49.6344 76.8001 49.5691 76.8099 49.5052C76.8168 49.458 76.8293 49.4121 76.8446 49.3663C76.8487 49.3524 76.8557 49.3385 76.8612 49.3232C76.8737 49.2913 76.8863 49.2607 76.9015 49.2302C76.9099 49.2149 76.9182 49.1996 76.9265 49.1844C76.946 49.1496 76.9668 49.1163 76.9904 49.083C76.9946 49.0774 76.9974 49.0719 77.0015 49.0663C77.0335 49.0246 77.0668 48.983 77.1043 48.9455C77.1404 48.908 77.1793 48.8746 77.221 48.8413C77.2265 48.8371 77.2335 48.8316 77.239 48.8274C77.2779 48.7982 77.3196 48.7705 77.3626 48.7455C77.3682 48.7427 77.3738 48.7399 77.3779 48.7371C77.4154 48.7177 77.4529 48.6996 77.4932 48.6844C77.5085 48.6774 77.5251 48.6719 77.5404 48.6663C77.5863 48.6496 77.6335 48.6357 77.6835 48.6246C77.7543 48.6107 77.8224 48.6038 77.8904 48.6024C78.1029 48.6024 78.2946 48.6746 78.439 48.7996C78.4779 48.8371 78.514 48.876 78.546 48.9191Z" fill="#D0D5DD"/>
<path d="M76.8578 50.8346C76.7717 50.8346 76.6869 50.7944 76.6341 50.7207L73.6314 46.6263C73.6008 46.5832 73.5814 46.5332 73.5786 46.4805L73.5203 45.6221C73.5147 45.5346 73.5175 45.4485 73.5314 45.3652C73.5411 45.3082 73.555 45.2485 73.5758 45.1832C73.5814 45.1666 73.5869 45.1513 73.5925 45.136L73.6008 45.1138C73.6078 45.093 73.6161 45.0721 73.6258 45.0513C73.6328 45.0374 73.6397 45.0235 73.6466 45.0096C73.6578 44.9888 73.6675 44.9694 73.6786 44.9485C73.6869 44.9319 73.6939 44.9194 73.7022 44.9055C73.7203 44.8763 73.7397 44.8485 73.7591 44.8221C73.7619 44.818 73.7647 44.8138 73.7689 44.8082C73.7703 44.8055 73.773 44.8027 73.7744 44.7999C73.8036 44.761 73.83 44.7305 73.8564 44.6999C73.8716 44.6832 73.8869 44.6666 73.9022 44.6513C73.9133 44.6402 73.9258 44.6263 73.9397 44.6152C73.9675 44.5888 73.9953 44.5652 74.0244 44.5416C74.0286 44.5388 74.0425 44.5277 74.0466 44.5249L74.0786 44.5013C74.0897 44.493 74.1022 44.4832 74.1147 44.4749C74.148 44.4527 74.1814 44.4319 74.2147 44.4124C74.2203 44.4096 74.2286 44.4041 74.2342 44.4027L74.2453 44.3971C74.2716 44.3832 74.3008 44.3666 74.3314 44.3527C74.3467 44.3457 74.3619 44.3402 74.3772 44.3346C74.405 44.3235 74.4244 44.3166 74.4453 44.3096C74.4591 44.3041 74.4717 44.2985 74.4855 44.2944C74.5314 44.2805 74.5772 44.268 74.623 44.2582C74.7078 44.2416 74.7911 44.2319 74.88 44.2305C75.1605 44.2305 75.4189 44.3249 75.6161 44.4957C75.673 44.5457 75.723 44.6013 75.7661 44.6596L78.7675 48.7527C78.7675 48.7527 78.7675 48.7541 78.7689 48.7541C78.8591 48.8777 78.8328 49.0513 78.7091 49.143C78.5855 49.2332 78.4119 49.2069 78.3203 49.0832C78.3008 49.0569 78.2786 49.0319 78.2536 49.0096C78.1578 48.9263 78.0286 48.8805 77.8883 48.8805C77.8383 48.8819 77.7855 48.8874 77.7355 48.8971C77.7064 48.9027 77.6744 48.9124 77.63 48.9277C77.6175 48.9319 77.605 48.9374 77.5939 48.9416C77.5647 48.9527 77.5355 48.9666 77.5078 48.9805C77.505 48.9819 77.4939 48.9874 77.4911 48.9888C77.4661 49.0027 77.4355 49.0235 77.4022 49.0471L77.2175 48.8388L77.3883 49.0582C77.3536 49.0846 77.3258 49.111 77.2994 49.1374C77.2717 49.1666 77.2453 49.1971 77.2203 49.2305L77.2119 49.243C77.1953 49.2666 77.18 49.2916 77.1647 49.318C77.1591 49.3291 77.1522 49.3402 77.1466 49.3527C77.1355 49.3735 77.1258 49.3971 77.1175 49.4194L77.1105 49.4374C77.0939 49.486 77.0855 49.518 77.0814 49.5457C77.0744 49.586 77.073 49.6319 77.0758 49.6777L77.1342 50.536C77.1425 50.6596 77.0689 50.7735 76.9522 50.8152C76.9217 50.8291 76.8897 50.8346 76.8578 50.8346ZM74.1272 46.3638L76.5203 49.6263C76.5203 49.5707 76.5258 49.5152 76.5342 49.461C76.5439 49.4041 76.5578 49.3444 76.58 49.2791C76.5842 49.2638 76.5911 49.2499 76.5967 49.2346C76.6161 49.1832 76.6328 49.1444 76.6522 49.1055C76.6619 49.0846 76.673 49.0666 76.6828 49.0471C76.7078 49.0027 76.7341 48.961 76.7633 48.9194C76.7675 48.9138 76.7717 48.9055 76.7772 48.8985C76.8161 48.8457 76.8605 48.7944 76.905 48.7485C76.9466 48.7055 76.9939 48.6638 77.048 48.6207C77.0494 48.6194 77.0633 48.6096 77.0647 48.6082C77.123 48.5652 77.173 48.5319 77.2244 48.5027C77.2286 48.4999 77.2411 48.4944 77.2453 48.4916C77.2897 48.468 77.3369 48.4457 77.3869 48.4263C77.4078 48.418 77.4272 48.411 77.4467 48.4041C77.5133 48.3805 77.5689 48.3652 77.6244 48.3527C77.673 48.343 77.7203 48.336 77.7703 48.3319L75.3189 44.9902C75.2994 44.9638 75.2772 44.9388 75.2508 44.9166C75.155 44.8346 75.0258 44.7874 74.8855 44.7874C74.8355 44.7888 74.7828 44.7944 74.7328 44.8041C74.7064 44.8096 74.6786 44.8166 74.6522 44.8249C74.6467 44.8277 74.6369 44.8319 74.6286 44.8346C74.6161 44.8388 74.6036 44.8444 74.5925 44.8485L74.5647 44.8596C74.5411 44.8694 74.523 44.8791 74.5064 44.8888C74.5036 44.8902 74.4925 44.8957 74.4897 44.8971C74.4883 44.8985 74.4855 44.8999 74.4841 44.8999C74.4661 44.911 74.4466 44.9221 74.43 44.9346L74.4022 44.9555L74.2175 44.7471L74.3897 44.9652C74.3869 44.968 74.3758 44.9763 74.373 44.9777C74.3578 44.9902 74.3411 45.0055 74.3244 45.0207L74.3008 45.0444C74.2897 45.0555 74.28 45.0652 74.2716 45.0749C74.2564 45.0916 74.2425 45.1082 74.2286 45.1263C74.2258 45.1291 74.2244 45.1332 74.223 45.1346C74.2203 45.1374 74.2161 45.1457 74.2133 45.1485C74.2022 45.1652 74.1897 45.1805 74.1786 45.1985L74.1661 45.2235C74.1592 45.236 74.1536 45.2457 74.148 45.2569L74.1341 45.2832C74.1328 45.2874 74.13 45.293 74.1286 45.2999L74.1133 45.343C74.0967 45.393 74.0883 45.4235 74.0841 45.4527C74.0772 45.493 74.0758 45.5388 74.0786 45.5846L74.1272 46.3638Z" fill="#F9FAFB"/>
<path d="M79.6048 49.1238C79.6006 49.0557 79.5909 48.989 79.5784 48.9238C79.5784 48.921 79.577 48.9182 79.5756 48.9154C79.5603 48.8432 79.5423 48.7724 79.5173 48.7043C79.4964 48.6474 79.4728 48.5918 79.445 48.5377C79.4437 48.5335 79.4409 48.5307 79.4381 48.5265C79.4312 48.5127 79.4214 48.4988 79.4145 48.4849C79.3978 48.4557 79.3812 48.4252 79.3631 48.3974C79.352 48.3807 79.3395 48.3627 79.327 48.346L76.3242 44.2529C76.3562 44.2974 76.3839 44.3446 76.4117 44.3918C76.4201 44.4057 76.4284 44.4182 76.4353 44.4335C76.4659 44.4904 76.4923 44.5502 76.5145 44.6113C76.5395 44.6793 76.5575 44.7488 76.5728 44.8224C76.5867 44.889 76.5964 44.9585 76.6006 45.0293L76.6978 46.4627L79.7006 50.5557L79.6048 49.1238Z" fill="#D0D5DD"/>
<path d="M79.7024 50.8351C79.6163 50.8351 79.5316 50.7949 79.4788 50.7212L76.476 46.6268C76.4455 46.5837 76.426 46.5337 76.4232 46.481L76.326 45.0476C76.3218 44.9907 76.3149 44.9351 76.3024 44.8768C76.2899 44.8157 76.2746 44.7574 76.2552 44.7046C76.2385 44.6587 76.2177 44.6115 76.1913 44.5615L76.1719 44.5296C76.1496 44.4907 76.126 44.4504 76.1024 44.4171C76.0121 44.2935 76.0385 44.1199 76.1621 44.0282C76.2857 43.9379 76.4593 43.9643 76.551 44.0879C76.551 44.0879 76.551 44.0893 76.5524 44.0893L79.5538 48.1824C79.5677 48.2018 79.583 48.2226 79.5968 48.2435C79.6163 48.2726 79.633 48.3018 79.6496 48.3324L79.6593 48.349C79.6705 48.3671 79.6774 48.3796 79.6843 48.3907C79.6885 48.3976 79.6927 48.406 79.6955 48.4101C79.7288 48.474 79.758 48.5407 79.783 48.6087C79.8107 48.6851 79.833 48.7657 79.851 48.8504C79.8538 48.8587 79.8552 48.8671 79.8566 48.874C79.8705 48.9462 79.8816 49.0254 79.8857 49.1046L79.983 50.5379C79.9913 50.6615 79.9177 50.7754 79.801 50.8171C79.7663 50.8296 79.7343 50.8351 79.7024 50.8351ZM76.9718 46.3643L79.3607 49.6212L79.3288 49.1435C79.326 49.0907 79.3191 49.0393 79.3093 48.9893C79.308 48.9865 79.308 48.9824 79.3066 48.9796C79.2927 48.9115 79.2774 48.8546 79.258 48.8018C79.2427 48.7587 79.2232 48.7157 79.2024 48.674C79.1996 48.6685 79.1955 48.6615 79.1927 48.6574L79.1621 48.606C79.1524 48.5893 79.1427 48.5712 79.1316 48.5546C79.1219 48.5407 79.1121 48.5268 79.1024 48.5129L76.9135 45.5282L76.9718 46.3643Z" fill="#F9FAFB"/>
<path d="M59.5265 46.4648H70.9168L71.1959 50.5565L58.457 53.1662L59.5265 46.4648Z" fill="#F7F9FC"/>
<path d="M58.4571 53.4439C58.3862 53.4439 58.3168 53.4161 58.2654 53.3675C58.2001 53.305 58.1682 53.2133 58.1835 53.123L59.2529 46.4203C59.2737 46.2855 59.3904 46.1855 59.5279 46.1855H70.9182C71.064 46.1855 71.1848 46.298 71.196 46.4439L71.4751 50.5355C71.4848 50.6744 71.3904 50.798 71.2543 50.8272L58.5154 53.4383C58.4946 53.4425 58.4751 53.4439 58.4571 53.4439ZM59.7626 46.7425L58.7946 52.8147L70.9029 50.3328L70.6585 46.7425H59.7626Z" fill="#F9FAFB"/>
<path d="M71.1959 50.5557L74.1987 54.6487L61.4598 57.2598L58.457 53.1654L71.1959 50.5557Z" fill="#98A2B3"/>
<path d="M61.4597 57.5377C61.3722 57.5377 61.2889 57.496 61.2361 57.4238L58.2333 53.3294C58.1778 53.253 58.1639 53.153 58.1986 53.0655C58.2333 52.9766 58.3097 52.9127 58.4014 52.8933L71.1403 50.2821C71.2458 50.2599 71.3556 50.303 71.4195 50.3905L74.4222 54.4849C74.4778 54.5613 74.4917 54.6613 74.457 54.7488C74.4222 54.8377 74.3458 54.9016 74.2542 54.921L61.5153 57.5322C61.4972 57.5363 61.4778 57.5377 61.4597 57.5377ZM58.9375 53.3516L61.5792 56.953L73.7195 54.4655L71.0778 50.8641L58.9375 53.3516Z" fill="#F9FAFB"/>
<path d="M73.193 59.7403C72.9013 59.4848 72.7125 59.1237 72.6833 58.6903L72.1152 50.3653L73.1736 50.1487L73.4611 54.3542C73.475 54.5598 73.6402 54.7 73.85 54.7C73.8819 54.7 73.9152 54.6973 73.95 54.6889C74.2041 54.6362 74.3972 54.4028 74.3805 54.1653L74.093 49.9598L75.9805 49.5723L76.55 57.8973C76.5583 58.032 76.5513 58.1639 76.5305 58.2959C76.4625 58.7195 76.2458 59.1223 75.9319 59.4431C75.6152 59.7639 75.2041 60.0014 74.7402 60.0973C74.5986 60.125 74.4569 60.1403 74.3208 60.1403C73.8805 60.1417 73.4861 59.9959 73.193 59.7403Z" fill="#D0D5DD"/>
<path d="M74.3177 60.4198C73.8233 60.4198 73.3594 60.2531 73.0108 59.9504L73.0094 59.949C72.6483 59.6323 72.44 59.2031 72.4066 58.7101L71.8386 50.3851C71.8289 50.2462 71.9233 50.1226 72.0594 50.0934L73.1177 49.8768C73.1955 49.8601 73.2775 49.8795 73.3413 49.9281C73.4052 49.9768 73.4455 50.0504 73.4497 50.1309L73.7372 54.3365C73.7427 54.4143 73.8177 54.4226 73.8497 54.4226C73.8636 54.4226 73.8789 54.4212 73.8941 54.4184C74.0219 54.392 74.1094 54.274 74.1039 54.1865L73.8164 49.9809C73.8066 49.842 73.9011 49.7184 74.0372 49.6893L75.9247 49.3018C76.0025 49.2851 76.0844 49.3045 76.1483 49.3531C76.2122 49.4018 76.2525 49.4754 76.2566 49.5559L76.8261 57.8809C76.8358 58.0379 76.8275 58.192 76.8039 58.342C76.7289 58.8115 76.4886 59.2726 76.1288 59.6406C75.7594 60.0143 75.2983 60.267 74.7941 60.3726C74.633 60.4045 74.4733 60.4198 74.3177 60.4198ZM73.3747 59.5323C73.7052 59.8184 74.1858 59.9281 74.683 59.8281C75.0775 59.7462 75.44 59.5462 75.7316 59.2518C76.0108 58.967 76.1969 58.6129 76.2539 58.2559C76.2719 58.1448 76.2775 58.0323 76.2705 57.9184L75.7233 49.9129L74.3858 50.1865L74.6566 54.1504C74.683 54.5268 74.3955 54.8837 74.0052 54.9643C73.9539 54.9754 73.9011 54.9809 73.8497 54.9809C73.4872 54.9809 73.208 54.7268 73.183 54.3768L72.9177 50.4879L72.4094 50.592L72.9608 58.674C72.9844 59.017 73.1275 59.3143 73.3747 59.5323Z" fill="#F9FAFB"/>
<path d="M71.8496 46.4639H72.9232L73.1746 50.15L72.1163 50.3666L71.8496 46.4639Z" fill="#F7F9FC"/>
<path d="M72.116 50.6449C72.0563 50.6449 71.9966 50.6254 71.948 50.5879C71.8841 50.5393 71.8438 50.4657 71.8396 50.3851L71.573 46.4824C71.5674 46.406 71.5952 46.3296 71.6466 46.274C71.6994 46.2185 71.773 46.1865 71.8493 46.1865H72.9216C73.0674 46.1865 73.1882 46.299 73.1994 46.4449L73.4507 50.131C73.4605 50.2699 73.366 50.3935 73.2299 50.4226L72.1716 50.6393C72.1535 50.6435 72.1355 50.6449 72.116 50.6449ZM72.1466 46.7421L72.3716 50.031L72.8799 49.9268L72.6619 46.7421H72.1466Z" fill="#F9FAFB"/>
<path d="M81.7077 50.8351C81.6216 50.8351 81.5369 50.7948 81.4841 50.7212L78.4813 46.6267C78.4508 46.5837 78.4314 46.5337 78.4286 46.4809L78.2619 44.042C78.2577 43.974 78.2508 43.9073 78.2411 43.8406L78.2314 43.7781C78.2244 43.7351 78.2175 43.6906 78.2091 43.6476C78.2008 43.6045 78.1897 43.5628 78.1786 43.5212L78.1605 43.4462C78.1425 43.3809 78.1216 43.3156 78.098 43.2531C78.0647 43.1628 78.0244 43.0684 77.973 42.9656L77.955 42.9281C77.9147 42.8517 77.8702 42.774 77.8202 42.699C77.7911 42.6545 77.7675 42.6184 77.7411 42.5837C77.6508 42.4601 77.6772 42.2865 77.8008 42.1948C77.8508 42.1587 77.9077 42.1406 77.9647 42.1406C78.0508 42.1406 78.1341 42.1795 78.1883 42.2545L81.1911 46.349C81.2189 46.3865 81.2452 46.4253 81.2716 46.4642C81.2758 46.4712 81.2869 46.4892 81.2911 46.4962C81.3452 46.5795 81.3994 46.6698 81.4452 46.7587C81.4508 46.767 81.455 46.7753 81.4591 46.7851C81.4633 46.7934 81.4689 46.8059 81.4744 46.8198C81.5327 46.9351 81.5814 47.049 81.6216 47.1587C81.6494 47.2351 81.6744 47.3128 81.6966 47.392C81.7022 47.4115 81.7063 47.4295 81.7105 47.449L81.7161 47.474C81.73 47.5267 81.7425 47.5795 81.7536 47.6351C81.7536 47.6365 81.7564 47.6448 81.7577 47.6531C81.7647 47.6865 81.7702 47.7212 81.7744 47.7559C81.7744 47.7559 81.7897 47.8476 81.7911 47.8656C81.8022 47.9434 81.8091 48.0226 81.8147 48.1031L81.9814 50.5406C81.9897 50.6642 81.9161 50.7781 81.7994 50.8198C81.7716 50.8295 81.7397 50.8351 81.7077 50.8351Z" fill="#D0D5DD"/>
<path d="M77.9648 42.421L80.9676 46.5154C80.9926 46.5501 81.0176 46.5849 81.0412 46.621C81.0467 46.6279 81.0495 46.6362 81.0551 46.6432C81.1079 46.7251 81.1579 46.8085 81.2037 46.896C81.2065 46.9015 81.2092 46.9057 81.212 46.9112C81.2162 46.9196 81.219 46.9293 81.2245 46.939C81.2759 47.0418 81.3231 47.146 81.362 47.2557C81.387 47.3251 81.4092 47.3974 81.4301 47.4696C81.437 47.4946 81.4426 47.5196 81.4481 47.5446C81.4606 47.5932 81.4731 47.6418 81.4829 47.6918C81.4842 47.6974 81.4856 47.7029 81.487 47.7085C81.4953 47.7501 81.5009 47.7918 81.5079 47.8335C81.512 47.8571 81.5162 47.8793 81.519 47.9029C81.5287 47.9751 81.5356 48.0474 81.5412 48.121L81.7079 50.5599L78.7051 46.4668L78.5384 44.0279C78.5329 43.9543 78.5259 43.8807 78.5162 43.8099C78.5134 43.7862 78.5079 43.764 78.5051 43.7404C78.4981 43.6932 78.4898 43.646 78.4801 43.5987C78.4704 43.5487 78.4579 43.5001 78.4454 43.4515C78.4384 43.4265 78.4342 43.4015 78.4273 43.3779C78.4065 43.3057 78.3842 43.2335 78.3592 43.164C78.319 43.0543 78.2731 42.9501 78.2217 42.8474C78.2148 42.8335 78.2079 42.8196 78.2009 42.8057C78.1551 42.7182 78.1051 42.6349 78.0523 42.5529C78.0231 42.5057 77.9954 42.4626 77.9648 42.421ZM78.4134 42.0918L77.9648 42.421L77.5176 42.7501C77.5412 42.7821 77.5634 42.8154 77.5842 42.8487C77.6315 42.9224 77.6731 42.9904 77.7079 43.0585L77.712 43.0668L77.7245 43.0918C77.7717 43.1862 77.8092 43.271 77.837 43.3501C77.837 43.3515 77.8384 43.3529 77.8384 43.3529C77.8579 43.4071 77.8759 43.464 77.8926 43.5237C77.894 43.5307 77.8954 43.5376 77.8981 43.5446C77.9009 43.5585 77.9051 43.571 77.9079 43.5849C77.919 43.6279 77.9287 43.6668 77.937 43.7071C77.9454 43.7446 77.9509 43.7835 77.9565 43.8224L77.962 43.8599C77.9634 43.8668 77.9648 43.8737 77.9648 43.8807C77.9731 43.9446 77.9787 44.0043 77.9829 44.0626L78.1495 46.5015C78.1565 46.6071 78.194 46.7071 78.2565 46.7918L81.2592 50.8849C81.3662 51.0307 81.5342 51.1112 81.7079 51.1112C81.7717 51.1112 81.8356 51.1001 81.8981 51.0779C82.1301 50.9932 82.2787 50.7654 82.262 50.5182L82.0954 48.0793C82.0898 47.9974 82.0815 47.9112 82.0704 47.8251C82.0676 47.8029 82.0634 47.7821 82.0606 47.7599L82.0578 47.7418L82.0537 47.7168C82.0481 47.6765 82.0412 47.6349 82.0328 47.596C82.0315 47.589 82.0287 47.5779 82.0259 47.5654C82.0134 47.5085 82.0009 47.4557 81.987 47.4029L81.9829 47.3835C81.9773 47.3599 81.9717 47.3376 81.9662 47.3154C81.9412 47.2279 81.9148 47.1432 81.8856 47.0626C81.8842 47.0612 81.8842 47.0585 81.8829 47.0571C81.8412 46.9418 81.7912 46.8265 81.7287 46.7015C81.7217 46.6849 81.7148 46.6682 81.7065 46.6529C81.7023 46.6446 81.6954 46.6335 81.6884 46.621C81.6398 46.5293 81.587 46.439 81.5287 46.3487C81.5203 46.3349 81.512 46.321 81.5037 46.3071C81.4759 46.2668 81.4467 46.2251 81.4176 46.1835L78.4134 42.0918Z" fill="#F9FAFB"/>
<path d="M73.8555 46.4639H75.7694L75.9819 49.575L74.0944 49.9611L73.8555 46.4639Z" fill="#F7F9FC"/>
<path d="M74.0941 50.2393C74.0344 50.2393 73.9747 50.2199 73.926 50.1824C73.8622 50.1337 73.8219 50.0601 73.8177 49.9796L73.5788 46.4824C73.5733 46.406 73.6011 46.3296 73.6524 46.274C73.7052 46.2185 73.7788 46.1865 73.8552 46.1865H75.7677C75.9135 46.1865 76.0344 46.299 76.0455 46.4449L76.258 49.556C76.2677 49.6949 76.1733 49.8185 76.0372 49.8476L74.1497 50.2337C74.1316 50.2379 74.1122 50.2393 74.0941 50.2393ZM74.1524 46.7421L74.3497 49.6268L75.6872 49.3532L75.5094 46.7435H74.1524V46.7421Z" fill="#F9FAFB"/>
<path d="M76.6992 46.4639H77.7728L77.9576 49.1694L76.8992 49.3861L76.6992 46.4639Z" fill="#F7F9FC"/>
<path d="M76.899 49.6643C76.8392 49.6643 76.7795 49.6449 76.7309 49.6074C76.667 49.5587 76.6267 49.4851 76.6226 49.4046L76.4226 46.4824C76.417 46.406 76.4448 46.3296 76.4962 46.274C76.549 46.2185 76.6226 46.1865 76.699 46.1865H77.7726C77.9184 46.1865 78.0392 46.299 78.0503 46.4449L78.2351 49.1504C78.2448 49.2893 78.1503 49.4129 78.0142 49.4421L76.9559 49.6587C76.9365 49.6629 76.917 49.6643 76.899 49.6643ZM76.9962 46.7421L77.1545 49.0518L77.6642 48.9476L77.5142 46.7435H76.9962V46.7421Z" fill="#F9FAFB"/>
<path d="M78.7051 46.4648H104.733L97.3787 92.5773H85.5092L83.6829 104.027L83.4454 104.225H82.1342C83.0717 103.695 83.6898 102.684 83.5981 101.676L81.6634 80.2801H90.8676C91.269 80.2801 91.6454 79.9662 91.7065 79.5787C91.769 79.1898 91.4926 78.8773 91.0912 78.8773H81.537L81.0176 73.1273H92.0092C92.4106 73.1273 92.787 72.8135 92.8495 72.4246C92.9106 72.0371 92.6356 71.7232 92.2342 71.7232H80.8912L80.3717 65.9732H93.1509C93.5523 65.9732 93.9287 65.6593 93.9912 65.2704C94.0523 64.8829 93.7773 64.569 93.3759 64.569H80.2565C80.2745 63.3579 81.2801 62.1996 82.5829 61.9315C83.9537 61.6496 84.994 60.3871 84.9051 59.1093L84.8856 58.819H94.2926C94.694 58.819 95.0704 58.5051 95.1329 58.1162C95.194 57.7287 94.919 57.4148 94.5176 57.4148H84.7898L84.2981 50.2218C84.2231 49.1148 83.3273 48.3593 82.1995 48.3593C82.0245 48.3593 81.844 48.3773 81.6606 48.4148L79.1815 48.9232L78.8801 48.9843L78.7051 46.4648Z" fill="#F7F9FC"/>
<path d="M83.4448 104.503H82.1337C82.0073 104.503 81.8976 104.419 81.8657 104.296C81.8337 104.174 81.8879 104.046 81.9976 103.984C82.8684 103.492 83.4004 102.574 83.3212 101.702L81.3865 80.3061C81.3796 80.2283 81.4059 80.152 81.4587 80.0936C81.5115 80.0367 81.5865 80.0033 81.6643 80.0033H90.8685C91.1337 80.0033 91.3935 79.7895 91.4337 79.5353C91.4504 79.4311 91.4282 79.3395 91.3685 79.2686C91.306 79.195 91.2073 79.1547 91.0921 79.1547H81.5379C81.3948 79.1547 81.274 79.045 81.2615 78.902L80.7421 73.152C80.7351 73.0742 80.7615 72.9978 80.8143 72.9395C80.8671 72.8825 80.9421 72.8492 81.0198 72.8492H92.0115C92.2768 72.8492 92.5365 72.6339 92.5768 72.3797C92.5935 72.277 92.5698 72.1825 92.5101 72.1131C92.4476 72.0395 92.349 71.9992 92.2351 71.9992H80.8921C80.749 71.9992 80.6282 71.8895 80.6157 71.7464L80.0962 65.9964C80.0893 65.9186 80.1157 65.8422 80.1685 65.7839C80.2212 65.727 80.2962 65.6936 80.374 65.6936H93.1532C93.4185 65.6936 93.6782 65.4783 93.7185 65.2242C93.7351 65.1214 93.7115 65.027 93.6532 64.9589C93.5907 64.8853 93.4921 64.845 93.3782 64.845H80.2587C80.1837 64.845 80.1129 64.8158 80.0615 64.7617C80.0101 64.7075 79.981 64.6367 79.9823 64.5631C80.0032 63.2006 81.0976 61.952 82.5296 61.6575C83.7671 61.4033 84.7101 60.2686 84.631 59.127L84.6115 58.8367C84.606 58.7603 84.6337 58.6839 84.6851 58.6283C84.7379 58.5714 84.8115 58.5408 84.8879 58.5408H94.2948C94.5601 58.5408 94.8198 58.3256 94.8601 58.0714C94.8768 57.9686 94.8532 57.8742 94.7948 57.8047C94.7323 57.7311 94.6337 57.6908 94.5198 57.6908H84.7921C84.6462 57.6908 84.5254 57.5783 84.5143 57.4325L84.0226 50.2395C83.9587 49.295 83.2101 48.6367 82.2004 48.6367C82.0421 48.6367 81.8796 48.6533 81.7171 48.6867L78.9365 49.2575C78.8573 49.2742 78.7768 49.2547 78.7129 49.2061C78.649 49.1575 78.6087 49.0839 78.6046 49.0033L78.4323 46.4853C78.4268 46.4089 78.4546 46.3325 78.506 46.277C78.5587 46.2214 78.6323 46.1895 78.7087 46.1895H104.737C104.818 46.1895 104.895 46.2256 104.948 46.2867C105 46.3478 105.024 46.4297 105.01 46.5103L97.656 92.6228C97.6351 92.7575 97.5185 92.8575 97.381 92.8575H85.749L83.9601 104.074C83.949 104.141 83.9157 104.201 83.8629 104.244L83.6254 104.441C83.5726 104.48 83.5101 104.503 83.4448 104.503ZM82.9615 103.948H83.3448L83.4254 103.881L83.5351 103.189C83.3865 103.463 83.1921 103.72 82.9615 103.948ZM81.9671 80.5575L83.8407 101.277L85.2351 92.5339C85.2559 92.3992 85.3726 92.2992 85.5101 92.2992H97.1421L104.407 46.7422H79.0018L79.1323 48.6464L81.6018 48.1395C81.8004 48.0992 82.0018 48.0783 82.1962 48.0783C83.4907 48.0783 84.4893 48.97 84.5726 50.1992L85.0462 57.1339H94.5143C94.7907 57.1339 95.0448 57.2464 95.2129 57.4436C95.3796 57.6381 95.4476 57.8922 95.4046 58.1575C95.3212 58.6825 94.831 59.095 94.2907 59.095H85.181C85.274 60.502 84.1337 61.895 82.6365 62.202C81.574 62.42 80.7115 63.3075 80.5559 64.2895H93.3726C93.649 64.2895 93.9032 64.402 94.0712 64.5992C94.2379 64.7936 94.306 65.0478 94.2629 65.3131C94.1796 65.8381 93.6893 66.2506 93.149 66.2506H80.674L81.1435 71.445H92.2323C92.5087 71.445 92.7629 71.5575 92.931 71.7533C93.0976 71.9478 93.1657 72.202 93.1226 72.4672C93.0393 72.9922 92.549 73.4047 92.0087 73.4047H81.3212L81.7907 78.5992H91.0921C91.3685 78.5992 91.6226 78.7117 91.7907 78.9075C91.956 79.102 92.024 79.3561 91.9823 79.6214C91.899 80.1464 91.4101 80.5575 90.8685 80.5575H81.9671Z" fill="#F9FAFB"/>
<path d="M94.5149 57.4102C94.9163 57.4102 95.1927 57.724 95.1302 58.1115C95.0677 58.5004 94.6913 58.8143 94.2899 58.8143H84.8829L84.7871 57.4102H94.5149Z" fill="#D0D5DD"/>
<path d="M94.291 59.0931H84.8841C84.7382 59.0931 84.6174 58.9806 84.6063 58.8348L84.5105 57.4306C84.5049 57.3542 84.5327 57.2778 84.5841 57.2223C84.6369 57.1667 84.7105 57.1348 84.7869 57.1348H94.5132C94.7896 57.1348 95.0438 57.2473 95.2119 57.4445C95.3785 57.6389 95.4466 57.8931 95.4035 58.1584C95.3202 58.6806 94.8313 59.0931 94.291 59.0931ZM85.1424 58.5375H94.2896C94.5549 58.5375 94.8146 58.3223 94.8549 58.0681C94.8716 57.9653 94.848 57.8709 94.7896 57.8014C94.7271 57.7278 94.6285 57.6875 94.5146 57.6875H85.0855L85.1424 58.5375Z" fill="#D0D5DD"/>
<path d="M93.3734 64.5654C93.7747 64.5654 94.0511 64.8793 93.9886 65.2668C93.9261 65.6557 93.5497 65.9696 93.1484 65.9696H80.3692L80.2595 64.7502C80.2553 64.689 80.2539 64.6265 80.2539 64.5654H93.3734Z" fill="#D0D5DD"/>
<path d="M93.1499 66.2478H80.3707C80.2276 66.2478 80.1068 66.1381 80.0943 65.995L79.9846 64.7756C79.979 64.7006 79.9776 64.6311 79.979 64.5617C79.9818 64.4103 80.1054 64.2881 80.2568 64.2881H93.3762C93.6526 64.2881 93.9068 64.4006 94.0748 64.5978C94.2415 64.7923 94.3096 65.0464 94.2665 65.3117C94.1804 65.8367 93.6915 66.2478 93.1499 66.2478ZM80.6235 65.6923H93.1499C93.4151 65.6923 93.6749 65.477 93.7151 65.2228C93.7318 65.12 93.7082 65.0256 93.6498 64.9561C93.5873 64.8825 93.4887 64.8423 93.3749 64.8423H80.5485L80.6235 65.6923Z" fill="#D0D5DD"/>
<path d="M92.2317 71.7207C92.6331 71.7207 92.9095 72.0346 92.847 72.4221C92.7845 72.811 92.4081 73.1249 92.0067 73.1249H81.0151L80.8887 71.7207H92.2317Z" fill="#D0D5DD"/>
<path d="M92.0069 73.4031H81.0152C80.8721 73.4031 80.7513 73.2934 80.7388 73.1503L80.6124 71.7461C80.6055 71.6684 80.6319 71.592 80.6846 71.5336C80.7374 71.4767 80.8124 71.4434 80.8902 71.4434H92.2333C92.5096 71.4434 92.7638 71.5559 92.9319 71.7531C93.0985 71.9475 93.1666 72.2017 93.1235 72.467C93.0374 72.992 92.5485 73.4031 92.0069 73.4031ZM81.2694 72.8475H92.0069C92.2721 72.8475 92.5319 72.6322 92.5721 72.3781C92.5888 72.2753 92.5652 72.1809 92.5055 72.1114C92.443 72.0378 92.3444 71.9975 92.2305 71.9975H81.193L81.2694 72.8475Z" fill="#D0D5DD"/>
<path d="M91.0913 78.876C91.4927 78.876 91.7691 79.1885 91.7066 79.5774C91.6454 79.9649 91.2691 80.2788 90.8677 80.2788H81.6635L81.5371 78.876H91.0913Z" fill="#D0D5DD"/>
<path d="M90.8678 80.557H81.6636C81.5206 80.557 81.3998 80.4472 81.3873 80.3042L81.2609 78.9014C81.2539 78.8236 81.2803 78.7472 81.3331 78.6889C81.3859 78.632 81.4609 78.5986 81.5386 78.5986H91.0928C91.3692 78.5986 91.6234 78.7111 91.7914 78.907C91.9567 79.1014 92.0247 79.3556 91.9831 79.6209C91.8984 80.1459 91.4081 80.557 90.8678 80.557ZM81.9178 80.0014H90.8678C91.1331 80.0014 91.3928 79.7875 91.4331 79.5334C91.4497 79.4292 91.4275 79.3375 91.3678 79.2667C91.3053 79.1931 91.2067 79.1528 91.0914 79.1528H81.8414L81.9178 80.0014Z" fill="#D0D5DD"/>
<path d="M104.733 46.4639L107.736 50.5569L100.382 96.6708L97.3789 92.5764L104.733 46.4639Z" fill="#E4E7EC"/>
<path d="M100.382 96.9489C100.294 96.9489 100.211 96.9073 100.158 96.835L97.1554 92.7406C97.111 92.6809 97.0929 92.6059 97.1054 92.5322L104.46 46.4198C104.478 46.3086 104.56 46.2198 104.668 46.1934C104.776 46.167 104.892 46.2086 104.957 46.2989L107.96 50.3934C108.004 50.4531 108.022 50.5281 108.01 50.6017L100.655 96.7142C100.637 96.8253 100.555 96.9142 100.447 96.9406C100.425 96.9461 100.404 96.9489 100.382 96.9489ZM97.6721 92.5059L100.212 95.9697L107.444 50.6281L104.904 47.1642L97.6721 92.5059Z" fill="#F9FAFB"/>
<path d="M97.38 92.5762L83.6855 104.026L85.5105 92.5762H97.38Z" fill="#D0D5DD"/>
<path d="M83.6847 104.304C83.6375 104.304 83.5902 104.292 83.5472 104.268C83.4458 104.211 83.3916 104.097 83.4097 103.984L85.2361 92.5336C85.2569 92.3988 85.3736 92.2988 85.5111 92.2988H97.3805C97.4972 92.2988 97.6013 92.3724 97.6416 92.4822C97.6819 92.5919 97.6486 92.7155 97.5583 92.7905L83.8638 104.241C83.8111 104.284 83.7472 104.304 83.6847 104.304ZM85.7472 92.8544L84.075 103.338L96.6139 92.8544H85.7472Z" fill="#F9FAFB"/>
<path d="M97.378 92.5771L100.381 96.6716L86.685 108.122L83.6836 104.027L97.378 92.5771Z" fill="#D0D5DD"/>
<path d="M86.6842 108.399C86.6731 108.399 86.662 108.399 86.6509 108.398C86.5745 108.388 86.5065 108.348 86.4606 108.287L83.4579 104.192C83.3718 104.074 83.3912 103.909 83.5037 103.814L97.1981 92.3645C97.2565 92.3158 97.3329 92.2922 97.4093 92.302C97.4856 92.3117 97.5537 92.352 97.5995 92.4131L100.602 96.5075C100.688 96.6256 100.669 96.7908 100.556 96.8853L86.8634 108.334C86.8134 108.377 86.7495 108.399 86.6842 108.399ZM84.0606 104.073L86.7343 107.717L100.002 96.6242L97.3287 92.9797L84.0606 104.073Z" fill="#F9FAFB"/>
<path d="M83.6822 104.026L86.6836 108.121L83.4434 104.225L83.6822 104.026Z" fill="#E4E7EC"/>
<path d="M86.6859 108.399C86.6067 108.399 86.5276 108.364 86.472 108.299L83.2317 104.403C83.1845 104.346 83.1623 104.274 83.1692 104.2C83.1762 104.126 83.2123 104.058 83.2678 104.012L83.5053 103.815C83.5637 103.767 83.6414 103.744 83.7164 103.753C83.7928 103.762 83.8609 103.803 83.9067 103.864L86.9095 107.957C86.9984 108.078 86.9748 108.247 86.8567 108.34C86.8053 108.379 86.7456 108.399 86.6859 108.399Z" fill="#F9FAFB"/>
<path d="M83.4439 104.226L86.6842 108.121L85.1356 108.319L82.1328 104.226H83.4439Z" fill="#E4E7EC"/>
<path d="M85.1357 108.597C85.0482 108.597 84.9649 108.555 84.9121 108.483L81.9093 104.388C81.8468 104.304 81.8385 104.193 81.8857 104.098C81.9329 104.005 82.0287 103.945 82.1329 103.945H83.444C83.526 103.945 83.6051 103.981 83.6579 104.045L86.8982 107.941C86.9635 108.019 86.9801 108.126 86.9426 108.22C86.9051 108.315 86.8204 108.381 86.719 108.394L85.169 108.591C85.1593 108.595 85.1468 108.597 85.1357 108.597ZM82.6815 104.504L85.2635 108.023L86.1482 107.911L83.3149 104.504H82.6815Z" fill="#F9FAFB"/>
<path d="M82.5533 103.939C82.4908 103.989 82.4255 104.038 82.3588 104.084C82.2894 104.131 82.2172 104.177 82.1435 104.219C82.1394 104.221 82.1366 104.223 82.1324 104.226C82.0546 104.27 81.9755 104.31 81.8935 104.346C81.7894 104.394 81.681 104.435 81.5713 104.47C81.4755 104.501 81.3783 104.526 81.2796 104.546L50.1866 110.92C50.0033 110.958 49.8227 110.976 49.6477 110.976C48.9255 110.976 48.2963 110.666 47.9199 110.151L50.9227 114.244C51.3005 114.759 51.9283 115.069 52.6505 115.069C52.8255 115.069 53.006 115.051 53.1894 115.013L84.2824 108.639C84.381 108.619 84.4797 108.594 84.5741 108.563C84.6838 108.528 84.7921 108.487 84.8963 108.439C84.9783 108.402 85.0574 108.362 85.1352 108.319C85.1394 108.316 85.1422 108.314 85.1463 108.312C85.2199 108.27 85.2921 108.224 85.3616 108.177C85.4283 108.131 85.4935 108.083 85.556 108.033L82.5533 103.939Z" fill="#667185"/>
<path d="M52.6498 115.346C51.847 115.346 51.1345 115.004 50.697 114.409L47.6942 110.314C47.6039 110.191 47.6303 110.017 47.7539 109.925C47.8775 109.835 48.0511 109.861 48.1428 109.985L48.1442 109.986C48.4761 110.436 49.0234 110.696 49.647 110.696C49.8053 110.696 49.9678 110.679 50.1303 110.646L81.2234 104.273C81.3123 104.254 81.4011 104.231 81.4873 104.203C81.5859 104.171 81.6845 104.134 81.7789 104.091C81.8525 104.057 81.9248 104.02 81.9956 103.981C82.072 103.938 82.1386 103.896 82.2011 103.853C82.2609 103.811 82.3206 103.768 82.3775 103.721C82.4373 103.674 82.5123 103.652 82.5873 103.661C82.6623 103.671 82.7303 103.711 82.7761 103.773L85.7789 107.866C85.8664 107.985 85.8456 108.152 85.7303 108.246C85.6623 108.302 85.5914 108.354 85.5192 108.404C85.4428 108.457 85.3637 108.507 85.2845 108.552L85.272 108.559C85.1873 108.606 85.0998 108.65 85.0109 108.691C84.897 108.742 84.7775 108.788 84.6581 108.825C84.5525 108.859 84.4456 108.886 84.3373 108.909L53.2442 115.282C53.0456 115.325 52.8456 115.346 52.6498 115.346ZM49.0178 111.178L51.1456 114.079C51.4775 114.531 52.0248 114.791 52.6498 114.791C52.8081 114.791 52.9706 114.774 53.1331 114.741L84.2262 108.367C84.315 108.349 84.4039 108.325 84.49 108.298C84.5886 108.266 84.6873 108.228 84.7817 108.185C84.8553 108.152 84.9289 108.114 84.9984 108.075C85.0595 108.041 85.115 108.007 85.1664 107.973L82.4928 104.327C82.4248 104.373 82.3525 104.417 82.2817 104.459C82.2803 104.459 82.2678 104.466 82.2678 104.467C82.1845 104.514 82.097 104.559 82.0081 104.599C81.8942 104.65 81.7748 104.696 81.6553 104.734C81.5498 104.767 81.4428 104.795 81.3345 104.817L50.2414 111.191C49.8234 111.277 49.3998 111.271 49.0178 111.178Z" fill="#F9FAFB"/>
<path d="M83.598 101.675C83.6896 102.683 83.0716 103.694 82.1341 104.224C81.8716 104.372 81.5841 104.482 81.2813 104.544L50.1883 110.918C50.0049 110.955 49.8244 110.974 49.6494 110.974C48.5341 110.974 47.6452 110.236 47.5521 109.146L43.2688 58.6263C43.1813 57.3485 44.2216 56.0832 45.5924 55.8027L58.4591 53.1652L71.198 50.5541L71.766 58.8805C71.8105 59.5138 72.091 60.0513 72.5202 60.4277C72.9508 60.8027 73.5313 61.0194 74.1799 61.0207C74.3813 61.0207 74.5883 60.9985 74.7994 60.9555C75.4785 60.8166 76.0924 60.4638 76.5577 59.9916C77.0216 59.5194 77.3424 58.9249 77.4424 58.2971C77.473 58.1041 77.4827 57.9069 77.4688 57.711L76.9008 49.386L77.9591 49.1694L78.3105 54.3305C78.3244 54.536 78.491 54.6749 78.7008 54.6749C79.0535 54.6124 79.2466 54.3777 79.2299 54.1416L78.8771 48.9805L79.1785 48.9194L81.6577 48.411C81.841 48.3735 82.0216 48.3555 82.1966 48.3555C83.3257 48.3555 84.2216 49.111 84.2952 50.218L84.7869 57.411L84.8827 58.8152L84.9021 59.1055C84.9896 60.3832 83.9494 61.6471 82.5799 61.9277C81.2771 62.1957 80.2716 63.3527 80.2535 64.5652C80.2521 64.6263 80.2535 64.6888 80.2591 64.7499L80.3688 65.9694L80.8882 71.7194L81.0146 73.1235L81.5341 78.8735L81.6605 80.2763L83.598 101.675Z" fill="#D0D5DD"/>
<path d="M49.649 111.252C48.3754 111.252 47.3782 110.377 47.2754 109.17L42.9921 58.6503C42.8949 57.2365 44.0365 55.8392 45.5365 55.5309L71.1421 50.2837C71.2213 50.267 71.3018 50.2865 71.3657 50.3351C71.4296 50.3837 71.4699 50.4573 71.474 50.5378L72.0421 58.8642C72.0796 59.4003 72.3143 59.8823 72.7018 60.2212C73.0879 60.5573 73.6129 60.7434 74.1796 60.7448C74.3588 60.7448 74.549 60.7253 74.7435 60.6851C75.3421 60.5628 75.9157 60.2476 76.3588 59.799C76.7921 59.3587 77.0782 58.8101 77.1671 58.2559C77.1949 58.0781 77.2032 57.9031 77.1907 57.7337L76.6227 49.4059C76.6129 49.267 76.7074 49.1434 76.8435 49.1142L77.9018 48.8976C77.9796 48.8809 78.0615 48.9003 78.1254 48.949C78.1893 48.9976 78.2296 49.0712 78.2338 49.1517L78.5865 54.3128C78.5907 54.3767 78.6435 54.3934 78.6796 54.3976C78.8671 54.3573 78.9588 54.2503 78.9518 54.1628L78.599 49.0017C78.5893 48.8628 78.6838 48.7392 78.8199 48.7101L81.6004 48.1392C81.8004 48.099 82.0004 48.0781 82.1949 48.0781C83.4893 48.0781 84.4879 48.9698 84.5713 50.199L85.1782 59.0878C85.2754 60.4962 84.1338 61.8934 82.6338 62.2017C81.4699 62.4406 80.5463 63.4809 80.5296 64.5712C80.5282 64.6253 80.5296 64.6781 80.5338 64.7323L83.8713 101.652C83.9699 102.738 83.3254 103.87 82.2671 104.467C81.9727 104.634 81.6588 104.752 81.3338 104.818L50.2407 111.192C50.0449 111.231 49.8449 111.252 49.649 111.252ZM70.9407 50.892L45.6463 56.0753C44.4088 56.3295 43.4657 57.4656 43.5449 58.6087L47.8282 109.124C47.9074 110.05 48.656 110.698 49.649 110.698C49.8074 110.698 49.9699 110.681 50.1324 110.648L81.2254 104.274C81.4935 104.218 81.7532 104.121 81.9977 103.984C82.8685 103.492 83.4004 102.575 83.3213 101.702L79.9824 64.7767C79.9768 64.7017 79.9754 64.6323 79.9768 64.5628C79.9977 63.2003 81.0935 61.9517 82.5254 61.6573C83.7629 61.4031 84.706 60.2684 84.6268 59.1267L84.0199 50.2378C83.956 49.2934 83.2074 48.6351 82.1977 48.6351C82.0393 48.6351 81.8768 48.6517 81.7143 48.6851L79.1713 49.2073L79.5074 54.1253C79.5352 54.5212 79.2171 54.8684 78.7491 54.9503C78.7338 54.9531 78.7171 54.9545 78.7004 54.9545C78.3379 54.9545 78.056 54.7003 78.0324 54.3503L77.7018 49.5059L77.1921 49.6101L77.7435 57.6934C77.7588 57.9031 77.749 58.1226 77.7143 58.342C77.6074 59.0087 77.2671 59.6642 76.7532 60.1865C76.2338 60.7142 75.5588 61.0837 74.8532 61.2281C74.6213 61.2753 74.3935 61.299 74.1782 61.299C73.4768 61.2976 72.8227 61.0628 72.3352 60.6378C71.8352 60.2003 71.5338 59.5837 71.4865 58.9003L70.9407 50.892Z" fill="#F9FAFB"/>
<path d="M74.1764 61.299C73.4764 61.2976 72.8222 61.0629 72.3347 60.6379C71.8347 60.2004 71.5333 59.5837 71.4861 58.9004L70.5792 45.6184C70.5597 45.3379 70.5722 45.0504 70.618 44.7656C70.7583 43.8851 71.2083 43.0212 71.8861 42.3337C72.5708 41.6365 73.4625 41.1476 74.3972 40.9559C74.6972 40.8948 74.9958 40.8643 75.2861 40.8643C76.2055 40.8643 77.0653 41.1726 77.7055 41.7309C78.3611 42.3031 78.7555 43.1115 78.8139 44.0059L79.5055 54.1226C79.5319 54.499 79.2458 54.8559 78.8541 54.9365C78.8014 54.9462 78.75 54.9518 78.7 54.9518C78.3375 54.9518 78.0569 54.6976 78.0319 54.3476L77.3417 44.2309C77.3028 43.6712 77.0694 43.1893 76.6653 42.8365C76.2666 42.4879 75.7278 42.2962 75.1458 42.2962C74.9583 42.2962 74.7639 42.317 74.5666 42.3573C73.943 42.4851 73.3694 42.8004 72.9083 43.2684C72.4639 43.7198 72.1694 44.2823 72.0792 44.8518C72.05 45.0351 72.0417 45.217 72.0542 45.3893L72.9611 58.6712C72.9847 59.0156 73.1278 59.3129 73.3764 59.5309C73.6236 59.7448 73.9583 59.8629 74.318 59.8629C74.4361 59.8629 74.5597 59.8504 74.6833 59.8254C75.0778 59.7434 75.4403 59.5434 75.7319 59.249C76.0111 58.9643 76.1972 58.6101 76.2542 58.2531C76.2722 58.1434 76.2778 58.0295 76.2708 57.9156L75.4042 45.2379C75.3944 45.1073 75.343 44.9976 75.2486 44.9156C75.1542 44.8337 75.0236 44.7865 74.8833 44.7865C74.8333 44.7879 74.7805 44.7934 74.7305 44.8031C74.5666 44.8379 74.4153 44.9212 74.2944 45.0448C74.1764 45.1643 74.1 45.3087 74.0764 45.4531C74.0694 45.4934 74.068 45.5393 74.0708 45.5851L74.6555 54.1462C74.6819 54.5226 74.3944 54.8795 74.0042 54.9601C73.9528 54.9712 73.9 54.9768 73.8486 54.9768C73.4861 54.9768 73.2069 54.7226 73.1819 54.3726L72.5972 45.8129C72.5875 45.6698 72.5944 45.5198 72.618 45.3656C72.6903 44.9101 72.9236 44.4629 73.2722 44.1087C73.6208 43.7518 74.0792 43.5004 74.5611 43.4004C74.7208 43.3698 74.875 43.3531 75.0222 43.3531C75.5028 43.3531 75.9514 43.5156 76.2889 43.8087C76.6361 44.1101 76.8444 44.5365 76.8764 45.0087L77.7416 57.6893C77.7569 57.899 77.7472 58.1184 77.7125 58.3379C77.6069 59.0045 77.2653 59.6601 76.7514 60.1823C76.2319 60.7087 75.5583 61.0795 74.8514 61.224C74.6208 61.2754 74.393 61.299 74.1764 61.299Z" fill="#D0D5DD"/>
<path d="M75.2857 41.1434C76.1607 41.1434 76.9426 41.4351 77.5232 41.9421C78.1023 42.4476 78.4815 43.1698 78.5371 44.0268L78.7037 46.4657L78.876 48.9837L79.2287 54.1448C79.2454 54.3796 79.0523 54.6157 78.7982 54.6684C78.7648 54.6754 78.7315 54.6782 78.6996 54.6782C78.4898 54.6782 78.3232 54.5393 78.3093 54.3337L77.9579 49.1726L77.7732 46.4671L77.619 44.2171C77.5746 43.5629 77.2898 43.0171 76.8482 42.6323C76.4065 42.2462 75.8093 42.024 75.1468 42.024C74.9426 42.024 74.7287 42.0462 74.5121 42.0907C73.8121 42.2351 73.1898 42.5934 72.7107 43.0782C72.2329 43.5629 71.9065 44.1726 71.8051 44.8129C71.7732 45.0101 71.7621 45.2129 71.7773 45.4143L71.8496 46.4671L72.1162 50.3698L72.6843 58.6948C72.7135 59.1282 72.9023 59.4879 73.194 59.7434C73.4871 59.9976 73.8815 60.1448 74.319 60.1448C74.4551 60.1448 74.5968 60.1309 74.7385 60.1018C75.2023 60.0059 75.6135 59.7684 75.9301 59.4476C76.2454 59.1268 76.4621 58.724 76.5287 58.3004C76.5496 58.1698 76.5565 58.0365 76.5482 57.9018L75.9787 49.5768L75.7662 46.4657L75.6815 45.2226C75.6662 45.0087 75.5746 44.8351 75.4315 44.7101C75.2871 44.5851 75.0954 44.5129 74.8829 44.5129C74.8148 44.5143 74.7468 44.5212 74.676 44.5351C74.4482 44.5823 74.251 44.6962 74.0954 44.8546C73.9412 45.0115 73.8343 45.2087 73.801 45.4143C73.7912 45.4782 73.7885 45.5434 73.7926 45.6087L73.851 46.4671L74.0898 49.9643L74.3773 54.1698C74.394 54.4073 74.201 54.6407 73.9468 54.6934C73.9121 54.7004 73.8787 54.7032 73.8468 54.7032C73.6371 54.7032 73.4718 54.5629 73.4579 54.3573L73.1704 50.1518L72.919 46.4657L72.8732 45.7976C72.8635 45.6698 72.8718 45.5407 72.8912 45.4143C72.9565 45.0046 73.1662 44.6157 73.469 44.3087C73.7704 44.0004 74.1732 43.7698 74.6162 43.6782C74.7537 43.6518 74.8885 43.6365 75.0204 43.6365C75.4454 43.6365 75.8232 43.7782 76.1037 44.024C76.3857 44.2684 76.569 44.6198 76.5968 45.0337L76.694 46.4671L76.894 49.3893L77.4621 57.7143C77.4773 57.9101 77.4662 58.1073 77.4357 58.3004C77.3357 58.9282 77.0148 59.5212 76.551 59.9948C76.0857 60.4671 75.4718 60.8198 74.7926 60.9587C74.5815 61.0018 74.3746 61.024 74.1732 61.024C73.5246 61.0226 72.9426 60.8059 72.5135 60.4309C72.0829 60.0546 71.8037 59.5171 71.7593 58.8837L71.1954 50.5559L70.9162 46.4643L70.8579 45.6004C70.8398 45.3365 70.8523 45.0712 70.894 44.8101C71.0287 43.9657 71.4593 43.1657 72.0857 42.5296C72.7121 41.8921 73.5385 41.4171 74.4537 41.2296C74.7357 41.1712 75.0148 41.1434 75.2857 41.1434ZM75.2857 40.5879C74.9773 40.5879 74.6607 40.6198 74.3426 40.6837C73.3523 40.8865 72.4107 41.4032 71.6871 42.1393C70.9704 42.8671 70.4926 43.7837 70.344 44.7212C70.2954 45.0268 70.2815 45.3351 70.3023 45.6379L70.3607 46.5018L70.6398 50.5934L71.2079 58.9198C71.2621 59.6782 71.5968 60.3615 72.151 60.8476C72.6898 61.3171 73.4079 61.5754 74.176 61.5782C74.4121 61.5782 74.6579 61.5532 74.9065 61.5018C75.6676 61.3462 76.394 60.949 76.951 60.3837C77.5051 59.8198 77.8732 59.1101 77.9885 58.3879C78.0273 58.1462 78.0371 57.9059 78.0204 57.6726L77.8135 54.6379C77.9482 54.9907 78.2912 55.2323 78.6996 55.2323C78.7676 55.2323 78.8371 55.2254 78.9065 55.2115C79.4357 55.1032 79.819 54.6171 79.7829 54.1046L79.4301 48.9448L79.2579 46.4268L79.0912 43.9879C79.0273 43.0198 78.5996 42.1434 77.8885 41.5226C77.1968 40.9198 76.2718 40.5879 75.2857 40.5879ZM72.3329 45.4101L72.3301 45.374C72.319 45.2184 72.326 45.0601 72.3523 44.8976C72.4343 44.3837 72.7023 43.8754 73.1051 43.4643C73.5273 43.0365 74.0523 42.749 74.6218 42.6309C74.801 42.5948 74.976 42.5754 75.1454 42.5754C75.6593 42.5754 76.1343 42.7434 76.4815 43.0462C76.8301 43.3504 77.0315 43.7671 77.0635 44.2504L77.0857 44.5851C76.9829 44.2032 76.7718 43.8615 76.4704 43.6004C76.0843 43.2629 75.5704 43.0768 75.0232 43.0768C74.8579 43.0768 74.6857 43.0934 74.5121 43.1282C73.9704 43.2407 73.4621 43.5184 73.0746 43.9157C72.6857 44.3101 72.4273 44.8101 72.3454 45.3226C72.3412 45.3532 72.3371 45.3809 72.3329 45.4101ZM73.8496 55.2559C73.919 55.2559 73.9912 55.249 74.0607 55.2337C74.5857 55.1254 74.969 54.6407 74.9343 54.1282L74.6468 49.9226L74.4079 46.4254L74.3496 45.5671C74.3482 45.5421 74.3482 45.5184 74.3523 45.4976C74.3662 45.4115 74.4176 45.3171 74.4926 45.2407C74.576 45.1546 74.6787 45.099 74.7912 45.0754C74.819 45.0698 74.8523 45.0657 74.8898 45.0657C74.9621 45.0671 75.0232 45.0879 75.069 45.1268C75.1051 45.1587 75.1246 45.2004 75.1287 45.2587L75.2135 46.5004L75.426 49.6115L75.9954 57.9365C76.001 58.0254 75.9968 58.1184 75.9815 58.2101C75.9343 58.5101 75.7746 58.8115 75.5343 59.0559C75.2829 59.3115 74.9676 59.4837 74.626 59.5559C74.5246 59.5768 74.419 59.5865 74.319 59.5865C74.026 59.5865 73.7551 59.4921 73.5579 59.3212C73.369 59.1546 73.2579 58.924 73.2385 58.6546L72.9662 54.6643C73.0996 55.0157 73.4426 55.2559 73.8496 55.2559Z" fill="#F9FAFB"/>
<path d="M114.689 44.6758L114.963 46.3883C115.128 47.4147 115.833 48.2188 116.846 48.5355L118.539 49.0633L116.678 49.5911C115.564 49.9077 114.603 50.7119 114.11 51.7383L113.289 53.4508L113.014 51.7383C112.849 50.7119 112.145 49.9077 111.131 49.5911L109.439 49.0633L111.299 48.5355C112.413 48.2188 113.374 47.4147 113.867 46.3883L114.689 44.6758Z" fill="#D0D5DD"/>
<path d="M56.4449 37.9463L56.6546 39.2588C56.781 40.0463 57.3213 40.663 58.0991 40.9046L59.3963 41.3088L57.9699 41.7143C57.1158 41.956 56.3783 42.5727 56.0005 43.3588L55.3713 44.6727L55.1616 43.3588C55.0352 42.5713 54.4949 41.956 53.7171 41.7143L52.4199 41.3088L53.8463 40.9046C54.7005 40.663 55.438 40.0449 55.8158 39.2588L56.4449 37.9463Z" fill="#D0D5DD"/>
<path d="M91.8792 83.3838L91.9959 84.1157C92.0667 84.5532 92.3681 84.8977 92.8014 85.0324L93.5237 85.2574L92.7292 85.4824C92.2528 85.6185 91.8417 85.9616 91.6306 86.3991L91.2792 87.131L91.1625 86.3991C91.0917 85.9616 90.7917 85.6171 90.3584 85.4824L89.6348 85.2574L90.4306 85.0324C90.907 84.8963 91.3167 84.5532 91.5278 84.1157L91.8792 83.3838Z" fill="#D0D5DD"/>
<path d="M39.2514 93.1895L39.3681 93.9214C39.4389 94.3603 39.7403 94.7033 40.1737 94.8381L40.8959 95.0631L40.1014 95.2881C39.625 95.4242 39.2139 95.7672 39.0028 96.2061L38.6528 96.9381L38.5362 96.2061C38.4667 95.7672 38.1653 95.4242 37.732 95.2881L37.0098 95.0631L37.8042 94.8381C38.2806 94.7033 38.6917 94.3603 38.9014 93.9214L39.2514 93.1895Z" fill="#D0D5DD"/>
</svg>
