<svg width="150" height="150" viewBox="0 0 150 150" fill="none" xmlns="http://www.w3.org/2000/svg">
<path d="M75 122.697C103.319 122.697 126.276 113.691 126.276 102.582C126.276 91.4727 103.319 82.4668 75 82.4668C46.6809 82.4668 23.7236 91.4727 23.7236 102.582C23.7236 113.691 46.6809 122.697 75 122.697Z" fill="#F9FAFB"/>
<path d="M76.6848 42.9927C76.5862 42.8593 76.4737 42.7371 76.3487 42.6274C75.907 42.2413 75.3098 42.019 74.6473 42.019C74.4431 42.019 74.2292 42.0413 74.0126 42.0857C73.907 42.1079 73.8042 42.1357 73.7028 42.1663C73.6917 42.169 73.6806 42.1718 73.6695 42.1746C73.6278 42.1885 73.5862 42.2038 73.5445 42.219C73.5278 42.2246 73.5098 42.2302 73.4931 42.2371C73.4251 42.2635 73.357 42.2913 73.2903 42.3204C73.2862 42.3218 73.282 42.3246 73.2792 42.326C73.1876 42.3677 73.0987 42.4135 73.0112 42.4621C73.0056 42.4649 73.0015 42.4677 72.9959 42.4704C72.9751 42.4829 72.9556 42.4968 72.9348 42.5093C72.8806 42.5427 72.8265 42.576 72.7737 42.6107C72.764 42.6177 72.7528 42.6232 72.7431 42.6302C72.7223 42.644 72.7028 42.6607 72.682 42.676C72.639 42.7079 72.5959 42.7385 72.5528 42.7718C72.5403 42.7815 72.5265 42.7913 72.5126 42.801C72.4959 42.8149 72.4792 42.8302 72.4626 42.844C72.4223 42.8774 72.3834 42.9121 72.3445 42.9468C72.3292 42.9607 72.314 42.9732 72.2987 42.9871C72.2695 43.0149 72.2403 43.0427 72.2126 43.0718C72.1751 43.1107 72.139 43.1496 72.1028 43.1885C72.0931 43.1982 72.0862 43.2093 72.0765 43.2204C72.0348 43.2677 71.9945 43.3177 71.9556 43.3663C71.9417 43.3843 71.9251 43.401 71.9126 43.419C71.9084 43.4246 71.9056 43.4302 71.9015 43.4357C71.8417 43.5149 71.7862 43.5968 71.7348 43.6815C71.732 43.6857 71.7292 43.6885 71.7265 43.6927C71.6903 43.7524 71.6556 43.8135 71.6223 43.8746C71.6153 43.8871 71.6098 43.901 71.6028 43.9135C71.5806 43.9579 71.557 44.0024 71.5376 44.0468C71.532 44.0579 71.5292 44.069 71.5237 44.0802C71.514 44.1038 71.5042 44.1274 71.4945 44.1524C71.4751 44.1996 71.457 44.2468 71.4403 44.294C71.4306 44.319 71.4223 44.3454 71.414 44.3704C71.3973 44.4204 71.3834 44.469 71.3695 44.519C71.364 44.5427 71.357 44.5649 71.3515 44.5885C71.3334 44.6607 71.3181 44.7343 71.307 44.8079C71.2751 45.0052 71.264 45.2079 71.2792 45.4093L71.3515 46.4621L74.3542 50.5552L74.282 49.5024C74.2667 49.2996 74.2778 49.0982 74.3098 48.901C74.3209 48.8274 74.3376 48.7538 74.3542 48.6815C74.3598 48.6579 74.3667 48.6357 74.3723 48.6121C74.3862 48.5621 74.4001 48.5121 74.4153 48.4635C74.4237 48.4385 74.432 48.4121 74.4417 48.3871C74.4584 48.3399 74.4765 48.2927 74.4959 48.2454C74.5056 48.2218 74.5153 48.1982 74.5251 48.1746C74.5501 48.119 74.5765 48.0635 74.6042 48.0079C74.6112 47.9954 74.6167 47.9815 74.6237 47.969C74.6584 47.9038 74.6959 47.8385 74.7348 47.7746C74.7862 47.6913 74.8431 47.6093 74.9015 47.5288C74.9195 47.5052 74.9376 47.4829 74.957 47.4593C74.9959 47.4093 75.0362 47.3607 75.0778 47.3135C75.1223 47.2635 75.1667 47.2135 75.214 47.1649C75.257 47.1218 75.3015 47.0815 75.3459 47.0399C75.3848 47.0052 75.4237 46.9704 75.464 46.9371C75.4931 46.9121 75.5237 46.8871 75.5542 46.8635C75.5959 46.8302 75.639 46.7982 75.6834 46.7677C75.714 46.7454 75.7431 46.7232 75.7751 46.7024C75.8278 46.6677 75.882 46.6343 75.9362 46.601C75.9626 46.5857 75.9876 46.569 76.014 46.5538C76.1015 46.5052 76.1903 46.4593 76.282 46.4177C76.3528 46.3857 76.4237 46.3552 76.4973 46.3274C76.514 46.3204 76.532 46.3149 76.5487 46.3093C76.6015 46.2899 76.6542 46.2732 76.7084 46.2565C76.8098 46.226 76.9126 46.1968 77.0181 46.176C77.2348 46.1315 77.4487 46.1093 77.6528 46.1093C78.3167 46.1093 78.914 46.3315 79.3542 46.7177C79.4792 46.8274 79.5917 46.9482 79.6903 47.0829L76.6848 42.9927Z" fill="#D0D5DD"/>
<path d="M74.3531 50.8345C74.267 50.8345 74.1823 50.7942 74.1295 50.7206L71.1267 46.6262C71.0962 46.5831 71.0767 46.5331 71.0739 46.4804L71.0017 45.4276C70.9851 45.2137 70.9962 44.9887 71.0323 44.7623C71.0448 44.6873 71.0601 44.6081 71.0809 44.522C71.0851 44.504 71.0906 44.4845 71.0948 44.4665L71.1003 44.4456C71.1156 44.3915 71.1309 44.3373 71.1476 44.2831C71.1573 44.2554 71.167 44.2276 71.1767 44.1984C71.1948 44.147 71.2142 44.0956 71.2364 44.0442L71.242 44.029C71.2503 44.0081 71.2587 43.9873 71.2684 43.9665L71.2823 43.9317C71.3045 43.8831 71.3267 43.8387 71.3503 43.7929L71.36 43.7734C71.3656 43.7623 71.3698 43.7526 71.3753 43.7415C71.4101 43.6748 71.4476 43.6095 71.4878 43.5442C71.4906 43.5387 71.4989 43.5276 71.5031 43.522C71.5517 43.4442 71.6114 43.354 71.6781 43.2665C71.6781 43.2651 71.6837 43.2567 71.6906 43.2484C71.7017 43.2345 71.7128 43.2206 71.7253 43.2067L71.7378 43.1915C71.7795 43.1373 71.8226 43.0845 71.8684 43.0331C71.8795 43.0179 71.8878 43.0095 71.8962 42.9998C71.9351 42.9554 71.9753 42.9137 72.0156 42.8734C72.0462 42.8429 72.0767 42.8123 72.1087 42.7831C72.1212 42.772 72.1337 42.7609 72.1462 42.7498L72.1587 42.7387C72.1989 42.7012 72.242 42.6637 72.2851 42.6276L72.3003 42.6137C72.3128 42.6026 72.3253 42.5915 72.3392 42.5804C72.3503 42.572 72.3614 42.5637 72.3726 42.5554C72.4267 42.5123 72.4739 42.479 72.5212 42.4456L72.5392 42.4317C72.5545 42.4192 72.5698 42.4081 72.5864 42.397C72.5962 42.3901 72.6059 42.3845 72.6156 42.3776C72.6753 42.3373 72.7337 42.3026 72.792 42.2665L72.81 42.2554C72.8253 42.2456 72.842 42.2345 72.8587 42.2248C72.8642 42.222 72.8767 42.2151 72.8823 42.2123C72.9698 42.1637 73.067 42.1137 73.1628 42.0692L73.1753 42.0623C73.2475 42.0304 73.3212 41.9998 73.3948 41.972C73.4073 41.9679 73.4212 41.9623 73.4337 41.9581L73.4726 41.9442C73.5101 41.9304 73.5476 41.9165 73.5864 41.9054C73.5989 41.9012 73.6114 41.8984 73.6239 41.8956C73.7476 41.8581 73.8545 41.8304 73.9587 41.8095C74.1934 41.7623 74.4253 41.7373 74.6489 41.7373C75.3642 41.7373 76.0337 41.9776 76.5337 42.4137C76.6739 42.5373 76.8017 42.6748 76.9101 42.8234L79.9128 46.9165C80.0031 47.0401 79.9767 47.2137 79.8531 47.3054C79.7295 47.3956 79.5559 47.3692 79.4642 47.2456V47.2442C79.3795 47.129 79.2809 47.0206 79.1712 46.9248C78.7726 46.5762 78.2337 46.3845 77.6517 46.3845C77.4642 46.3845 77.2698 46.4054 77.0725 46.4456C76.9878 46.4637 76.8948 46.4873 76.7892 46.5192C76.7392 46.5345 76.6906 46.5498 76.642 46.5679L76.5948 46.5845C76.5281 46.6095 76.4628 46.6373 76.3976 46.6665C76.3156 46.704 76.2323 46.7456 76.1503 46.7929C76.1364 46.7998 76.1239 46.8081 76.1114 46.8165L76.0781 46.8359C76.0281 46.8665 75.9781 46.897 75.9295 46.929C75.9059 46.9443 75.8851 46.9609 75.8628 46.9762L75.8462 46.9887C75.8059 47.0179 75.767 47.047 75.7281 47.0776C75.7003 47.0998 75.6726 47.122 75.6448 47.1456C75.6087 47.1762 75.5725 47.2081 75.5364 47.2401L75.5239 47.2512C75.4864 47.2845 75.4503 47.3192 75.4142 47.3554C75.3712 47.3998 75.3295 47.4456 75.2892 47.4915C75.2503 47.5359 75.2142 47.5804 75.1781 47.6262L75.1559 47.654C75.1462 47.6665 75.1364 47.6776 75.1267 47.6901C75.0712 47.7651 75.0198 47.8415 74.9725 47.9151C74.9364 47.9734 74.9017 48.0331 74.8698 48.0929L74.8517 48.129C74.8267 48.1776 74.8017 48.229 74.7795 48.279L74.7531 48.3442C74.735 48.3873 74.7184 48.4304 74.7031 48.4734C74.6948 48.497 74.6864 48.5192 74.6795 48.5429C74.6642 48.5887 74.6517 48.6331 74.6392 48.679L74.6226 48.7415C74.6073 48.8067 74.5934 48.8734 74.5823 48.9387C74.5531 49.122 74.5448 49.304 74.5573 49.4762L74.6295 50.5304C74.6378 50.654 74.5642 50.7679 74.4476 50.8095C74.417 50.829 74.3851 50.8345 74.3531 50.8345ZM71.6226 46.3637L74.0114 49.6206L74.0045 49.5234C73.9878 49.3095 73.9989 49.0845 74.035 48.8581C74.0475 48.7831 74.0628 48.704 74.0837 48.6179C74.0878 48.5998 74.0934 48.5817 74.0976 48.5623L74.1031 48.5415C74.117 48.4873 74.1337 48.4331 74.1503 48.379C74.1587 48.3512 74.1684 48.3234 74.1795 48.2942C74.1976 48.2429 74.217 48.1915 74.2392 48.1401L74.2462 48.1234C74.2545 48.104 74.2628 48.0831 74.2712 48.0637C74.2976 48.0026 74.3267 47.9429 74.3573 47.8831L74.3781 47.8415C74.4156 47.7706 74.4559 47.6998 74.4989 47.6317C74.5531 47.5429 74.6142 47.454 74.6795 47.3665C74.6934 47.3484 74.7073 47.3304 74.7212 47.3137L74.7392 47.2915C74.7809 47.2387 74.8239 47.1859 74.8698 47.1345C74.917 47.0804 74.9656 47.0262 75.017 46.9748C75.0587 46.9317 75.1031 46.8915 75.1476 46.8512L75.1601 46.8401C75.2017 46.8026 75.2434 46.7651 75.2864 46.729C75.3184 46.7026 75.3503 46.6762 75.3837 46.6498C75.4295 46.6137 75.4753 46.5804 75.5226 46.547L75.5392 46.5345C75.567 46.5151 75.5934 46.4956 75.6212 46.4762C75.6781 46.4387 75.7364 46.4026 75.7948 46.3679L75.8212 46.3526C75.8406 46.3415 75.8587 46.329 75.8795 46.3179C75.9753 46.2637 76.0725 46.2151 76.1684 46.1706C76.2448 46.1359 76.3212 46.104 76.4003 46.0734L76.4559 46.054C76.5128 46.0331 76.5698 46.0151 76.6281 45.997C76.7503 45.9595 76.8601 45.9304 76.9628 45.9095C77.5101 45.797 78.0392 45.8192 78.5198 45.9609L76.4642 43.1595C76.3795 43.0429 76.2795 42.9359 76.1698 42.8401C75.7712 42.4915 75.2309 42.2998 74.6503 42.2998C74.4642 42.2998 74.2684 42.3206 74.0712 42.3609C73.9851 42.379 73.8948 42.4026 73.7878 42.4345C73.7767 42.4373 73.7656 42.4401 73.7545 42.4429C73.7253 42.4512 73.6948 42.4623 73.6642 42.4734L73.5948 42.4984C73.5309 42.522 73.4684 42.5484 73.4073 42.5762C73.3142 42.6192 73.2309 42.6623 73.1503 42.7081C73.1448 42.7109 73.1323 42.7179 73.1267 42.7206C73.1281 42.7206 73.1226 42.7248 73.1156 42.729C73.1045 42.7373 73.092 42.7442 73.0795 42.7512C73.0295 42.7817 72.9795 42.8123 72.9309 42.8442C72.9225 42.8498 72.9128 42.8554 72.9045 42.8609C72.8948 42.8665 72.8878 42.8734 72.8809 42.879C72.8698 42.8873 72.8587 42.8956 72.8476 42.904C72.8073 42.9331 72.767 42.9623 72.7281 42.9929C72.7184 42.9998 72.7101 43.0067 72.7003 43.0137L72.6753 43.0345C72.6656 43.0429 72.6559 43.0526 72.6448 43.0609C72.6087 43.0915 72.5726 43.1234 72.5364 43.1554C72.5267 43.1651 72.517 43.172 72.5073 43.1804L72.4934 43.1929C72.467 43.2179 72.4406 43.2442 72.4142 43.2706C72.3795 43.3054 72.3462 43.3415 72.3128 43.379C72.3031 43.3915 72.2962 43.3998 72.2878 43.4081C72.2503 43.4512 72.2142 43.497 72.1781 43.5415C72.1698 43.5526 72.1601 43.5637 72.1517 43.5734L72.1378 43.5901C72.1378 43.5901 72.1337 43.597 72.1281 43.604C72.0712 43.6804 72.0198 43.7554 71.9739 43.8304C71.9712 43.8345 71.967 43.8415 71.9628 43.847C71.9309 43.8998 71.9003 43.954 71.8712 44.0081L71.8531 44.0442C71.8309 44.0887 71.81 44.1276 71.7934 44.1665L71.7809 44.197C71.7739 44.2123 71.7684 44.2276 71.7614 44.2442L71.7545 44.2609C71.7364 44.304 71.7198 44.347 71.7045 44.3901C71.6962 44.4137 71.6878 44.4359 71.6809 44.4595C71.667 44.504 71.6531 44.5498 71.6406 44.5942L71.6239 44.6567C71.6087 44.722 71.5948 44.7873 71.5837 44.854C71.5545 45.0373 71.5462 45.2192 71.5587 45.3915L71.6226 46.3637Z" fill="#F9FAFB"/>
<path d="M78.046 48.9196L75.0432 44.8265C75.0112 44.7835 74.9751 44.7432 74.9349 44.7085C74.7904 44.5835 74.5988 44.5112 74.3863 44.5112C74.3182 44.5126 74.2501 44.5196 74.1793 44.5335C74.1418 44.5418 74.1043 44.5515 74.0682 44.5626C74.0571 44.5668 74.0474 44.571 74.0362 44.5751C74.0196 44.5807 74.0043 44.5876 73.989 44.5932C73.9751 44.5987 73.9599 44.6029 73.946 44.6098C73.921 44.621 73.8988 44.6335 73.8751 44.646C73.8696 44.6487 73.864 44.6515 73.8599 44.6543C73.8571 44.6557 73.8557 44.6571 73.8529 44.6585C73.8251 44.6737 73.7987 44.6904 73.7724 44.7085C73.7599 44.7168 73.7474 44.7265 73.7363 44.7362C73.7307 44.7404 73.7238 44.746 73.7182 44.7501C73.7126 44.7543 73.7057 44.7585 73.7001 44.7626C73.6765 44.7821 73.6543 44.8015 73.6321 44.8223C73.621 44.8321 73.6112 44.8432 73.6015 44.8529C73.589 44.8654 73.5765 44.8793 73.564 44.8918C73.5418 44.9154 73.521 44.9418 73.5015 44.9668C73.5001 44.9682 73.4987 44.971 73.4974 44.9737C73.4932 44.9793 73.4904 44.9848 73.4862 44.9904C73.471 45.0126 73.4557 45.0335 73.4418 45.0571C73.4349 45.0682 73.4293 45.0807 73.4238 45.0918C73.4154 45.1071 73.4071 45.1223 73.3987 45.1376C73.3932 45.1487 73.3863 45.1598 73.3807 45.171C73.3724 45.1904 73.3654 45.2112 73.3585 45.2307C73.3529 45.2446 73.3474 45.2585 73.3418 45.2737C73.3265 45.3196 73.314 45.3654 73.3071 45.4126C73.2974 45.4765 73.2946 45.5418 73.2988 45.6071L73.3571 46.4654L76.3599 50.5584L76.3015 49.7001C76.2974 49.6348 76.3001 49.5696 76.3099 49.5057C76.3168 49.4585 76.3293 49.4126 76.3446 49.3668C76.3487 49.3529 76.3557 49.339 76.3612 49.3237C76.3737 49.2918 76.3863 49.2612 76.4015 49.2307C76.4099 49.2154 76.4182 49.2001 76.4265 49.1848C76.446 49.1501 76.4668 49.1168 76.4904 49.0834C76.4946 49.0779 76.4974 49.0723 76.5015 49.0668C76.5335 49.0251 76.5668 48.9835 76.6043 48.946C76.6404 48.9085 76.6793 48.8751 76.721 48.8418C76.7265 48.8376 76.7335 48.8321 76.739 48.8279C76.7779 48.7987 76.8196 48.771 76.8626 48.746C76.8682 48.7432 76.8738 48.7404 76.8779 48.7376C76.9154 48.7182 76.9529 48.7001 76.9932 48.6848C77.0085 48.6779 77.0251 48.6723 77.0404 48.6668C77.0863 48.6501 77.1335 48.6362 77.1835 48.6251C77.2543 48.6112 77.3224 48.6043 77.3904 48.6029C77.6029 48.6029 77.7946 48.6751 77.939 48.8001C77.9779 48.8376 78.014 48.8765 78.046 48.9196Z" fill="#D0D5DD"/>
<path d="M76.3587 50.8346C76.2726 50.8346 76.1879 50.7944 76.1351 50.7207L73.1323 46.6263C73.1018 46.5832 73.0823 46.5332 73.0796 46.4805L73.0212 45.6221C73.0157 45.5346 73.0185 45.4485 73.0324 45.3652C73.0421 45.3082 73.056 45.2485 73.0768 45.1832C73.0824 45.1666 73.0879 45.1513 73.0935 45.136L73.1018 45.1138C73.1087 45.093 73.1171 45.0721 73.1268 45.0513C73.1337 45.0374 73.1407 45.0235 73.1476 45.0096C73.1587 44.9888 73.1685 44.9694 73.1796 44.9485C73.1879 44.9319 73.1948 44.9194 73.2032 44.9055C73.2212 44.8763 73.2407 44.8485 73.2601 44.8221C73.2629 44.818 73.2657 44.8138 73.2698 44.8082C73.2712 44.8055 73.274 44.8027 73.2754 44.7999C73.3046 44.761 73.331 44.7305 73.3573 44.6999C73.3726 44.6832 73.3879 44.6666 73.4032 44.6513C73.4143 44.6402 73.4268 44.6263 73.4407 44.6152C73.4685 44.5888 73.4962 44.5652 73.5254 44.5416C73.5296 44.5388 73.5435 44.5277 73.5476 44.5249L73.5796 44.5013C73.5907 44.493 73.6032 44.4832 73.6157 44.4749C73.649 44.4527 73.6823 44.4319 73.7157 44.4124C73.7212 44.4096 73.7296 44.4041 73.7351 44.4027L73.7462 44.3971C73.7726 44.3832 73.8018 44.3666 73.8324 44.3527C73.8476 44.3457 73.8629 44.3402 73.8782 44.3346C73.906 44.3235 73.9254 44.3166 73.9462 44.3096C73.9601 44.3041 73.9726 44.2985 73.9865 44.2944C74.0323 44.2805 74.0782 44.268 74.124 44.2582C74.2087 44.2416 74.2921 44.2319 74.381 44.2305C74.6615 44.2305 74.9199 44.3249 75.1171 44.4957C75.174 44.5457 75.224 44.6013 75.2671 44.6596L78.2685 48.7527C78.2685 48.7527 78.2685 48.7541 78.2698 48.7541C78.3601 48.8777 78.3337 49.0513 78.2101 49.143C78.0865 49.2332 77.9129 49.2069 77.8212 49.0832C77.8018 49.0569 77.7796 49.0319 77.7546 49.0096C77.6587 48.9263 77.5296 48.8805 77.3893 48.8805C77.3393 48.8819 77.2865 48.8874 77.2365 48.8971C77.2073 48.9027 77.1754 48.9124 77.131 48.9277C77.1185 48.9319 77.106 48.9374 77.0949 48.9416C77.0657 48.9527 77.0365 48.9666 77.0087 48.9805C77.006 48.9819 76.9949 48.9874 76.9921 48.9888C76.9671 49.0027 76.9365 49.0235 76.9032 49.0471L76.7185 48.8388L76.8893 49.0582C76.8546 49.0846 76.8268 49.111 76.8004 49.1374C76.7726 49.1666 76.7462 49.1971 76.7212 49.2305L76.7129 49.243C76.6962 49.2666 76.681 49.2916 76.6657 49.318C76.6601 49.3291 76.6532 49.3402 76.6476 49.3527C76.6365 49.3735 76.6268 49.3971 76.6185 49.4194L76.6115 49.4374C76.5948 49.486 76.5865 49.518 76.5823 49.5457C76.5754 49.586 76.574 49.6319 76.5768 49.6777L76.6351 50.536C76.6435 50.6596 76.5699 50.7735 76.4532 50.8152C76.4226 50.8291 76.3907 50.8346 76.3587 50.8346ZM73.6282 46.3638L76.0212 49.6263C76.0212 49.5707 76.0268 49.5152 76.0351 49.461C76.0448 49.4041 76.0587 49.3444 76.081 49.2791C76.0851 49.2638 76.0921 49.2499 76.0976 49.2346C76.1171 49.1832 76.1337 49.1444 76.1532 49.1055C76.1629 49.0846 76.174 49.0666 76.1837 49.0471C76.2087 49.0027 76.2351 48.961 76.2643 48.9194C76.2685 48.9138 76.2726 48.9055 76.2782 48.8985C76.3171 48.8457 76.3615 48.7944 76.406 48.7485C76.4476 48.7055 76.4949 48.6638 76.549 48.6207C76.5504 48.6194 76.5643 48.6096 76.5657 48.6082C76.624 48.5652 76.674 48.5319 76.7254 48.5027C76.7296 48.4999 76.7421 48.4944 76.7462 48.4916C76.7907 48.468 76.8379 48.4457 76.8879 48.4263C76.9087 48.418 76.9282 48.411 76.9476 48.4041C77.0143 48.3805 77.0698 48.3652 77.1254 48.3527C77.174 48.343 77.2212 48.336 77.2712 48.3319L74.8198 44.9902C74.8004 44.9638 74.7782 44.9388 74.7518 44.9166C74.656 44.8346 74.5268 44.7874 74.3865 44.7874C74.3365 44.7888 74.2837 44.7944 74.2337 44.8041C74.2073 44.8096 74.1796 44.8166 74.1532 44.8249C74.1476 44.8277 74.1379 44.8319 74.1296 44.8346C74.1171 44.8388 74.1046 44.8444 74.0935 44.8485L74.0657 44.8596C74.0421 44.8694 74.024 44.8791 74.0073 44.8888C74.0046 44.8902 73.9935 44.8957 73.9907 44.8971C73.9893 44.8985 73.9865 44.8999 73.9851 44.8999C73.9671 44.911 73.9476 44.9221 73.931 44.9346L73.9032 44.9555L73.7185 44.7471L73.8907 44.9652C73.8879 44.968 73.8768 44.9763 73.874 44.9777C73.8587 44.9902 73.8421 45.0055 73.8254 45.0207L73.8018 45.0444C73.7907 45.0555 73.781 45.0652 73.7726 45.0749C73.7573 45.0916 73.7435 45.1082 73.7296 45.1263C73.7268 45.1291 73.7254 45.1332 73.724 45.1346C73.7212 45.1374 73.7171 45.1457 73.7143 45.1485C73.7032 45.1652 73.6907 45.1805 73.6796 45.1985L73.6671 45.2235C73.6601 45.236 73.6546 45.2457 73.649 45.2569L73.6351 45.2832C73.6337 45.2874 73.631 45.293 73.6296 45.2999L73.6143 45.343C73.5976 45.393 73.5893 45.4235 73.5851 45.4527C73.5782 45.493 73.5768 45.5388 73.5796 45.5846L73.6282 46.3638Z" fill="#F9FAFB"/>
<path d="M79.1048 49.1238C79.1006 49.0557 79.0909 48.989 79.0784 48.9238C79.0784 48.921 79.077 48.9182 79.0756 48.9154C79.0603 48.8432 79.0423 48.7724 79.0173 48.7043C78.9964 48.6474 78.9728 48.5918 78.945 48.5377C78.9437 48.5335 78.9409 48.5307 78.9381 48.5265C78.9312 48.5127 78.9214 48.4988 78.9145 48.4849C78.8978 48.4557 78.8812 48.4252 78.8631 48.3974C78.852 48.3807 78.8395 48.3627 78.827 48.346L75.8242 44.2529C75.8562 44.2974 75.8839 44.3446 75.9117 44.3918C75.9201 44.4057 75.9284 44.4182 75.9353 44.4335C75.9659 44.4904 75.9923 44.5502 76.0145 44.6113C76.0395 44.6793 76.0575 44.7488 76.0728 44.8224C76.0867 44.889 76.0964 44.9585 76.1006 45.0293L76.1978 46.4627L79.2006 50.5557L79.1048 49.1238Z" fill="#D0D5DD"/>
<path d="M79.2024 50.8346C79.1163 50.8346 79.0316 50.7944 78.9788 50.7208L75.976 46.6263C75.9455 46.5833 75.926 46.5333 75.9232 46.4805L75.826 45.0471C75.8218 44.9902 75.8149 44.9346 75.8024 44.8763C75.7899 44.8152 75.7746 44.7569 75.7552 44.7041C75.7385 44.6583 75.7177 44.611 75.6913 44.561L75.6719 44.5291C75.6496 44.4902 75.626 44.4499 75.6024 44.4166C75.5121 44.293 75.5385 44.1194 75.6621 44.0277C75.7857 43.9374 75.9593 43.9638 76.051 44.0874C76.051 44.0874 76.051 44.0888 76.0524 44.0888L79.0538 48.1819C79.0677 48.2013 79.083 48.2221 79.0968 48.243C79.1163 48.2721 79.133 48.3013 79.1496 48.3319L79.1593 48.3485C79.1705 48.3666 79.1774 48.3791 79.1843 48.3902C79.1885 48.3971 79.1927 48.4055 79.1955 48.4096C79.2288 48.4735 79.258 48.5402 79.283 48.6083C79.3107 48.6846 79.333 48.7652 79.351 48.8499C79.3538 48.8583 79.3552 48.8666 79.3566 48.8735C79.3705 48.9458 79.3816 49.0249 79.3857 49.1041L79.483 50.5374C79.4913 50.661 79.4177 50.7749 79.301 50.8166C79.2663 50.8291 79.2343 50.8346 79.2024 50.8346ZM76.4718 46.3638L78.8607 49.6208L78.8288 49.143C78.826 49.0902 78.8191 49.0388 78.8093 48.9888C78.808 48.986 78.808 48.9819 78.8066 48.9791C78.7927 48.911 78.7774 48.8541 78.758 48.8013C78.7427 48.7583 78.7232 48.7152 78.7024 48.6735C78.6996 48.668 78.6955 48.661 78.6927 48.6569L78.6621 48.6055C78.6524 48.5888 78.6427 48.5708 78.6316 48.5541C78.6219 48.5402 78.6121 48.5263 78.6024 48.5124L76.4135 45.5277L76.4718 46.3638Z" fill="#F9FAFB"/>
<path d="M59.0275 46.4639H70.4177L70.6969 50.5555L57.958 53.1653L59.0275 46.4639Z" fill="#F7F9FC"/>
<path d="M57.958 53.4429C57.8872 53.4429 57.8178 53.4151 57.7664 53.3665C57.7011 53.304 57.6692 53.2123 57.6844 53.1221L58.7539 46.4193C58.7747 46.2846 58.8914 46.1846 59.0289 46.1846H70.4192C70.565 46.1846 70.6858 46.2971 70.6969 46.4429L70.9761 50.5346C70.9858 50.6735 70.8914 50.7971 70.7553 50.8262L58.0164 53.4373C57.9955 53.4415 57.9761 53.4429 57.958 53.4429ZM59.2636 46.7415L58.2955 52.8137L70.4039 50.3318L70.1594 46.7415H59.2636Z" fill="#F9FAFB"/>
<path d="M70.6969 50.5552L73.6997 54.6482L60.9608 57.2593L57.958 53.1649L70.6969 50.5552Z" fill="#98A2B3"/>
<path d="M60.9607 57.5372C60.8732 57.5372 60.7899 57.4956 60.7371 57.4233L57.7343 53.3289C57.6788 53.2525 57.6649 53.1525 57.6996 53.065C57.7343 52.9761 57.8107 52.9122 57.9024 52.8928L70.6413 50.2817C70.7468 50.2594 70.8565 50.3025 70.9204 50.39L73.9232 54.4844C73.9788 54.5608 73.9927 54.6608 73.9579 54.7483C73.9232 54.8372 73.8468 54.9011 73.7551 54.9205L61.0163 57.5317C60.9982 57.5358 60.9788 57.5372 60.9607 57.5372ZM58.4385 53.3511L61.0801 56.9525L73.2204 54.465L70.5788 50.8636L58.4385 53.3511Z" fill="#F9FAFB"/>
<path d="M72.695 59.7403C72.4033 59.4848 72.2144 59.1237 72.1852 58.6903L71.6172 50.3653L72.6755 50.1487L72.963 54.3542C72.9769 54.5598 73.1422 54.7 73.3519 54.7C73.3839 54.7 73.4172 54.6973 73.4519 54.6889C73.7061 54.6362 73.8991 54.4028 73.8825 54.1653L73.595 49.9598L75.4825 49.5723L76.0519 57.8973C76.0602 58.032 76.0533 58.1639 76.0325 58.2959C75.9644 58.7195 75.7477 59.1223 75.4339 59.4431C75.1172 59.7639 74.7061 60.0014 74.2422 60.0973C74.1005 60.125 73.9589 60.1403 73.8227 60.1403C73.3825 60.1417 72.988 59.9959 72.695 59.7403Z" fill="#D0D5DD"/>
<path d="M73.8197 60.4193C73.3252 60.4193 72.8614 60.2527 72.5128 59.9499L72.5114 59.9485C72.1503 59.6318 71.9419 59.2027 71.9086 58.7096L71.3405 50.3846C71.3308 50.2457 71.4252 50.1221 71.5614 50.0929L72.6197 49.8763C72.6975 49.8596 72.7794 49.879 72.8433 49.9277C72.9072 49.9763 72.9475 50.0499 72.9516 50.1304L73.2391 54.336C73.2447 54.4138 73.3197 54.4221 73.3516 54.4221C73.3655 54.4221 73.3808 54.4207 73.3961 54.4179C73.5239 54.3915 73.6114 54.2735 73.6058 54.186L73.3183 49.9804C73.3086 49.8415 73.403 49.7179 73.5391 49.6888L75.4266 49.3013C75.5044 49.2846 75.5864 49.304 75.6502 49.3527C75.7141 49.4013 75.7544 49.4749 75.7586 49.5554L76.328 57.8804C76.3377 58.0374 76.3294 58.1915 76.3058 58.3415C76.2308 58.811 75.9905 59.2721 75.6308 59.6402C75.2614 60.0138 74.8002 60.2665 74.2961 60.3721C74.135 60.404 73.9752 60.4193 73.8197 60.4193ZM72.8766 59.5318C73.2072 59.8179 73.6878 59.9277 74.185 59.8277C74.5794 59.7457 74.9419 59.5457 75.2336 59.2513C75.5127 58.9665 75.6989 58.6124 75.7558 58.2554C75.7739 58.1443 75.7794 58.0318 75.7725 57.9179L75.2252 49.9124L73.8877 50.186L74.1586 54.1499C74.185 54.5263 73.8975 54.8832 73.5072 54.9638C73.4558 54.9749 73.403 54.9804 73.3516 54.9804C72.9891 54.9804 72.71 54.7263 72.685 54.3763L72.4197 50.4874L71.9114 50.5915L72.4627 58.6735C72.4864 59.0165 72.6294 59.3138 72.8766 59.5318Z" fill="#F9FAFB"/>
<path d="M71.3506 46.4639H72.4242L72.6756 50.15L71.6173 50.3666L71.3506 46.4639Z" fill="#F7F9FC"/>
<path d="M71.617 50.6444C71.5573 50.6444 71.4976 50.6249 71.4489 50.5874C71.3851 50.5388 71.3448 50.4652 71.3406 50.3846L71.0739 46.4819C71.0684 46.4055 71.0962 46.3291 71.1476 46.2735C71.2003 46.218 71.2739 46.186 71.3503 46.186H72.4226C72.5684 46.186 72.6892 46.2985 72.7003 46.4444L72.9517 50.1305C72.9614 50.2694 72.867 50.393 72.7309 50.4221L71.6725 50.6388C71.6545 50.643 71.6364 50.6444 71.617 50.6444ZM71.6475 46.7416L71.8725 50.0305L72.3809 49.9263L72.1628 46.7416H71.6475Z" fill="#F9FAFB"/>
<path d="M81.2087 50.8351C81.1226 50.8351 81.0379 50.7948 80.9851 50.7212L77.9823 46.6267C77.9518 46.5837 77.9323 46.5337 77.9296 46.4809L77.7629 44.042C77.7587 43.974 77.7518 43.9073 77.7421 43.8406L77.7323 43.7781C77.7254 43.7351 77.7184 43.6906 77.7101 43.6476C77.7018 43.6045 77.6907 43.5628 77.6795 43.5212L77.6615 43.4462C77.6434 43.3809 77.6226 43.3156 77.599 43.2531C77.5657 43.1628 77.5254 43.0684 77.474 42.9656L77.4559 42.9281C77.4157 42.8517 77.3712 42.774 77.3212 42.699C77.2921 42.6545 77.2684 42.6184 77.2421 42.5837C77.1518 42.4601 77.1782 42.2865 77.3018 42.1948C77.3518 42.1587 77.4087 42.1406 77.4657 42.1406C77.5518 42.1406 77.6351 42.1795 77.6893 42.2545L80.692 46.349C80.7198 46.3865 80.7462 46.4253 80.7726 46.4642C80.7768 46.4712 80.7879 46.4892 80.7921 46.4962C80.8462 46.5795 80.9004 46.6698 80.9462 46.7587C80.9518 46.767 80.9559 46.7753 80.9601 46.7851C80.9643 46.7934 80.9698 46.8059 80.9754 46.8198C81.0337 46.9351 81.0823 47.049 81.1226 47.1587C81.1504 47.2351 81.1754 47.3128 81.1976 47.392C81.2032 47.4115 81.2073 47.4295 81.2115 47.449L81.2171 47.474C81.2309 47.5267 81.2434 47.5795 81.2546 47.6351C81.2546 47.6365 81.2573 47.6448 81.2587 47.6531C81.2657 47.6865 81.2712 47.7212 81.2754 47.7559C81.2754 47.7559 81.2907 47.8476 81.2921 47.8656C81.3032 47.9434 81.3101 48.0226 81.3157 48.1031L81.4823 50.5406C81.4907 50.6642 81.4171 50.7781 81.3004 50.8198C81.2726 50.8295 81.2407 50.8351 81.2087 50.8351Z" fill="#D0D5DD"/>
<path d="M77.4658 42.421L80.4686 46.5154C80.4936 46.5501 80.5186 46.5849 80.5422 46.621C80.5477 46.6279 80.5505 46.6362 80.5561 46.6432C80.6088 46.7251 80.6588 46.8085 80.7047 46.896C80.7074 46.9015 80.7102 46.9057 80.713 46.9112C80.7172 46.9196 80.7199 46.9293 80.7255 46.939C80.7769 47.0418 80.8241 47.146 80.863 47.2557C80.888 47.3251 80.9102 47.3974 80.9311 47.4696C80.938 47.4946 80.9436 47.5196 80.9491 47.5446C80.9616 47.5932 80.9741 47.6418 80.9838 47.6918C80.9852 47.6974 80.9866 47.7029 80.988 47.7085C80.9963 47.7501 81.0019 47.7918 81.0088 47.8335C81.013 47.8571 81.0172 47.8793 81.0199 47.9029C81.0297 47.9751 81.0366 48.0474 81.0422 48.121L81.2088 50.5599L78.2061 46.4668L78.0394 44.0279C78.0338 43.9543 78.0269 43.8807 78.0172 43.8099C78.0144 43.7862 78.0088 43.764 78.0061 43.7404C77.9991 43.6932 77.9908 43.646 77.9811 43.5987C77.9713 43.5487 77.9588 43.5001 77.9463 43.4515C77.9394 43.4265 77.9352 43.4015 77.9283 43.3779C77.9074 43.3057 77.8852 43.2335 77.8602 43.164C77.8199 43.0543 77.7741 42.9501 77.7227 42.8474C77.7158 42.8335 77.7088 42.8196 77.7019 42.8057C77.6561 42.7182 77.6061 42.6349 77.5533 42.5529C77.5241 42.5057 77.4963 42.4626 77.4658 42.421ZM77.9144 42.0918L77.4658 42.421L77.0186 42.7501C77.0422 42.7821 77.0644 42.8154 77.0852 42.8487C77.1324 42.9224 77.1741 42.9904 77.2088 43.0585L77.213 43.0668L77.2255 43.0918C77.2727 43.1862 77.3102 43.271 77.338 43.3501C77.338 43.3515 77.3394 43.3529 77.3394 43.3529C77.3588 43.4071 77.3769 43.464 77.3935 43.5237C77.3949 43.5307 77.3963 43.5376 77.3991 43.5446C77.4019 43.5585 77.4061 43.571 77.4088 43.5849C77.4199 43.6279 77.4297 43.6668 77.438 43.7071C77.4463 43.7446 77.4519 43.7835 77.4574 43.8224L77.463 43.8599C77.4644 43.8668 77.4658 43.8737 77.4658 43.8807C77.4741 43.9446 77.4797 44.0043 77.4838 44.0626L77.6505 46.5015C77.6574 46.6071 77.6949 46.7071 77.7574 46.7918L80.7602 50.8849C80.8672 51.0307 81.0352 51.1112 81.2088 51.1112C81.2727 51.1112 81.3366 51.1001 81.3991 51.0779C81.6311 50.9932 81.7797 50.7654 81.763 50.5182L81.5963 48.0793C81.5908 47.9974 81.5824 47.9112 81.5713 47.8251C81.5686 47.8029 81.5644 47.7821 81.5616 47.7599L81.5588 47.7418L81.5547 47.7168C81.5491 47.6765 81.5422 47.6349 81.5338 47.596C81.5324 47.589 81.5297 47.5779 81.5269 47.5654C81.5144 47.5085 81.5019 47.4557 81.488 47.4029L81.4838 47.3835C81.4783 47.3599 81.4727 47.3376 81.4672 47.3154C81.4422 47.2279 81.4158 47.1432 81.3866 47.0626C81.3852 47.0612 81.3852 47.0585 81.3838 47.0571C81.3422 46.9418 81.2922 46.8265 81.2297 46.7015C81.2227 46.6849 81.2158 46.6682 81.2074 46.6529C81.2033 46.6446 81.1963 46.6335 81.1894 46.621C81.1408 46.5293 81.088 46.439 81.0297 46.3487C81.0213 46.3349 81.013 46.321 81.0047 46.3071C80.9769 46.2668 80.9477 46.2251 80.9185 46.1835L77.9144 42.0918Z" fill="#F9FAFB"/>
<path d="M73.3555 46.4639H75.2694L75.4819 49.575L73.5944 49.9611L73.3555 46.4639Z" fill="#F7F9FC"/>
<path d="M73.5941 50.2388C73.5344 50.2388 73.4747 50.2194 73.426 50.1819C73.3622 50.1333 73.3219 50.0596 73.3177 49.9791L73.0788 46.4819C73.0733 46.4055 73.1011 46.3291 73.1524 46.2735C73.2052 46.218 73.2788 46.186 73.3552 46.186H75.2677C75.4135 46.186 75.5344 46.2985 75.5455 46.4444L75.758 49.5555C75.7677 49.6944 75.6733 49.818 75.5372 49.8471L73.6497 50.2333C73.6316 50.2374 73.6122 50.2388 73.5941 50.2388ZM73.6524 46.7416L73.8497 49.6263L75.1872 49.3527L75.0094 46.743H73.6524V46.7416Z" fill="#F9FAFB"/>
<path d="M76.2002 46.4639H77.2738L77.4585 49.1694L76.4002 49.3861L76.2002 46.4639Z" fill="#F7F9FC"/>
<path d="M76.3999 49.6638C76.3402 49.6638 76.2805 49.6444 76.2319 49.6069C76.168 49.5583 76.1277 49.4846 76.1236 49.4041L75.9236 46.4819C75.918 46.4055 75.9458 46.3291 75.9972 46.2735C76.0499 46.218 76.1236 46.186 76.1999 46.186H77.2735C77.4194 46.186 77.5402 46.2985 77.5513 46.4444L77.7361 49.1499C77.7458 49.2888 77.6513 49.4124 77.5152 49.4416L76.4569 49.6583C76.4374 49.6624 76.418 49.6638 76.3999 49.6638ZM76.4972 46.7416L76.6555 49.0513L77.1652 48.9471L77.0152 46.743H76.4972V46.7416Z" fill="#F9FAFB"/>
<path d="M78.2051 46.4639H104.233L96.8787 92.5764H85.0092L83.1829 104.026L82.9454 104.224H81.6342C82.5717 103.694 83.1898 102.683 83.0981 101.675L81.1634 80.2791H90.3676C90.769 80.2791 91.1454 79.9653 91.2065 79.5778C91.269 79.1889 90.9926 78.8764 90.5912 78.8764H81.037L80.5176 73.1264H91.5092C91.9106 73.1264 92.287 72.8125 92.3495 72.4236C92.4106 72.0361 92.1356 71.7222 91.7342 71.7222H80.3912L79.8717 65.9722H92.6509C93.0523 65.9722 93.4287 65.6583 93.4912 65.2694C93.5523 64.8819 93.2773 64.568 92.8759 64.568H79.7565C79.7745 63.3569 80.7801 62.1986 82.0829 61.9305C83.4537 61.6486 84.494 60.3861 84.4051 59.1083L84.3856 58.818H93.7926C94.194 58.818 94.5704 58.5041 94.6329 58.1153C94.694 57.7278 94.419 57.4139 94.0176 57.4139H84.2898L83.7981 50.2208C83.7231 49.1139 82.8273 48.3583 81.6995 48.3583C81.5245 48.3583 81.344 48.3764 81.1606 48.4139L78.6815 48.9222L78.3801 48.9833L78.2051 46.4639Z" fill="#F7F9FC"/>
<path d="M82.9458 104.503H81.6347C81.5083 104.503 81.3986 104.418 81.3667 104.296C81.3347 104.174 81.3889 104.046 81.4986 103.983C82.3694 103.492 82.9014 102.574 82.8222 101.701L80.8875 80.3056C80.8805 80.2279 80.9069 80.1515 80.9597 80.0931C81.0125 80.0362 81.0875 80.0029 81.1653 80.0029H90.3694C90.6347 80.0029 90.8944 79.789 90.9347 79.5348C90.9514 79.4306 90.9292 79.339 90.8694 79.2681C90.8069 79.1945 90.7083 79.1542 90.593 79.1542H81.0389C80.8958 79.1542 80.775 79.0445 80.7625 78.9015L80.243 73.1515C80.2361 73.0737 80.2625 72.9973 80.3153 72.939C80.368 72.882 80.443 72.8487 80.5208 72.8487H91.5125C91.7778 72.8487 92.0375 72.6334 92.0778 72.3792C92.0944 72.2765 92.0708 72.182 92.0111 72.1126C91.9486 72.039 91.85 71.9987 91.7361 71.9987H80.393C80.25 71.9987 80.1292 71.889 80.1167 71.7459L79.5972 65.9959C79.5903 65.9181 79.6167 65.8417 79.6694 65.7834C79.7222 65.7265 79.7972 65.6931 79.875 65.6931H92.6542C92.9194 65.6931 93.1792 65.4779 93.2194 65.2237C93.2361 65.1209 93.2125 65.0265 93.1542 64.9584C93.0917 64.8848 92.993 64.8445 92.8791 64.8445H79.7597C79.6847 64.8445 79.6139 64.8154 79.5625 64.7612C79.5111 64.707 79.4819 64.6362 79.4833 64.5626C79.5042 63.2001 80.5986 61.9515 82.0305 61.657C83.268 61.4029 84.2111 60.2681 84.1319 59.1265L84.1125 58.8362C84.1069 58.7598 84.1347 58.6834 84.1861 58.6279C84.2389 58.5709 84.3125 58.5404 84.3889 58.5404H93.7958C94.0611 58.5404 94.3208 58.3251 94.3611 58.0709C94.3778 57.9681 94.3542 57.8737 94.2958 57.8042C94.2333 57.7306 94.1347 57.6904 94.0208 57.6904H84.293C84.1472 57.6904 84.0264 57.5779 84.0153 57.432L83.5236 50.239C83.4597 49.2945 82.7111 48.6362 81.7014 48.6362C81.543 48.6362 81.3805 48.6529 81.218 48.6862L78.4375 49.257C78.3583 49.2737 78.2778 49.2542 78.2139 49.2056C78.15 49.157 78.1097 49.0834 78.1055 49.0029L77.9333 46.4848C77.9278 46.4084 77.9555 46.332 78.0069 46.2765C78.0597 46.2209 78.1333 46.189 78.2097 46.189H104.237C104.319 46.189 104.396 46.2251 104.449 46.2862C104.501 46.3473 104.525 46.4292 104.511 46.5098L97.1569 92.6223C97.1361 92.757 97.0194 92.857 96.8819 92.857H85.25L83.4611 104.074C83.45 104.14 83.4166 104.2 83.3639 104.243L83.1264 104.44C83.0736 104.479 83.0111 104.503 82.9458 104.503ZM82.4625 103.947H82.8458L82.9264 103.881L83.0361 103.189C82.8875 103.463 82.693 103.72 82.4625 103.947ZM81.468 80.557L83.3417 101.276L84.7361 92.5334C84.7569 92.3987 84.8736 92.2987 85.0111 92.2987H96.643L103.908 46.7417H78.5028L78.6333 48.6459L81.1028 48.139C81.3014 48.0987 81.5028 48.0779 81.6972 48.0779C82.9916 48.0779 83.9903 48.9695 84.0736 50.1987L84.5472 57.1334H94.0153C94.2916 57.1334 94.5458 57.2459 94.7139 57.4431C94.8805 57.6376 94.9486 57.8917 94.9055 58.157C94.8222 58.682 94.3319 59.0945 93.7917 59.0945H84.6819C84.775 60.5015 83.6347 61.8945 82.1375 62.2015C81.075 62.4195 80.2125 63.307 80.0569 64.289H92.8736C93.15 64.289 93.4041 64.4015 93.5722 64.5987C93.7389 64.7931 93.8069 65.0473 93.7639 65.3126C93.6805 65.8376 93.1903 66.2501 92.65 66.2501H80.175L80.6444 71.4445H91.7333C92.0097 71.4445 92.2639 71.557 92.4319 71.7529C92.5986 71.9473 92.6667 72.2015 92.6236 72.4667C92.5403 72.9917 92.05 73.4042 91.5097 73.4042H80.8222L81.2916 78.5987H90.593C90.8694 78.5987 91.1236 78.7112 91.2917 78.907C91.4569 79.1015 91.525 79.3556 91.4833 79.6209C91.4 80.1459 90.9111 80.557 90.3694 80.557H81.468Z" fill="#F9FAFB"/>
<path d="M94.0159 57.4097C94.4172 57.4097 94.6936 57.7236 94.6311 58.1111C94.5686 58.4999 94.1922 58.8138 93.7909 58.8138H84.3839L84.2881 57.4097H94.0159Z" fill="#D0D5DD"/>
<path d="M93.792 59.0931H84.3851C84.2392 59.0931 84.1184 58.9806 84.1073 58.8348L84.0114 57.4306C84.0059 57.3542 84.0337 57.2778 84.085 57.2223C84.1378 57.1667 84.2114 57.1348 84.2878 57.1348H94.0142C94.2906 57.1348 94.5448 57.2473 94.7128 57.4445C94.8795 57.6389 94.9476 57.8931 94.9045 58.1584C94.8212 58.6806 94.3323 59.0931 93.792 59.0931ZM84.6434 58.5375H93.7906C94.0559 58.5375 94.3156 58.3223 94.3559 58.0681C94.3726 57.9653 94.3489 57.8709 94.2906 57.8014C94.2281 57.7278 94.1295 57.6875 94.0156 57.6875H84.5864L84.6434 58.5375Z" fill="#D0D5DD"/>
<path d="M92.8734 64.5654C93.2747 64.5654 93.5511 64.8793 93.4886 65.2668C93.4261 65.6557 93.0497 65.9696 92.6484 65.9696H79.8692L79.7595 64.7502C79.7553 64.689 79.7539 64.6265 79.7539 64.5654H92.8734Z" fill="#D0D5DD"/>
<path d="M92.6499 66.2473H79.8707C79.7276 66.2473 79.6068 66.1376 79.5943 65.9945L79.4846 64.7751C79.479 64.7001 79.4776 64.6307 79.479 64.5612C79.4818 64.4098 79.6054 64.2876 79.7568 64.2876H92.8762C93.1526 64.2876 93.4068 64.4001 93.5748 64.5973C93.7415 64.7918 93.8096 65.0459 93.7665 65.3112C93.6804 65.8362 93.1915 66.2473 92.6499 66.2473ZM80.1235 65.6918H92.6499C92.9151 65.6918 93.1749 65.4765 93.2151 65.2223C93.2318 65.1195 93.2082 65.0251 93.1498 64.9557C93.0873 64.882 92.9887 64.8418 92.8749 64.8418H80.0485L80.1235 65.6918Z" fill="#D0D5DD"/>
<path d="M91.7337 71.7207C92.1351 71.7207 92.4115 72.0346 92.349 72.4221C92.2865 72.811 91.9101 73.1249 91.5087 73.1249H80.517L80.3906 71.7207H91.7337Z" fill="#D0D5DD"/>
<path d="M91.5088 73.4026H80.5171C80.3741 73.4026 80.2533 73.2929 80.2408 73.1498L80.1144 71.7456C80.1074 71.6679 80.1338 71.5915 80.1866 71.5331C80.2394 71.4762 80.3144 71.4429 80.3922 71.4429H91.7352C92.0116 71.4429 92.2658 71.5554 92.4338 71.7526C92.6005 71.947 92.6685 72.2012 92.6255 72.4665C92.5394 72.9915 92.0505 73.4026 91.5088 73.4026ZM80.7713 72.847H91.5088C91.7741 72.847 92.0338 72.6318 92.0741 72.3776C92.0908 72.2748 92.0672 72.1804 92.0074 72.1109C91.9449 72.0373 91.8463 71.997 91.7324 71.997H80.6949L80.7713 72.847Z" fill="#D0D5DD"/>
<path d="M90.5913 78.8765C90.9927 78.8765 91.2691 79.189 91.2066 79.5779C91.1454 79.9654 90.7691 80.2792 90.3677 80.2792H81.1635L81.0371 78.8765H90.5913Z" fill="#D0D5DD"/>
<path d="M90.3678 80.557H81.1636C81.0206 80.557 80.8998 80.4472 80.8873 80.3042L80.7609 78.9014C80.7539 78.8236 80.7803 78.7472 80.8331 78.6889C80.8859 78.632 80.9609 78.5986 81.0386 78.5986H90.5928C90.8692 78.5986 91.1234 78.7111 91.2914 78.907C91.4567 79.1014 91.5247 79.3556 91.4831 79.6209C91.3984 80.1459 90.9081 80.557 90.3678 80.557ZM81.4178 80.0014H90.3678C90.6331 80.0014 90.8928 79.7875 90.9331 79.5334C90.9497 79.4292 90.9275 79.3375 90.8678 79.2667C90.8053 79.1931 90.7067 79.1528 90.5914 79.1528H81.3414L81.4178 80.0014Z" fill="#D0D5DD"/>
<path d="M104.233 46.4639L107.236 50.5569L99.8817 96.6708L96.8789 92.5764L104.233 46.4639Z" fill="#E4E7EC"/>
<path d="M99.8818 96.9484C99.7943 96.9484 99.711 96.9068 99.6582 96.8345L96.6554 92.7401C96.611 92.6804 96.5929 92.6054 96.6054 92.5318L103.96 46.4193C103.978 46.3082 104.06 46.2193 104.168 46.1929C104.276 46.1665 104.392 46.2082 104.457 46.2984L107.46 50.3929C107.504 50.4526 107.522 50.5276 107.51 50.6012L100.155 96.7137C100.137 96.8248 100.055 96.9137 99.9471 96.9401C99.9249 96.9456 99.904 96.9484 99.8818 96.9484ZM97.1721 92.5054L99.7124 95.9693L106.944 50.6276L104.404 47.1637L97.1721 92.5054Z" fill="#F9FAFB"/>
<path d="M96.879 92.5762L83.1846 104.026L85.0096 92.5762H96.879Z" fill="#D0D5DD"/>
<path d="M83.1847 104.304C83.1375 104.304 83.0902 104.291 83.0472 104.268C82.9458 104.211 82.8916 104.097 82.9097 103.983L84.7361 92.5331C84.7569 92.3983 84.8736 92.2983 85.0111 92.2983H96.8805C96.9972 92.2983 97.1013 92.372 97.1416 92.4817C97.1819 92.5914 97.1486 92.715 97.0583 92.79L83.3638 104.24C83.3111 104.283 83.2472 104.304 83.1847 104.304ZM85.2472 92.8539L83.575 103.337L96.1139 92.8539H85.2472Z" fill="#F9FAFB"/>
<path d="M96.879 92.5767L99.8818 96.6711L86.186 108.121L83.1846 104.027L96.879 92.5767Z" fill="#D0D5DD"/>
<path d="M86.1862 108.399C86.1751 108.399 86.164 108.399 86.1529 108.397C86.0765 108.388 86.0084 108.347 85.9626 108.286L82.9598 104.192C82.8737 104.074 82.8932 103.908 83.0057 103.814L96.7001 92.364C96.7584 92.3154 96.8348 92.2917 96.9112 92.3015C96.9876 92.3112 97.0557 92.3515 97.1015 92.4126L100.104 96.507C100.19 96.6251 100.171 96.7904 100.058 96.8848L86.3654 108.333C86.3154 108.376 86.2515 108.399 86.1862 108.399ZM83.5626 104.072L86.2362 107.717L99.5043 96.6237L96.8306 92.9792L83.5626 104.072Z" fill="#F9FAFB"/>
<path d="M83.1852 104.026L86.1866 108.121L82.9463 104.225L83.1852 104.026Z" fill="#E4E7EC"/>
<path d="M86.1878 108.399C86.1087 108.399 86.0295 108.364 85.974 108.299L82.7337 104.403C82.6864 104.346 82.6642 104.274 82.6712 104.2C82.6781 104.126 82.7142 104.058 82.7698 104.012L83.0073 103.815C83.0656 103.767 83.1434 103.744 83.2184 103.753C83.2948 103.762 83.3628 103.803 83.4087 103.864L86.4114 107.957C86.5003 108.078 86.4767 108.247 86.3587 108.34C86.3073 108.379 86.2476 108.399 86.1878 108.399Z" fill="#F9FAFB"/>
<path d="M82.9459 104.225L86.1861 108.121L84.6375 108.318L81.6348 104.225H82.9459Z" fill="#E4E7EC"/>
<path d="M84.6376 108.596C84.5501 108.596 84.4668 108.554 84.414 108.482L81.4112 104.387C81.3487 104.303 81.3404 104.192 81.3876 104.097C81.4349 104.004 81.5307 103.944 81.6349 103.944H82.946C83.0279 103.944 83.1071 103.98 83.1599 104.044L86.4001 107.94C86.4654 108.018 86.4821 108.125 86.4446 108.219C86.4071 108.314 86.3224 108.38 86.221 108.393L84.671 108.59C84.6612 108.594 84.6487 108.596 84.6376 108.596ZM82.1835 104.503L84.7654 108.022L85.6501 107.91L82.8168 104.503H82.1835Z" fill="#F9FAFB"/>
<path d="M82.0542 103.938C81.9917 103.988 81.9265 104.037 81.8598 104.083C81.7903 104.13 81.7181 104.176 81.6445 104.218C81.6404 104.22 81.6376 104.222 81.6334 104.225C81.5556 104.269 81.4765 104.309 81.3945 104.345C81.2903 104.393 81.182 104.434 81.0723 104.469C80.9765 104.5 80.8792 104.525 80.7806 104.545L49.6876 110.919C49.5042 110.957 49.3237 110.975 49.1487 110.975C48.4265 110.975 47.7973 110.665 47.4209 110.15L50.4237 114.243C50.8015 114.758 51.4292 115.068 52.1515 115.068C52.3265 115.068 52.507 115.05 52.6903 115.012L83.7834 108.638C83.882 108.618 83.9806 108.593 84.0751 108.562C84.1848 108.527 84.2931 108.486 84.3973 108.438C84.4792 108.401 84.5584 108.361 84.6362 108.318C84.6403 108.315 84.6431 108.313 84.6473 108.311C84.7209 108.269 84.7931 108.223 84.8626 108.176C84.9292 108.13 84.9945 108.082 85.057 108.032L82.0542 103.938Z" fill="#667185"/>
<path d="M52.1517 115.346C51.3489 115.346 50.6364 115.004 50.1989 114.408L47.1962 110.314C47.1059 110.19 47.1323 110.016 47.2559 109.925C47.3795 109.835 47.5531 109.861 47.6448 109.985L47.6462 109.986C47.9781 110.436 48.5253 110.696 49.1489 110.696C49.3073 110.696 49.4698 110.679 49.6323 110.646L80.7253 104.272C80.8142 104.254 80.9031 104.23 80.9892 104.203C81.0878 104.171 81.1864 104.133 81.2809 104.09C81.3545 104.057 81.4267 104.019 81.4975 103.98C81.5739 103.937 81.6406 103.896 81.7031 103.853C81.7628 103.811 81.8225 103.768 81.8795 103.721C81.9392 103.673 82.0142 103.651 82.0892 103.661C82.1642 103.671 82.2323 103.711 82.2781 103.772L85.2809 107.865C85.3684 107.985 85.3475 108.151 85.2323 108.246C85.1642 108.301 85.0934 108.354 85.0212 108.404C84.9448 108.457 84.8656 108.507 84.7864 108.551L84.7739 108.558C84.6892 108.605 84.6017 108.65 84.5128 108.69C84.3989 108.741 84.2795 108.787 84.16 108.825C84.0545 108.858 83.9475 108.886 83.8392 108.908L52.7462 115.282C52.5475 115.325 52.3475 115.346 52.1517 115.346ZM48.5198 111.178L50.6475 114.079C50.9795 114.53 51.5267 114.79 52.1517 114.79C52.31 114.79 52.4725 114.773 52.635 114.74L83.7281 108.366C83.817 108.348 83.9059 108.325 83.992 108.297C84.0906 108.265 84.1892 108.228 84.2837 108.185C84.3573 108.151 84.4309 108.114 84.5003 108.075C84.5614 108.04 84.617 108.007 84.6684 107.972L81.9948 104.326C81.9267 104.372 81.8545 104.416 81.7837 104.458C81.7823 104.458 81.7698 104.465 81.7698 104.466C81.6864 104.514 81.5989 104.558 81.51 104.598C81.3962 104.65 81.2767 104.696 81.1573 104.733C81.0517 104.766 80.9448 104.794 80.8364 104.816L49.7434 111.19C49.3253 111.276 48.9017 111.271 48.5198 111.178Z" fill="#F9FAFB"/>
<path d="M83.0989 101.675C83.1906 102.683 82.5726 103.694 81.6351 104.224C81.3726 104.372 81.0851 104.482 80.7823 104.544L49.6892 110.918C49.5059 110.955 49.3253 110.974 49.1503 110.974C48.0351 110.974 47.1462 110.236 47.0531 109.146L42.7698 58.6263C42.6823 57.3485 43.7226 56.0832 45.0934 55.8027L57.9601 53.1652L70.699 50.5541L71.267 58.8805C71.3115 59.5138 71.592 60.0513 72.0212 60.4277C72.4517 60.8027 73.0323 61.0194 73.6809 61.0207C73.8823 61.0207 74.0892 60.9985 74.3003 60.9555C74.9795 60.8166 75.5934 60.4638 76.0587 59.9916C76.5226 59.5194 76.8434 58.9249 76.9434 58.2971C76.9739 58.1041 76.9837 57.9069 76.9698 57.711L76.4017 49.386L77.4601 49.1694L77.8115 54.3305C77.8253 54.536 77.992 54.6749 78.2017 54.6749C78.5545 54.6124 78.7476 54.3777 78.7309 54.1416L78.3781 48.9805L78.6795 48.9194L81.1587 48.411C81.342 48.3735 81.5226 48.3555 81.6976 48.3555C82.8267 48.3555 83.7226 49.111 83.7962 50.218L84.2878 57.411L84.3837 58.8152L84.4031 59.1055C84.4906 60.3832 83.4503 61.6471 82.0809 61.9277C80.7781 62.1957 79.7726 63.3527 79.7545 64.5652C79.7531 64.6263 79.7545 64.6888 79.7601 64.7499L79.8698 65.9694L80.3892 71.7194L80.5156 73.1235L81.0351 78.8735L81.1614 80.2763L83.0989 101.675Z" fill="#D0D5DD"/>
<path d="M49.15 111.251C47.8764 111.251 46.8792 110.376 46.7764 109.169L42.4931 58.6499C42.3959 57.236 43.5375 55.8387 45.0375 55.5304L70.6431 50.2832C70.7222 50.2665 70.8028 50.286 70.8667 50.3346C70.9306 50.3832 70.9709 50.4568 70.975 50.5374L71.5431 58.8637C71.5806 59.3999 71.8153 59.8818 72.2028 60.2207C72.5889 60.5568 73.1139 60.7429 73.6806 60.7443C73.8597 60.7443 74.05 60.7249 74.2445 60.6846C74.8431 60.5624 75.4167 60.2471 75.8597 59.7985C76.2931 59.3582 76.5792 58.8096 76.6681 58.2554C76.6959 58.0776 76.7042 57.9026 76.6917 57.7332L76.1236 49.4054C76.1139 49.2665 76.2084 49.1429 76.3445 49.1137L77.4028 48.8971C77.4806 48.8804 77.5625 48.8999 77.6264 48.9485C77.6903 48.9971 77.7306 49.0707 77.7347 49.1512L78.0875 54.3124C78.0917 54.3762 78.1445 54.3929 78.1806 54.3971C78.3681 54.3568 78.4597 54.2499 78.4528 54.1624L78.1 49.0012C78.0903 48.8624 78.1847 48.7387 78.3209 48.7096L81.1014 48.1387C81.3014 48.0985 81.5014 48.0776 81.6959 48.0776C82.9903 48.0776 83.9889 48.9693 84.0722 50.1985L84.6792 59.0874C84.7764 60.4957 83.6347 61.8929 82.1347 62.2012C80.9709 62.4401 80.0472 63.4804 80.0306 64.5707C80.0292 64.6249 80.0306 64.6776 80.0347 64.7318L83.3722 101.651C83.4709 102.737 82.8264 103.869 81.7681 104.467C81.4736 104.633 81.1597 104.751 80.8347 104.818L49.7417 111.192C49.5459 111.23 49.3459 111.251 49.15 111.251ZM70.4417 50.8915L45.1472 56.0749C43.9097 56.329 42.9667 57.4651 43.0459 58.6082L47.3292 109.123C47.4084 110.05 48.157 110.697 49.15 110.697C49.3084 110.697 49.4709 110.68 49.6334 110.647L80.7264 104.273C80.9945 104.218 81.2542 104.121 81.4986 103.983C82.3695 103.492 82.9014 102.575 82.8222 101.701L79.4834 64.7762C79.4778 64.7012 79.4764 64.6318 79.4778 64.5624C79.4986 63.1999 80.5945 61.9512 82.0264 61.6568C83.2639 61.4026 84.207 60.2679 84.1278 59.1262L83.5209 50.2374C83.457 49.2929 82.7084 48.6346 81.6986 48.6346C81.5403 48.6346 81.3778 48.6512 81.2153 48.6846L78.6722 49.2068L79.0084 54.1249C79.0361 54.5207 78.7181 54.8679 78.25 54.9499C78.2347 54.9526 78.2181 54.954 78.2014 54.954C77.8389 54.954 77.557 54.6999 77.5334 54.3499L77.2028 49.5054L76.6931 49.6096L77.2445 57.6929C77.2597 57.9026 77.25 58.1221 77.2153 58.3415C77.1084 59.0082 76.7681 59.6637 76.2542 60.186C75.7347 60.7137 75.0597 61.0832 74.3542 61.2276C74.1222 61.2749 73.8945 61.2985 73.6792 61.2985C72.9778 61.2971 72.3236 61.0624 71.8361 60.6374C71.3361 60.1999 71.0347 59.5832 70.9875 58.8999L70.4417 50.8915Z" fill="#F9FAFB"/>
<path d="M73.6793 61.2985C72.9793 61.2971 72.3251 61.0624 71.8376 60.6374C71.3376 60.1999 71.0362 59.5832 70.989 58.8999L70.0821 45.6179C70.0626 45.3374 70.0751 45.0499 70.121 44.7652C70.2612 43.8846 70.7112 43.0207 71.389 42.3332C72.0737 41.636 72.9654 41.1471 73.9001 40.9554C74.2001 40.8943 74.4987 40.8638 74.789 40.8638C75.7085 40.8638 76.5682 41.1721 77.2085 41.7304C77.864 42.3027 78.2585 43.111 78.3168 44.0054L79.0085 54.1221C79.0349 54.4985 78.7487 54.8554 78.3571 54.936C78.3043 54.9457 78.2529 54.9513 78.2029 54.9513C77.8404 54.9513 77.5599 54.6971 77.5349 54.3471L76.8446 44.2304C76.8057 43.6707 76.5724 43.1888 76.1682 42.836C75.7696 42.4874 75.2307 42.2957 74.6487 42.2957C74.4612 42.2957 74.2668 42.3165 74.0696 42.3568C73.446 42.4846 72.8724 42.7999 72.4112 43.2679C71.9668 43.7193 71.6724 44.2818 71.5821 44.8513C71.5529 45.0346 71.5446 45.2165 71.5571 45.3888L72.464 58.6707C72.4876 59.0152 72.6307 59.3124 72.8793 59.5304C73.1265 59.7443 73.4612 59.8624 73.821 59.8624C73.939 59.8624 74.0626 59.8499 74.1862 59.8249C74.5807 59.7429 74.9432 59.5429 75.2349 59.2485C75.514 58.9638 75.7001 58.6096 75.7571 58.2527C75.7751 58.1429 75.7807 58.029 75.7737 57.9152L74.9071 45.2374C74.8974 45.1068 74.846 44.9971 74.7515 44.9152C74.6571 44.8332 74.5265 44.786 74.3862 44.786C74.3362 44.7874 74.2835 44.7929 74.2335 44.8027C74.0696 44.8374 73.9182 44.9207 73.7974 45.0443C73.6793 45.1638 73.6029 45.3082 73.5793 45.4527C73.5724 45.4929 73.571 45.5388 73.5737 45.5846L74.1585 54.1457C74.1849 54.5221 73.8974 54.879 73.5071 54.9596C73.4557 54.9707 73.4029 54.9763 73.3515 54.9763C72.989 54.9763 72.7099 54.7221 72.6849 54.3721L72.1001 45.8124C72.0904 45.6693 72.0974 45.5193 72.121 45.3652C72.1932 44.9096 72.4265 44.4624 72.7751 44.1082C73.1237 43.7513 73.5821 43.4999 74.064 43.3999C74.2237 43.3693 74.3779 43.3527 74.5251 43.3527C75.0057 43.3527 75.4543 43.5152 75.7918 43.8082C76.139 44.1096 76.3474 44.536 76.3793 45.0082L77.2446 57.6888C77.2599 57.8985 77.2501 58.1179 77.2154 58.3374C77.1099 59.004 76.7682 59.6596 76.2543 60.1818C75.7349 60.7082 75.0612 61.079 74.3543 61.2235C74.1237 61.2749 73.896 61.2985 73.6793 61.2985Z" fill="#D0D5DD"/>
<path d="M74.7876 41.143C75.6626 41.143 76.4446 41.4346 77.0251 41.9416C77.6043 42.4471 77.9835 43.1693 78.039 44.0263L78.2057 46.4652L78.3779 48.9832L78.7307 54.1443C78.7474 54.3791 78.5543 54.6152 78.3001 54.668C78.2668 54.6749 78.2335 54.6777 78.2015 54.6777C77.9918 54.6777 77.8251 54.5388 77.8112 54.3332L77.4599 49.1721L77.2751 46.4666L77.121 44.2166C77.0765 43.5624 76.7918 43.0166 76.3501 42.6318C75.9085 42.2457 75.3112 42.0235 74.6487 42.0235C74.4446 42.0235 74.2307 42.0457 74.014 42.0902C73.314 42.2346 72.6918 42.593 72.2126 43.0777C71.7349 43.5624 71.4085 44.1721 71.3071 44.8124C71.2751 45.0096 71.264 45.2124 71.2793 45.4138L71.3515 46.4666L71.6182 50.3693L72.1862 58.6943C72.2154 59.1277 72.4043 59.4874 72.696 59.743C72.989 59.9971 73.3835 60.1443 73.821 60.1443C73.9571 60.1443 74.0987 60.1305 74.2404 60.1013C74.7043 60.0055 75.1154 59.768 75.4321 59.4471C75.7474 59.1263 75.964 58.7235 76.0307 58.2999C76.0515 58.1693 76.0585 58.036 76.0501 57.9013L75.4807 49.5763L75.2682 46.4652L75.1835 45.2221C75.1682 45.0082 75.0765 44.8346 74.9335 44.7096C74.789 44.5846 74.5974 44.5124 74.3849 44.5124C74.3168 44.5138 74.2487 44.5207 74.1779 44.5346C73.9501 44.5818 73.7529 44.6957 73.5974 44.8541C73.4432 45.011 73.3362 45.2082 73.3029 45.4138C73.2932 45.4777 73.2904 45.543 73.2946 45.6082L73.3529 46.4666L73.5918 49.9638L73.8793 54.1693C73.896 54.4068 73.7029 54.6402 73.4487 54.693C73.414 54.6999 73.3807 54.7027 73.3487 54.7027C73.139 54.7027 72.9737 54.5624 72.9599 54.3568L72.6724 50.1513L72.421 46.4652L72.3751 45.7971C72.3654 45.6693 72.3737 45.5402 72.3932 45.4138C72.4585 45.0041 72.6682 44.6152 72.971 44.3082C73.2724 43.9999 73.6751 43.7693 74.1182 43.6777C74.2557 43.6513 74.3904 43.636 74.5224 43.636C74.9474 43.636 75.3251 43.7777 75.6057 44.0235C75.8876 44.268 76.071 44.6193 76.0987 45.0332L76.196 46.4666L76.396 49.3888L76.964 57.7138C76.9793 57.9096 76.9682 58.1068 76.9376 58.2999C76.8376 58.9277 76.5168 59.5207 76.0529 59.9943C75.5876 60.4666 74.9737 60.8193 74.2946 60.9582C74.0835 61.0013 73.8765 61.0235 73.6751 61.0235C73.0265 61.0221 72.4446 60.8055 72.0154 60.4305C71.5849 60.0541 71.3057 59.5166 71.2612 58.8832L70.6974 50.5555L70.4182 46.4638L70.3599 45.5999C70.3418 45.336 70.3543 45.0707 70.396 44.8096C70.5307 43.9652 70.9612 43.1652 71.5876 42.5291C72.214 41.8916 73.0404 41.4166 73.9557 41.2291C74.2376 41.1707 74.5168 41.143 74.7876 41.143ZM74.7876 40.5874C74.4793 40.5874 74.1626 40.6193 73.8446 40.6832C72.8543 40.886 71.9126 41.4027 71.189 42.1388C70.4724 42.8666 69.9946 43.7832 69.846 44.7207C69.7974 45.0263 69.7835 45.3346 69.8043 45.6374L69.8626 46.5013L70.1418 50.593L70.7099 58.9193C70.764 59.6777 71.0987 60.361 71.6529 60.8471C72.1918 61.3166 72.9098 61.5749 73.6779 61.5777C73.914 61.5777 74.1599 61.5527 74.4085 61.5013C75.1696 61.3457 75.896 60.9485 76.4529 60.3832C77.0071 59.8193 77.3751 59.1096 77.4904 58.3874C77.5293 58.1457 77.539 57.9055 77.5223 57.6721L77.3154 54.6374C77.4501 54.9902 77.7932 55.2318 78.2015 55.2318C78.2696 55.2318 78.339 55.2249 78.4085 55.211C78.9376 55.1027 79.321 54.6166 79.2848 54.1041L78.9321 48.9443L78.7599 46.4263L78.5932 43.9874C78.5293 43.0193 78.1015 42.143 77.3904 41.5221C76.6987 40.9193 75.7737 40.5874 74.7876 40.5874ZM71.8349 45.4096L71.8321 45.3735C71.821 45.218 71.8279 45.0596 71.8543 44.8971C71.9362 44.3832 72.2043 43.8749 72.6071 43.4638C73.0293 43.036 73.5543 42.7485 74.1237 42.6305C74.3029 42.5943 74.4779 42.5749 74.6474 42.5749C75.1612 42.5749 75.6362 42.743 75.9835 43.0457C76.3321 43.3499 76.5335 43.7666 76.5654 44.2499L76.5876 44.5846C76.4849 44.2027 76.2737 43.861 75.9724 43.5999C75.5862 43.2624 75.0724 43.0763 74.5251 43.0763C74.3599 43.0763 74.1876 43.093 74.014 43.1277C73.4724 43.2402 72.964 43.518 72.5765 43.9152C72.1876 44.3096 71.9293 44.8096 71.8474 45.3221C71.8432 45.3527 71.839 45.3805 71.8349 45.4096ZM73.3515 55.2555C73.421 55.2555 73.4932 55.2485 73.5626 55.2332C74.0876 55.1249 74.471 54.6402 74.4362 54.1277L74.1487 49.9221L73.9099 46.4249L73.8515 45.5666C73.8501 45.5416 73.8501 45.518 73.8543 45.4971C73.8682 45.411 73.9196 45.3166 73.9946 45.2402C74.0779 45.1541 74.1807 45.0985 74.2932 45.0749C74.321 45.0693 74.3543 45.0652 74.3918 45.0652C74.464 45.0666 74.5251 45.0874 74.571 45.1263C74.6071 45.1582 74.6265 45.1999 74.6307 45.2582L74.7154 46.4999L74.9279 49.611L75.4974 57.936C75.5029 58.0249 75.4987 58.118 75.4835 58.2096C75.4362 58.5096 75.2765 58.811 75.0362 59.0555C74.7849 59.311 74.4696 59.4832 74.1279 59.5555C74.0265 59.5763 73.921 59.586 73.821 59.586C73.5279 59.586 73.2571 59.4916 73.0599 59.3207C72.871 59.1541 72.7598 58.9235 72.7404 58.6541L72.4682 54.6638C72.6015 55.0152 72.9446 55.2555 73.3515 55.2555Z" fill="#F9FAFB"/>
<path d="M114.19 44.6748L114.464 46.3873C114.629 47.4137 115.333 48.2179 116.347 48.5345L118.04 49.0623L116.179 49.5901C115.065 49.9067 114.104 50.7109 113.611 51.7373L112.79 53.4498L112.515 51.7373C112.35 50.7109 111.646 49.9067 110.632 49.5901L108.94 49.0623L110.8 48.5345C111.914 48.2179 112.875 47.4137 113.368 46.3873L114.19 44.6748Z" fill="#D0D5DD"/>
<path d="M55.9449 37.9458L56.1546 39.2583C56.281 40.0458 56.8213 40.6625 57.5991 40.9041L58.8963 41.3083L57.4699 41.7139C56.6158 41.9555 55.8783 42.5722 55.5005 43.3583L54.8713 44.6722L54.6616 43.3583C54.5352 42.5708 53.9949 41.9555 53.2171 41.7139L51.9199 41.3083L53.3463 40.9041C54.2005 40.6625 54.938 40.0444 55.3158 39.2583L55.9449 37.9458Z" fill="#D0D5DD"/>
<path d="M91.3792 83.3833L91.4959 84.1152C91.5667 84.5527 91.8681 84.8972 92.3014 85.0319L93.0237 85.2569L92.2292 85.4819C91.7528 85.618 91.3417 85.9611 91.1306 86.3986L90.7792 87.1305L90.6625 86.3986C90.5917 85.9611 90.2917 85.6166 89.8584 85.4819L89.1348 85.2569L89.9306 85.0319C90.407 84.8958 90.8167 84.5527 91.0278 84.1152L91.3792 83.3833Z" fill="#D0D5DD"/>
<path d="M38.7514 93.189L38.8681 93.9209C38.9389 94.3598 39.2403 94.7029 39.6737 94.8376L40.3959 95.0626L39.6014 95.2876C39.125 95.4237 38.7139 95.7667 38.5028 96.2056L38.1528 96.9376L38.0362 96.2056C37.9667 95.7667 37.6653 95.4237 37.232 95.2876L36.5098 95.0626L37.3042 94.8376C37.7806 94.7029 38.1917 94.3598 38.4014 93.9209L38.7514 93.189Z" fill="#D0D5DD"/>
</svg>
