<svg width="111" height="76" viewBox="0 0 111 76" fill="none" xmlns="http://www.w3.org/2000/svg">
<g id="Group">
<g id="Group_2">
<g id="Group_3">
<path id="Vector" d="M19.0494 46.4361C20.0454 45.8438 20.3485 44.806 19.7264 44.1182C19.1042 43.4304 17.7924 43.3529 16.7964 43.9452C15.8004 44.5374 15.4973 45.5752 16.1194 46.263C16.7416 46.9509 18.0534 47.0283 19.0494 46.4361Z" fill="#D0D5DD"/>
<path id="Vector_2" d="M17.5996 46.9988C16.9678 46.9988 16.4128 46.8021 16.0374 46.4454C15.6728 46.0988 15.5235 45.6432 15.618 45.1632C15.8113 44.1799 16.9898 43.3799 18.245 43.3799C18.8768 43.3799 19.4318 43.5766 19.8073 43.9332C20.1718 44.2799 20.3211 44.7354 20.2266 45.2154C20.0334 46.1988 18.8548 46.9988 17.5996 46.9988ZM18.2464 43.7132C17.1844 43.7132 16.1881 44.3877 16.025 45.2154C15.9497 45.5977 16.0648 45.9577 16.3512 46.2288C16.6472 46.511 17.0912 46.6654 17.601 46.6654C18.663 46.6654 19.6593 45.991 19.8223 45.1632C19.8977 44.781 19.7826 44.421 19.4962 44.1499C19.1988 43.8677 18.7562 43.7132 18.2464 43.7132Z" fill="#F9FAFB"/>
</g>
</g>
<g id="Group_4">
<g id="Group_5">
<path id="Vector_3" d="M58.4602 23.3438C58.7822 23.3438 59.0028 23.5482 58.9535 23.8004L58.5492 25.8582C58.4999 26.1104 58.1984 26.3138 57.8764 26.3138H48.4948C48.1742 26.3138 47.9522 26.1093 48.0015 25.8582L48.4058 23.8004C48.4551 23.5482 48.7579 23.3438 49.0786 23.3438H58.4602Z" fill="#F7F9FC"/>
<path id="Vector_4" d="M57.8764 26.4811H48.4948C48.2783 26.4811 48.0796 26.41 47.9481 26.2855C47.8179 26.1622 47.7644 26.0011 47.7987 25.8333L48.203 23.7755C48.2687 23.4411 48.6538 23.1777 49.0786 23.1777H58.4602C58.6767 23.1777 58.8754 23.2488 59.0056 23.3733C59.1358 23.4966 59.1892 23.6577 59.1549 23.8277L58.7507 25.8855C58.6863 26.2188 58.3012 26.4811 57.8764 26.4811ZM49.0786 23.51C48.858 23.51 48.6428 23.6544 48.6086 23.8266L48.2043 25.8844C48.1906 25.9555 48.2098 26.02 48.2605 26.0677C48.314 26.1188 48.3975 26.1466 48.4948 26.1466H57.8764C58.097 26.1466 58.3122 26.0022 58.3464 25.8311L58.7507 23.7733C58.7644 23.7022 58.7452 23.6366 58.6931 23.5877C58.6397 23.5366 58.5575 23.5088 58.4602 23.5088H49.0786V23.51Z" fill="#F9FAFB"/>
</g>
</g>
<g id="Group_6">
<g id="Group_7">
<path id="Vector_5" d="M19.354 40.4863H30.3347L28.8822 47.8719L24.4764 43.923L16.6187 50.0874L11.3592 45.0241L0.51001 53.9552L3.15894 40.4863H19.354ZM17.5999 46.8319C18.7606 46.8319 19.8459 46.0963 20.0241 45.1886C20.2022 44.2808 19.4074 43.5452 18.2467 43.5452C17.086 43.5452 16.0007 44.2808 15.8225 45.1886C15.643 46.0963 16.4392 46.8319 17.5999 46.8319Z" fill="#E4E7EC"/>
<path id="Vector_6" d="M0.509893 54.1214C0.478374 54.1214 0.446855 54.1159 0.416707 54.1036C0.337225 54.0714 0.292005 54.0003 0.307079 53.9292L2.95601 40.4603C2.97245 40.3792 3.05741 40.3203 3.15882 40.3203H30.3333C30.3936 40.3203 30.4511 40.3414 30.4895 40.3792C30.5279 40.4159 30.5457 40.4659 30.5361 40.5136L29.0835 47.8992C29.0712 47.9625 29.015 48.0148 28.9396 48.0325C28.8642 48.0503 28.782 48.0325 28.7286 47.9848L24.4653 44.1636L16.7597 50.2081C16.7186 50.2403 16.6624 50.257 16.6063 50.2548C16.5487 50.2525 16.4966 50.2314 16.4596 50.1959L11.3454 45.2725L0.655152 54.0725C0.616782 54.1036 0.563337 54.1214 0.509893 54.1214ZM3.33423 40.6525L0.814115 53.4659L11.2125 44.9059C11.2536 44.8725 11.3084 44.8548 11.3673 44.8559C11.4249 44.8581 11.4797 44.8792 11.5167 44.9148L16.6337 49.8414L24.3338 43.8014C24.3735 43.7703 24.427 43.7525 24.4832 43.7548C24.5393 43.7559 24.5914 43.7759 24.6284 43.8092L28.7464 47.5003L30.0934 40.6514H3.33423V40.6525ZM17.5998 46.9981C16.968 46.9981 16.413 46.8014 16.0376 46.4448C15.673 46.0981 15.5237 45.6425 15.6182 45.1625C15.8114 44.1792 16.99 43.3792 18.2452 43.3792C18.877 43.3792 19.432 43.5759 19.8074 43.9325C20.172 44.2792 20.3213 44.7348 20.2268 45.2148C20.0336 46.1981 18.855 46.9981 17.5998 46.9981ZM18.2466 43.7125C17.1846 43.7125 16.1883 44.387 16.0252 45.2148C15.9499 45.597 16.065 45.957 16.3514 46.2281C16.6474 46.5103 17.0914 46.6648 17.6012 46.6648C18.6632 46.6648 19.6594 45.9903 19.8225 45.1625C19.8979 44.7803 19.7828 44.4203 19.4964 44.1492C19.199 43.867 18.7564 43.7125 18.2466 43.7125Z" fill="#F9FAFB"/>
</g>
</g>
<g id="Group_8">
<g id="Group_9">
<path id="Vector_7" d="M24.4748 43.9229L28.8819 47.8717L27.6856 53.9551H0.509766L11.359 45.024L16.6171 50.0873L24.4748 43.9229Z" fill="#D0D5DD"/>
<path id="Vector_8" d="M27.6856 54.1216H0.509777C0.427555 54.1216 0.352184 54.0816 0.320666 54.0194C0.289147 53.9572 0.305593 53.886 0.364518 53.8383L11.2137 44.9072C11.2549 44.8738 11.3097 44.856 11.3686 44.8572C11.4261 44.8594 11.481 44.8805 11.518 44.916L16.6349 49.8427L24.335 43.8027C24.3748 43.7716 24.4282 43.7538 24.4844 43.756C24.5406 43.7572 24.5927 43.7772 24.6297 43.8105L29.0354 47.7594C29.0765 47.7972 29.0957 47.8472 29.0861 47.8972L27.8898 53.9805C27.872 54.0616 27.7856 54.1216 27.6856 54.1216ZM1.00037 53.7883H27.5088L28.6627 47.9249L24.4652 44.1627L16.7596 50.2072C16.7185 50.2394 16.6623 50.256 16.6061 50.2538C16.5486 50.2516 16.4965 50.2305 16.4595 50.1949L11.3453 45.2716L1.00037 53.7883Z" fill="#F9FAFB"/>
</g>
</g>
<g id="Group_10">
<g id="Group_11">
<path id="Vector_9" d="M98.3475 18.8459L91.6326 28.2648L94.6639 24.0103L93.2182 20.0992L85.7661 22.9381L84.171 18.0092L73.7288 22.2403L80.4449 12.8203L98.3475 18.8459ZM89.8196 20.0536C90.2719 19.4192 90.0197 18.6959 89.2551 18.4381C89.0714 18.3759 88.8741 18.347 88.6754 18.347C88.0464 18.347 87.3941 18.6392 87.0501 19.1214C86.5979 19.7559 86.8514 20.4792 87.6161 20.737C87.7997 20.7992 87.9957 20.8281 88.1958 20.8281C88.8248 20.8281 89.4771 20.5359 89.8196 20.0536Z" fill="#E4E7EC"/>
<path id="Vector_10" d="M91.6327 28.4316C91.5985 28.4316 91.5629 28.425 91.53 28.4094C91.4313 28.3638 91.3984 28.2616 91.4546 28.1816L94.442 23.9894L93.0908 20.3327L85.8553 23.0894C85.8004 23.1105 85.736 23.1105 85.6812 23.0894C85.6264 23.0683 85.5853 23.0283 85.5689 22.9805L84.0381 18.2505L73.822 22.3894C73.7398 22.4227 73.6425 22.4083 73.5809 22.355C73.5192 22.3016 73.5068 22.2205 73.5521 22.1572L80.2683 12.7372C80.3203 12.665 80.43 12.635 80.5245 12.6672L98.4257 18.6927C98.4805 18.7116 98.523 18.7483 98.5422 18.7927C98.5613 18.8383 98.5545 18.8883 98.5257 18.9294L91.8109 28.3483C91.7725 28.4016 91.704 28.4316 91.6327 28.4316ZM93.2196 19.9338C93.2484 19.9338 93.2772 19.9383 93.3032 19.9483C93.358 19.9683 93.3992 20.0061 93.4156 20.0527L94.7243 23.595L98.0516 18.9283L80.5327 13.0316L74.2496 21.845L84.0793 17.8627C84.1354 17.8405 84.1999 17.8394 84.256 17.8605C84.3122 17.8816 84.3547 17.9216 84.3698 17.9705L85.9019 22.705L93.1306 19.9516C93.1593 19.9383 93.1895 19.9338 93.2196 19.9338ZM88.1959 20.995C87.9643 20.995 87.7423 20.9605 87.5381 20.8905C87.1366 20.755 86.8392 20.5005 86.7035 20.1738C86.5542 19.815 86.6158 19.4005 86.8748 19.0383C87.2462 18.5172 87.9547 18.1805 88.6769 18.1805C88.9084 18.1805 89.1305 18.215 89.3346 18.2838C89.7375 18.4194 90.0335 18.6738 90.1706 19.0005C90.3199 19.3594 90.2583 19.7738 89.9993 20.1361C89.6265 20.6583 88.9194 20.995 88.1959 20.995ZM88.6755 18.515C88.1054 18.515 87.5244 18.7927 87.2284 19.2061C87.0297 19.4861 86.979 19.8005 87.0913 20.0683C87.1886 20.3027 87.4038 20.4861 87.6943 20.5838C87.8491 20.6361 88.0177 20.6627 88.1945 20.6627C88.7646 20.6627 89.3456 20.385 89.6402 19.9716C89.8403 19.6916 89.891 19.3772 89.7786 19.1094C89.6813 18.875 89.4662 18.6916 89.1757 18.5938C89.0222 18.5405 88.8536 18.515 88.6755 18.515Z" fill="#F9FAFB"/>
</g>
</g>
<g id="Group_12">
<g id="Group_13">
<path id="Vector_11" d="M72.834 23.499L74.9567 25.8479L73.4671 27.9379L71.343 25.589L72.834 23.499Z" fill="#98A2B3"/>
<path id="Vector_12" d="M73.467 28.1043C73.4012 28.1043 73.3396 28.0787 73.3012 28.0365L71.1771 25.6887C71.1291 25.6354 71.1237 25.5643 71.1648 25.5065L72.6544 23.4165C72.6886 23.3676 72.7517 23.3365 72.8216 23.3331C72.8887 23.3309 72.9572 23.3554 72.9983 23.4009L75.1224 25.7487C75.1704 25.802 75.1759 25.8731 75.1347 25.9309L73.6451 28.0209C73.6109 28.0698 73.5479 28.1009 73.478 28.1043C73.4752 28.1043 73.4711 28.1043 73.467 28.1043ZM71.5882 25.5787L73.4464 27.6331L74.7113 25.8587L72.8531 23.8043L71.5882 25.5787Z" fill="#F9FAFB"/>
</g>
</g>
<g id="Group_14">
<g id="Group_15">
<path id="Vector_13" d="M68.9543 28.9414L71.0784 31.2892H36.7767L34.6526 28.9414H68.9543Z" fill="#101928"/>
<path id="Vector_14" d="M71.0784 31.4555H36.778C36.7123 31.4555 36.6506 31.43 36.6122 31.3877L34.4882 29.04C34.4429 28.9889 34.4361 28.9222 34.4703 28.8655C34.5046 28.81 34.5759 28.7744 34.654 28.7744H68.9543C69.0201 28.7744 69.0818 28.8 69.1202 28.8422L71.2442 31.19C71.2895 31.2411 71.2963 31.3077 71.262 31.3644C71.2264 31.42 71.1552 31.4555 71.0784 31.4555ZM36.8808 31.1222H70.6714L68.8488 29.1077H35.0582L36.8808 31.1222Z" fill="#F9FAFB"/>
</g>
</g>
<g id="Group_16">
<g id="Group_17">
<path id="Vector_15" d="M70.684 28.9414L72.8081 31.2892H71.0787L68.9546 28.9414H70.684Z" fill="#101928"/>
<path id="Vector_16" d="M72.808 31.4555H71.0786C71.0128 31.4555 70.9511 31.43 70.9128 31.3877L68.7887 29.04C68.7435 28.9889 68.7366 28.9222 68.7709 28.8655C68.8051 28.81 68.8764 28.7744 68.9545 28.7744H70.6839C70.7497 28.7744 70.8114 28.8 70.8497 28.8422L72.9738 31.19C73.019 31.2411 73.0259 31.3077 72.9916 31.3644C72.956 31.42 72.8861 31.4555 72.808 31.4555ZM71.1827 31.1222H72.4024L70.5798 29.1077H69.3601L71.1827 31.1222Z" fill="#F9FAFB"/>
</g>
</g>
<g id="Group_18">
<g id="Group_19">
<path id="Vector_17" d="M81.0329 28.9404H24.3051C22.8251 28.9404 21.441 29.8782 21.2122 31.036L19.3539 40.486H30.3347L28.8821 47.8715L27.6858 53.9538H16.705L16.161 56.716C15.9335 57.8727 16.9503 58.8126 18.4303 58.8126H62.6124L64.1664 50.9149H79.3912L80.1655 46.976L80.8795 43.3504L81.5989 39.6893L81.8867 38.226L83.1693 31.7071L83.3009 31.036C83.5284 29.8782 82.5129 28.9404 81.0329 28.9404ZM63.1167 43.876C61.9793 49.6571 55.0644 54.3427 47.6726 54.3427C40.2795 54.3427 35.2091 49.6571 36.3465 43.876C37.4826 38.0949 44.3974 33.4093 51.7906 33.4093C59.1824 33.4093 64.2541 38.0949 63.1167 43.876ZM77.9359 32.7082L77.3014 35.9282C77.2329 36.2771 76.8163 36.5604 76.3696 36.5604H68.9983C68.553 36.5604 68.2474 36.2771 68.3159 35.9282L68.949 32.7082C69.0175 32.3593 69.4355 32.076 69.8809 32.076H77.2521C77.6988 32.076 78.0044 32.3593 77.9359 32.7082Z" fill="#98A2B3" stroke="#F9FAFB" stroke-width="3" stroke-miterlimit="10" stroke-linecap="round" stroke-linejoin="round"/>
</g>
</g>
<g id="Group_20">
<g id="Group_21">
<path id="Vector_18" d="M72.8338 23.499L90.7349 29.5246L84.0201 38.9446L87.0514 34.6901L85.607 30.779L83.1677 31.7079L83.2993 31.0368C83.5268 29.879 82.5113 28.9401 81.0313 28.9401H76.6407L76.5584 28.6879L75.9363 28.9401H68.9529H70.6823L71.3414 25.589L72.8338 23.499Z" fill="#E4E7EC"/>
<path id="Vector_19" d="M84.0202 39.1106C83.9941 39.1106 83.9667 39.1062 83.9421 39.0984L81.8084 38.3806C81.7289 38.3539 81.6823 38.2917 81.6823 38.2262C81.6823 38.2051 81.6878 38.1828 81.6974 38.1617C81.7413 38.0773 81.8605 38.0362 81.966 38.0717L83.9325 38.7339L86.8294 34.6684L85.4796 31.0106L83.2569 31.8573C83.1884 31.8839 83.1062 31.8773 83.0459 31.8395C82.9856 31.8028 82.954 31.7406 82.9664 31.6795L83.0979 31.0084C83.1966 30.5062 83.0445 30.0339 82.6704 29.6784C82.2812 29.3084 81.7002 29.1051 81.0328 29.1051H76.6421C76.5489 29.1051 76.4667 29.0539 76.4434 28.9806L76.4256 28.9273L76.0296 29.0873C76.0008 29.0984 75.9693 29.1051 75.9377 29.1051H68.9543C68.8406 29.1051 68.7488 29.0306 68.7488 28.9384C68.7488 28.8462 68.8406 28.7717 68.9543 28.7717H70.5097L71.1414 25.5606C71.1456 25.5406 71.1538 25.5206 71.1661 25.5039L72.6557 23.4139C72.7078 23.3417 72.8174 23.3117 72.912 23.3439L90.8131 29.3695C90.8679 29.3884 90.9104 29.4251 90.9296 29.4695C90.9488 29.5151 90.9419 29.5651 90.9131 29.6062L84.1983 39.0262C84.1915 39.0362 84.1819 39.0462 84.1723 39.0551C84.1312 39.0917 84.0764 39.1106 84.0202 39.1106ZM85.6084 30.6117C85.6372 30.6117 85.666 30.6162 85.692 30.6262C85.7469 30.6462 85.788 30.6839 85.8044 30.7306L87.1117 34.2728L90.439 29.6051L72.9202 23.7084L71.5389 25.6451L70.9236 28.7728H75.8884L76.4667 28.5384C76.5229 28.5162 76.5873 28.515 76.6435 28.5362C76.6997 28.5573 76.7421 28.5973 76.7572 28.6462L76.7983 28.7739H81.0314C81.8207 28.7739 82.5128 29.0195 82.9814 29.4639C83.435 29.8951 83.62 30.4628 83.5022 31.0628L83.4309 31.4228L85.518 30.6273C85.5481 30.6173 85.5783 30.6117 85.6084 30.6117Z" fill="#F9FAFB"/>
</g>
</g>
<g id="Group_22">
<g id="Group_23">
<path id="Vector_20" d="M80.1654 46.9762L80.8794 43.3496L83.124 40.2018L81.6002 39.6885L81.888 38.2251L84.0216 38.9429L90.7364 29.5229L72.8353 23.4974L71.3457 25.5874L72.0597 21.9607L87.4476 0.374023L108.369 7.41514L80.1654 46.9762ZM88.0587 2.1418L81.3426 11.5618L99.2437 17.5874L102.276 13.3329L105.959 8.16736L88.0587 2.1418ZM73.7302 22.2407L91.6327 28.2651L98.3475 18.8462L80.4463 12.8207L73.7302 22.2407Z" fill="#F7F9FC"/>
<path id="Vector_21" d="M80.1655 47.143C80.1422 47.143 80.1189 47.1397 80.097 47.133C80.0038 47.1063 79.9476 47.0285 79.9627 46.9496L80.6766 43.323C80.6807 43.303 80.689 43.283 80.7013 43.2663L82.8281 40.283L81.5208 39.843C81.4331 39.813 81.381 39.7385 81.3961 39.663L81.6839 38.1996C81.6934 38.1497 81.7318 38.1052 81.7866 38.0808C81.8414 38.0563 81.9072 38.053 81.9661 38.0719L83.934 38.7341L90.4419 29.6052L72.9231 23.7085L71.5226 25.6719C71.4732 25.7419 71.3691 25.773 71.2759 25.7452C71.1827 25.7185 71.1265 25.6408 71.1416 25.5619L71.8556 21.9352C71.8597 21.9152 71.8679 21.8952 71.8802 21.8785L87.2681 0.291871C87.3202 0.219648 87.4284 0.189648 87.5244 0.22187L108.446 7.26298C108.501 7.28187 108.543 7.31743 108.562 7.36298C108.581 7.40854 108.575 7.45854 108.546 7.49965L80.3436 47.0596C80.3053 47.113 80.2367 47.143 80.1655 47.143ZM81.0754 43.4074L80.5437 46.1141L108.072 7.49854L87.5326 0.586314L72.253 22.0196L71.7199 24.7274L72.6545 23.4174C72.7066 23.3452 72.8162 23.3152 72.9107 23.3474L90.8119 29.373C90.8667 29.3919 90.9092 29.4285 90.9284 29.473C90.9476 29.5185 90.9407 29.5685 90.9119 29.6096L84.1971 39.0297C84.145 39.1019 84.0354 39.1319 83.9408 39.1008L82.0484 38.4641L81.8277 39.5885L83.2022 40.0508C83.257 40.0697 83.2995 40.1052 83.3187 40.1508C83.3379 40.1963 83.331 40.2463 83.3023 40.2874L81.0754 43.4074ZM91.6327 28.4319C91.6067 28.4319 91.5793 28.4274 91.5546 28.4196L73.6521 22.3952C73.5973 22.3763 73.5548 22.3396 73.5356 22.2952C73.5164 22.2496 73.5233 22.1996 73.5521 22.1585L80.2683 12.7385C80.3203 12.6663 80.4286 12.6352 80.5245 12.6685L98.4257 18.6941C98.4805 18.713 98.523 18.7496 98.5422 18.7941C98.5613 18.8396 98.5545 18.8896 98.5257 18.9308L91.8109 28.3496C91.7725 28.4019 91.704 28.4319 91.6327 28.4319ZM74.0249 22.1596L91.545 28.0552L98.0529 18.9274L80.5341 13.0308L74.0249 22.1596ZM99.2438 17.7541C99.2177 17.7541 99.1903 17.7496 99.1657 17.7419L81.2631 11.7163C81.2083 11.6974 81.1659 11.6619 81.1467 11.6163C81.1275 11.5708 81.1343 11.5208 81.1631 11.4796L87.8793 2.05965C87.9314 1.98742 88.041 1.95743 88.1356 1.98965L106.037 8.0152C106.092 8.03409 106.134 8.07076 106.153 8.1152C106.172 8.16076 106.166 8.21076 106.137 8.25187L99.4206 17.6719C99.3849 17.7241 99.315 17.7541 99.2438 17.7541ZM81.6373 11.4808L99.1561 17.3774L105.664 8.24854L88.1451 2.35187L81.6373 11.4808Z" fill="#F9FAFB"/>
</g>
</g>
<g id="Group_24">
<g id="Group_25">
<path id="Vector_22" d="M71.0292 20.7178C71.7322 20.7178 72.2145 21.1633 72.1063 21.7133L72.0569 21.9622L71.343 25.59L70.6838 28.9411H68.9544H34.6541L36.0751 21.7133C36.1834 21.1633 36.8412 20.7178 37.5428 20.7178H71.0292ZM58.5492 25.8589L58.9535 23.8011C59.0028 23.5489 58.7822 23.3444 58.4601 23.3444H49.0786C48.7579 23.3444 48.4551 23.5489 48.4057 23.8011L48.0015 25.8589C47.9521 26.1111 48.1741 26.3144 48.4948 26.3144H57.8764C58.1984 26.3144 58.4999 26.11 58.5492 25.8589Z" fill="#D0D5DD"/>
<path id="Vector_23" d="M70.6839 29.1074H34.6541C34.5938 29.1074 34.5362 29.0863 34.4979 29.0486C34.4595 29.0119 34.4417 28.9619 34.4513 28.9141L35.8724 21.6863C35.9957 21.0597 36.7453 20.5508 37.5442 20.5508H71.0292C71.4362 20.5508 71.7939 20.6786 72.0378 20.9097C72.2735 21.1341 72.3708 21.4286 72.3091 21.7397L70.8881 28.9674C70.8716 29.0474 70.7853 29.1074 70.6839 29.1074ZM34.8939 28.7741H70.5085L71.9021 21.6863C71.9446 21.4741 71.8802 21.2752 71.724 21.1252C71.5595 20.9697 71.3129 20.8841 71.0292 20.8841H37.5428C36.9371 20.8841 36.3698 21.2674 36.278 21.7386L34.8939 28.7741ZM57.8764 26.4808H48.4948C48.2783 26.4808 48.0796 26.4097 47.9481 26.2852C47.8179 26.1619 47.7644 26.0008 47.7987 25.833L48.2043 23.7752C48.2701 23.4408 48.6552 23.1774 49.08 23.1774H58.4615C58.6781 23.1774 58.8768 23.2486 59.007 23.373C59.1371 23.4963 59.1906 23.6574 59.1563 23.8263L58.7521 25.8841C58.6863 26.2186 58.3012 26.4808 57.8764 26.4808ZM49.0786 23.5097C48.858 23.5097 48.6428 23.6541 48.6086 23.8263L48.203 25.8841C48.1893 25.9552 48.2098 26.0197 48.2591 26.0674C48.3126 26.1186 48.3962 26.1463 48.4935 26.1463H57.875C58.0957 26.1463 58.3108 26.0019 58.3451 25.8308L58.7493 23.773C58.763 23.7019 58.7438 23.6363 58.6918 23.5874C58.6383 23.5363 58.5561 23.5086 58.4588 23.5086H49.0786V23.5097Z" fill="#F9FAFB"/>
</g>
</g>
<g id="Group_26">
<path id="Vector_24" d="M74.2441 23.8867C74.2454 23.9056 74.2441 23.9245 74.2427 23.9445V23.9722C74.24 24.0022 74.2358 24.0311 74.2304 24.0611L74.181 24.31L73.4671 27.9378L73.2697 28.9411H70.6838L71.3444 25.59L72.057 21.9622L72.1063 21.7133C72.1118 21.6833 72.1159 21.6545 72.1186 21.6245C72.1186 21.6156 72.1186 21.6056 72.12 21.5967C72.12 21.5767 72.1214 21.5578 72.12 21.5389C72.12 21.5278 72.1186 21.5167 72.1186 21.5056C72.1173 21.4889 72.1159 21.4722 72.1131 21.4556C72.1118 21.4433 72.109 21.4322 72.1063 21.4211C72.1035 21.4067 72.1008 21.3933 72.0981 21.38C72.0885 21.3422 72.0761 21.3067 72.0611 21.2722C72.0569 21.2645 72.0528 21.2567 72.0501 21.2489C72.0391 21.2267 72.0282 21.2056 72.0158 21.1856C72.009 21.1756 72.0021 21.1656 71.9967 21.1556C71.9857 21.14 71.9747 21.1245 71.9638 21.11C71.9514 21.0945 71.9391 21.0789 71.9254 21.0645L74.0495 23.4122C74.0591 23.4211 74.0673 23.4311 74.0755 23.4411C74.0796 23.4467 74.0824 23.4522 74.0878 23.4578C74.0988 23.4722 74.1098 23.4878 74.1194 23.5033C74.1235 23.5089 74.1289 23.5145 74.1331 23.52C74.1358 23.5245 74.1372 23.5289 74.1399 23.5333C74.1523 23.5545 74.1632 23.5756 74.1728 23.5967C74.1769 23.6022 74.1797 23.6089 74.1824 23.6145C74.1838 23.6167 74.1838 23.6178 74.1851 23.62C74.2002 23.6545 74.2125 23.6911 74.2221 23.7278C74.2221 23.7311 74.2235 23.7345 74.2249 23.7378C74.2276 23.7478 74.229 23.7589 74.2304 23.7689C74.2331 23.78 74.2358 23.7911 74.2372 23.8033C74.24 23.82 74.2413 23.8367 74.2427 23.8533C74.2427 23.8645 74.2441 23.8756 74.2441 23.8867Z" fill="#D0D5DD"/>
<path id="Vector_25" d="M73.2698 29.1075H70.6839C70.6236 29.1075 70.566 29.0863 70.5277 29.0486C70.4893 29.0108 70.4715 28.9619 70.4811 28.9141L71.9035 21.6863C71.9076 21.6641 71.9104 21.6408 71.9131 21.6174C71.9131 21.6074 71.9131 21.5975 71.9145 21.5875V21.5741C71.9145 21.5652 71.9145 21.5574 71.9145 21.5486C71.9145 21.5486 71.9131 21.5319 71.9131 21.5308C71.9131 21.5219 71.9117 21.5141 71.9117 21.5052C71.9117 21.503 71.9104 21.4908 71.9076 21.4774C71.9063 21.4641 71.9049 21.4586 71.9035 21.4541L71.8939 21.4063C71.8884 21.383 71.8788 21.3552 71.8665 21.3275C71.8638 21.3219 71.8597 21.3141 71.8555 21.3052C71.8473 21.2897 71.8405 21.2741 71.8309 21.2608C71.8268 21.2541 71.8199 21.2441 71.8131 21.2319C71.8048 21.2197 71.7966 21.2086 71.7884 21.1974C71.7829 21.1908 71.7774 21.183 71.7706 21.1752L71.7596 21.163C71.6925 21.0897 71.7117 20.9863 71.8021 20.9308C71.8926 20.8763 72.02 20.8897 72.0885 20.963C72.0926 20.9675 72.0981 20.973 72.1022 20.9786L74.2112 23.3097C74.2235 23.3219 74.2359 23.3352 74.2468 23.3497C74.2496 23.353 74.2551 23.3597 74.2578 23.3652C74.2592 23.3675 74.2605 23.3686 74.2619 23.3708C74.2743 23.3863 74.2852 23.403 74.2962 23.4197C74.3003 23.4252 74.3044 23.4297 74.3085 23.4352C74.3154 23.4441 74.3236 23.4608 74.3291 23.4697C74.3387 23.4863 74.351 23.5075 74.3606 23.5308C74.3647 23.5375 74.3688 23.5441 74.3716 23.5508C74.3716 23.5519 74.3729 23.5541 74.3743 23.5563C74.3757 23.5597 74.377 23.5619 74.3784 23.5652C74.3962 23.6052 74.4113 23.6486 74.4223 23.6941C74.4223 23.6952 74.4236 23.6975 74.4236 23.6986C74.4236 23.6997 74.4236 23.7008 74.425 23.7019C74.4291 23.7152 74.4318 23.7308 74.4332 23.7441C74.4373 23.7586 74.4401 23.773 74.4414 23.7897C74.4442 23.8019 74.4456 23.823 74.4469 23.8441C74.4469 23.8452 74.4483 23.8619 74.4483 23.863C74.4483 23.8697 74.4497 23.8763 74.4497 23.8841C74.451 23.9074 74.4497 23.9319 74.4483 23.9563V23.9741C74.4483 23.9786 74.4483 23.9819 74.4483 23.9863C74.4456 24.0208 74.4401 24.053 74.4346 24.0875L73.474 28.9697C73.4561 29.0475 73.3698 29.1075 73.2698 29.1075ZM70.9251 28.7741H73.0944L74.0276 24.0341C74.0317 24.0119 74.0344 23.9886 74.0372 23.9652V23.9441C74.0386 23.9208 74.0399 23.9086 74.0386 23.8963C74.0386 23.893 74.0386 23.8897 74.0386 23.8863V23.8786C74.0386 23.8697 74.0372 23.8619 74.0372 23.853C74.0372 23.8508 74.0358 23.8386 74.0331 23.8252C74.0317 23.8119 74.0303 23.8063 74.029 23.8019C74.0276 23.7963 74.0262 23.7919 74.0262 23.7863C74.0262 23.7863 74.0248 23.7786 74.0248 23.7752C74.0235 23.7686 74.0207 23.7619 74.0194 23.7541C74.0125 23.7275 74.0029 23.7019 73.9933 23.6775C73.9933 23.6763 73.992 23.6752 73.992 23.6741C73.992 23.673 73.9906 23.6719 73.9906 23.6708C73.9865 23.6652 73.9837 23.6586 73.981 23.653C73.9728 23.6363 73.9645 23.6197 73.955 23.603C73.9536 23.6019 73.9536 23.5997 73.9522 23.5975C73.9481 23.593 73.9454 23.5897 73.9426 23.5852C73.9317 23.5686 73.9248 23.5575 73.918 23.5486C73.9111 23.5408 73.9056 23.533 73.9001 23.5252C73.9001 23.5241 73.8974 23.5219 73.8947 23.5197C73.8933 23.5174 73.8864 23.5119 73.8851 23.5097L72.305 21.7641L70.9251 28.7741Z" fill="#F9FAFB"/>
</g>
<g id="Group_27">
<g id="Group_28">
<path id="Vector_26" d="M88.0587 2.1416L105.96 8.16716L102.278 13.3327L100.832 9.4216L93.3799 12.2605L91.7848 7.3316L81.3425 11.5627L88.0587 2.1416ZM97.432 9.37605C97.8856 8.74049 97.6321 8.01716 96.8675 7.7616C96.6838 7.69938 96.4865 7.67049 96.2878 7.67049C95.6588 7.67049 95.0079 7.96271 94.6639 8.44493C94.2117 9.07938 94.4652 9.80271 95.2299 10.0605C95.4135 10.1227 95.6095 10.1516 95.8095 10.1516C96.4358 10.1505 97.0881 9.85827 97.432 9.37605Z" fill="#E4E7EC"/>
<path id="Vector_27" d="M102.278 13.4996C102.27 13.4996 102.261 13.4996 102.254 13.4985C102.174 13.4907 102.105 13.444 102.082 13.3807L100.705 9.65514L93.469 12.4118C93.4142 12.4329 93.3498 12.4329 93.295 12.4118C93.2402 12.3907 93.1991 12.3507 93.1826 12.3029L91.6519 7.57181L81.4358 11.7107C81.3536 11.744 81.2563 11.7296 81.1946 11.6763C81.133 11.6229 81.1206 11.5418 81.1658 11.4785L87.882 2.05847C87.9341 1.98625 88.0437 1.95625 88.1383 1.98847L106.039 8.01403C106.094 8.03292 106.137 8.06958 106.156 8.11403C106.175 8.15958 106.168 8.20958 106.139 8.25069L102.456 13.4163C102.418 13.4685 102.35 13.4996 102.278 13.4996ZM100.832 9.25514C100.861 9.25514 100.89 9.25958 100.916 9.26958C100.97 9.28958 101.012 9.32736 101.028 9.37403L102.337 12.9151L105.664 8.24736L88.1451 2.35069L81.862 11.164L91.6917 7.18181C91.7478 7.15958 91.8123 7.15847 91.8684 7.17958C91.9246 7.20069 91.9671 7.24069 91.9822 7.28958L93.5143 12.0251L100.743 9.27181C100.772 9.26069 100.802 9.25514 100.832 9.25514ZM95.8083 10.3174C95.5767 10.3174 95.3547 10.2829 95.1505 10.2129C94.749 10.0774 94.4516 9.82292 94.3159 9.49625C94.1665 9.13736 94.2282 8.72292 94.4858 8.36069C94.8572 7.83958 95.5643 7.50292 96.2879 7.50292C96.5195 7.50292 96.7415 7.53736 96.947 7.60736C97.3486 7.74181 97.6459 7.99625 97.7816 8.32181C97.9323 8.68069 97.8693 9.09514 97.6103 9.45958C97.2389 9.98069 96.5304 10.3174 95.8083 10.3174ZM96.2879 7.83625C95.7096 7.83625 95.1409 8.10736 94.8421 8.52736C94.6434 8.80736 94.5927 9.12181 94.7051 9.38958C94.8024 9.62403 95.0175 9.80736 95.3081 9.90514C95.4629 9.95736 95.6301 9.98403 95.8083 9.98403C96.3783 9.98403 96.9594 9.70625 97.254 9.29292C97.4541 9.01292 97.5048 8.69736 97.3924 8.42958C97.2951 8.19514 97.08 8.01292 96.7894 7.91514C96.6346 7.86292 96.466 7.83625 96.2879 7.83625Z" fill="#F9FAFB"/>
</g>
</g>
<g id="Group_29">
<g id="Group_30">
<path id="Vector_28" d="M75.9377 28.9407L76.5599 28.6885L76.6407 28.9407H75.9377Z" fill="#D0D5DD"/>
<path id="Vector_29" d="M76.6408 29.1078H75.9378C75.8418 29.1078 75.7596 29.0544 75.7377 28.9789C75.7157 28.9033 75.761 28.8255 75.8459 28.7911L76.4681 28.5389C76.5243 28.5166 76.5887 28.5155 76.6449 28.5366C76.701 28.5578 76.7435 28.5978 76.7586 28.6466L76.8408 28.8989C76.8573 28.9489 76.8436 29.0022 76.8052 29.0433C76.7668 29.0844 76.7052 29.1078 76.6408 29.1078Z" fill="#F9FAFB"/>
</g>
</g>
<g id="Group_31">
<g id="Group_32">
<path id="Vector_30" d="M77.2521 32.0762C77.6988 32.0762 78.0044 32.3595 77.9359 32.7084L77.3028 35.9295C77.2343 36.2784 76.8163 36.5617 76.3709 36.5617H68.9983C68.5516 36.5617 68.246 36.2795 68.3145 35.9295L68.9476 32.7084C69.0162 32.3595 69.4341 32.0762 69.8795 32.0762H77.2521Z" fill="#F7F9FC"/>
<path id="Vector_31" d="M76.3695 36.727H68.9983C68.7174 36.727 68.4707 36.6381 68.3021 36.4781C68.1377 36.3214 68.0705 36.117 68.113 35.9025L68.7461 32.6814C68.8311 32.2481 69.3299 31.9092 69.8808 31.9092H77.252C77.5329 31.9092 77.7796 31.9981 77.9495 32.1581C78.114 32.3147 78.1811 32.5192 78.1387 32.7336L77.5055 35.9547C77.4192 36.3881 76.9204 36.727 76.3695 36.727ZM69.8808 32.2425C69.5382 32.2425 69.2038 32.467 69.1518 32.7336L68.5187 35.9547C68.4954 36.0714 68.5296 36.1803 68.6146 36.2614C68.7037 36.3458 68.8407 36.3936 68.9983 36.3936H76.3695C76.7121 36.3936 77.0465 36.1692 77.0985 35.9025L77.7317 32.6814C77.7549 32.5647 77.7207 32.4558 77.6357 32.3747C77.5467 32.2892 77.4096 32.2425 77.252 32.2425H69.8808Z" fill="#F9FAFB"/>
</g>
</g>
<g id="Group_33">
<g id="Group_34">
<path id="Vector_32" d="M51.7905 33.4102C59.1823 33.4102 64.2541 38.0957 63.1167 43.8768C61.9793 49.6568 55.0644 54.3435 47.6726 54.3435C40.2794 54.3435 35.2091 49.6568 36.3451 43.8768C37.4825 38.0957 44.3974 33.4102 51.7905 33.4102Z" fill="#D0D5DD"/>
<path id="Vector_33" d="M47.6726 54.51C43.9754 54.51 40.7399 53.3689 38.5597 51.2966C36.4507 49.2922 35.5928 46.6477 36.1423 43.85C37.2934 38.0011 44.3125 33.2422 51.7906 33.2422C55.4865 33.2422 58.7233 34.3833 60.9036 36.4544C63.0126 38.4589 63.8704 41.1033 63.3195 43.9011C62.1684 49.7522 55.1494 54.51 47.6726 54.51ZM51.7906 33.5766C44.5057 33.5766 37.6689 38.2089 36.5493 43.9033C36.0176 46.6033 36.844 49.1522 38.8735 51.0811C40.9743 53.0777 44.1001 54.1766 47.674 54.1766C54.9575 54.1766 61.7943 49.5444 62.9139 43.85C63.4456 41.15 62.6206 38.6 60.5911 36.6711C58.489 34.6755 55.3645 33.5766 51.7906 33.5766Z" fill="#F9FAFB"/>
</g>
</g>
<g id="Group_35">
<g id="Group_36">
<path id="Vector_34" d="M85.6084 30.7783L87.0514 34.6905L84.0201 38.9439L81.8865 38.2261L83.1691 31.7072L85.6084 30.7783Z" fill="#D0D5DD"/>
<path id="Vector_35" d="M84.0202 39.1105C83.9942 39.1105 83.9668 39.1061 83.9421 39.0983L81.8084 38.3805C81.7207 38.3505 81.6687 38.2761 81.6837 38.2005L82.9664 31.6816C82.9774 31.6272 83.0198 31.5805 83.0815 31.5572L85.5208 30.6283C85.5756 30.6072 85.6373 30.6072 85.6921 30.6272C85.7469 30.6472 85.788 30.6849 85.8044 30.7316L87.2488 34.6427C87.2653 34.6872 87.2584 34.7338 87.2296 34.7738L84.1984 39.0283C84.16 39.0805 84.0915 39.1105 84.0202 39.1105ZM82.1154 38.1227L83.9325 38.7338L86.8295 34.6683L85.4797 31.0105L83.3542 31.8194L82.1154 38.1227Z" fill="#F9FAFB"/>
</g>
</g>
<g id="Group_37">
<g id="Group_38">
<path id="Vector_36" d="M108.366 7.41602L110.49 9.76379L82.2896 49.3238L80.1655 46.976L108.366 7.41602Z" fill="#D0D5DD"/>
<path id="Vector_37" d="M82.2895 49.4904C82.2237 49.4904 82.1621 49.4649 82.1237 49.4226L79.9996 47.0749C79.9517 47.0215 79.9462 46.9504 79.9873 46.8926L108.188 7.33265C108.222 7.28376 108.285 7.25265 108.355 7.24931C108.422 7.24598 108.491 7.27154 108.532 7.31709L110.656 9.66487C110.704 9.7182 110.71 9.78931 110.669 9.84709L82.4677 49.4082C82.4334 49.4571 82.3704 49.4882 82.3005 49.4915C82.2964 49.4904 82.2922 49.4904 82.2895 49.4904ZM80.4107 46.966L82.269 49.0204L110.245 9.77598L108.387 7.72154L80.4107 46.966Z" fill="#F9FAFB"/>
</g>
</g>
<g id="Group_39">
<g id="Group_40">
<path id="Vector_38" d="M64.1649 50.915L66.289 53.2628L64.7364 61.1606L62.6123 58.8128L64.1649 50.915Z" fill="#344054"/>
<path id="Vector_39" d="M64.7363 61.3271C64.6719 61.3271 64.6103 61.3027 64.5705 61.2593L62.4465 58.9115C62.4136 58.876 62.4012 58.8304 62.4094 58.7871L63.9621 50.8882C63.9758 50.8215 64.0361 50.7682 64.1169 50.7527C64.1978 50.7371 64.2827 50.7615 64.3307 50.816L66.4548 53.1638C66.4877 53.1993 66.5 53.2449 66.4918 53.2882L64.9378 61.186C64.9241 61.2527 64.8638 61.306 64.7829 61.3215C64.7679 61.3249 64.7514 61.3271 64.7363 61.3271ZM62.8288 58.7693L64.6103 60.7393L66.0725 53.3049L64.291 51.3349L62.8288 58.7693Z" fill="#F9FAFB"/>
</g>
</g>
<g id="Group_41">
<g id="Group_42">
<path id="Vector_40" d="M62.6123 58.8135L62.4327 59.7213L59.7358 58.8135H62.6123Z" fill="#D0D5DD"/>
<path id="Vector_41" d="M62.4327 59.8876C62.4053 59.8876 62.3793 59.8831 62.3532 59.8754L59.6563 58.9676C59.5659 58.9376 59.5138 58.8587 59.533 58.7809C59.5522 58.7032 59.6358 58.6465 59.7345 58.6465H62.6109C62.6712 58.6465 62.7287 58.6676 62.7671 58.7054C62.8068 58.742 62.8233 58.792 62.8137 58.8398L62.6355 59.7476C62.6259 59.7976 62.5876 59.842 62.5328 59.8665C62.5026 59.8798 62.4683 59.8876 62.4327 59.8876ZM60.7677 58.9798L62.2724 59.4865L62.3724 58.9798H60.7677Z" fill="#F9FAFB"/>
</g>
</g>
<g id="Group_43">
<g id="Group_44">
<path id="Vector_42" d="M58.2273 61.0625C58.426 61.0625 58.6219 61.0914 58.8056 61.1536C59.5702 61.4114 59.8224 62.1347 59.3715 62.7692C59.0276 63.2514 58.3753 63.5447 57.7463 63.5447C57.5476 63.5447 57.3516 63.5158 57.1666 63.4536C56.4019 63.1958 56.1498 62.4725 56.602 61.8381C56.946 61.3547 57.5983 61.0625 58.2273 61.0625Z" fill="#D0D5DD"/>
<path id="Vector_43" d="M57.7462 63.71C57.5146 63.71 57.294 63.6755 57.0884 63.6066C56.6856 63.4711 56.3896 63.2166 56.2525 62.89C56.1031 62.5311 56.1648 62.1166 56.4238 61.7533C56.7952 61.2322 57.5023 60.8955 58.2259 60.8955C58.4574 60.8955 58.6781 60.93 58.8823 60.9988C59.2852 61.1344 59.5812 61.3888 59.7182 61.7155C59.8676 62.0744 59.8059 62.4888 59.5469 62.8511C59.1769 63.3733 58.4698 63.71 57.7462 63.71ZM58.2272 61.2288C57.6558 61.2288 57.0747 61.5066 56.7815 61.92C56.5814 62.2 56.5307 62.5155 56.6431 62.7833C56.7404 63.0177 56.9555 63.2011 57.246 63.2988C57.4009 63.3511 57.5694 63.3766 57.7462 63.3766C58.3259 63.3766 58.8946 63.1055 59.1933 62.6844C59.392 62.4044 59.4427 62.09 59.3304 61.8222C59.2331 61.5877 59.0179 61.4044 58.7274 61.3066C58.5726 61.2555 58.4054 61.2288 58.2272 61.2288Z" fill="#F9FAFB"/>
</g>
</g>
<g id="Group_45">
<g id="Group_46">
<path id="Vector_44" d="M47.6589 58.8135H59.7359L62.4328 59.7213L61.7476 63.2046L55.3179 65.6535L53.7227 60.7246L43.2805 64.9557L47.6589 58.8135ZM59.3714 62.7679C59.8236 62.1335 59.5701 61.4101 58.8054 61.1524C58.6218 61.0913 58.4259 61.0613 58.2272 61.0613C57.5982 61.0613 56.9459 61.3535 56.6033 61.8357C56.1497 62.4713 56.4032 63.1946 57.1679 63.4513C57.3515 63.5124 57.5488 63.5424 57.7475 63.5424C58.3752 63.5435 59.0274 63.2513 59.3714 62.7679Z" fill="#E4E7EC"/>
<path id="Vector_45" d="M55.3192 65.8188C55.2891 65.8188 55.2603 65.8133 55.2315 65.8033C55.1767 65.7822 55.1356 65.7422 55.1191 65.6944L53.5884 60.9644L43.3723 65.1033C43.2915 65.1366 43.1928 65.1222 43.1311 65.0688C43.0695 65.0155 43.0571 64.9344 43.1024 64.8711L47.4807 58.7288C47.5177 58.6777 47.5848 58.6455 47.6588 58.6455H59.7359C59.7633 58.6455 59.7894 58.65 59.8154 58.6577L62.5123 59.5655C62.6 59.5955 62.6521 59.67 62.637 59.7455L61.9518 63.2288C61.9408 63.2833 61.8984 63.33 61.8367 63.3533L55.4069 65.8022C55.3781 65.8144 55.3494 65.8188 55.3192 65.8188ZM53.7241 60.5577C53.7529 60.5577 53.7817 60.5622 53.8091 60.5722C53.8653 60.5933 53.9077 60.6333 53.9228 60.6822L55.4549 65.4166L61.5626 63.09L62.2053 59.8244L59.6948 58.98H47.7781L43.8026 64.5577L53.6323 60.5755C53.6611 60.5633 53.6926 60.5577 53.7241 60.5577ZM57.7461 63.71C57.5146 63.71 57.2926 63.6755 57.0884 63.6066C56.6855 63.4711 56.3895 63.2166 56.2524 62.89C56.1031 62.5311 56.1647 62.1166 56.4237 61.7533C56.7951 61.2322 57.5022 60.8955 58.2258 60.8955C58.4574 60.8955 58.678 60.93 58.8822 60.9988C59.2851 61.1344 59.5811 61.3888 59.7181 61.7155C59.8675 62.0744 59.8058 62.4888 59.5468 62.8511C59.1768 63.3722 58.4697 63.71 57.7461 63.71ZM58.2271 61.2288C57.6557 61.2288 57.0747 61.5066 56.78 61.92C56.58 62.2 56.5293 62.5155 56.6416 62.7833C56.7389 63.0177 56.9541 63.2011 57.2446 63.2988C57.3994 63.3511 57.568 63.3766 57.7448 63.3766C58.3244 63.3766 58.8931 63.1055 59.1919 62.6844C59.3906 62.4044 59.4413 62.09 59.3289 61.8222C59.2316 61.5877 59.0165 61.4044 58.726 61.3066C58.5725 61.2555 58.4053 61.2288 58.2271 61.2288Z" fill="#F9FAFB"/>
</g>
</g>
<g id="Group_47">
<g id="Group_48">
<path id="Vector_46" d="M62.6124 58.8135L64.7365 61.1613L64.5569 62.069L62.4329 59.7213L62.6124 58.8135Z" fill="#98A2B3"/>
<path id="Vector_47" d="M64.5569 62.2354C64.4925 62.2354 64.4308 62.211 64.3911 62.1676L62.267 59.8199C62.2341 59.7843 62.2218 59.7387 62.23 59.6954L62.4082 58.7876C62.4219 58.721 62.4822 58.6676 62.563 58.6521C62.6439 58.6365 62.7288 58.661 62.7768 58.7154L64.9009 61.0632C64.9337 61.0987 64.9461 61.1443 64.9379 61.1876L64.7597 62.0954C64.746 62.1621 64.6857 62.2154 64.6049 62.231C64.5898 62.2332 64.5733 62.2354 64.5569 62.2354ZM62.6493 59.6776L64.4308 61.6476L64.5185 61.2032L62.737 59.2332L62.6493 59.6776Z" fill="#F9FAFB"/>
</g>
</g>
<g id="Group_49">
<g id="Group_50">
<path id="Vector_48" d="M79.3912 50.915L81.5139 53.2628H66.2891L64.165 50.915H79.3912Z" fill="#1D2739"/>
<path id="Vector_49" d="M81.5139 53.4292H66.289C66.2233 53.4292 66.1616 53.4036 66.1232 53.3614L63.9991 51.0136C63.9539 50.9625 63.9471 50.8958 63.9813 50.8392C64.0156 50.7836 64.0868 50.748 64.165 50.748H79.3898C79.4556 50.748 79.5172 50.7736 79.5556 50.8158L81.6797 53.1636C81.7249 53.2147 81.7317 53.2814 81.6975 53.338C81.6632 53.3936 81.592 53.4292 81.5139 53.4292ZM66.3932 53.0958H81.1082L79.2856 51.0814H64.5706L66.3932 53.0958Z" fill="#F9FAFB"/>
</g>
</g>
<g id="Group_51">
<g id="Group_52">
<path id="Vector_50" d="M62.4326 59.7207L64.5567 62.0685L63.8715 65.5507L61.7488 63.2029L62.4326 59.7207Z" fill="#98A2B3"/>
<path id="Vector_51" d="M63.8716 65.7172C63.8072 65.7172 63.7455 65.6928 63.7058 65.6494L61.5817 63.3017C61.5488 63.2661 61.5365 63.2205 61.5447 63.1772L62.2299 59.6939C62.2436 59.6272 62.3039 59.5739 62.3847 59.5583C62.4656 59.5428 62.5506 59.5672 62.5985 59.6217L64.7226 61.9694C64.7555 62.005 64.7678 62.0505 64.7596 62.0939L64.0744 65.5772C64.0607 65.6439 64.0004 65.6972 63.9196 65.7128C63.9045 65.7161 63.888 65.7172 63.8716 65.7172ZM61.9654 63.1605L63.7469 65.1305L64.3403 62.1105L62.5588 60.1405L61.9654 63.1605Z" fill="#F9FAFB"/>
</g>
</g>
<g id="Group_53">
<g id="Group_54">
<path id="Vector_52" d="M61.749 63.2031L63.8717 65.5509L63.3209 68.3553L61.1968 66.0065L61.749 63.2031Z" fill="#667185"/>
<path id="Vector_53" d="M63.3208 68.5216C63.2564 68.5216 63.1947 68.4971 63.155 68.4538L61.0309 66.106C60.998 66.0705 60.9857 66.0249 60.9939 65.9816L61.5448 63.1783C61.5585 63.1116 61.6188 63.0583 61.6997 63.0427C61.7805 63.0271 61.8641 63.0516 61.9134 63.106L64.0375 65.4538C64.0704 65.4894 64.0827 65.5349 64.0745 65.5783L63.5236 68.3816C63.5099 68.4483 63.4496 68.5016 63.3688 68.5171C63.3537 68.5194 63.3373 68.5216 63.3208 68.5216ZM61.4133 65.9638L63.1947 67.9338L63.6552 65.5938L61.8737 63.6238L61.4133 65.9638Z" fill="#F9FAFB"/>
</g>
</g>
<g id="Group_55">
<g id="Group_56">
<path id="Vector_54" d="M63.9497 66.0068H64.7281L64.2156 66.7257L63.9497 66.0068Z" fill="#98A2B3"/>
<path id="Vector_55" d="M64.2156 66.8919C64.2074 66.8919 64.1992 66.8919 64.1923 66.8908C64.1115 66.883 64.0429 66.8364 64.0196 66.773L63.7538 66.0553C63.7346 66.0053 63.7469 65.9497 63.7853 65.9075C63.8237 65.8653 63.8853 65.8408 63.9498 65.8408H64.7268C64.8008 65.8408 64.8679 65.873 64.9049 65.9242C64.9419 65.9753 64.9419 66.0397 64.9049 66.0908L64.3924 66.8086C64.3568 66.8608 64.2882 66.8919 64.2156 66.8919ZM64.2266 66.173L64.2759 66.3064L64.3718 66.173H64.2266Z" fill="#F9FAFB"/>
</g>
</g>
<g id="Group_57">
<g id="Group_58">
<path id="Vector_56" d="M81.0714 54.3438C82.3719 54.3438 83.2626 55.1671 83.0626 56.1849C82.8625 57.2015 81.647 58.026 80.3465 58.026C79.046 58.026 78.1539 57.2015 78.354 56.1849C78.554 55.1682 79.7709 54.3438 81.0714 54.3438Z" fill="#D0D5DD"/>
<path id="Vector_57" d="M80.3464 58.1933C79.6461 58.1933 79.0308 57.9755 78.6142 57.58C78.21 57.1966 78.0455 56.6911 78.151 56.1589C78.3662 55.0666 79.6763 54.1777 81.0713 54.1777C81.7716 54.1777 82.3868 54.3955 82.8021 54.7911C83.2063 55.1744 83.3708 55.6789 83.2653 56.2111C83.0515 57.3033 81.7414 58.1933 80.3464 58.1933ZM81.0713 54.51C79.8695 54.51 78.7417 55.2722 78.5567 56.21C78.4717 56.6444 78.6033 57.0533 78.9267 57.3622C79.2638 57.6822 79.7681 57.8589 80.3464 57.8589C81.5482 57.8589 82.6746 57.0955 82.8596 56.1577C82.9446 55.7233 82.8144 55.3144 82.4896 55.0066C82.1539 54.6866 81.6496 54.51 81.0713 54.51Z" fill="#F9FAFB"/>
</g>
</g>
<g id="Group_59">
<g id="Group_60">
<path id="Vector_58" d="M53.7242 60.7236L55.3193 65.6514L61.7491 63.2025L61.1968 66.0059H63.9499L64.2158 66.7247L61.1831 70.9792L43.282 64.9536L53.7242 60.7236Z" fill="#D0D5DD"/>
<path id="Vector_59" d="M61.1831 71.1461C61.157 71.1461 61.1296 71.1417 61.105 71.1339L43.2038 65.1083C43.1298 65.0828 43.0805 65.025 43.0778 64.9606C43.075 64.8961 43.1189 64.835 43.1915 64.8061L53.6337 60.575C53.6899 60.5528 53.7543 60.5517 53.8105 60.5728C53.8667 60.5939 53.9092 60.6339 53.9242 60.6828L55.4563 65.4172L61.6627 63.0528C61.7312 63.0261 61.8121 63.0328 61.8738 63.0706C61.9341 63.1072 61.9656 63.1695 61.9532 63.2306L61.4394 65.8417H63.9526C64.043 65.8417 64.1239 65.8895 64.1499 65.9606L64.4158 66.6783C64.4322 66.7228 64.4254 66.7694 64.3966 66.8094L61.364 71.0639C61.3229 71.1161 61.2543 71.1461 61.1831 71.1461ZM43.7753 64.9406L61.094 70.7694L63.9923 66.7039L63.7964 66.1739H61.1954C61.1351 66.1739 61.0776 66.1528 61.0392 66.115C61.0008 66.0783 60.983 66.0283 60.9926 65.9806L61.4832 63.4883L55.4056 65.8039C55.3508 65.825 55.2864 65.825 55.2316 65.8039C55.1768 65.7828 55.1356 65.7428 55.1192 65.695L53.5885 60.965L43.7753 64.9406Z" fill="#F9FAFB"/>
</g>
</g>
<g id="Group_61">
<g id="Group_62">
<path id="Vector_60" d="M66.5988 66.0068L68.7229 68.3546L63.9184 75.0946L61.7957 72.7468L66.5988 66.0068Z" fill="#D0D5DD"/>
<path id="Vector_61" d="M63.9184 75.2611C63.8526 75.2611 63.791 75.2355 63.7526 75.1933L61.6285 72.8455C61.5806 72.7922 61.5751 72.7211 61.6162 72.6633L66.4207 65.9233C66.455 65.8744 66.518 65.8433 66.5879 65.84C66.6537 65.8378 66.7236 65.8622 66.7647 65.9078L68.8887 68.2555C68.9367 68.3089 68.9422 68.38 68.9011 68.4378L64.0966 75.1778C64.0623 75.2266 63.9993 75.2578 63.9294 75.2611C63.9266 75.2611 63.9225 75.2611 63.9184 75.2611ZM62.0396 72.7355L63.8979 74.79L68.4776 68.3655L66.6194 66.3111L62.0396 72.7355Z" fill="#F9FAFB"/>
</g>
</g>
<g id="Group_63">
<g id="Group_64">
<path id="Vector_62" d="M61.7955 72.7462L63.9182 75.094L42.9967 68.0529L40.874 65.7051L61.7955 72.7462Z" fill="#D0D5DD"/>
<path id="Vector_63" d="M63.9182 75.2608C63.8922 75.2608 63.8647 75.2563 63.8387 75.2486L42.9173 68.2075C42.883 68.1952 42.8529 68.1763 42.8309 68.1519L40.7069 65.8041C40.652 65.7441 40.6534 65.6619 40.711 65.603C40.7685 65.5441 40.8658 65.523 40.9508 65.5519L61.8722 72.593C61.9065 72.6052 61.9366 72.6241 61.9586 72.6486L64.0826 74.9963C64.1374 75.0563 64.1361 75.1386 64.0785 75.1975C64.0401 75.2386 63.9799 75.2608 63.9182 75.2608ZM43.1297 67.9163L63.318 74.7108L61.6639 72.8819L41.4756 66.0874L43.1297 67.9163Z" fill="#F9FAFB"/>
</g>
</g>
<g id="Group_65">
<g id="Group_66">
<path id="Vector_64" d="M64.2158 66.7257L64.7283 66.0068H66.5989L61.7957 72.7468L40.8743 65.7057L45.787 58.8135H47.659L43.2806 64.9546L61.1832 70.9801L64.2158 66.7257Z" fill="#F7F9FC"/>
<path id="Vector_65" d="M61.7943 72.913C61.7683 72.913 61.7409 72.9086 61.7162 72.9008L40.7948 65.8597C40.74 65.8408 40.6975 65.8041 40.6783 65.7597C40.6591 65.7141 40.666 65.6641 40.6947 65.623L45.6089 58.7308C45.6459 58.6797 45.713 58.6475 45.787 58.6475H47.659C47.733 58.6475 47.8001 58.6797 47.8371 58.7308C47.8741 58.7819 47.8741 58.8463 47.8371 58.8975L43.5766 64.8752L61.0954 70.7719L64.5501 65.9252C64.5871 65.8741 64.6543 65.8419 64.7283 65.8419H66.6002C66.6742 65.8419 66.7414 65.8741 66.7784 65.9252C66.8154 65.9764 66.8154 66.0408 66.7784 66.0919L61.9739 72.8319C61.9355 72.8819 61.867 72.913 61.7943 72.913ZM41.1689 65.6241L61.708 72.5364L66.2439 66.173H64.8461L64.3939 66.8086L61.3613 71.063C61.3092 71.1352 61.1996 71.1652 61.105 71.133L43.2039 65.1075C43.1491 65.0886 43.1066 65.053 43.0874 65.0075C43.0682 64.9619 43.0751 64.9119 43.1039 64.8708L47.304 58.9786H45.9063L41.1689 65.6241Z" fill="#F9FAFB"/>
</g>
</g>
<g id="Group_67">
<g id="Group_68">
<path id="Vector_66" d="M94.616 50.915L96.7401 53.2628L95.1121 61.5384L92.988 59.1906L94.616 50.915Z" fill="#D0D5DD"/>
<path id="Vector_67" d="M95.1121 61.7049C95.0477 61.7049 94.986 61.6804 94.9463 61.6371L92.8222 59.2893C92.7893 59.2538 92.777 59.2082 92.7852 59.1649L94.4132 50.8882C94.4269 50.8215 94.4872 50.7682 94.568 50.7527C94.6489 50.7371 94.7325 50.7615 94.7818 50.816L96.9059 53.1638C96.9388 53.1993 96.9511 53.2449 96.9429 53.2882L95.3149 61.5638C95.3012 61.6304 95.2409 61.6838 95.16 61.6993C95.1436 61.7027 95.1285 61.7049 95.1121 61.7049ZM93.2045 59.1471L94.986 61.1171L96.5222 53.3049L94.7407 51.3349L93.2045 59.1471Z" fill="#F9FAFB"/>
</g>
</g>
<g id="Group_69">
<path id="Vector_68" d="M85.4524 33.1388C85.4538 33.0977 85.4565 33.0577 85.4551 33.0177C85.4551 32.9944 85.4524 32.971 85.4497 32.9477C85.4469 32.9121 85.4442 32.8766 85.4387 32.841C85.4346 32.8166 85.4305 32.7933 85.425 32.7688C85.4209 32.7466 85.4181 32.7244 85.4127 32.7021C85.4099 32.6899 85.4058 32.6777 85.4017 32.6655C85.3976 32.6488 85.3921 32.6321 85.3866 32.6155C85.3743 32.5766 85.362 32.5388 85.3469 32.5021C85.3414 32.4888 85.3359 32.4744 85.3304 32.461C85.3277 32.4555 85.3263 32.4499 85.3236 32.4444C85.3181 32.431 85.3099 32.4188 85.303 32.4055C85.2811 32.3599 85.2578 32.3166 85.2318 32.2733C85.2263 32.2644 85.2222 32.2544 85.2167 32.2455C85.2085 32.2333 85.1989 32.221 85.1907 32.2088C85.1687 32.1766 85.1468 32.1455 85.1221 32.1144C85.1125 32.1021 85.1057 32.0899 85.0961 32.0788C85.0797 32.0577 85.0619 32.0377 85.044 32.0177L82.92 29.6699C82.9487 29.701 82.9734 29.7344 82.9981 29.7666C83.0227 29.7977 83.0447 29.8288 83.0666 29.861C83.0803 29.8821 83.0954 29.9033 83.1077 29.9255C83.1337 29.9688 83.157 30.0133 83.179 30.0577C83.1886 30.0766 83.1981 30.0944 83.2064 30.1133C83.2118 30.1266 83.2173 30.141 83.2228 30.1544C83.2379 30.1921 83.2516 30.2299 83.2626 30.2677C83.268 30.2844 83.2721 30.301 83.2776 30.3177C83.2872 30.3521 83.2941 30.3866 83.3009 30.421C83.305 30.4444 83.3105 30.4688 83.3146 30.4933C83.3201 30.5277 83.3228 30.5633 83.3256 30.5999C83.327 30.6233 83.3297 30.6466 83.3311 30.6699C83.3324 30.7099 83.3311 30.7499 83.3283 30.791C83.327 30.811 83.3283 30.831 83.3256 30.851C83.3201 30.9121 83.3119 30.9744 83.2996 31.0366L83.168 31.7077L81.8853 38.2266L81.5976 39.6899L80.8767 43.351L80.1641 46.9766L79.3899 50.9144L81.514 53.2621L82.2882 49.3244L83.0008 45.6988L83.7216 42.0377L84.0094 40.5744L85.2921 34.0555L85.4236 33.3844C85.436 33.3221 85.4442 33.2599 85.4497 33.1988C85.4524 33.1788 85.451 33.1588 85.4524 33.1388Z" fill="#D0D5DD"/>
<path id="Vector_69" d="M81.5139 53.43C81.4495 53.43 81.3879 53.4055 81.3481 53.3622L79.224 51.0144C79.1912 50.9788 79.1788 50.9333 79.187 50.89L83.0967 31.0122C83.1077 30.9566 83.1159 30.9011 83.12 30.8411C83.12 30.8322 83.1214 30.8233 83.1214 30.8133L83.1227 30.7855C83.1241 30.7488 83.1269 30.7111 83.1255 30.6744C83.1255 30.6611 83.1241 30.6477 83.1227 30.6344L83.1214 30.61C83.1186 30.5777 83.1159 30.5455 83.1118 30.5133C83.109 30.4966 83.1063 30.48 83.1022 30.4633L83.0995 30.4488C83.094 30.4177 83.0871 30.3855 83.0789 30.3544C83.0748 30.34 83.0707 30.3244 83.0652 30.3088C83.0542 30.2744 83.0419 30.24 83.0296 30.2055L83.0145 30.1688C83.0104 30.16 83.0063 30.1511 83.0022 30.1433L82.9898 30.1188C82.9706 30.0777 82.9487 30.0377 82.9254 29.9988C82.9144 29.98 82.9007 29.9611 82.8884 29.9411C82.8692 29.9111 82.8487 29.8833 82.8267 29.8555L82.813 29.8388C82.7939 29.8144 82.776 29.7911 82.7555 29.7677C82.6883 29.6933 82.7075 29.5888 82.7993 29.5344C82.8912 29.48 83.02 29.4955 83.0871 29.57L83.0885 29.5711L85.2112 31.9177C85.2317 31.94 85.2509 31.9622 85.2687 31.9844C85.277 31.9944 85.2838 32.0044 85.292 32.0155C85.3249 32.0577 85.3496 32.0922 85.3729 32.1277C85.3866 32.1466 85.3948 32.1566 85.4017 32.1677C85.4085 32.1777 85.4126 32.1877 85.4181 32.1966C85.4469 32.2455 85.4729 32.2944 85.4976 32.3433C85.5086 32.3622 85.514 32.3744 85.5195 32.3855C85.5209 32.3877 85.525 32.4 85.5264 32.4033C85.5319 32.4155 85.536 32.4255 85.5401 32.4366L85.5456 32.45C85.562 32.4911 85.5757 32.5322 85.5894 32.5744C85.5949 32.5933 85.6004 32.6111 85.6059 32.63C85.6127 32.6511 85.6155 32.6611 85.6182 32.6711C85.6223 32.6866 85.625 32.7033 85.6278 32.72L85.6346 32.7544C85.6387 32.7766 85.6429 32.7977 85.647 32.82C85.6524 32.8588 85.6552 32.8977 85.6579 32.9355L85.6593 32.9555C85.6607 32.9744 85.662 32.9922 85.6634 33.0111C85.6648 33.0544 85.6634 33.0977 85.6607 33.1422V33.1622C85.6607 33.1777 85.6593 33.1922 85.6579 33.2077C85.6525 33.2755 85.6429 33.3433 85.6305 33.4077L81.7209 53.2855C81.7072 53.3522 81.6469 53.4055 81.566 53.4211C81.5468 53.4277 81.5304 53.43 81.5139 53.43ZM79.6077 50.8722L81.3892 52.8422L85.2222 33.3588C85.2331 33.3033 85.2413 33.2466 85.2454 33.1877C85.2468 33.1777 85.2468 33.1688 85.2468 33.1588L85.2482 33.1322C85.2496 33.0955 85.2523 33.0577 85.2509 33.0211C85.2509 33.0077 85.2496 32.9944 85.2482 32.9811L85.2468 32.9566C85.2441 32.9244 85.2413 32.8922 85.2372 32.86C85.2345 32.8422 85.2317 32.8255 85.2276 32.8077L85.2194 32.7644C85.218 32.7544 85.2167 32.7444 85.2139 32.7355L85.2043 32.7011C85.2002 32.6855 85.1961 32.6711 85.1906 32.6555C85.1797 32.6211 85.1673 32.5866 85.155 32.5533L85.1399 32.5155C85.1386 32.5133 85.1344 32.5033 85.1344 32.5011C85.1249 32.4833 85.1194 32.4744 85.1153 32.4644C85.0961 32.4244 85.0755 32.3844 85.0522 32.3455C85.0467 32.3366 85.0426 32.3288 85.0399 32.3211L85.033 32.3111C85.0276 32.3033 85.0207 32.2955 85.0152 32.2877C84.9947 32.2577 84.9741 32.23 84.9522 32.2011C84.9467 32.1933 84.9412 32.1855 84.9357 32.1777C84.9138 32.15 84.8987 32.1322 84.8823 32.1133L83.538 30.6266C83.5393 30.6388 83.5393 30.6511 83.5407 30.6633C83.5421 30.7066 83.5407 30.7511 83.538 30.7944V30.8144C83.538 30.8288 83.538 30.8433 83.5366 30.8588C83.5311 30.9277 83.5215 30.9955 83.5092 31.06L79.6077 50.8722Z" fill="#F9FAFB"/>
</g>
<g id="Group_70">
<path id="Vector_70" d="M64.7362 61.1608H20.5527C19.7415 61.1608 19.0686 60.8774 18.6644 60.4308L16.5403 58.083C16.617 58.1675 16.702 58.2452 16.7952 58.3163C17.2022 58.6252 17.7695 58.8119 18.43 58.8119H62.6121L64.7362 61.1608Z" fill="#98A2B3"/>
<path id="Vector_71" d="M64.7363 61.3273H20.5528C19.706 61.3273 18.9577 61.0362 18.4987 60.5296L16.376 58.1829C16.376 58.1829 16.376 58.1829 16.376 58.1818C16.3088 58.1074 16.328 58.0029 16.4198 57.9485C16.5116 57.894 16.6404 57.9096 16.7076 57.984C16.7761 58.0596 16.8542 58.1307 16.9378 58.1951C17.3201 58.4851 17.8505 58.6451 18.4315 58.6451H62.6122C62.678 58.6451 62.7397 58.6707 62.7781 58.7129L64.9021 61.0618C64.9474 61.1129 64.9542 61.1796 64.9199 61.2362C64.8843 61.2918 64.8131 61.3273 64.7363 61.3273ZM17.4873 58.8474L18.8303 60.3318C19.2112 60.7529 19.8389 60.994 20.5528 60.994H64.3307L62.5081 58.9785H18.4301C18.0985 58.9785 17.7792 58.934 17.4873 58.8474Z" fill="#F9FAFB"/>
</g>
<g id="Group_71">
<g id="Group_72">
<path id="Vector_72" d="M79.3912 50.915H94.616L92.988 59.1906L88.0506 54.7662L79.2459 61.6739L73.3533 55.9995L61.1968 66.0073L61.7477 63.2039L62.4329 59.7206L62.611 58.8128L64.165 50.915H79.3912ZM80.3463 58.0262C81.6468 58.0262 82.8623 57.2017 83.0624 56.185C83.2625 55.1684 82.3704 54.3439 81.0713 54.3439C79.7708 54.3439 78.5539 55.1673 78.3538 56.185C78.1537 57.2006 79.0472 58.0262 80.3463 58.0262Z" fill="#E4E7EC"/>
<path id="Vector_73" d="M61.1967 66.1725C61.1651 66.1725 61.1336 66.1669 61.1035 66.1547C61.024 66.1225 60.9788 66.0514 60.9938 65.9803L63.9621 50.888C63.9785 50.8069 64.0635 50.748 64.1649 50.748H94.6159C94.6762 50.748 94.7337 50.7692 94.7721 50.8069C94.8105 50.8436 94.8283 50.8936 94.8187 50.9414L93.1907 59.2169C93.1784 59.2803 93.1222 59.3325 93.0468 59.3503C92.9714 59.368 92.8892 59.3503 92.8358 59.3025L88.0408 55.0058L79.3883 61.7936C79.3472 61.8258 79.2924 61.8425 79.2348 61.8403C79.1773 61.838 79.1252 61.8169 79.0882 61.7814L73.3409 56.2469L61.3419 66.1236C61.3035 66.1558 61.2501 66.1725 61.1967 66.1725ZM64.3403 51.0814L61.5009 65.5192L73.2066 55.8825C73.2477 55.8492 73.3039 55.8314 73.3614 55.8325C73.419 55.8347 73.4738 55.8558 73.5108 55.8914L79.2609 61.4292L87.9079 54.6458C87.9477 54.6147 87.9997 54.5969 88.0573 54.5992C88.1135 54.6003 88.1655 54.6203 88.2025 54.6536L92.8522 58.8203L94.3747 51.0814H64.3403ZM80.3462 58.1925C79.646 58.1925 79.0307 57.9747 78.6141 57.5792C78.2098 57.1958 78.0454 56.6903 78.1509 56.158C78.366 55.0658 79.6761 54.1769 81.0711 54.1769C81.7714 54.1769 82.3867 54.3947 82.8033 54.7903C83.2062 55.1736 83.3706 55.6781 83.2665 56.2103C83.0513 57.3025 81.7412 58.1925 80.3462 58.1925ZM81.0711 54.5092C79.8693 54.5092 78.7415 55.2714 78.5565 56.2092C78.4715 56.6436 78.6031 57.0525 78.9265 57.3614C79.2636 57.6814 79.7679 57.858 80.3462 57.858C81.548 57.858 82.6745 57.0947 82.8595 56.1569C82.9444 55.7225 82.8143 55.3136 82.4895 55.0058C82.1537 54.6858 81.6494 54.5092 81.0711 54.5092Z" fill="#F9FAFB"/>
</g>
</g>
<g id="Group_73">
<g id="Group_74">
<path id="Vector_74" d="M88.0506 54.7666L92.988 59.191L91.6478 66.0066H61.1968L73.3533 55.9999L79.2459 61.6744L88.0506 54.7666Z" fill="#D0D5DD"/>
<path id="Vector_75" d="M91.6478 66.1733H61.1968C61.1146 66.1733 61.0392 66.1333 61.0077 66.071C60.9762 66.0088 60.9926 65.9377 61.0515 65.8899L73.2081 55.8822C73.2492 55.8488 73.3054 55.831 73.3629 55.8321C73.4205 55.8344 73.4753 55.8555 73.5123 55.891L79.2624 61.4288L87.9094 54.6455C87.9492 54.6144 88.0012 54.5966 88.0588 54.5988C88.115 54.5999 88.1671 54.6199 88.2041 54.6533L93.1415 59.0777C93.1826 59.1155 93.2018 59.1655 93.1922 59.2155L91.852 66.0322C91.8342 66.1144 91.7478 66.1733 91.6478 66.1733ZM61.6874 65.8399H91.4724L92.7701 59.2433L88.0423 55.0055L79.3898 61.7933C79.3487 61.8255 79.2939 61.8422 79.2363 61.8399C79.1788 61.8377 79.1267 61.8166 79.0897 61.781L73.3424 56.2466L61.6874 65.8399Z" fill="#F9FAFB"/>
</g>
</g>
<g id="Group_75">
<g id="Group_76">
<path id="Vector_76" d="M92.9879 59.1914L95.112 61.5392L93.7718 68.3559L91.6477 66.007L92.9879 59.1914Z" fill="#D0D5DD"/>
<path id="Vector_77" d="M93.7717 68.5222C93.7073 68.5222 93.6457 68.4978 93.6059 68.4544L91.4819 66.1067C91.449 66.0711 91.4366 66.0256 91.4448 65.9822L92.7851 59.1656C92.7988 59.0989 92.8591 59.0456 92.9399 59.03C93.0208 59.0144 93.1044 59.0389 93.1537 59.0933L95.2778 61.4411C95.3107 61.4767 95.323 61.5222 95.3148 61.5656L93.9746 68.3822C93.9609 68.4489 93.9006 68.5022 93.8197 68.5178C93.8033 68.52 93.7868 68.5222 93.7717 68.5222ZM91.8642 65.9644L93.6457 67.9344L94.8954 61.5811L93.114 59.6111L91.8642 65.9644Z" fill="#F9FAFB"/>
</g>
</g>
<g id="Group_77">
<path id="Vector_78" d="M65.3696 45.2965C65.375 45.2365 65.3778 45.1765 65.3805 45.1165C65.386 45.0242 65.3915 44.932 65.3942 44.8409C65.3956 44.7776 65.3956 44.7154 65.3956 44.652C65.3956 44.5642 65.3956 44.4776 65.3928 44.3909C65.3915 44.3265 65.3874 44.2631 65.3846 44.1998C65.3805 44.1154 65.375 44.0309 65.3668 43.9465C65.3613 43.8831 65.3545 43.8198 65.3476 43.7565C65.338 43.6731 65.3271 43.5909 65.3147 43.5076C65.3051 43.4454 65.2955 43.3831 65.286 43.3209C65.2723 43.2387 65.2558 43.1565 65.2394 43.0742C65.227 43.0142 65.2147 42.9542 65.201 42.8942C65.1955 42.8709 65.1914 42.8465 65.1859 42.8231C65.1654 42.7387 65.1421 42.6565 65.1188 42.5731C65.1133 42.5509 65.1078 42.5287 65.101 42.5076C65.064 42.3776 65.0215 42.2498 64.9776 42.1231C64.9653 42.0887 64.9516 42.0542 64.9393 42.0187C64.905 41.9242 64.8694 41.8309 64.831 41.7387C64.8146 41.6987 64.7981 41.6587 64.7803 41.6187C64.768 41.5887 64.7556 41.5587 64.7433 41.5298C64.7049 41.4431 64.6638 41.3565 64.6213 41.2709C64.6186 41.2665 64.6158 41.2609 64.6145 41.2565C64.5569 41.1409 64.4966 41.0265 64.4336 40.9142C64.4199 40.8898 64.4062 40.8654 64.3925 40.8398C64.3349 40.7376 64.2746 40.6376 64.2116 40.5376C64.2061 40.5298 64.2006 40.5209 64.1951 40.5131C64.1129 40.3831 64.0266 40.2565 63.9361 40.1309C63.932 40.1242 63.9279 40.1176 63.9224 40.1109C63.8265 39.9798 63.7265 39.8509 63.6223 39.7231C63.6168 39.7165 63.6114 39.7087 63.6059 39.702C63.5209 39.5987 63.4332 39.4976 63.3428 39.3976L61.2187 37.0498C61.3146 37.1565 61.4078 37.2654 61.4983 37.3765C61.6024 37.5031 61.7024 37.632 61.7984 37.7642C61.8025 37.7709 61.8066 37.7776 61.8121 37.7842C61.9025 37.9098 61.9888 38.0376 62.0711 38.1665C62.1396 38.2742 62.2054 38.3831 62.2684 38.4931C62.2821 38.5176 62.2958 38.542 62.3095 38.5676C62.3726 38.6809 62.4328 38.7942 62.4904 38.9098C62.4931 38.9142 62.4959 38.9198 62.4973 38.9242C62.5534 39.0387 62.6055 39.1554 62.6562 39.2731C62.674 39.3131 62.6905 39.3531 62.7069 39.3931C62.7453 39.4854 62.7809 39.5798 62.8152 39.6731C62.8275 39.7076 62.8412 39.742 62.8535 39.7776C62.8974 39.9042 62.9399 40.0331 62.9769 40.162C62.9837 40.1843 62.9878 40.2065 62.9947 40.2276C63.0248 40.3342 63.0509 40.4409 63.0769 40.5487C63.0906 40.6087 63.103 40.6687 63.1153 40.7287C63.1317 40.8109 63.1482 40.892 63.1619 40.9754C63.1728 41.0376 63.1824 41.0998 63.1907 41.162C63.203 41.2442 63.214 41.3276 63.2235 41.4109C63.2304 41.4742 63.2373 41.5376 63.2427 41.6009C63.2496 41.6854 63.2551 41.7698 63.2606 41.8542C63.2647 41.9176 63.2674 41.982 63.2688 42.0454C63.2715 42.132 63.2715 42.2198 63.2715 42.3065C63.2715 42.3698 63.2715 42.432 63.2701 42.4954C63.2674 42.5865 63.2619 42.6787 63.2564 42.7709C63.2523 42.8309 63.2496 42.8909 63.2455 42.9509C63.2373 43.0531 63.2249 43.1565 63.2112 43.2598C63.2044 43.3109 63.2003 43.3609 63.1934 43.412C63.1715 43.5665 63.1454 43.722 63.1153 43.8787C63.0934 43.9898 63.0687 44.0998 63.0427 44.2087C63.0358 44.2409 63.0276 44.272 63.0194 44.3031C62.9988 44.3876 62.9769 44.4709 62.9536 44.5542C62.9454 44.5831 62.9385 44.612 62.9303 44.6398C62.8988 44.7476 62.8659 44.8554 62.8303 44.9631C62.8248 44.9809 62.8179 44.9976 62.8124 45.0154C62.7823 45.1065 62.7494 45.1965 62.7165 45.2876C62.7042 45.3198 62.6932 45.3509 62.6809 45.382C62.648 45.4676 62.6151 45.552 62.5795 45.6365C62.5699 45.6598 62.5617 45.682 62.5521 45.7054C62.5082 45.8098 62.4616 45.9142 62.4137 46.0176C62.4027 46.042 62.3904 46.0665 62.378 46.0909C62.3397 46.172 62.2999 46.2531 62.2588 46.3342C62.2437 46.3642 62.2287 46.3954 62.2122 46.4254C62.1656 46.5165 62.1177 46.6065 62.067 46.6965C62.0601 46.7087 62.0533 46.7209 62.0464 46.7331C61.9889 46.8354 61.9299 46.9365 61.8696 47.0376C61.8532 47.0654 61.8367 47.092 61.8189 47.1198C61.771 47.1976 61.723 47.2754 61.6723 47.352C61.6545 47.3787 61.638 47.4054 61.6202 47.432C61.5558 47.5309 61.4887 47.6287 61.4201 47.7265C61.4106 47.7398 61.401 47.7531 61.3914 47.7665C61.3311 47.8509 61.2694 47.9354 61.2064 48.0198C61.1831 48.052 61.1584 48.0831 61.1337 48.1154C61.0967 48.1642 61.0584 48.2131 61.02 48.2609C60.9926 48.2954 60.9666 48.3287 60.9391 48.3631C60.8994 48.412 60.8597 48.4609 60.8186 48.5098C60.7911 48.542 60.7651 48.5742 60.7377 48.6065C60.6938 48.6576 60.65 48.7087 60.6061 48.7587C60.5815 48.7876 60.5554 48.8165 60.5308 48.8454C60.476 48.9065 60.4211 48.9676 60.365 49.0276C60.3499 49.0442 60.3334 49.062 60.3184 49.0787C60.1813 49.2265 60.0388 49.372 59.8936 49.5154C59.8936 49.5165 59.8922 49.5165 59.8922 49.5176C59.7456 49.6609 59.5962 49.8031 59.4427 49.942C59.44 49.9454 59.4359 49.9476 59.4331 49.9509C59.2906 50.0798 59.144 50.2065 58.9946 50.3309C58.9918 50.3331 58.9905 50.3343 58.9877 50.3365C58.8397 50.4598 58.6876 50.5809 58.5341 50.6998C58.5273 50.7054 58.5191 50.7109 58.5122 50.7176C58.3656 50.8298 58.2162 50.9409 58.0641 51.0487C58.0504 51.0587 58.0367 51.0687 58.023 51.0787C57.875 51.1831 57.7243 51.2865 57.5721 51.3876C57.5543 51.3998 57.5351 51.412 57.5173 51.4242C57.3638 51.5254 57.2076 51.6231 57.05 51.7198C57.0295 51.732 57.0089 51.7454 56.9884 51.7576C56.8308 51.852 56.6718 51.9442 56.5101 52.0354C56.4882 52.0476 56.4663 52.0598 56.4443 52.072C56.273 52.1665 56.1004 52.2587 55.925 52.3487C55.9044 52.3598 55.8825 52.3698 55.8619 52.3809C55.6851 52.4709 55.5056 52.5576 55.3234 52.642C55.2987 52.6531 55.2754 52.6654 55.2507 52.6765C55.1795 52.7087 55.1096 52.7409 55.0383 52.772C55.0027 52.7876 54.9671 52.8042 54.9314 52.8198C54.8314 52.8631 54.7314 52.9054 54.6313 52.9476C54.6231 52.9509 54.6149 52.9542 54.608 52.9576C54.4998 53.002 54.3901 53.0465 54.2805 53.0887C54.2463 53.102 54.2106 53.1154 54.175 53.1287C54.0996 53.1576 54.0243 53.1865 53.9489 53.2142C53.9146 53.2265 53.8804 53.2387 53.8475 53.2509C53.7474 53.2865 53.6488 53.322 53.5487 53.3565C53.5117 53.3687 53.4747 53.382 53.4364 53.3942C53.3089 53.4376 53.1801 53.4787 53.0513 53.5187C53.0486 53.5198 53.0472 53.5198 53.0444 53.5209C52.9129 53.562 52.7813 53.6009 52.6498 53.6387C52.6114 53.6498 52.5744 53.6598 52.536 53.6709C52.4333 53.6998 52.3305 53.7276 52.2277 53.7542C52.1948 53.7631 52.1619 53.772 52.129 53.7798C51.9728 53.8198 51.8152 53.8576 51.6563 53.8931C51.6234 53.9009 51.5918 53.9076 51.559 53.9142C51.3973 53.9498 51.2342 53.9842 51.0711 54.0165C51.0615 54.0187 51.0506 54.0198 51.041 54.022C50.8834 54.052 50.7244 54.0798 50.5654 54.1065C50.5353 54.1109 50.5065 54.1165 50.4764 54.1209C50.3147 54.1465 50.153 54.1698 49.9913 54.1909C49.9584 54.1954 49.9255 54.1987 49.894 54.2031C49.7268 54.2242 49.5582 54.2431 49.3897 54.2598C49.3842 54.2598 49.3787 54.2609 49.3732 54.2609C49.2074 54.2765 49.043 54.2898 48.8758 54.3009C48.8443 54.3031 48.8127 54.3054 48.7812 54.3076C48.6168 54.3176 48.4523 54.3265 48.2865 54.332C48.2536 54.3331 48.2221 54.3342 48.1892 54.3354C48.0179 54.3409 47.8453 54.3442 47.674 54.3442C46.1528 54.3442 44.729 54.1454 43.4381 53.7798C43.223 53.7187 43.012 53.6531 42.8037 53.5831C41.9732 53.3031 41.2044 52.9509 40.5055 52.5354C39.6326 52.0165 38.8721 51.3998 38.2417 50.7031L40.3658 53.0509C42.3816 55.2798 45.7404 56.6909 49.7967 56.6909C49.9693 56.6909 50.1406 56.6876 50.3119 56.682C50.3448 56.6809 50.3763 56.6798 50.4092 56.6787C50.575 56.6731 50.7395 56.6654 50.9039 56.6542C50.9354 56.652 50.967 56.6498 50.9985 56.6476C51.1643 56.6365 51.3301 56.6231 51.4959 56.6076C51.5014 56.6076 51.5069 56.6065 51.5124 56.6065C51.6809 56.5898 51.8495 56.5709 52.0167 56.5498C52.0496 56.5454 52.0824 56.542 52.114 56.5376C52.277 56.5165 52.4387 56.4931 52.5991 56.4676C52.6292 56.4631 52.658 56.4576 52.6881 56.4531C52.8471 56.4276 53.0061 56.3998 53.1637 56.3687C53.1733 56.3665 53.1842 56.3654 53.1938 56.3631C53.3569 56.332 53.52 56.2976 53.6817 56.2609C53.7145 56.2542 53.7461 56.2465 53.779 56.2398C53.9366 56.2042 54.0941 56.1665 54.2517 56.1265C54.2613 56.1242 54.2709 56.122 54.2805 56.1198C54.3038 56.1142 54.3271 56.1065 54.3504 56.1009C54.4532 56.0742 54.5573 56.0465 54.6587 56.0176C54.6971 56.0065 54.7341 55.9965 54.7725 55.9854C54.9054 55.9476 55.037 55.9087 55.1671 55.8676C55.1699 55.8665 55.1713 55.8665 55.174 55.8654C55.3028 55.8254 55.4316 55.7831 55.5591 55.7409C55.5961 55.7287 55.6331 55.7154 55.6714 55.7031C55.7715 55.6687 55.8715 55.6331 55.9702 55.5976C55.9921 55.5898 56.0154 55.582 56.0373 55.5742C56.0497 55.5698 56.0606 55.5654 56.073 55.5609C56.1483 55.5331 56.2237 55.5042 56.2991 55.4754C56.3347 55.462 56.369 55.4487 56.4046 55.4354C56.5142 55.392 56.6238 55.3487 56.7321 55.3042C56.7403 55.3009 56.7485 55.2976 56.7554 55.2942C56.8554 55.252 56.9555 55.2098 57.0555 55.1665C57.0911 55.1509 57.1268 55.1342 57.1624 55.1187C57.2337 55.0876 57.3049 55.0554 57.3748 55.0231C57.3871 55.0176 57.3995 55.012 57.4118 55.0065C57.4241 55.0009 57.4365 54.9942 57.4488 54.9887C57.6297 54.9042 57.8092 54.8176 57.9874 54.7276C58.0079 54.7165 58.0298 54.7065 58.0504 54.6954C58.2258 54.6054 58.3999 54.5131 58.5698 54.4187C58.5794 54.4131 58.589 54.4087 58.5972 54.4042C58.6095 54.3965 58.6232 54.3887 58.6356 54.382C58.7973 54.292 58.9562 54.1987 59.1138 54.1042C59.1344 54.092 59.1549 54.0787 59.1755 54.0665C59.3331 53.9698 59.4893 53.872 59.6428 53.7709C59.6496 53.7665 59.6565 53.762 59.6633 53.7576C59.6757 53.7498 59.6866 53.742 59.6976 53.7342C59.8497 53.6331 60.0004 53.5309 60.1484 53.4254C60.1621 53.4154 60.1758 53.4054 60.1895 53.3954C60.3417 53.2865 60.491 53.1765 60.6377 53.0642C60.6404 53.062 60.6418 53.0609 60.6445 53.0598C60.65 53.0554 60.6555 53.0509 60.661 53.0476C60.8144 52.9287 60.9665 52.8076 61.1145 52.6842C61.1173 52.682 61.1187 52.6809 61.12 52.6787C61.2694 52.5542 61.416 52.4265 61.5599 52.2976C61.5627 52.2954 61.5654 52.2931 61.5681 52.2909C61.5695 52.2898 61.5695 52.2898 61.5709 52.2887C61.7244 52.1498 61.8751 52.0087 62.0204 51.8643C62.0204 51.8631 62.0217 51.8631 62.0217 51.862C62.167 51.7187 62.3081 51.5731 62.4466 51.4254C62.4479 51.4242 62.4493 51.4231 62.4507 51.422C62.4657 51.4065 62.4794 51.3898 62.4931 51.3742C62.5493 51.3142 62.6041 51.2531 62.659 51.192C62.685 51.1631 62.7097 51.1342 62.7343 51.1054C62.7782 51.0542 62.8234 51.0031 62.8659 50.952C62.8933 50.9198 62.9193 50.8876 62.9467 50.8554C62.9879 50.8065 63.0276 50.7576 63.0673 50.7087C63.0947 50.6754 63.1208 50.6409 63.1482 50.6065C63.1866 50.5576 63.2236 50.5098 63.2619 50.4609C63.2756 50.442 63.2907 50.4242 63.3044 50.4054C63.314 50.392 63.3236 50.3787 63.3332 50.3654C63.3962 50.282 63.4579 50.1976 63.5182 50.112C63.5278 50.0987 63.5374 50.0854 63.547 50.072C63.6155 49.9742 63.6813 49.8765 63.747 49.7776C63.7648 49.7509 63.7813 49.7242 63.7991 49.6976C63.8484 49.6209 63.8978 49.5431 63.9457 49.4654C63.9622 49.4376 63.98 49.4109 63.9964 49.3831C64.0567 49.282 64.117 49.1809 64.1732 49.0787C64.1746 49.0765 64.176 49.0743 64.1773 49.072C64.1828 49.062 64.1883 49.052 64.1938 49.042C64.2431 48.952 64.2911 48.862 64.339 48.7709C64.3541 48.7409 64.3706 48.7098 64.3856 48.6798C64.4267 48.5987 64.4665 48.5176 64.5049 48.4365C64.5158 48.412 64.5281 48.3876 64.5405 48.3631C64.5884 48.2598 64.635 48.1554 64.6789 48.0509C64.6885 48.0287 64.6981 48.0054 64.7063 47.982C64.7406 47.8976 64.7748 47.8131 64.8077 47.7276C64.82 47.6965 64.8324 47.6642 64.8433 47.6331C64.8762 47.5431 64.9091 47.452 64.9393 47.3609C64.9447 47.3431 64.9516 47.3265 64.9571 47.3087C64.9927 47.202 65.0256 47.0931 65.0571 46.9854C65.0653 46.9565 65.0735 46.9276 65.0804 46.8998C65.1037 46.8165 65.1256 46.7331 65.1462 46.6487C65.1544 46.6176 65.1626 46.5854 65.1695 46.5542C65.1955 46.4442 65.2202 46.3342 65.2421 46.2231C65.2723 46.0665 65.2983 45.9109 65.3202 45.7565C65.3271 45.7054 65.3312 45.6542 65.338 45.6042C65.349 45.502 65.3613 45.3987 65.3696 45.2965Z" fill="#D0D5DD"/>
<path id="Vector_79" d="M49.7967 56.8588C45.8295 56.8588 42.3323 55.5065 40.2 53.1499L38.0773 50.8043C38.0773 50.8032 38.0759 50.8032 38.0759 50.8021C38.069 50.7943 38.0636 50.7865 38.0581 50.7788C38.0101 50.701 38.043 50.6065 38.1348 50.5621C38.2253 50.5165 38.3445 50.5354 38.4075 50.6054C39.0269 51.2899 39.7724 51.8943 40.6275 52.4021C41.3168 52.8121 42.076 53.1576 42.8832 53.4299C43.0873 53.4988 43.297 53.5632 43.5067 53.6232C44.8058 53.991 46.209 54.1776 47.674 54.1776C47.8275 54.1776 47.9878 54.1754 48.1824 54.1688L48.2783 54.1654C48.4414 54.1599 48.6031 54.1521 48.7662 54.1421L48.8593 54.1354C49.0224 54.1243 49.1855 54.111 49.3486 54.0954L49.3897 54.2599L49.365 54.0943C49.5308 54.0788 49.6966 54.0588 49.8624 54.0388L49.9584 54.0265C50.1187 54.0054 50.2777 53.9821 50.438 53.9576L50.5257 53.9432C50.6833 53.9176 50.8395 53.8899 50.9944 53.8599L51.0136 53.8565C51.1862 53.8232 51.3466 53.7899 51.5069 53.7543L51.6028 53.7332C51.759 53.6976 51.9139 53.661 52.0688 53.621L52.166 53.5954C52.2688 53.5688 52.3702 53.541 52.4716 53.5132L52.584 53.4821C52.7142 53.4443 52.8444 53.4065 52.9732 53.3665C53.1075 53.3243 53.2336 53.2832 53.3596 53.241L53.4693 53.2032C53.5679 53.1688 53.6666 53.1343 53.7653 53.0988L53.8653 53.0621C53.9407 53.0343 54.0147 53.0065 54.0887 52.9776L54.1928 52.9377C54.3011 52.8954 54.4093 52.8521 54.5162 52.8077C54.5162 52.8077 54.5382 52.7988 54.5395 52.7976C54.6396 52.7565 54.7382 52.7143 54.8369 52.671L54.9424 52.6232C55.0123 52.5921 55.0836 52.561 55.1534 52.5288L55.2247 52.4954C55.407 52.411 55.5851 52.3243 55.7564 52.2377L55.8181 52.2065C55.9949 52.1165 56.1675 52.0243 56.332 51.9332L56.3977 51.8965C56.5608 51.8054 56.7198 51.7132 56.8705 51.6221L56.9322 51.5843C57.0925 51.4865 57.2487 51.3888 57.394 51.2932L57.4488 51.2577C57.6091 51.1521 57.7544 51.0521 57.8942 50.9532L57.9339 50.9243C58.0888 50.8132 58.2382 50.7032 58.3766 50.5965L58.3985 50.5788C58.5533 50.4588 58.7041 50.3388 58.8466 50.221C59.0014 50.0921 59.1467 49.9654 59.2865 49.8399L59.4496 49.9421L59.2961 49.831C59.4482 49.6943 59.5976 49.5532 59.7401 49.4121C59.8853 49.2688 60.0265 49.1243 60.1608 48.9799L60.2074 48.9288C60.2622 48.8688 60.317 48.8088 60.3704 48.7488L60.4445 48.6632C60.4883 48.6132 60.5308 48.5632 60.5746 48.5132L60.6541 48.4177C60.6939 48.3699 60.7336 48.3221 60.772 48.2732C60.798 48.2399 60.8254 48.2065 60.8514 48.1732C60.8898 48.1254 60.9268 48.0777 60.9624 48.0299C60.9871 47.9988 61.0104 47.9676 61.0337 47.9354C61.0954 47.8521 61.157 47.7699 61.216 47.6854L61.2447 47.6454C61.3119 47.5499 61.3777 47.4521 61.4421 47.3554L61.4928 47.2765C61.5421 47.1999 61.5901 47.1243 61.6367 47.0476L61.686 46.9665C61.7463 46.8677 61.8039 46.7676 61.86 46.6665L61.8806 46.6299C61.9299 46.5421 61.9765 46.4521 62.0231 46.3632L62.0683 46.2743C62.1081 46.1943 62.1478 46.1143 62.1862 46.0343L62.2204 45.961C62.267 45.8599 62.3123 45.7565 62.3561 45.6532L62.3835 45.5865C62.4178 45.5032 62.4507 45.4199 62.4836 45.3365L62.5192 45.2432C62.5521 45.1543 62.5836 45.0643 62.6137 44.9754L62.6316 44.9243C62.6658 44.8188 62.6987 44.7132 62.7289 44.6065L62.7522 44.5221C62.7754 44.4399 62.7974 44.3576 62.8166 44.2754L62.8399 44.1821C62.8659 44.0743 62.8892 43.9654 62.9111 43.8565C62.9399 43.7099 62.9659 43.5554 62.9879 43.3977C62.992 43.3677 62.9947 43.3377 62.9988 43.3077L63.0057 43.2476C63.018 43.1465 63.0303 43.0443 63.0386 42.9443C63.0413 42.9043 63.044 42.8654 63.0468 42.8254L63.0495 42.7665C63.055 42.6754 63.0605 42.5854 63.0632 42.4954C63.0646 42.4443 63.0646 42.3932 63.0646 42.341V42.3099C63.0646 42.2232 63.0646 42.1376 63.0619 42.0532C63.0605 41.9954 63.0577 41.9376 63.0536 41.8799L63.0523 41.8654C63.0482 41.7821 63.0427 41.6999 63.0358 41.6165C63.0303 41.5543 63.0249 41.4921 63.0166 41.4299C63.007 41.3476 62.9974 41.2665 62.9851 41.1854C62.9755 41.1243 62.9673 41.0632 62.9563 41.0021C62.9426 40.921 62.9262 40.841 62.9097 40.7599L62.9043 40.7343C62.8933 40.6832 62.8837 40.6332 62.8714 40.5832C62.8467 40.4776 62.8207 40.3732 62.7905 40.2688L62.7741 40.2043C62.7385 40.0821 62.6987 39.9588 62.6535 39.8265C62.6453 39.8043 62.637 39.7832 62.6302 39.761L62.6165 39.7243C62.5822 39.6321 62.548 39.5399 62.5096 39.4488C62.4932 39.4088 62.4767 39.3699 62.4603 39.331C62.4027 39.1965 62.3534 39.0888 62.304 38.9899L62.4877 38.9143L62.2972 38.9765C62.2451 38.8721 62.1876 38.7621 62.1204 38.641L62.0793 38.5688C62.0176 38.461 61.9519 38.3532 61.8861 38.2488C61.8039 38.1199 61.7189 37.9943 61.6326 37.8743C61.6312 37.8721 61.6243 37.8621 61.623 37.8599C61.5298 37.731 61.4339 37.6065 61.3256 37.4754C61.2297 37.3588 61.1406 37.2543 61.0515 37.1554C60.9844 37.081 61.0049 36.9765 61.0954 36.9221C61.1872 36.8676 61.316 36.8832 61.3832 36.9576L63.5072 39.3054C63.599 39.4076 63.6895 39.5121 63.7758 39.6165L63.7882 39.6332C63.9046 39.7754 64.0047 39.9043 64.0979 40.0332L64.1088 40.0488C64.202 40.1788 64.2911 40.3099 64.376 40.4432L64.3925 40.4688C64.4569 40.5699 64.5172 40.6721 64.5761 40.7765L64.6186 40.8521C64.6899 40.9788 64.7502 41.0932 64.8036 41.201L64.8104 41.2154C64.8529 41.3021 64.894 41.391 64.9338 41.4788C64.942 41.4965 64.9489 41.5143 64.9557 41.5321L64.9708 41.5699C64.9886 41.611 65.005 41.6521 65.0229 41.6921C65.0612 41.7865 65.0982 41.8821 65.1339 41.9776L65.1489 42.0188C65.1572 42.041 65.1654 42.0621 65.1722 42.0843C65.2202 42.221 65.2613 42.3488 65.2983 42.4765L65.3161 42.5443C65.3394 42.6288 65.3627 42.7132 65.3833 42.7988C65.3874 42.8132 65.3901 42.8288 65.3929 42.8443L65.3983 42.8721C65.4107 42.9276 65.423 42.9854 65.434 43.0421L65.4367 43.0554C65.4545 43.1388 65.471 43.2221 65.4847 43.3065C65.4956 43.3699 65.5052 43.4332 65.5148 43.4965C65.5272 43.581 65.5381 43.6643 65.5477 43.7499C65.5546 43.8143 65.5614 43.8788 65.5669 43.9432C65.5737 44.0288 65.5806 44.1143 65.5847 44.201C65.5888 44.2654 65.5916 44.331 65.5929 44.3954C65.5957 44.4832 65.5957 44.5721 65.5957 44.661V44.7032C65.5957 44.7532 65.5957 44.8032 65.5943 44.8532C65.5916 44.9454 65.5861 45.0399 65.5806 45.1332L65.5779 45.1899C65.5751 45.2321 65.5737 45.2743 65.5696 45.3165C65.5614 45.421 65.5477 45.5254 65.5354 45.6299L65.5285 45.6899C65.5244 45.7221 65.5217 45.7532 65.5176 45.7854C65.4943 45.9521 65.4682 46.1077 65.4381 46.2588C65.4162 46.371 65.3915 46.4832 65.3641 46.5943L65.3408 46.6899C65.3189 46.7754 65.2969 46.8599 65.2736 46.9454L65.249 47.0332C65.2175 47.1432 65.1846 47.2521 65.1476 47.361L65.1297 47.4143C65.0996 47.5065 65.0667 47.5988 65.0324 47.6899L64.9968 47.7865C64.9639 47.8732 64.9297 47.9588 64.894 48.0443L64.8653 48.1143C64.82 48.2199 64.7735 48.3254 64.7255 48.431L64.6899 48.5054C64.6515 48.5876 64.6104 48.6699 64.5693 48.7521L64.5227 48.8443C64.4747 48.9365 64.4267 49.0276 64.376 49.1188L64.3596 49.1488C64.2966 49.2599 64.2376 49.3632 64.176 49.4654L64.1253 49.5488C64.0773 49.6276 64.028 49.7065 63.9773 49.7843L63.9252 49.8654C63.8594 49.9654 63.7923 50.0654 63.7224 50.1643L63.6936 50.2054C63.6319 50.2921 63.5703 50.3776 63.5059 50.4621L63.4319 50.5588C63.3949 50.6077 63.3565 50.6576 63.3181 50.7065C63.2907 50.741 63.2647 50.7754 63.2359 50.8099C63.1962 50.8599 63.155 50.9099 63.1139 50.9588L63.0331 51.0565C62.9892 51.1088 62.944 51.1599 62.8988 51.2121L62.822 51.2999C62.7672 51.3621 62.711 51.4232 62.6549 51.4843L62.611 51.5321C62.4685 51.6854 62.3232 51.8343 62.178 51.9776C62.0286 52.1243 61.8751 52.2688 61.7203 52.4088C61.7189 52.4099 61.7107 52.4177 61.7093 52.4188C61.5668 52.5477 61.4174 52.6776 61.2653 52.8032C61.1132 52.9299 60.9597 53.0532 60.7994 53.1765L60.7843 53.1888C60.6349 53.3032 60.4828 53.4165 60.3225 53.5299L60.28 53.5599C60.1375 53.661 59.9881 53.7632 59.8237 53.8721L59.7894 53.8965C59.788 53.8976 59.7771 53.9043 59.7757 53.9054C59.6181 54.0088 59.4592 54.1088 59.2961 54.2088L59.233 54.2465C59.0782 54.3399 58.9151 54.4343 58.7493 54.5276L58.6917 54.5599C58.5109 54.6599 58.3341 54.7543 58.1559 54.8454L58.0929 54.8777C57.9161 54.9677 57.7325 55.0565 57.5475 55.1421L57.4749 55.1765C57.4022 55.2099 57.331 55.2421 57.2583 55.2743L57.1501 55.3232C57.0487 55.3676 56.9486 55.4099 56.8459 55.4521L56.8212 55.4621C56.7116 55.5076 56.6006 55.5521 56.4896 55.5954L56.3827 55.6365C56.3059 55.6654 56.2306 55.6954 56.1538 55.7232L56.051 55.761C55.951 55.7976 55.8496 55.8332 55.7482 55.8676L55.6344 55.9065C55.5056 55.9499 55.3755 55.9921 55.2453 56.0332C55.1055 56.0765 54.9726 56.1165 54.8383 56.1543L54.7232 56.1865C54.619 56.2154 54.5149 56.2443 54.4093 56.271L54.3175 56.2954C54.149 56.3376 53.99 56.3765 53.8297 56.4132L53.7324 56.4354C53.5679 56.4721 53.4035 56.5065 53.2377 56.5388L53.2185 56.5421C53.0472 56.5743 52.8855 56.6032 52.7252 56.6299L52.6347 56.6443C52.4716 56.6699 52.3072 56.6943 52.1427 56.7154L52.0441 56.7276C51.8742 56.7488 51.7042 56.7688 51.5329 56.7854L51.5165 56.7865C51.3493 56.8032 51.1807 56.8154 51.0122 56.8277L50.9163 56.8343C50.7491 56.8443 50.5819 56.8532 50.4133 56.8588L50.3147 56.8621C50.1215 56.8554 49.9543 56.8588 49.7967 56.8588ZM51.4713 56.4443L51.5124 56.6088L51.4877 56.4432C51.6535 56.4265 51.8193 56.4076 51.9852 56.3865L52.0811 56.3743C52.2414 56.3532 52.4004 56.3299 52.5607 56.3054L52.6484 56.291C52.806 56.2654 52.9622 56.2376 53.1171 56.2076L53.1349 56.2043C53.3089 56.171 53.4706 56.1365 53.6296 56.101L53.7255 56.0799C53.8817 56.0443 54.0366 56.0077 54.1915 55.9677L54.2887 55.9421C54.3915 55.9154 54.4929 55.8876 54.5943 55.8599L54.7067 55.8288C54.8369 55.791 54.9671 55.7532 55.0973 55.7132C55.2316 55.671 55.3576 55.6299 55.4837 55.5876L55.5947 55.5499C55.6934 55.5165 55.792 55.481 55.8907 55.4454L55.9907 55.4088C56.0661 55.381 56.1401 55.3532 56.2141 55.3243L56.3183 55.2843C56.4265 55.2421 56.5348 55.1988 56.6417 55.1543L56.6663 55.1443C56.765 55.1032 56.8637 55.061 56.9623 55.0188L57.0679 54.9721C57.1377 54.941 57.209 54.9099 57.2789 54.8777L57.3515 54.8443C57.531 54.761 57.7106 54.6743 57.8832 54.5865L57.9449 54.5543C58.1189 54.4654 58.2916 54.3732 58.4588 54.281L58.5246 54.2443C58.6863 54.1532 58.8452 54.061 58.9973 53.9699L59.059 53.9321C59.218 53.8354 59.3742 53.7365 59.5208 53.641L59.5756 53.6054C59.736 53.4999 59.8812 53.3999 60.021 53.301L60.0621 53.2721C60.2183 53.161 60.3663 53.051 60.5047 52.9443L60.6596 53.0543L60.5267 52.9265C60.6829 52.8065 60.8336 52.6854 60.9748 52.5676C61.1283 52.4399 61.2749 52.3132 61.4147 52.1865C61.416 52.1854 61.4188 52.1832 61.4215 52.181C61.4256 52.1777 61.4284 52.1743 61.4325 52.1721C61.5764 52.0421 61.7257 51.901 61.8696 51.7599C62.0135 51.6177 62.1547 51.4732 62.2903 51.3277L62.3356 51.2776C62.3904 51.2176 62.4452 51.1576 62.4986 51.0976L62.5726 51.0121C62.6165 50.9621 62.6603 50.9121 62.7028 50.861L62.7823 50.7654C62.822 50.7177 62.8618 50.6688 62.9015 50.6199C62.9276 50.5865 62.955 50.5532 62.981 50.5199C63.0194 50.4721 63.0564 50.4243 63.0934 50.3754L63.1646 50.2821C63.2263 50.1988 63.288 50.1154 63.3469 50.0321L63.3757 49.9921C63.4428 49.8965 63.5086 49.7988 63.573 49.7021L63.6237 49.6232C63.673 49.5465 63.721 49.471 63.7676 49.3932L63.8169 49.3121C63.8772 49.2132 63.9348 49.1132 63.991 49.0121C63.9923 49.011 63.9965 49.0021 63.9978 49.001L64.0102 48.9765C64.0595 48.8876 64.1075 48.7988 64.1527 48.7088L64.1979 48.6188C64.2376 48.5388 64.2774 48.4588 64.3144 48.3788L64.3486 48.3065C64.3952 48.2043 64.4418 48.1021 64.4843 47.9988L64.5117 47.931C64.546 47.8488 64.5789 47.7654 64.6104 47.681L64.646 47.5865C64.6789 47.4977 64.7104 47.4088 64.7406 47.3188L64.7584 47.2665C64.7926 47.161 64.8255 47.0554 64.8557 46.9488L64.879 46.8643C64.9023 46.7821 64.9242 46.6999 64.9434 46.6176L64.9667 46.5243C64.9927 46.4165 65.016 46.3076 65.0379 46.1988C65.0667 46.0521 65.0914 45.9021 65.1147 45.7399C65.1188 45.711 65.1215 45.6821 65.1256 45.6532L65.1325 45.5888C65.1448 45.4876 65.1572 45.3865 65.1654 45.2854C65.1681 45.2454 65.1709 45.2065 65.1736 45.1665L65.1777 45.1076C65.1832 45.0165 65.1887 44.9265 65.1914 44.8365C65.1928 44.7888 65.1928 44.741 65.1928 44.6943V44.651C65.1928 44.5654 65.1928 44.4788 65.19 44.3943C65.1887 44.331 65.1846 44.2688 65.1818 44.2065C65.1777 44.1232 65.1722 44.041 65.1654 43.9576C65.1599 43.8954 65.153 43.8332 65.1462 43.771C65.1366 43.6888 65.127 43.6076 65.1147 43.5265C65.1051 43.4654 65.0969 43.4043 65.0859 43.3432C65.0722 43.2621 65.0557 43.1821 65.0393 43.101L65.0366 43.0876C65.0256 43.0332 65.0146 42.9788 65.0023 42.9243L64.9954 42.8888C64.9927 42.8776 64.9913 42.8654 64.9886 42.8543C64.968 42.771 64.9461 42.6899 64.9228 42.6088L64.9064 42.5443C64.8707 42.4221 64.831 42.2988 64.7858 42.1665L64.7488 42.0643C64.7145 41.9721 64.6803 41.881 64.6419 41.7899C64.6255 41.7499 64.609 41.711 64.5926 41.6721L64.5747 41.6288C64.5693 41.6132 64.5624 41.5988 64.5556 41.5843C64.5172 41.4988 64.4775 41.4143 64.4363 41.331L64.62 41.2554L64.4295 41.3176C64.3774 41.2132 64.3199 41.1043 64.2527 40.9821L64.2116 40.9099C64.154 40.8099 64.0965 40.711 64.0348 40.6132L64.0184 40.5899C63.9361 40.461 63.8512 40.3343 63.7635 40.2143L63.7525 40.1988C63.6607 40.071 63.5648 39.9465 63.4565 39.8154L63.4442 39.7999C63.3579 39.6943 63.2715 39.5943 63.1824 39.4954L62.7878 39.0588C62.8097 39.1077 62.833 39.1599 62.8563 39.2154C62.8741 39.2565 62.8906 39.2965 62.907 39.3376C62.9454 39.4321 62.9824 39.5276 63.018 39.6232L63.0303 39.6576C63.0386 39.6821 63.0482 39.7054 63.0564 39.7299C63.1043 39.8665 63.1454 39.9943 63.1811 40.121L63.1989 40.1888C63.229 40.2965 63.2564 40.4054 63.2825 40.5154C63.2948 40.5677 63.3058 40.621 63.3167 40.6732L63.3222 40.6988C63.3387 40.7821 63.3565 40.8654 63.3702 40.9499C63.3812 41.0132 63.3907 41.0765 63.4003 41.1399C63.4127 41.2243 63.4236 41.3088 63.4332 41.3932C63.4401 41.4576 63.4469 41.5221 63.4524 41.5865C63.4593 41.6721 63.4661 41.7576 63.4702 41.8443V41.8588C63.473 41.9188 63.4771 41.9788 63.4784 42.0388C63.4812 42.1265 63.4812 42.2154 63.4812 42.3043V42.3354C63.4812 42.3888 63.4812 42.4421 63.4798 42.4965C63.4771 42.5899 63.4716 42.6832 63.4661 42.7765L63.4634 42.8332C63.4606 42.8754 63.4593 42.9177 63.4552 42.9599C63.4469 43.0632 63.4332 43.1688 63.4209 43.2732L63.414 43.3299C63.4099 43.3632 63.4072 43.3954 63.4017 43.4288C63.3784 43.591 63.3524 43.751 63.3222 43.9021C63.3003 44.0143 63.2756 44.1265 63.2482 44.2377L63.2249 44.3332C63.203 44.4188 63.1811 44.5043 63.1578 44.5888L63.1331 44.6754C63.1016 44.7854 63.0673 44.8954 63.0317 45.0043L63.0139 45.0565C62.9824 45.1499 62.9509 45.241 62.9166 45.3332L62.881 45.4299C62.8481 45.5165 62.8138 45.6021 62.7782 45.6876L62.7494 45.7565C62.7042 45.8632 62.6576 45.9688 62.6096 46.0732L62.574 46.1477C62.5343 46.231 62.4945 46.3132 62.4534 46.3954L62.4068 46.4877C62.3589 46.5799 62.3109 46.6721 62.2602 46.7621L62.2396 46.7999C62.1821 46.9032 62.1218 47.0065 62.0601 47.1088L62.0094 47.1921C61.9615 47.271 61.9121 47.3499 61.8614 47.4276L61.8093 47.5088C61.7436 47.6088 61.6764 47.7088 61.6065 47.8077L61.5777 47.8476C61.5161 47.9343 61.4544 48.0199 61.39 48.1043C61.3653 48.1365 61.342 48.1688 61.3174 48.201C61.2804 48.2499 61.242 48.2999 61.2023 48.3488C61.1749 48.3832 61.1488 48.4177 61.12 48.4521C61.0803 48.5021 61.0392 48.551 60.9981 48.601L60.9159 48.6988C60.872 48.751 60.8268 48.8021 60.7829 48.8532L60.7062 48.941C60.6514 49.0032 60.5952 49.0643 60.539 49.1265L60.491 49.1788C60.3526 49.3276 60.2087 49.4754 60.0608 49.621C59.9114 49.7677 59.7593 49.9121 59.603 50.0521C59.6017 50.0532 59.5934 50.061 59.5921 50.061C59.4482 50.1899 59.2988 50.3199 59.1481 50.4465C58.996 50.5732 58.8411 50.6965 58.6821 50.8199L58.6602 50.8365C58.5177 50.9465 58.3642 51.0588 58.2053 51.1721L58.1642 51.2021C58.0189 51.3054 57.8695 51.4065 57.7064 51.5143L57.6516 51.551C57.5023 51.6488 57.3433 51.7499 57.1775 51.8499L57.1145 51.8876C56.9596 51.981 56.7965 52.0754 56.6307 52.1688L56.5636 52.2065C56.395 52.2999 56.2169 52.3943 56.0373 52.4865L55.9743 52.5188C55.7989 52.6076 55.6153 52.6965 55.4303 52.7832L55.3563 52.8176C55.285 52.851 55.2124 52.8832 55.1397 52.9143L55.0315 52.9632C54.9301 53.0076 54.83 53.0499 54.7273 53.0921L54.7026 53.1021C54.593 53.1476 54.482 53.1921 54.371 53.2354L54.2641 53.2765C54.1873 53.3054 54.112 53.3354 54.0352 53.3632L53.9325 53.401C53.8324 53.4376 53.731 53.4732 53.6296 53.5077L53.5159 53.5465C53.387 53.5899 53.2569 53.6321 53.1253 53.6732C52.9855 53.7165 52.8526 53.7554 52.7183 53.7943L52.6032 53.8265C52.499 53.8554 52.3949 53.8843 52.2894 53.911L52.1893 53.9377C52.0304 53.9776 51.8714 54.0165 51.7111 54.0532L51.6138 54.0754C51.4493 54.1121 51.2849 54.1465 51.1191 54.1788L51.1013 54.1821L51.0876 54.1843C50.9272 54.2154 50.7669 54.2432 50.6052 54.2699L50.5147 54.2843C50.3517 54.3099 50.1872 54.3343 50.0228 54.3554L49.9241 54.3676C49.7542 54.3888 49.5843 54.4088 49.413 54.4254L49.3965 54.4265C49.2293 54.4432 49.0608 54.4554 48.8922 54.4677L48.7963 54.4743C48.6291 54.4843 48.4619 54.4932 48.2947 54.4988L48.1961 54.5021C47.9974 54.5077 47.8316 54.511 47.6726 54.511C46.1611 54.511 44.7126 54.3176 43.3696 53.9377C43.1531 53.8765 42.9352 53.8088 42.7242 53.7377C41.8869 53.4554 41.0989 53.0954 40.3836 52.671C40.3014 52.6221 40.2205 52.5732 40.141 52.5221L40.5316 52.9532C42.5858 55.2232 45.9624 56.5254 49.7967 56.5254C49.9502 56.5254 50.1105 56.5232 50.3051 56.5165L50.401 56.5132C50.5641 56.5076 50.7258 56.4999 50.8889 56.4899L50.982 56.4832C51.1451 56.4721 51.3082 56.4599 51.4713 56.4443Z" fill="#F9FAFB"/>
</g>
<g id="Group_78">
<g id="Group_79">
<path id="Vector_80" d="M91.6478 66.0068L93.7719 68.3557H63.3209L61.1968 66.0068H91.6478Z" fill="#98A2B3"/>
<path id="Vector_81" d="M93.7718 68.5219H63.3208C63.255 68.5219 63.1933 68.4964 63.155 68.4542L61.0309 66.1064C60.9857 66.0553 60.9788 65.9886 61.0131 65.9319C61.0473 65.8764 61.1186 65.8408 61.1967 65.8408H91.6477C91.7135 65.8408 91.7751 65.8664 91.8135 65.9086L93.9376 68.2564C93.9828 68.3075 93.9897 68.3742 93.9554 68.4308C93.9198 68.4864 93.8485 68.5219 93.7718 68.5219ZM63.4249 68.1886H93.3648L91.5422 66.1742H61.6023L63.4249 68.1886Z" fill="#F9FAFB"/>
</g>
</g>
<g id="Group_80">
<g id="Group_81">
<path id="Vector_82" d="M27.6858 53.9551L29.8085 56.3029H2.63408L0.51001 53.9551H27.6858Z" fill="#D0D5DD"/>
<path id="Vector_83" d="M29.8098 56.4692H2.63401C2.56823 56.4692 2.50656 56.4436 2.46819 56.4014L0.344116 54.0536C0.298894 54.0025 0.292043 53.9359 0.326303 53.8792C0.360562 53.8236 0.431821 53.7881 0.509932 53.7881H27.6857C27.7515 53.7881 27.8132 53.8136 27.8516 53.8559L29.9756 56.2036C30.0209 56.2548 30.0277 56.3214 29.9935 56.3781C29.9578 56.4336 29.8866 56.4692 29.8098 56.4692ZM2.73815 56.1359H29.4042L27.5816 54.1214H0.91556L2.73815 56.1359Z" fill="#F9FAFB"/>
</g>
</g>
<g id="Group_82">
<g id="Group_83">
<path id="Vector_84" d="M30.3347 40.4863L32.4587 42.8341L31.0062 50.2197L28.8821 47.8719L30.3347 40.4863Z" fill="#D0D5DD"/>
<path id="Vector_85" d="M31.0061 50.386C30.9417 50.386 30.88 50.3616 30.8403 50.3183L28.7162 47.9705C28.6833 47.9349 28.671 47.8894 28.6792 47.846L30.1318 40.4605C30.1455 40.3938 30.2058 40.3405 30.2867 40.3249C30.3675 40.3094 30.4525 40.3338 30.5004 40.3883L32.6245 42.736C32.6574 42.7716 32.6697 42.8171 32.6615 42.8605L31.2089 50.246C31.1952 50.3127 31.1349 50.366 31.0541 50.3816C31.0376 50.3838 31.0212 50.386 31.0061 50.386ZM29.0986 47.8294L30.88 49.7994L32.2422 42.8772L30.4607 40.9071L29.0986 47.8294Z" fill="#F9FAFB"/>
</g>
</g>
<g id="Group_84">
<g id="Group_85">
<path id="Vector_86" d="M28.8821 47.8721L31.0062 50.2198L29.8085 56.3032L27.6858 53.9554L28.8821 47.8721Z" fill="#D0D5DD"/>
<path id="Vector_87" d="M29.8098 56.4696C29.7454 56.4696 29.6838 56.4451 29.644 56.4018L27.5199 54.054C27.487 54.0184 27.4747 53.9729 27.4829 53.9296L28.6793 47.8462C28.693 47.7796 28.7533 47.7262 28.8341 47.7107C28.915 47.6951 28.9986 47.7196 29.0479 47.774L31.172 50.1218C31.2049 50.1573 31.2172 50.2029 31.209 50.2462L30.0126 56.3295C29.9989 56.3962 29.9386 56.4496 29.8578 56.4651C29.8413 56.4673 29.8249 56.4696 29.8098 56.4696ZM27.9023 53.9118L29.6838 55.8818L30.7896 50.2618L29.0082 48.2918L27.9023 53.9118Z" fill="#F9FAFB"/>
</g>
</g>
<g id="Group_86">
<g id="Group_87">
<path id="Vector_88" d="M88.6755 18.3486C88.8742 18.3486 89.0715 18.3775 89.2552 18.4397C90.0198 18.6975 90.272 19.4209 89.8198 20.0553C89.4772 20.5375 88.8249 20.8297 88.1959 20.8297C87.9972 20.8297 87.7998 20.8009 87.6162 20.7386C86.8515 20.4809 86.5994 19.7575 87.0502 19.1231C87.3956 18.6409 88.0465 18.3486 88.6755 18.3486Z" fill="#D0D5DD"/>
<path id="Vector_89" d="M88.1958 20.9951C87.9643 20.9951 87.7422 20.9607 87.5381 20.8907C87.1365 20.7551 86.8392 20.5007 86.7035 20.174C86.5541 19.8151 86.6158 19.4007 86.8734 19.0384C87.2448 18.5173 87.9533 18.1807 88.6755 18.1807C88.9071 18.1807 89.1291 18.2151 89.3333 18.284C89.7361 18.4196 90.0321 18.674 90.1692 19.0007C90.3185 19.3596 90.2569 19.774 89.9979 20.1362C89.6265 20.6584 88.9194 20.9951 88.1958 20.9951ZM88.6755 18.5151C88.1054 18.5151 87.5244 18.7929 87.2284 19.2062C87.0297 19.4862 86.979 19.8007 87.0913 20.0684C87.1886 20.3029 87.4038 20.4862 87.6943 20.584C87.8491 20.6362 88.0177 20.6629 88.1945 20.6629C88.7645 20.6629 89.3456 20.3851 89.6402 19.9718C89.8403 19.6918 89.891 19.3773 89.7786 19.1096C89.6813 18.8751 89.4662 18.6918 89.1757 18.594C89.0222 18.5407 88.8536 18.5151 88.6755 18.5151Z" fill="#F9FAFB"/>
</g>
</g>
<g id="Group_88">
<g id="Group_89">
<path id="Vector_90" d="M84.1724 18.0107L85.7676 22.9385L93.2196 20.1007L94.6654 24.0107L91.6327 28.2652L73.7302 22.2407L84.1724 18.0107Z" fill="#D0D5DD"/>
<path id="Vector_91" d="M91.6327 28.4321C91.6067 28.4321 91.5793 28.4277 91.5546 28.4199L73.6521 22.3954C73.5781 22.3699 73.5287 22.3121 73.526 22.2477C73.5233 22.1832 73.5671 22.1221 73.6397 22.0932L84.082 17.8621C84.1382 17.8399 84.2026 17.8388 84.2587 17.8599C84.3149 17.881 84.3574 17.921 84.3725 17.9699L85.9046 22.7043L93.1333 19.951C93.1881 19.9299 93.2497 19.9299 93.3046 19.9499C93.3594 19.9699 93.4005 20.0077 93.4169 20.0543L94.8627 23.9654C94.8791 24.0099 94.8723 24.0566 94.8435 24.0966L91.8122 28.351C91.7725 28.4021 91.704 28.4321 91.6327 28.4321ZM74.2249 22.2277L91.545 28.0554L94.442 23.9899L93.0908 20.3332L85.8552 23.0899C85.8004 23.111 85.736 23.111 85.6812 23.0899C85.6264 23.0688 85.5853 23.0288 85.5688 22.981L84.0381 18.251L74.2249 22.2277Z" fill="#F9FAFB"/>
</g>
</g>
<g id="Group_90">
<g id="Group_91">
<path id="Vector_92" d="M96.2878 7.66992C96.4865 7.66992 96.6838 7.69881 96.8675 7.76103C97.6321 8.0177 97.8843 8.74103 97.4321 9.37548C97.0881 9.8577 96.4358 10.1499 95.8082 10.1499C95.6095 10.1499 95.4135 10.121 95.2285 10.0588C94.4638 9.80103 94.2117 9.0777 94.6626 8.44326C95.0079 7.96214 95.6588 7.66992 96.2878 7.66992Z" fill="#D0D5DD"/>
<path id="Vector_93" d="M95.8081 10.3174C95.5766 10.3174 95.3546 10.2829 95.1504 10.2129C94.7489 10.0774 94.4515 9.82293 94.3158 9.49626C94.1664 9.13737 94.2281 8.72293 94.4857 8.36071C94.8571 7.8396 95.5642 7.50293 96.2878 7.50293C96.5194 7.50293 96.7414 7.53737 96.9469 7.60737C97.3484 7.74182 97.6458 7.99626 97.7815 8.32182C97.9322 8.68071 97.8692 9.09515 97.6102 9.4596C97.2388 9.98071 96.5303 10.3174 95.8081 10.3174ZM96.2878 7.83626C95.7095 7.83626 95.1408 8.10737 94.842 8.52737C94.6433 8.80737 94.5926 9.12182 94.705 9.3896C94.8023 9.62404 95.0174 9.80737 95.308 9.90515C95.4628 9.95737 95.63 9.98404 95.8081 9.98404C96.3782 9.98404 96.9593 9.70626 97.2539 9.29293C97.454 9.01293 97.5047 8.69737 97.3923 8.4296C97.295 8.19515 97.0798 8.01293 96.7893 7.91515C96.6345 7.86293 96.4659 7.83626 96.2878 7.83626Z" fill="#F9FAFB"/>
</g>
</g>
<g id="Group_92">
<g id="Group_93">
<path id="Vector_94" d="M91.7848 7.33203L93.3799 12.2609L100.832 9.42203L102.278 13.3331L99.2437 17.5876L81.3425 11.562L91.7848 7.33203Z" fill="#D0D5DD"/>
<path id="Vector_95" d="M99.2438 17.7545C99.2177 17.7545 99.1903 17.7501 99.1657 17.7423L81.2632 11.7167C81.1892 11.6912 81.1398 11.6334 81.1371 11.569C81.1343 11.5045 81.1782 11.4434 81.2508 11.4145L91.693 7.1834C91.7492 7.16118 91.8136 7.16007 91.8698 7.18118C91.926 7.20229 91.9685 7.24229 91.9836 7.29118L93.5156 12.0267L100.744 9.2734C100.799 9.25229 100.861 9.25229 100.916 9.27229C100.97 9.29229 101.012 9.33007 101.028 9.37673L102.474 13.2878C102.49 13.3323 102.483 13.379 102.455 13.419L99.4219 17.6734C99.3849 17.7245 99.315 17.7545 99.2438 17.7545ZM81.8373 11.549L99.1561 17.3778L102.054 13.3123L100.703 9.65562L93.4677 12.4123C93.4129 12.4334 93.3484 12.4334 93.2936 12.4123C93.2388 12.3912 93.1977 12.3512 93.1813 12.3034L91.6506 7.57229L81.8373 11.549Z" fill="#F9FAFB"/>
</g>
</g>
</g>
</svg>
