<svg width="156" height="132" viewBox="0 0 156 132" fill="none" xmlns="http://www.w3.org/2000/svg">
<path d="M78.0002 107.973C107.319 107.973 131.086 100.048 131.086 90.2718C131.086 80.4955 107.319 72.5703 78.0002 72.5703C48.6815 72.5703 24.9141 80.4955 24.9141 90.2718C24.9141 100.048 48.6815 107.973 78.0002 107.973Z" fill="#F9FAFB"/>
<path d="M56.0779 50.1543L58.3066 52.7369H46.5374L44.3086 50.1543H56.0779Z" fill="#475367"/>
<path d="M58.3067 52.9199H46.5374C46.4684 52.9199 46.4037 52.8918 46.3634 52.8454L44.1346 50.2628C44.0872 50.2066 44.08 50.1333 44.1159 50.0709C44.1519 50.0098 44.2267 49.9707 44.3086 49.9707H56.0779C56.1469 49.9707 56.2116 49.9988 56.2519 50.0453L58.4806 52.6278C58.5281 52.684 58.5353 52.7574 58.4993 52.8197C58.462 52.8808 58.3886 52.9199 58.3067 52.9199ZM46.6467 52.5533H57.881L55.9686 50.3374H44.7342L46.6467 52.5533Z" fill="#F9FAFB"/>
<path d="M56.0778 50.1523C55.7039 54.4766 54.7434 58.4989 52.5276 61.8759H42.1099H33.2236C34.5738 59.6551 35.7673 55.8393 36.7738 50.1523H44.3085H56.0778ZM52.4959 53.1639C52.7936 53.1639 53.0725 52.9659 53.1185 52.7202C53.1645 52.4758 52.9589 52.2778 52.6613 52.2778H39.1018C38.8042 52.2778 38.5252 52.4758 38.4792 52.7202C38.4332 52.9659 38.6374 53.1639 38.9364 53.1639H52.4959ZM51.012 58.2948C51.3096 58.2948 51.5886 58.0968 51.6346 57.8511C51.6806 57.6067 51.475 57.4087 51.1774 57.4087H37.6179C37.3202 57.4087 37.0413 57.6067 36.9953 57.8511C36.9493 58.0968 37.1534 58.2948 37.4525 58.2948H51.012ZM52.0142 55.7293C52.3119 55.7293 52.5908 55.5313 52.6368 55.2869C52.6828 55.0425 52.4772 54.8445 52.1796 54.8445H38.6201C38.3225 54.8445 38.0435 55.0425 37.9975 55.2869C37.9515 55.5313 38.1571 55.7293 38.4547 55.7293H52.0142Z" fill="#F7F9FC"/>
<path d="M52.5275 62.0602H33.2236C33.1488 62.0602 33.0783 62.0272 33.0395 61.9722C33.0007 61.9172 32.9978 61.85 33.0323 61.7925C34.4012 59.5424 35.5889 55.6166 36.561 50.1252C36.5768 50.036 36.6674 49.9688 36.7738 49.9688H56.0777C56.1381 49.9688 56.1956 49.9895 56.2359 50.0274C56.2761 50.0653 56.2977 50.1154 56.2934 50.1655C55.862 55.1522 54.7261 58.902 52.7159 61.9649C52.677 62.0247 52.6051 62.0602 52.5275 62.0602ZM33.5716 61.6935H52.3995C54.3134 58.7357 55.4105 55.118 55.8448 50.3366H36.9593C36.0217 55.5775 34.8829 59.3945 33.5716 61.6935ZM51.0119 58.4791H37.4525C37.2454 58.4791 37.0542 58.407 36.9276 58.2811C36.8025 58.1564 36.7508 57.9939 36.7824 57.8228C36.8457 57.4879 37.2123 57.2251 37.6178 57.2251H51.1773C51.3844 57.2251 51.577 57.2972 51.7021 57.4231C51.8272 57.5477 51.879 57.7103 51.8474 57.8802C51.7841 58.2163 51.4174 58.4791 51.0119 58.4791ZM37.6178 57.593C37.4251 57.593 37.2368 57.725 37.208 57.8814C37.1965 57.945 37.2123 58.0012 37.2555 58.044C37.3 58.088 37.3705 58.1124 37.4525 58.1124H51.0119C51.2046 58.1124 51.393 57.9804 51.4217 57.8228C51.4333 57.7592 51.4174 57.7042 51.3743 57.6614C51.3297 57.6174 51.2593 57.5917 51.1773 57.5917H37.6178V57.593ZM52.0142 55.9136H38.4547C38.2476 55.9136 38.0549 55.8415 37.9298 55.7156C37.8048 55.591 37.753 55.4284 37.7846 55.2585C37.8479 54.9236 38.2146 54.6609 38.62 54.6609H52.1795C52.3866 54.6609 52.5793 54.733 52.7044 54.8589C52.8295 54.9835 52.8812 55.1461 52.8482 55.316C52.7878 55.6509 52.4211 55.9136 52.0142 55.9136ZM38.6215 55.0275C38.4288 55.0275 38.2404 55.1595 38.2117 55.316C38.2002 55.3795 38.216 55.4345 38.2591 55.4773C38.3037 55.5213 38.3742 55.547 38.4561 55.547H52.0156C52.2083 55.547 52.3967 55.415 52.4254 55.2585C52.4369 55.195 52.4211 55.14 52.378 55.0972C52.3334 55.0532 52.2629 55.0275 52.181 55.0275H38.6215ZM52.4959 53.3482H38.9364C38.7293 53.3482 38.5381 53.2761 38.4115 53.1502C38.2865 53.0255 38.2347 52.863 38.2663 52.6919C38.3296 52.357 38.6963 52.0942 39.1017 52.0942H52.6612C52.8683 52.0942 53.061 52.1663 53.1861 52.2922C53.3112 52.4169 53.3629 52.5794 53.3299 52.7493C53.2695 53.0854 52.9014 53.3482 52.4959 53.3482ZM39.1032 52.4621C38.9105 52.4621 38.7221 52.5941 38.6934 52.7505C38.6819 52.8141 38.6977 52.8703 38.7408 52.9131C38.7854 52.9571 38.8559 52.9815 38.9378 52.9815H52.4973C52.69 52.9815 52.8783 52.8495 52.9071 52.6919C52.9186 52.6283 52.9028 52.5733 52.8597 52.5305C52.8151 52.4865 52.7446 52.4609 52.6627 52.4609H39.1032V52.4621Z" fill="#F9FAFB"/>
<path d="M51.1773 57.4102C51.4749 57.4102 51.6806 57.6082 51.6346 57.8526C51.5885 58.0983 51.3096 58.2963 51.0119 58.2963H37.4525C37.1548 58.2963 36.9492 58.0983 36.9952 57.8526C37.0412 57.6082 37.3202 57.4102 37.6178 57.4102H51.1773Z" fill="#D0D5DD"/>
<path d="M51.012 58.4806H37.4526C37.2455 58.4806 37.0543 58.4085 36.9277 58.2826C36.8026 58.1579 36.7509 57.9953 36.7825 57.8242C36.8458 57.4893 37.2124 57.2266 37.6179 57.2266H51.1774C51.3845 57.2266 51.5771 57.2987 51.7022 57.4246C51.8273 57.5492 51.8791 57.7118 51.8475 57.8817C51.7842 58.2178 51.4175 58.4806 51.012 58.4806ZM37.6179 57.5945C37.4253 57.5945 37.2369 57.7265 37.2081 57.8829C37.1966 57.9465 37.2124 58.0027 37.2556 58.0455C37.3002 58.0895 37.3706 58.1139 37.4526 58.1139H51.012C51.2047 58.1139 51.3931 57.9819 51.4219 57.8242C51.4334 57.7607 51.4175 57.7057 51.3744 57.6629C51.3298 57.6189 51.2594 57.5932 51.1774 57.5932H37.6179V57.5945Z" fill="#D0D5DD"/>
<path d="M81.3817 43.6367L80.2055 49.9055C77.229 49.9055 74.4467 51.8831 73.988 54.3226C73.5307 56.7634 75.5711 58.7397 78.5476 58.7397L77.3714 65.0085H64.8342C64.377 67.4481 61.5932 69.4256 58.6153 69.4256C55.6403 69.4256 53.5984 67.4481 54.0557 65.0085H41.5186L42.1067 61.8772H52.5243C54.7401 58.4989 55.7021 54.4778 56.0745 50.1536H44.3052L45.3204 44.7453C45.4354 44.1329 46.1342 43.6367 46.8791 43.6367H81.3817Z" fill="#D0D5DD"/>
<path d="M58.6169 69.6087C57.0899 69.6087 55.7512 69.1137 54.8482 68.2129C54.0243 67.3928 53.6605 66.3258 53.8115 65.1916H41.5216C41.4584 65.1916 41.398 65.1683 41.3577 65.1268C41.3175 65.0865 41.2988 65.0315 41.3088 64.9789L41.8969 61.8476C41.9142 61.7583 42.0033 61.6936 42.1098 61.6936H52.4009C54.3147 58.7358 55.4118 55.118 55.8461 50.3367H44.3098C44.2465 50.3367 44.1861 50.3135 44.1458 50.2719C44.1056 50.2316 44.0869 50.1766 44.0969 50.124L45.1121 44.7157C45.243 44.019 46.0381 43.4531 46.8836 43.4531H81.3834C81.4466 43.4531 81.507 43.4763 81.5473 43.5179C81.5875 43.5582 81.6062 43.6132 81.5962 43.6658L80.42 49.9346C80.4027 50.0238 80.3135 50.0886 80.2071 50.0886C77.3371 50.0886 74.6439 52.0013 74.2024 54.3517C73.9954 55.459 74.316 56.5028 75.1069 57.2899C75.9265 58.1063 77.1487 58.5561 78.5478 58.5561C78.6111 58.5561 78.6715 58.5793 78.7117 58.6209C78.752 58.6612 78.7707 58.7162 78.7606 58.7688L77.5844 65.0376C77.5671 65.1268 77.478 65.1916 77.3716 65.1916H65.0156C64.4577 67.6421 61.6279 69.6087 58.6169 69.6087ZM41.7747 64.8249H54.0588C54.122 64.8249 54.1824 64.8481 54.2227 64.8897C54.263 64.93 54.2816 64.985 54.2716 65.0376C54.0645 66.1437 54.3852 67.1875 55.1775 67.9758C55.9971 68.7922 57.2193 69.2432 58.6184 69.2432C61.4884 69.2432 64.1831 67.3305 64.6245 64.9801C64.6418 64.8909 64.7309 64.8261 64.8373 64.8261H77.1904L78.299 58.9191C76.8755 58.8678 75.6346 58.3789 74.7819 57.5282C73.9077 56.6568 73.5511 55.5079 73.7797 54.2942C74.2427 51.8241 77.0222 49.805 80.026 49.7243L81.1346 43.8198H46.8822C46.238 43.8198 45.6355 44.2476 45.5363 44.7743L44.5614 49.97H56.0776C56.138 49.97 56.1955 49.9908 56.2358 50.0287C56.276 50.0666 56.2976 50.1167 56.2933 50.1668C55.8619 55.1535 54.726 58.9032 52.7158 61.9661C52.6769 62.0248 52.605 62.0602 52.5274 62.0602H42.2938L41.7747 64.8249Z" fill="#F9FAFB"/>
<path d="M55.5198 86.3811H38.863C38.7092 86.3811 38.5654 86.3603 38.436 86.3212C38.2188 86.2564 38.0391 86.1428 37.9111 85.9961L40.1399 88.5787C40.3441 88.8145 40.682 88.9637 41.0918 88.9637H57.75L55.5198 86.3811Z" fill="#D0D5DD"/>
<path d="M57.7487 89.147H41.0905C40.6275 89.147 40.2177 88.9795 39.9647 88.6874L37.7373 86.1061L37.7359 86.1049C37.6655 86.023 37.687 85.9081 37.7819 85.8482C37.8768 85.7883 38.0134 85.8054 38.0839 85.8873C38.1874 86.0059 38.3326 86.0963 38.5052 86.1476C38.6159 86.1806 38.7353 86.1965 38.8618 86.1965H55.52C55.589 86.1965 55.6537 86.2246 55.6939 86.2711L57.9227 88.8536C57.9702 88.9099 57.9773 88.9832 57.9414 89.0455C57.904 89.1079 57.8307 89.147 57.7487 89.147ZM38.659 86.5534L40.3126 88.4698C40.4823 88.6666 40.767 88.7803 41.0905 88.7803H57.3231L55.4107 86.5644H38.8632C38.7942 86.5644 38.7252 86.5607 38.659 86.5534Z" fill="#F9FAFB"/>
<path d="M119.266 47.1968C119.268 47.1748 119.268 47.154 119.268 47.1333C119.268 47.121 119.266 47.1088 119.265 47.0966C119.264 47.0783 119.262 47.0587 119.259 47.0404C119.258 47.0269 119.255 47.0147 119.252 47.0025C119.249 46.9915 119.249 46.9793 119.246 46.967C119.245 46.9634 119.243 46.9597 119.242 46.956C119.232 46.9145 119.219 46.8754 119.203 46.8363C119.202 46.8338 119.202 46.8326 119.202 46.8302C119.199 46.8228 119.195 46.8167 119.192 46.8094C119.18 46.7862 119.169 46.7617 119.156 46.7397C119.153 46.7348 119.151 46.7299 119.149 46.725C119.144 46.7189 119.14 46.7128 119.136 46.7055C119.124 46.6884 119.113 46.6713 119.101 46.6554C119.097 46.6493 119.092 46.6419 119.088 46.6358C119.08 46.6248 119.071 46.6138 119.062 46.604L116.834 44.0215C116.848 44.0386 116.861 44.0557 116.874 44.0728C116.885 44.0887 116.897 44.1058 116.908 44.1229C116.915 44.1339 116.923 44.1449 116.93 44.1572C116.943 44.1804 116.954 44.2036 116.966 44.2268C116.97 44.2354 116.974 44.2439 116.979 44.2537C116.995 44.2928 117.007 44.3319 117.018 44.3735C117.022 44.3894 117.025 44.404 117.028 44.4199C117.031 44.4322 117.032 44.4456 117.035 44.4578C117.038 44.4762 117.039 44.4957 117.041 44.514C117.042 44.5263 117.043 44.5385 117.043 44.5507C117.043 44.5715 117.043 44.5935 117.042 44.6155C117.042 44.6265 117.042 44.6363 117.041 44.6473C117.038 44.6803 117.033 44.712 117.028 44.7463L115.688 51.8865L117.916 54.469L119.256 47.3288C119.262 47.2958 119.266 47.2628 119.269 47.231C119.266 47.2188 119.266 47.2078 119.266 47.1968Z" fill="#D0D5DD"/>
<path d="M117.913 54.6519C117.846 54.6519 117.781 54.625 117.739 54.5773L115.511 51.9948C115.476 51.9556 115.463 51.9055 115.472 51.8579L116.812 44.7176C116.818 44.6895 116.821 44.6626 116.823 44.6358L116.825 44.6089C116.825 44.5918 116.826 44.5746 116.826 44.5563L116.825 44.5258C116.823 44.5111 116.822 44.4952 116.821 44.4805L116.816 44.4573C116.812 44.4378 116.811 44.4255 116.808 44.4121C116.799 44.3779 116.789 44.3449 116.776 44.3155C116.776 44.3143 116.766 44.296 116.766 44.2948C116.757 44.2752 116.747 44.2569 116.737 44.2385L116.72 44.2116C116.711 44.1994 116.703 44.1848 116.693 44.1725C116.68 44.1542 116.671 44.1432 116.662 44.1322C116.592 44.0503 116.612 43.9354 116.708 43.8755C116.805 43.8156 116.94 43.8328 117.01 43.9146L117.012 43.9159L119.239 46.4972C119.251 46.5106 119.261 46.5229 119.271 46.5363C119.277 46.5424 119.282 46.551 119.287 46.5595C119.301 46.5791 119.315 46.5986 119.328 46.6194C119.334 46.628 119.34 46.6353 119.344 46.6426C119.347 46.6475 119.354 46.6598 119.356 46.6659C119.369 46.6891 119.383 46.7172 119.396 46.7453C119.4 46.7514 119.403 46.76 119.407 46.7673C119.409 46.7722 119.412 46.7771 119.413 46.7832C119.43 46.8248 119.445 46.8688 119.456 46.9152C119.458 46.9201 119.461 46.9274 119.461 46.9311C119.463 46.9445 119.465 46.9555 119.468 46.9665L119.471 46.9824C119.474 46.9959 119.475 47.0081 119.478 47.0215C119.481 47.0448 119.482 47.0668 119.484 47.0888C119.485 47.1071 119.486 47.1193 119.486 47.1315C119.486 47.156 119.486 47.178 119.485 47.2012C119.485 47.2024 119.485 47.2085 119.485 47.2085V47.2171C119.485 47.2256 119.485 47.2354 119.484 47.244C119.481 47.2819 119.475 47.321 119.468 47.3589L118.128 54.4991C118.113 54.5724 118.05 54.6311 117.965 54.6482C117.946 54.6494 117.931 54.6519 117.913 54.6519ZM115.912 51.8383L117.781 54.0053L119.039 47.299C119.045 47.2709 119.048 47.244 119.051 47.2171V47.1914V47.1865C119.051 47.1706 119.052 47.1535 119.052 47.1376L119.051 47.1193C119.051 47.1181 119.049 47.1083 119.049 47.1071C119.048 47.0924 119.048 47.0765 119.045 47.0619L119.036 47.0118C119.036 47.0081 119.034 46.9983 119.031 46.9898C119.023 46.9592 119.012 46.9274 119 46.8981C119 46.8969 118.999 46.8944 118.998 46.892C118.996 46.8883 118.992 46.8834 118.99 46.8773C118.982 46.8578 118.972 46.8394 118.962 46.8211C118.96 46.8186 118.957 46.8125 118.954 46.8089C118.95 46.804 118.946 46.7966 118.944 46.7942C118.936 46.7808 118.927 46.7673 118.917 46.7539C118.916 46.7514 118.907 46.7404 118.906 46.7368C118.9 46.7294 118.893 46.7209 118.885 46.7123L117.232 44.7959L115.912 51.8383Z" fill="#F9FAFB"/>
<path d="M73.363 86.3828L75.5918 88.9654H57.7488L55.52 86.3828H73.363Z" fill="#98A2B3"/>
<path d="M75.5918 89.1484H57.7488C57.6798 89.1484 57.6151 89.1203 57.5748 89.0739L55.3461 86.4913C55.2986 86.4351 55.2914 86.3618 55.3274 86.2994C55.3633 86.2383 55.4381 86.1992 55.52 86.1992H73.3616C73.4306 86.1992 73.4953 86.2273 73.5356 86.2738L75.7644 88.8563C75.8118 88.9126 75.819 88.9859 75.7831 89.0482C75.7471 89.1093 75.6723 89.1484 75.5918 89.1484ZM57.8581 88.7818H75.1648L73.2523 86.5659H55.9457L57.8581 88.7818Z" fill="#F9FAFB"/>
<path d="M77.3734 65.0078L76.1972 71.2766C79.1723 71.2766 81.2141 73.2541 80.7568 75.6937C80.2996 78.1345 77.5158 80.1108 74.5393 80.1108L73.3631 86.3796H55.5201H38.8634C38.1185 86.3796 37.6052 85.8846 37.7202 85.2723L41.522 65.0078H54.0592C53.6019 67.4474 55.6423 69.4249 58.6188 69.4249C61.5953 69.4249 64.379 67.4474 64.8377 65.0078H77.3734Z" fill="#F7F9FC"/>
<path d="M73.3629 86.5646H38.8632C38.4318 86.5646 38.0522 86.4228 37.7948 86.1662C37.5446 85.9168 37.4425 85.5893 37.5072 85.2446L41.3091 64.9802C41.3263 64.8909 41.4155 64.8262 41.5219 64.8262H54.059C54.1223 64.8262 54.1827 64.8494 54.2229 64.8909C54.2632 64.9313 54.2819 64.9863 54.2718 65.0388C54.0648 66.1449 54.3854 67.1887 55.1777 67.9771C55.9973 68.7935 57.2195 69.2445 58.6186 69.2445C61.4887 69.2445 64.1833 67.3317 64.6248 64.9814C64.642 64.8922 64.7312 64.8274 64.8376 64.8274H77.3747C77.438 64.8274 77.4984 64.8506 77.5386 64.8922C77.5789 64.9325 77.5976 64.9875 77.5875 65.0401L76.4501 71.1011C77.8722 71.1524 79.1146 71.6425 79.9672 72.4919C80.8415 73.3634 81.1981 74.5123 80.9695 75.7259C80.5065 78.1961 77.727 80.2152 74.7232 80.2958L73.5757 86.4131C73.5585 86.4986 73.4679 86.5646 73.3629 86.5646ZM41.7059 65.1916L37.9329 85.3021C37.8883 85.5392 37.9559 85.7616 38.1227 85.9278C38.2967 86.1014 38.5598 86.1979 38.8632 86.1979H73.1789L74.3263 80.0832C74.3436 79.9939 74.4327 79.9292 74.5391 79.9292C77.4092 79.9292 80.1024 78.0164 80.5438 75.6661C80.7509 74.5599 80.4303 73.5162 79.6394 72.7278C78.8198 71.9114 77.5976 71.4616 76.1985 71.4616C76.1352 71.4616 76.0748 71.4384 76.0346 71.3968C75.9943 71.3565 75.9756 71.3015 75.9857 71.2489L77.1216 65.1928H65.0187C64.4594 67.6422 61.6296 69.6099 58.6201 69.6099C57.093 69.6099 55.7543 69.1149 54.8513 68.2142C54.0274 67.3941 53.6636 66.3271 53.8146 65.1928H41.7059V65.1916Z" fill="#F9FAFB"/>
<path d="M112.145 70.7539L114.373 73.3365H96.0012L93.7739 70.7539H112.145Z" fill="#98A2B3"/>
<path d="M114.373 73.5195H96.0012C95.9322 73.5195 95.8675 73.4914 95.8273 73.445L93.5985 70.8624C93.5511 70.8062 93.5439 70.7329 93.5798 70.6705C93.6158 70.6094 93.6905 70.5703 93.7725 70.5703H112.143C112.212 70.5703 112.277 70.5984 112.317 70.6449L114.546 73.2274C114.593 73.2836 114.601 73.357 114.565 73.4193C114.529 73.4804 114.454 73.5195 114.373 73.5195ZM96.1105 73.1529H113.948L112.035 70.937H94.1995L96.1105 73.1529Z" fill="#F9FAFB"/>
<path d="M122.75 51.8848L124.979 54.4673L123.702 61.2727L121.474 58.6889L122.75 51.8848Z" fill="#E4E7EC"/>
<path d="M123.701 61.4566C123.633 61.4566 123.569 61.4298 123.527 61.3821L121.298 58.7995C121.264 58.7604 121.251 58.7103 121.259 58.6626L122.536 51.8573C122.551 51.784 122.614 51.7253 122.699 51.7082C122.784 51.6911 122.873 51.718 122.923 51.7779L125.152 54.3604C125.186 54.3995 125.199 54.4496 125.191 54.4973L123.914 61.3026C123.899 61.376 123.836 61.4346 123.751 61.4518C123.736 61.4542 123.718 61.4566 123.701 61.4566ZM121.701 58.6431L123.57 60.8101L124.751 54.5144L122.881 52.3474L121.701 58.6431Z" fill="#F9FAFB"/>
<path d="M115.685 51.8848H122.75L121.474 58.6901H114.408H110.213L111.49 51.8848H115.685ZM120.014 56.5353C120.312 56.5353 120.591 56.3373 120.637 56.0917C120.683 55.8472 120.477 55.6492 120.18 55.6492H112.62C112.323 55.6492 112.044 55.8472 111.998 56.0917C111.952 56.3373 112.156 56.5353 112.455 56.5353H120.014ZM120.405 54.4514C120.703 54.4514 120.982 54.2534 121.028 54.009C121.074 53.7633 120.87 53.5653 120.571 53.5653H113.013C112.715 53.5653 112.436 53.7633 112.39 54.009C112.344 54.2534 112.55 54.4514 112.848 54.4514H120.405Z" fill="#F7F9FC"/>
<path d="M121.474 58.8732H110.214C110.15 58.8732 110.09 58.85 110.05 58.8084C110.009 58.7681 109.991 58.7131 110.001 58.6605L111.278 51.8552C111.295 51.7659 111.384 51.7012 111.49 51.7012H122.751C122.814 51.7012 122.874 51.7244 122.915 51.7659C122.955 51.8063 122.974 51.8613 122.963 51.9138L121.687 58.7192C121.669 58.8084 121.579 58.8732 121.474 58.8732ZM110.467 58.5065H121.29L122.498 52.0678H111.674L110.467 58.5065ZM120.014 56.7196H112.455C112.248 56.7196 112.057 56.6475 111.93 56.5216C111.805 56.397 111.754 56.2344 111.785 56.0633C111.848 55.7284 112.215 55.4656 112.621 55.4656H120.18C120.387 55.4656 120.579 55.5377 120.705 55.6636C120.83 55.7883 120.881 55.9508 120.85 56.1207C120.788 56.4568 120.42 56.7196 120.014 56.7196ZM112.622 55.8335C112.429 55.8335 112.241 55.9655 112.212 56.1219C112.201 56.1855 112.217 56.2417 112.26 56.2845C112.304 56.3285 112.375 56.353 112.457 56.353H120.016C120.208 56.353 120.397 56.221 120.426 56.0633C120.437 55.9997 120.421 55.9447 120.378 55.9019C120.334 55.858 120.263 55.8323 120.181 55.8323H112.622V55.8335ZM120.405 54.6357H112.846C112.639 54.6357 112.447 54.5636 112.322 54.4377C112.196 54.3131 112.145 54.1505 112.178 53.9806C112.241 53.6457 112.608 53.3829 113.013 53.3829H120.572C120.779 53.3829 120.971 53.4551 121.097 53.581C121.222 53.7056 121.274 53.8682 121.242 54.0393C121.179 54.373 120.811 54.6357 120.405 54.6357ZM113.013 53.7496C112.82 53.7496 112.632 53.8816 112.603 54.0393C112.592 54.1028 112.608 54.1578 112.651 54.2006C112.695 54.2446 112.766 54.2703 112.848 54.2703H120.407C120.6 54.2703 120.788 54.1383 120.817 53.9818C120.828 53.9183 120.812 53.8621 120.769 53.8193C120.725 53.7753 120.654 53.7508 120.572 53.7508H113.013V53.7496Z" fill="#F9FAFB"/>
<path d="M115.882 43.6367C116.628 43.6367 117.14 44.1329 117.025 44.7453L115.685 51.8855H111.49L110.214 58.6908H114.408L113.222 65.0097H101.452C101.91 62.5689 99.8693 60.5926 96.8928 60.5926C93.9178 60.5926 91.134 62.5689 90.6753 65.0097H77.3732L78.5494 58.7409C75.573 58.7409 73.5326 56.7634 73.9898 54.3238C74.4471 51.8843 77.2294 49.9067 80.2073 49.9067L81.3835 43.6379H115.882V43.6367Z" fill="#D0D5DD"/>
<path d="M113.223 65.1928H101.452C101.389 65.1928 101.329 65.1696 101.289 65.128C101.248 65.0877 101.23 65.0327 101.24 64.9801C101.447 63.8728 101.126 62.8302 100.335 62.0419C99.5156 61.2255 98.2933 60.7757 96.8928 60.7757C94.0228 60.7757 91.3296 62.6885 90.8881 65.0388C90.8709 65.128 90.7817 65.1928 90.6753 65.1928H77.3732C77.3099 65.1928 77.2495 65.1696 77.2093 65.128C77.169 65.0877 77.1503 65.0327 77.1604 64.9801L78.2978 58.9191C76.8743 58.8678 75.6333 58.3789 74.7807 57.5282C73.9064 56.6568 73.5498 55.5079 73.7784 54.2942C74.2414 51.8241 77.0209 49.805 80.0247 49.7243L81.1722 43.6071C81.1894 43.5179 81.2786 43.4531 81.385 43.4531H115.883C116.315 43.4531 116.693 43.5949 116.952 43.8516C117.202 44.1009 117.305 44.4297 117.239 44.7743L115.899 51.9146C115.882 52.0038 115.793 52.0686 115.686 52.0686H111.676L110.468 58.5072H114.409C114.473 58.5072 114.533 58.5305 114.573 58.572C114.614 58.6124 114.632 58.6674 114.622 58.7199L113.436 65.0388C113.419 65.128 113.328 65.1928 113.223 65.1928ZM101.7 64.8261H113.039L114.156 58.8739H110.215C110.152 58.8739 110.091 58.8507 110.051 58.8091C110.011 58.7688 109.992 58.7138 110.002 58.6612L111.279 51.8559C111.296 51.7667 111.385 51.7019 111.492 51.7019H115.502L116.812 44.7157C116.857 44.4786 116.789 44.2549 116.622 44.0887C116.448 43.9151 116.185 43.8198 115.883 43.8198H81.5661L80.4187 49.9346C80.4014 50.0238 80.3123 50.0886 80.2059 50.0886C77.3358 50.0886 74.6426 52.0014 74.2012 54.3517C73.9941 55.459 74.3148 56.5028 75.1056 57.2899C75.9252 58.1064 77.1475 58.5561 78.5465 58.5561C78.6098 58.5561 78.6702 58.5794 78.7105 58.6209C78.7507 58.6612 78.7694 58.7162 78.7594 58.7688L77.6234 64.8249H90.4927C91.052 62.3756 93.8818 60.4078 96.8914 60.4078C98.4199 60.4078 99.7586 60.9028 100.662 61.8036C101.485 62.6249 101.849 63.6907 101.7 64.8261Z" fill="#F9FAFB"/>
<path d="M114.408 58.6895L116.637 61.2732L115.45 67.5909L113.222 65.0083L114.408 58.6895Z" fill="#D0D5DD"/>
<path d="M115.451 67.7749C115.383 67.7749 115.318 67.748 115.277 67.7003L113.048 65.1178C113.013 65.0787 113 65.0286 113.009 64.9809L114.195 58.662C114.21 58.5887 114.273 58.53 114.358 58.5129C114.443 58.4958 114.532 58.5227 114.582 58.5826L116.811 61.1651C116.845 61.2042 116.858 61.2543 116.85 61.302L115.663 67.6209C115.649 67.6942 115.586 67.7529 115.501 67.77C115.485 67.7737 115.468 67.7749 115.451 67.7749ZM113.45 64.9626L115.32 67.1296L116.41 61.3203L114.54 59.1533L113.45 64.9626Z" fill="#F9FAFB"/>
<path d="M113.222 65.0078L115.45 67.5904L114.373 73.3348L112.145 70.7523L113.222 65.0078Z" fill="#D0D5DD"/>
<path d="M114.373 73.5188C114.306 73.5188 114.241 73.4919 114.199 73.4442L111.971 70.8617C111.936 70.8226 111.923 70.7725 111.932 70.7248L113.01 64.9804C113.025 64.907 113.088 64.8484 113.173 64.8312C113.258 64.8141 113.347 64.841 113.397 64.9009L115.626 67.4835C115.66 67.5226 115.673 67.5727 115.665 67.6204L114.586 73.3648C114.572 73.4381 114.509 73.4968 114.424 73.5139C114.406 73.5176 114.391 73.5188 114.373 73.5188ZM112.372 70.7065L114.241 72.8735L115.223 67.6387L113.354 65.4717L112.372 70.7065Z" fill="#F9FAFB"/>
<path d="M91.2029 86.3828L93.4317 88.9654H75.5916L73.3628 86.3828H91.2029Z" fill="#98A2B3"/>
<path d="M93.4317 89.1484H75.5916C75.5226 89.1484 75.4578 89.1203 75.4176 89.0739L73.1888 86.4913C73.1414 86.4351 73.1342 86.3618 73.1701 86.2994C73.2061 86.2383 73.2809 86.1992 73.3628 86.1992H91.2044C91.2734 86.1992 91.3381 86.2273 91.3784 86.2738L93.6071 88.8563C93.6546 88.9126 93.6618 88.9859 93.6258 89.0482C93.5884 89.1093 93.5137 89.1484 93.4317 89.1484ZM75.7009 88.7818H93.0075L91.0951 86.5659H73.7884L75.7009 88.7818Z" fill="#F9FAFB"/>
<path d="M91.2027 86.3828L93.4315 88.9654L92.3416 94.7758L90.1128 92.1933L91.2027 86.3828Z" fill="#D0D5DD"/>
<path d="M92.3416 94.9591C92.274 94.9591 92.2093 94.9322 92.1676 94.8845L89.9389 92.302C89.9044 92.2629 89.8914 92.2127 89.9 92.1651L90.99 86.3534C91.0044 86.2801 91.0676 86.2214 91.1525 86.2043C91.2373 86.1872 91.325 86.2141 91.3768 86.274L93.6055 88.8565C93.6401 88.8956 93.653 88.9457 93.6444 88.9934L92.5544 94.8051C92.54 94.8784 92.4768 94.9371 92.3919 94.9542C92.3747 94.9579 92.3589 94.9591 92.3416 94.9591ZM90.34 92.1467L92.2093 94.3137L93.2044 89.0117L91.3351 86.8447L90.34 92.1467Z" fill="#F9FAFB"/>
<path d="M90.1128 92.1934L92.3416 94.7759H56.6584L54.4297 92.1934H90.1128Z" fill="#D0D5DD"/>
<path d="M92.3416 94.959H56.6585C56.5895 94.959 56.5247 94.9309 56.4845 94.8844L54.2557 92.3019C54.2083 92.2457 54.2011 92.1723 54.237 92.11C54.273 92.0489 54.3478 92.0098 54.4297 92.0098H90.1129C90.1819 92.0098 90.2466 92.0379 90.2868 92.0843L92.5156 94.6669C92.5631 94.7231 92.5702 94.7964 92.5343 94.8588C92.4969 94.9211 92.4221 94.959 92.3416 94.959ZM56.7678 94.5923H91.916L90.0036 92.3764H54.8553L56.7678 94.5923Z" fill="#F9FAFB"/>
<path d="M91.2033 86.3809L90.1133 92.1913H54.4302L55.5201 86.3809H73.3631H91.2033Z" fill="#98A2B3"/>
<path d="M90.1131 92.3756H54.43C54.3667 92.3756 54.3063 92.3524 54.266 92.3108C54.2243 92.2705 54.2071 92.2155 54.2172 92.1629L55.3071 86.3513C55.3243 86.262 55.4135 86.1973 55.5199 86.1973H91.203C91.2663 86.1973 91.3267 86.2205 91.367 86.262C91.4072 86.3024 91.4259 86.3574 91.4158 86.4099L90.3259 92.2216C90.3101 92.3108 90.2195 92.3756 90.1131 92.3756ZM54.683 92.0089H89.9291L90.95 86.5639H55.704L54.683 92.0089Z" fill="#F9FAFB"/>
<path d="M114.581 83.2736C114.668 83.0927 114.753 82.9118 114.834 82.7285C114.837 82.7224 114.839 82.7163 114.841 82.7102C114.92 82.5305 114.996 82.3484 115.071 82.1663C115.085 82.1308 115.1 82.0954 115.114 82.06C115.186 81.8791 115.256 81.6969 115.324 81.5136C115.337 81.4782 115.35 81.4427 115.363 81.4061C115.428 81.2252 115.492 81.0431 115.553 80.8585C115.555 80.8475 115.56 80.8377 115.564 80.8267C115.626 80.6361 115.685 80.4442 115.742 80.2523C115.754 80.2132 115.765 80.1741 115.777 80.135C115.832 79.9467 115.885 79.7561 115.935 79.5654C115.944 79.5324 115.952 79.5006 115.96 79.4676C116.007 79.2867 116.052 79.1034 116.093 78.9213C116.099 78.8981 116.105 78.8748 116.109 78.8516C116.154 78.6573 116.195 78.4605 116.236 78.2637C116.244 78.2222 116.253 78.1806 116.262 78.1378C116.3 77.9411 116.338 77.7443 116.372 77.5463C116.377 77.5194 116.381 77.4925 116.385 77.4656C116.417 77.2786 116.447 77.0916 116.476 76.9034C116.48 76.8716 116.486 76.8411 116.49 76.8093C116.519 76.6101 116.546 76.4096 116.572 76.208C116.578 76.1652 116.582 76.1224 116.588 76.0808C116.612 75.8767 116.635 75.6726 116.657 75.4673C116.658 75.4502 116.66 75.4331 116.661 75.4159C116.681 75.2192 116.699 75.0224 116.714 74.8244C116.717 74.7865 116.72 74.7486 116.723 74.7107C116.739 74.5066 116.753 74.3025 116.766 74.0972C116.769 74.0556 116.771 74.0141 116.773 73.9725C116.785 73.7598 116.796 73.5484 116.805 73.3345L114.576 70.752C114.568 70.9658 114.556 71.1785 114.545 71.3899C114.542 71.4315 114.54 71.4731 114.537 71.5146C114.525 71.72 114.512 71.9253 114.494 72.1282C114.491 72.1661 114.489 72.204 114.486 72.2418C114.47 72.4398 114.453 72.6366 114.432 72.8334C114.431 72.8505 114.43 72.8676 114.428 72.8847C114.407 73.0901 114.384 73.2954 114.359 73.4995C114.353 73.5423 114.349 73.5838 114.343 73.6266C114.317 73.8283 114.292 74.0287 114.261 74.228C114.257 74.2597 114.251 74.2915 114.247 74.3221C114.218 74.5103 114.188 74.6973 114.156 74.8843C114.152 74.9112 114.148 74.9381 114.143 74.9649C114.109 75.1629 114.072 75.3597 114.033 75.5565C114.024 75.5981 114.015 75.6396 114.007 75.6812C113.967 75.878 113.925 76.0747 113.88 76.2691C113.875 76.2923 113.869 76.3143 113.865 76.3363C113.821 76.5196 113.777 76.703 113.731 76.8838C113.722 76.9168 113.715 76.9486 113.706 76.9816C113.656 77.1723 113.604 77.3617 113.548 77.5512C113.537 77.5903 113.525 77.6294 113.514 77.6697C113.456 77.8616 113.397 78.0535 113.335 78.2442C113.332 78.2552 113.328 78.265 113.324 78.276C113.263 78.4593 113.2 78.6414 113.134 78.8235C113.121 78.8589 113.108 78.8944 113.095 78.9298C113.028 79.1132 112.959 79.2953 112.885 79.4762C112.871 79.5116 112.857 79.5471 112.842 79.5825C112.767 79.7646 112.691 79.9455 112.612 80.1264C112.609 80.1325 112.606 80.1386 112.605 80.1447C112.523 80.3281 112.438 80.509 112.352 80.6898C112.335 80.7265 112.317 80.7632 112.299 80.7986C112.212 80.9746 112.123 81.1494 112.031 81.3217C112.012 81.3572 111.994 81.3914 111.975 81.4268C111.908 81.5527 111.838 81.6774 111.768 81.8008C111.746 81.8387 111.725 81.8778 111.702 81.9157C111.614 82.0673 111.524 82.2176 111.432 82.3679C111.416 82.3924 111.4 82.4181 111.384 82.4425C111.304 82.5708 111.222 82.698 111.138 82.8238C111.111 82.8642 111.085 82.9045 111.058 82.9448C110.958 83.0927 110.856 83.2394 110.751 83.3861C110.751 83.3861 110.751 83.3873 110.75 83.3873L112.979 85.9698C113.084 85.8232 113.186 85.6765 113.286 85.5274C113.314 85.4871 113.34 85.4479 113.367 85.4076C113.45 85.2805 113.534 85.1534 113.613 85.0263C113.629 85.0018 113.645 84.9774 113.66 84.9517C113.754 84.8026 113.843 84.6511 113.931 84.4995C113.952 84.4616 113.974 84.4225 113.997 84.3846C114.067 84.2612 114.136 84.1365 114.204 84.0106C114.217 83.9862 114.231 83.963 114.244 83.9385C114.25 83.9275 114.256 83.9165 114.261 83.9055C114.353 83.732 114.443 83.5572 114.529 83.3824C114.545 83.3457 114.562 83.3091 114.581 83.2736Z" fill="#D0D5DD"/>
<path d="M112.977 86.1526C112.908 86.1526 112.844 86.1245 112.803 86.078L110.575 83.4955C110.523 83.4356 110.519 83.3549 110.565 83.2914C110.67 83.1459 110.769 83.0005 110.868 82.8538L110.948 82.734C111.032 82.6094 111.112 82.4835 111.191 82.3564L111.239 82.2818C111.331 82.1339 111.42 81.9848 111.506 81.8345L111.571 81.7208C111.642 81.5974 111.711 81.4739 111.777 81.3505L111.833 81.2466C111.92 81.0804 112.01 80.9056 112.097 80.7284L112.148 80.6245C112.244 80.424 112.327 80.248 112.401 80.0794L112.409 80.061C112.488 79.8838 112.563 79.7042 112.637 79.5233L112.68 79.4182C112.752 79.2385 112.821 79.0576 112.888 78.8755L112.926 78.7704C112.99 78.5907 113.054 78.4098 113.114 78.2277L113.124 78.1959C113.186 78.0065 113.245 77.817 113.301 77.6264L113.335 77.509C113.39 77.322 113.442 77.1338 113.492 76.9444L113.517 76.8478C113.563 76.6669 113.607 76.486 113.65 76.3027L113.666 76.2355C113.711 76.0424 113.752 75.8468 113.793 75.6513L113.817 75.5266C113.856 75.331 113.893 75.1355 113.928 74.9387L113.941 74.858C113.972 74.6723 114.003 74.4865 114.03 74.2995L114.044 74.2054C114.073 74.0074 114.1 73.8069 114.126 73.6077L114.142 73.4806C114.167 73.2777 114.19 73.0736 114.211 72.8695L114.215 72.8169C114.234 72.6226 114.253 72.4258 114.269 72.229L114.277 72.1166C114.293 71.9137 114.307 71.7096 114.319 71.5055L114.326 71.3833C114.338 71.1694 114.349 70.9579 114.358 70.7453C114.361 70.6671 114.422 70.5998 114.51 70.5766C114.598 70.5534 114.693 70.5803 114.747 70.6438L116.976 73.2264C117.005 73.2594 117.019 73.2997 117.018 73.3413C117.009 73.5552 116.998 73.769 116.986 73.9817L116.979 74.1076C116.966 74.3142 116.952 74.5195 116.936 74.7248L116.926 74.8385C116.91 75.0377 116.891 75.2357 116.873 75.4325L116.868 75.485C116.848 75.6904 116.824 75.8957 116.799 76.1011L116.784 76.2294C116.758 76.431 116.73 76.6327 116.702 76.8332L116.687 76.9273C116.658 77.1167 116.628 77.3049 116.597 77.4932L116.582 77.5751C116.548 77.7731 116.51 77.971 116.471 78.169L116.446 78.2949C116.405 78.4929 116.364 78.6909 116.318 78.8865L116.3 78.9574C116.257 79.1407 116.213 79.324 116.165 79.5074L116.141 79.6064C116.09 79.7983 116.037 79.9889 115.983 80.1796L115.95 80.292C115.891 80.4925 115.83 80.6856 115.768 80.8775L115.757 80.9093C115.696 81.0938 115.632 81.2784 115.566 81.4605L115.527 81.568C115.459 81.7526 115.389 81.9359 115.315 82.1193L115.272 82.2268C115.197 82.4102 115.121 82.5935 115.041 82.7744L115.032 82.7927C114.959 82.9589 114.875 83.1386 114.776 83.3427L114.576 83.273L114.773 83.3464L114.722 83.4527C114.632 83.6348 114.542 83.8133 114.451 83.9807L114.394 84.0858C114.325 84.2129 114.256 84.3388 114.184 84.4635L114.118 84.5796C114.028 84.7336 113.938 84.8852 113.843 85.0367L113.796 85.1113C113.715 85.2408 113.632 85.3692 113.547 85.4963L113.466 85.6173C113.366 85.7676 113.262 85.9167 113.156 86.0634C113.118 86.1159 113.052 86.1477 112.98 86.1514C112.985 86.1526 112.982 86.1526 112.977 86.1526ZM111.009 83.3769L112.96 85.638C113.006 85.5708 113.052 85.5036 113.098 85.4352L113.177 85.3166C113.261 85.1907 113.343 85.0648 113.422 84.9389L113.468 84.8656C113.56 84.7165 113.649 84.5674 113.737 84.417L113.801 84.3034C113.872 84.1812 113.939 84.0577 114.007 83.933L114.063 83.8292C114.151 83.6642 114.24 83.4894 114.328 83.3097L114.378 83.2058L114.381 83.2009C114.477 83.0005 114.561 82.8233 114.632 82.6607L114.842 82.7072L114.641 82.6424C114.72 82.4639 114.795 82.2843 114.868 82.1034L114.911 81.9983C114.983 81.8186 115.052 81.6377 115.12 81.4556L115.157 81.3493C115.222 81.1684 115.285 80.9887 115.346 80.8066L115.356 80.7748C115.417 80.5854 115.476 80.3959 115.533 80.204L115.567 80.0879C115.622 79.8997 115.673 79.7115 115.724 79.5233L115.748 79.4267C115.794 79.2458 115.839 79.0649 115.882 78.8828L115.898 78.8144C115.942 78.6213 115.984 78.4269 116.024 78.2314L116.049 78.1067C116.088 77.9124 116.125 77.7168 116.158 77.52L116.171 77.4394C116.203 77.2536 116.233 77.0678 116.26 76.8808L116.274 76.7867C116.303 76.5887 116.331 76.3895 116.355 76.189L116.369 76.068C116.395 75.859 116.418 75.6562 116.438 75.4521L116.443 75.4007C116.463 75.2052 116.48 75.0084 116.496 74.8116L116.505 74.6992C116.52 74.4963 116.535 74.2922 116.546 74.088L116.553 73.9634C116.565 73.7727 116.575 73.582 116.582 73.3914L114.762 71.2818C114.759 71.3209 114.757 71.36 114.755 71.3979L114.747 71.5238C114.734 71.7304 114.72 71.9357 114.704 72.141L114.694 72.2547C114.678 72.4539 114.66 72.6519 114.641 72.8487L114.637 72.9001C114.615 73.1066 114.592 73.3132 114.568 73.5173L114.552 73.6456C114.526 73.8473 114.499 74.0489 114.47 74.2494L114.456 74.3447C114.427 74.5342 114.397 74.7224 114.365 74.9094L114.352 74.99C114.317 75.1893 114.28 75.3873 114.24 75.5853L114.214 75.7112C114.174 75.9092 114.132 76.1059 114.086 76.3027L114.07 76.3712C114.027 76.5557 113.982 76.739 113.935 76.9224L113.911 77.0202C113.86 77.212 113.807 77.4039 113.752 77.5934L113.719 77.707C113.66 77.9063 113.601 78.0994 113.538 78.2913L113.527 78.323C113.466 78.5076 113.402 78.6922 113.335 78.8743L113.297 78.9818C113.229 79.1664 113.159 79.3509 113.085 79.533L113.042 79.6406C112.967 79.8239 112.891 80.0073 112.811 80.1882L112.805 80.2016C112.727 80.3776 112.642 80.5573 112.546 80.7565L112.493 80.8665C112.404 81.0474 112.313 81.2246 112.224 81.3945L112.166 81.4996C112.097 81.6267 112.028 81.7526 111.956 81.8773L111.89 81.9934C111.801 82.1462 111.711 82.2989 111.617 82.4505L111.57 82.525C111.489 82.6546 111.406 82.7829 111.321 82.91L111.239 83.0323C111.167 83.1508 111.088 83.2645 111.009 83.3769Z" fill="#F9FAFB"/>
<path d="M114.576 70.7539C114.389 75.4032 113.379 79.7348 110.748 83.388H109.773H89.9473C92.0754 80.5635 93.6111 76.2918 93.7735 70.7539H112.144H114.576ZM111.814 73.7948C112.153 73.7948 112.471 73.5687 112.524 73.29C112.576 73.0114 112.343 72.7852 112.003 72.7852H95.7722C95.4314 72.7852 95.1151 73.0114 95.0619 73.29C95.0101 73.5687 95.2416 73.7948 95.5824 73.7948H111.814ZM111.266 76.7135C111.605 76.7135 111.923 76.4886 111.976 76.2099C112.028 75.9312 111.795 75.7051 111.455 75.7051H95.7348C95.3941 75.7051 95.0777 75.93 95.0245 76.2099C94.9728 76.4886 95.2043 76.7135 95.545 76.7135H111.266ZM109.602 79.6333C109.943 79.6333 110.259 79.4085 110.312 79.1286C110.364 78.8499 110.133 78.625 109.792 78.625H94.8836C94.5428 78.625 94.2265 78.8499 94.1733 79.1286C94.1215 79.4072 94.353 79.6333 94.6938 79.6333H109.602Z" fill="#D0D5DD"/>
<path d="M110.75 83.5711H89.9474C89.8683 83.5711 89.7965 83.5344 89.7576 83.4758C89.7202 83.4171 89.7231 83.345 89.7648 83.2888C92.0626 80.2393 93.4099 75.7855 93.5566 70.7488C93.5595 70.6498 93.6558 70.5703 93.7723 70.5703H114.576C114.635 70.5703 114.691 70.5911 114.731 70.6265C114.771 70.662 114.793 70.7109 114.792 70.7598C114.58 76.0104 113.318 80.1721 110.932 83.4831C110.893 83.5381 110.824 83.5711 110.75 83.5711ZM90.3357 83.2044H110.627C112.904 80.0034 114.123 75.9872 114.353 70.937H93.9836C93.8125 75.8136 92.5227 80.1476 90.3357 83.2044ZM109.602 79.8164H94.6954C94.4668 79.8164 94.2568 79.7382 94.1188 79.6001C93.9822 79.4644 93.9261 79.286 93.9606 79.099C94.0297 78.7299 94.4351 78.4414 94.8838 78.4414H109.792C110.021 78.4414 110.231 78.5209 110.369 78.6578C110.505 78.7934 110.561 78.9706 110.525 79.1576C110.456 79.528 110.051 79.8164 109.602 79.8164ZM94.8838 78.8093C94.6494 78.8093 94.4222 78.9694 94.3863 79.1589C94.3719 79.2383 94.392 79.3104 94.4466 79.3642C94.5027 79.4204 94.5919 79.4522 94.694 79.4522H109.602C109.837 79.4522 110.064 79.2921 110.1 79.1026C110.114 79.0244 110.094 78.9523 110.039 78.8985C109.983 78.8423 109.894 78.8105 109.791 78.8105H94.8838V78.8093ZM111.266 76.8965H95.5452C95.3166 76.8965 95.1066 76.8171 94.9686 76.6802C94.832 76.5445 94.7759 76.3673 94.8104 76.1803C94.8795 75.8112 95.2849 75.5215 95.7336 75.5215H111.454C111.681 75.5215 111.891 75.601 112.029 75.7379C112.166 75.8735 112.222 76.052 112.188 76.2378C112.119 76.6081 111.714 76.8965 111.266 76.8965ZM95.735 75.8894C95.5006 75.8894 95.2734 76.0495 95.2375 76.239C95.2231 76.3172 95.2432 76.3893 95.2979 76.4431C95.354 76.4993 95.4431 76.5311 95.5466 76.5311H111.267C111.502 76.5311 111.729 76.371 111.765 76.1815C111.779 76.1033 111.759 76.03 111.704 75.9774C111.648 75.9212 111.559 75.8894 111.457 75.8894H95.735ZM111.814 73.9779H95.5826C95.3554 73.9779 95.1455 73.8996 95.0074 73.7615C94.8708 73.6259 94.8147 73.4474 94.8493 73.2616C94.9183 72.8925 95.3238 72.6029 95.7724 72.6029H112.004C112.231 72.6029 112.441 72.6823 112.579 72.8192C112.715 72.9561 112.771 73.1333 112.737 73.3191C112.666 73.6882 112.262 73.9779 111.814 73.9779ZM95.7724 72.9683C95.538 72.9683 95.3108 73.1284 95.2749 73.3179C95.2605 73.3961 95.2821 73.4694 95.3353 73.522C95.3914 73.5782 95.4805 73.61 95.5826 73.61H111.814C112.048 73.61 112.275 73.4499 112.311 73.2604C112.326 73.1822 112.304 73.1089 112.251 73.0563C112.193 73.0001 112.106 72.9683 112.004 72.9683H95.7724Z" fill="#F9FAFB"/>
<path d="M107.861 86.3828L110.09 88.9654H93.4319L91.2031 86.3828H107.861Z" fill="#D0D5DD"/>
<path d="M110.09 89.1484H93.4319C93.3629 89.1484 93.2982 89.1203 93.2579 89.0739L91.0292 86.4913C90.9817 86.4351 90.9745 86.3618 91.0105 86.2994C91.0464 86.2383 91.1212 86.1992 91.2032 86.1992H107.861C107.93 86.1992 107.995 86.2273 108.035 86.2738L110.264 88.8563C110.312 88.9126 110.319 88.9859 110.283 89.0482C110.245 89.1093 110.171 89.1484 110.09 89.1484ZM93.5412 88.7818H109.664L107.752 86.5659H91.6288L93.5412 88.7818Z" fill="#F9FAFB"/>
<path d="M96.8927 60.5918C99.8692 60.5918 101.91 62.5681 101.452 65.0089H113.223L112.145 70.7534H93.7739C93.6114 76.2912 92.0757 80.5629 89.9476 83.3875H109.775L109.421 85.2734C109.306 85.8857 108.609 86.3807 107.863 86.3807H91.2029H73.3628L74.539 80.1119C77.514 80.1119 80.2978 78.1356 80.7565 75.6948C81.2138 73.254 79.1734 71.2777 76.1969 71.2777L77.3731 65.0089H90.6752C91.1325 62.5681 93.9177 60.5918 96.8927 60.5918Z" fill="#E4E7EC"/>
<path d="M107.861 86.5657H73.363C73.2997 86.5657 73.2393 86.5425 73.199 86.5009C73.1588 86.4606 73.1401 86.4056 73.1501 86.353L74.3264 80.0843C74.3436 79.995 74.4328 79.9303 74.5392 79.9303C77.4092 79.9303 80.1024 78.0175 80.5439 75.6672C80.7509 74.561 80.4303 73.5173 79.6394 72.7289C78.8198 71.9125 77.5976 71.4627 76.1985 71.4627C76.1352 71.4627 76.0749 71.4395 76.0346 71.3979C75.9943 71.3576 75.9756 71.3026 75.9857 71.25L77.1619 64.9813C77.1792 64.892 77.2683 64.8273 77.3747 64.8273H90.4971C91.0564 62.3779 93.8862 60.4102 96.8958 60.4102C98.4243 60.4102 99.763 60.9052 100.666 61.8059C101.49 62.626 101.854 63.693 101.703 64.8285H113.226C113.289 64.8285 113.35 64.8517 113.39 64.8933C113.43 64.9336 113.449 64.9886 113.439 65.0412L112.36 70.7856C112.343 70.8748 112.254 70.9396 112.148 70.9396H93.9869C93.8158 75.8163 92.526 80.1503 90.3389 83.207H109.777C109.84 83.207 109.9 83.2303 109.94 83.2718C109.981 83.3122 109.999 83.3672 109.989 83.4197L109.636 85.3056C109.502 85.9986 108.708 86.5657 107.861 86.5657ZM73.6146 86.199H107.861C108.505 86.199 109.108 85.7713 109.207 85.2457L109.521 83.5713H89.9478C89.8687 83.5713 89.7968 83.5346 89.758 83.4759C89.7206 83.4173 89.7235 83.3452 89.7652 83.2889C92.063 80.2395 93.4103 75.7857 93.5569 70.7489C93.5598 70.6499 93.6562 70.5705 93.7726 70.5705H111.959L112.969 65.1927H101.451C101.388 65.1927 101.327 65.1695 101.287 65.1279C101.247 65.0876 101.228 65.0326 101.238 64.98C101.445 63.8727 101.125 62.8302 100.334 62.0418C99.5142 61.2254 98.292 60.7756 96.8915 60.7756C94.0214 60.7756 91.3282 62.6884 90.8867 65.0387C90.8695 65.1279 90.7803 65.1927 90.6739 65.1927H77.5559L76.4473 71.0997C77.8694 71.151 79.1117 71.6412 79.9644 72.4906C80.8386 73.362 81.1952 74.5109 80.9666 75.7246C80.5036 78.1947 77.7241 80.2138 74.7203 80.2945L73.6146 86.199Z" fill="#F9FAFB"/>
<path d="M111.611 87.9952C111.627 87.95 111.64 87.9036 111.649 87.8571L112.003 85.9712L109.774 83.3887L109.42 85.2746C109.411 85.321 109.399 85.3675 109.383 85.4127C109.378 85.4261 109.373 85.4383 109.368 85.4518C109.355 85.486 109.34 85.5202 109.324 85.5532C109.318 85.5642 109.312 85.5764 109.306 85.5874C109.283 85.6302 109.258 85.6718 109.229 85.7121C109.22 85.7231 109.212 85.7341 109.203 85.7451C109.186 85.7683 109.167 85.7916 109.148 85.8136C109.135 85.8282 109.121 85.8429 109.108 85.8576C109.094 85.8734 109.078 85.8893 109.062 85.9052C109.046 85.9199 109.029 85.9346 109.013 85.9492C108.999 85.9627 108.984 85.9749 108.97 85.9871C108.953 86.0018 108.933 86.0164 108.914 86.0299C108.9 86.0409 108.884 86.0531 108.869 86.0629C108.851 86.0763 108.831 86.0886 108.81 86.1008C108.793 86.1118 108.777 86.1228 108.76 86.1326C108.743 86.1436 108.724 86.1533 108.705 86.1631C108.684 86.1741 108.664 86.1863 108.642 86.1961C108.626 86.2034 108.611 86.2108 108.595 86.2181C108.567 86.2303 108.539 86.2426 108.511 86.2548C108.497 86.2609 108.481 86.2658 108.467 86.2719C108.426 86.2866 108.386 86.3 108.345 86.311C108.327 86.3159 108.31 86.3208 108.293 86.3257C108.278 86.3293 108.263 86.333 108.248 86.3367C108.221 86.3428 108.194 86.3477 108.168 86.3526C108.152 86.355 108.137 86.3575 108.122 86.3599C108.093 86.3648 108.064 86.3672 108.034 86.3709C108.021 86.3721 108.007 86.3746 107.994 86.3746C107.951 86.3782 107.907 86.3794 107.864 86.3794L110.093 88.962C110.136 88.962 110.179 88.9596 110.222 88.9571C110.235 88.9559 110.25 88.9547 110.263 88.9534C110.291 88.951 110.322 88.9473 110.35 88.9425C110.366 88.94 110.381 88.9376 110.396 88.9351C110.424 88.9302 110.451 88.9253 110.477 88.9192C110.491 88.9156 110.507 88.9119 110.522 88.9082C110.53 88.9058 110.537 88.9046 110.546 88.9021C110.556 88.8997 110.565 88.896 110.575 88.8936C110.616 88.8813 110.657 88.8691 110.697 88.8544C110.706 88.8508 110.716 88.8483 110.724 88.8459C110.73 88.8434 110.736 88.841 110.742 88.8386C110.77 88.8276 110.798 88.8153 110.825 88.8019C110.838 88.7958 110.851 88.7921 110.862 88.786C110.867 88.7848 110.869 88.7823 110.872 88.7799C110.894 88.7689 110.914 88.7579 110.936 88.7469C110.951 88.7383 110.967 88.731 110.982 88.7224C110.985 88.7212 110.987 88.7188 110.99 88.7163C111.008 88.7066 111.023 88.6956 111.041 88.6846C111.056 88.6748 111.074 88.665 111.089 88.654C111.092 88.6516 111.097 88.6491 111.1 88.6467C111.115 88.6357 111.13 88.6247 111.144 88.6137C111.159 88.6027 111.174 88.5917 111.189 88.5807C111.193 88.577 111.196 88.5746 111.2 88.5709C111.215 88.5587 111.229 88.5452 111.243 88.533C111.256 88.522 111.269 88.511 111.281 88.5C111.285 88.4963 111.288 88.4927 111.292 88.489C111.308 88.4731 111.322 88.4572 111.338 88.4413C111.348 88.4303 111.36 88.4193 111.37 88.4083C111.373 88.4047 111.376 88.401 111.379 88.3973C111.397 88.3753 111.416 88.3521 111.433 88.3289C111.44 88.3191 111.449 88.3106 111.456 88.3008C111.458 88.2996 111.458 88.2971 111.459 88.2959C111.488 88.2556 111.514 88.214 111.537 88.17C111.538 88.1663 111.541 88.1627 111.544 88.159C111.548 88.1517 111.55 88.1431 111.554 88.1358C111.571 88.1028 111.586 88.0686 111.599 88.0343C111.601 88.0209 111.607 88.0087 111.611 87.9952Z" fill="#D0D5DD"/>
<path d="M110.09 89.1472C110.021 89.1472 109.956 89.1191 109.916 89.0727L107.687 86.4901C107.64 86.4339 107.633 86.3606 107.669 86.2982C107.705 86.2371 107.779 86.198 107.861 86.198C107.899 86.198 107.935 86.1968 107.972 86.1931L107.989 86.1919L108.005 86.1907C108.031 86.1882 108.055 86.1858 108.08 86.1821L108.12 86.176C108.143 86.1723 108.166 86.1674 108.191 86.1613L108.274 86.1393C108.31 86.1296 108.344 86.1173 108.379 86.1051L108.393 86.1002L108.418 86.0917C108.442 86.0819 108.467 86.0709 108.491 86.0599L108.533 86.0415C108.547 86.0342 108.562 86.0269 108.575 86.0195C108.575 86.0195 108.586 86.0134 108.587 86.0122L108.605 86.0037C108.615 85.9975 108.626 85.9927 108.636 85.9866C108.645 85.9817 108.654 85.9755 108.662 85.9694L108.68 85.9584C108.704 85.9425 108.717 85.934 108.73 85.9254L108.769 85.8961C108.79 85.8802 108.805 85.8692 108.818 85.8582C108.828 85.8497 108.836 85.8423 108.845 85.8338L108.855 85.8252C108.871 85.8118 108.885 85.7996 108.898 85.7861C108.91 85.7751 108.92 85.7629 108.931 85.7519L108.947 85.736C108.956 85.7274 108.964 85.7177 108.973 85.7079C108.99 85.6883 109.004 85.6688 109.02 85.648L109.043 85.6199C109.068 85.5857 109.091 85.549 109.109 85.5123L109.118 85.4964L109.124 85.4842C109.138 85.4549 109.151 85.4255 109.163 85.3962L109.174 85.3632C109.189 85.3192 109.2 85.2825 109.206 85.2471L109.56 83.3612C109.574 83.2879 109.637 83.2292 109.722 83.2121C109.807 83.195 109.895 83.2219 109.946 83.2818L112.175 85.8643C112.21 85.9034 112.223 85.9536 112.214 86.0012L111.86 87.8871C111.85 87.9372 111.837 87.9886 111.817 88.0472C111.811 88.0619 111.807 88.0753 111.801 88.09C111.785 88.1315 111.768 88.1694 111.749 88.2086C111.747 88.2171 111.742 88.2269 111.737 88.2367C111.734 88.2415 111.728 88.2513 111.725 88.255C111.702 88.2966 111.675 88.343 111.643 88.3858C111.639 88.3919 111.636 88.398 111.632 88.4029C111.63 88.4053 111.623 88.4139 111.616 88.4224C111.59 88.4554 111.57 88.4811 111.548 88.5068C111.547 88.5092 111.542 88.5141 111.537 88.5202C111.529 88.5288 111.519 88.5385 111.511 88.5471L111.501 88.5569C111.479 88.5801 111.465 88.596 111.449 88.6107C111.447 88.6131 111.443 88.618 111.437 88.6229C111.427 88.6327 111.417 88.6412 111.406 88.651L111.394 88.6608C111.374 88.6791 111.36 88.6913 111.345 88.7035L111.332 88.7145C111.321 88.7243 111.308 88.7329 111.297 88.7414L111.284 88.7512C111.259 88.7696 111.246 88.7793 111.232 88.7891L111.22 88.7977C111.209 88.805 111.196 88.8135 111.181 88.8221L111.153 88.8404C111.138 88.8502 111.124 88.8588 111.11 88.8673C111.087 88.8808 111.074 88.8881 111.061 88.8942L111.033 88.9089C111.015 88.9199 110.995 88.9297 110.976 88.9394C110.976 88.9394 110.964 88.9455 110.963 88.9455C110.953 88.9504 110.941 88.9553 110.93 88.9602C110.89 88.9785 110.858 88.992 110.826 89.0054C110.821 89.0079 110.813 89.0115 110.805 89.014C110.796 89.0177 110.785 89.0213 110.775 89.0238C110.729 89.0409 110.683 89.0555 110.637 89.069C110.626 89.0727 110.615 89.0763 110.605 89.0788C110.601 89.08 110.585 89.0837 110.58 89.0849C110.563 89.0898 110.549 89.0922 110.533 89.0959C110.496 89.1044 110.465 89.1105 110.434 89.1167C110.417 89.1203 110.398 89.1228 110.381 89.1252C110.347 89.1301 110.314 89.1338 110.281 89.1374L110.235 89.1423C110.189 89.1448 110.139 89.1472 110.09 89.1472ZM108.252 86.5243L110.195 88.7757C110.197 88.7757 110.198 88.7757 110.199 88.7757L110.218 88.7732C110.22 88.7732 110.234 88.772 110.235 88.772C110.26 88.7695 110.286 88.7671 110.31 88.7634L110.35 88.7573C110.373 88.7537 110.398 88.7488 110.421 88.7427L110.46 88.7341C110.463 88.7329 110.477 88.7304 110.478 88.7292C110.487 88.7268 110.496 88.7231 110.506 88.7207C110.54 88.7109 110.576 88.6987 110.611 88.6864C110.615 88.6852 110.632 88.6791 110.637 88.6779C110.641 88.6767 110.647 88.673 110.651 88.6718C110.674 88.662 110.698 88.651 110.723 88.64L110.764 88.6204C110.777 88.6143 110.792 88.607 110.805 88.5984L110.859 88.5691C110.877 88.5593 110.885 88.5532 110.894 88.5471L110.951 88.5104C110.97 88.497 110.979 88.4909 110.987 88.4836L111.049 88.4359C111.058 88.4285 111.068 88.4188 111.078 88.4102L111.127 88.3662C111.14 88.354 111.15 88.343 111.16 88.332L111.196 88.2953C111.196 88.2953 111.2 88.2892 111.204 88.2843C111.219 88.2672 111.235 88.2477 111.249 88.2269L111.263 88.2086C111.263 88.2073 111.266 88.2061 111.268 88.2037C111.269 88.2024 111.269 88.2012 111.271 88.2C111.297 88.1633 111.318 88.1279 111.338 88.0912C111.34 88.0888 111.343 88.0851 111.344 88.0814C111.347 88.0753 111.351 88.0656 111.353 88.0631C111.367 88.035 111.38 88.0057 111.391 87.9763L111.404 87.9433C111.42 87.8993 111.43 87.8614 111.436 87.8272L111.775 86.0171L109.906 83.8501L109.634 85.3021C109.626 85.351 109.611 85.4035 109.591 85.4622L109.577 85.4989C109.558 85.5465 109.541 85.5857 109.522 85.6235C109.514 85.6419 109.508 85.6529 109.502 85.6627C109.476 85.7115 109.446 85.7592 109.413 85.8044C109.406 85.8142 109.398 85.824 109.391 85.8338C109.364 85.8692 109.344 85.8961 109.321 85.9205C109.309 85.934 109.296 85.9474 109.285 85.9597L109.276 85.9694C109.256 85.9914 109.24 86.0073 109.224 86.0232C109.206 86.0416 109.187 86.0574 109.168 86.0745C109.147 86.0941 109.134 86.1063 109.12 86.1173C109.102 86.132 109.084 86.1454 109.065 86.1589L109.045 86.1735C109.032 86.1833 109.019 86.1931 109.006 86.2017C108.987 86.2151 108.969 86.2261 108.95 86.2383L108.925 86.2542C108.911 86.2628 108.898 86.2725 108.884 86.2811C108.868 86.2909 108.852 86.2994 108.836 86.308L108.822 86.3153C108.792 86.3324 108.772 86.3434 108.751 86.3532C108.738 86.3593 108.726 86.3654 108.713 86.3715L108.698 86.3777C108.667 86.3923 108.635 86.4058 108.603 86.418C108.59 86.4229 108.577 86.4278 108.563 86.4327C108.507 86.4534 108.461 86.4681 108.414 86.4816L108.401 86.4852C108.386 86.4901 108.37 86.4938 108.356 86.4974C108.34 86.5011 108.323 86.5048 108.307 86.5084C108.286 86.517 108.27 86.5207 108.252 86.5243Z" fill="#F9FAFB"/>
<path d="M52.5276 61.877H42.1085H33.2236L35.4524 64.4595H44.3372H54.7563L52.5276 61.877Z" fill="#D0D5DD"/>
<path d="M54.7563 64.6426H35.4524C35.3834 64.6426 35.3187 64.6145 35.2784 64.568L33.0497 61.9855C33.0022 61.9293 32.995 61.8559 33.031 61.7936C33.0669 61.7325 33.1417 61.6934 33.2237 61.6934H52.5276C52.5966 61.6934 52.6613 61.7215 52.7016 61.7679L54.9303 64.3505C54.9778 64.4067 54.985 64.48 54.949 64.5424C54.9116 64.6035 54.8369 64.6426 54.7563 64.6426ZM35.5617 64.2759H54.3307L52.4183 62.06H33.6493L35.5617 64.2759Z" fill="#F9FAFB"/>
<path d="M55.5024 63.2133C55.5168 63.1876 55.5312 63.1619 55.5455 63.1362C55.557 63.1155 55.5685 63.0947 55.58 63.0739C55.6793 62.8894 55.7742 62.7024 55.8662 62.5141C55.8691 62.508 55.8734 62.5019 55.8763 62.4946C55.9798 62.2831 56.079 62.068 56.1753 61.8529C56.207 61.7832 56.2357 61.7124 56.2659 61.6427C56.3292 61.4948 56.3925 61.3469 56.4529 61.1978C56.4874 61.1135 56.519 61.0291 56.5521 60.9448C56.6053 60.8067 56.6585 60.6686 56.7088 60.5293C56.7419 60.44 56.7735 60.3508 56.8052 60.2616C56.854 60.1235 56.9015 59.9841 56.9475 59.8448C56.9763 59.7556 57.0065 59.6664 57.0352 59.5771C57.0812 59.4305 57.1258 59.2838 57.1689 59.1359C57.1934 59.0528 57.2193 58.9697 57.2423 58.8866C57.2912 58.713 57.3386 58.537 57.3846 58.361C57.4004 58.3036 57.4163 58.2461 57.4306 58.1875C57.4896 57.9528 57.5457 57.7169 57.6003 57.4798C57.6133 57.4224 57.6248 57.3625 57.6377 57.305C57.6765 57.1241 57.7153 56.9433 57.7513 56.7611C57.7685 56.6731 57.7844 56.5851 57.8016 56.4971C57.8304 56.3431 57.8591 56.1879 57.8865 56.0327C57.9037 55.9361 57.9195 55.8396 57.9353 55.743C57.9598 55.5927 57.9842 55.4424 58.0072 55.2908C58.0216 55.193 58.0374 55.094 58.0504 54.9963C58.0719 54.8423 58.0935 54.687 58.1136 54.5318C58.1266 54.4377 58.1381 54.3424 58.1496 54.2483C58.1697 54.0784 58.1899 53.9085 58.2085 53.7374C58.2172 53.6567 58.2272 53.576 58.2359 53.4954C58.2617 53.2436 58.2862 52.9918 58.3078 52.7388L56.079 50.1562C56.0574 50.4092 56.033 50.6623 56.0071 50.9128C55.9985 50.9935 55.9899 51.0741 55.9798 51.1548C55.9611 51.3259 55.9424 51.4958 55.9208 51.6657C55.9093 51.761 55.8964 51.8551 55.8849 51.9493C55.8648 52.1045 55.8432 52.2597 55.8216 52.4137C55.8072 52.5127 55.7929 52.6105 55.7785 52.7083C55.7555 52.8598 55.731 53.0101 55.7066 53.1605C55.6908 53.257 55.675 53.3536 55.6577 53.4501C55.6304 53.6054 55.6016 53.7606 55.5729 53.9146C55.5556 54.0026 55.5398 54.0918 55.5225 54.1786C55.4866 54.3607 55.4478 54.5416 55.4089 54.7225C55.396 54.7811 55.3845 54.8398 55.3716 54.8973C55.3184 55.1344 55.2623 55.3703 55.2019 55.6049C55.1875 55.6636 55.1702 55.721 55.1559 55.7785C55.1099 55.9545 55.0638 56.1293 55.0135 56.304C54.9891 56.3884 54.9646 56.4703 54.9402 56.5546C54.897 56.7025 54.8525 56.8491 54.8065 56.9958C54.7777 57.0863 54.7489 57.1755 54.7187 57.2647C54.6727 57.404 54.6253 57.5434 54.5778 57.6815C54.5462 57.7707 54.5146 57.8611 54.4815 57.9491C54.4312 58.0885 54.378 58.2266 54.3248 58.3647C54.2917 58.449 54.2586 58.5346 54.2255 58.6177C54.1652 58.7668 54.1019 58.9147 54.0386 59.0626C54.0084 59.1323 53.9797 59.2031 53.948 59.2728C53.8517 59.4891 53.7525 59.703 53.6489 59.9145C53.6461 59.9218 53.6417 59.9279 53.6389 59.9353C53.5368 60.1442 53.4289 60.3508 53.3182 60.5561C53.3038 60.5818 53.2895 60.6075 53.2751 60.6344C53.1658 60.8336 53.0551 61.0316 52.9386 61.2259C52.9285 61.243 52.9185 61.2589 52.9084 61.2748C52.7862 61.4789 52.6597 61.6818 52.5288 61.881L54.7576 64.4636C54.8884 64.2631 55.015 64.0615 55.1372 63.8561C55.1472 63.8403 55.1573 63.8231 55.1674 63.8072C55.281 63.6105 55.3931 63.4125 55.5024 63.2133Z" fill="#E4E7EC"/>
<path d="M54.7563 64.6438C54.6873 64.6438 54.6226 64.6157 54.5823 64.5693L52.3535 61.9867C52.3032 61.9293 52.2989 61.851 52.3392 61.7887C52.4628 61.6005 52.585 61.4049 52.7144 61.1886L52.7446 61.1397C52.8554 60.9539 52.9632 60.7633 53.0782 60.553L53.1199 60.476C53.2292 60.2731 53.3371 60.0654 53.4377 59.86C53.4377 59.8588 53.4449 59.8466 53.4449 59.8454C53.5427 59.6449 53.6405 59.4372 53.7454 59.2037C53.7641 59.1622 53.7814 59.1206 53.8001 59.079L53.836 58.9959C53.8993 58.8493 53.9626 58.7026 54.0215 58.5547C54.0474 58.4911 54.0733 58.4264 54.0977 58.3616L54.1207 58.3029C54.1739 58.166 54.2257 58.0291 54.276 57.891C54.3077 57.803 54.3407 57.7138 54.3709 57.6246C54.4198 57.4877 54.4658 57.3496 54.5118 57.2115L54.5205 57.1858C54.5463 57.1064 54.5737 57.0257 54.5981 56.945C54.6441 56.7996 54.6873 56.6541 54.7318 56.5075L54.7548 56.428C54.7721 56.3718 54.7879 56.3156 54.8052 56.2582C54.8541 56.0846 54.9001 55.911 54.9461 55.7363L54.9677 55.6568C54.9763 55.6263 54.9849 55.5945 54.9921 55.5639C55.0496 55.3354 55.1071 55.0995 55.1603 54.8599C55.1675 54.8281 55.1733 54.7976 55.1805 54.7658L55.1977 54.6864C55.2365 54.5067 55.2754 54.327 55.3113 54.1462C55.3243 54.0838 55.3358 54.0215 55.3473 53.9604L55.3616 53.8834C55.3904 53.7294 55.4192 53.5754 55.4465 53.4214C55.4637 53.326 55.4795 53.2295 55.4954 53.1329C55.5198 52.9838 55.5443 52.8335 55.5673 52.6832C55.5816 52.5854 55.596 52.4876 55.6104 52.3898C55.632 52.2358 55.6535 52.0818 55.6737 51.9278L55.6794 51.8863C55.6895 51.8056 55.701 51.7261 55.7096 51.6455C55.7297 51.4768 55.7499 51.3069 55.7686 51.137L55.7959 50.8963C55.8218 50.6457 55.8462 50.3951 55.8678 50.1421C55.875 50.0651 55.9368 50.0004 56.0231 49.9796C56.1094 49.9588 56.2028 49.9857 56.256 50.0468L58.4848 52.6294C58.515 52.6648 58.5294 52.7076 58.5265 52.7516C58.5049 53.0058 58.4805 53.2588 58.4546 53.5106L58.4273 53.7538C58.4086 53.9249 58.3899 54.096 58.3683 54.2659C58.3582 54.3466 58.3482 54.4273 58.3367 54.5079L58.3309 54.5507C58.3108 54.7071 58.2892 54.8624 58.2676 55.0176C58.2533 55.1166 58.2389 55.2156 58.2245 55.3134C58.2015 55.4649 58.1771 55.6165 58.1526 55.7668C58.1368 55.8634 58.121 55.9611 58.1037 56.0577C58.0764 56.2141 58.0477 56.3694 58.0175 56.5246L58.0002 56.6175C57.9887 56.6749 57.9786 56.7324 57.9671 56.7898C57.9312 56.9732 57.8924 57.1553 57.8521 57.3361L57.8363 57.4131C57.8291 57.4461 57.8219 57.4791 57.8147 57.5121C57.7615 57.7468 57.704 57.9864 57.645 58.2235C57.6364 58.2577 57.6263 58.2919 57.6177 58.3261L57.599 58.3983C57.553 58.5755 57.5056 58.7515 57.4567 58.9263C57.4409 58.9849 57.4236 59.0424 57.4063 59.0998L57.3833 59.178C57.3402 59.3271 57.2956 59.475 57.2482 59.6217C57.2223 59.7036 57.195 59.7855 57.1691 59.8674L57.1605 59.8918C57.1144 60.0324 57.067 60.1729 57.0181 60.3123C56.9865 60.4027 56.9548 60.4932 56.9218 60.5824C56.87 60.7229 56.8168 60.8623 56.7636 61.0004L56.7463 61.0444C56.719 61.1153 56.6917 61.1849 56.6629 61.2558C56.6026 61.4061 56.5378 61.5553 56.4746 61.7044L56.4415 61.7826C56.4228 61.8278 56.4041 61.8718 56.384 61.9158C56.279 62.1505 56.1812 62.3619 56.082 62.5636C56.082 62.5648 56.0763 62.5758 56.0748 62.577C55.9756 62.7799 55.8778 62.9694 55.7829 63.149L55.7053 63.2896C55.5888 63.5035 55.4781 63.699 55.366 63.8873L55.3358 63.9374C55.2035 64.1586 55.0784 64.359 54.9518 64.5509C54.9159 64.6059 54.8497 64.6401 54.7764 64.645C54.7649 64.6438 54.7606 64.6438 54.7563 64.6438ZM52.782 61.8645L54.729 64.1207C54.7994 64.0095 54.8699 63.8934 54.9432 63.7711L54.972 63.7235C55.0827 63.5389 55.1905 63.347 55.3056 63.1368L55.3818 62.9987C55.4752 62.8227 55.5716 62.6369 55.6665 62.4438C55.6665 62.4426 55.6722 62.4316 55.6737 62.4304C55.7729 62.2275 55.8707 62.0185 55.9727 61.7887C55.9914 61.7459 56.0101 61.7031 56.0274 61.6604L56.0619 61.5797C56.1252 61.433 56.1884 61.2864 56.2474 61.1385C56.2747 61.07 56.302 61.0004 56.3294 60.9319L56.3466 60.8867C56.3998 60.7498 56.453 60.6129 56.5033 60.4748C56.5364 60.3868 56.568 60.2976 56.5982 60.2084C56.6471 60.0715 56.6931 59.9334 56.7392 59.794L56.7478 59.7696C56.7737 59.6889 56.801 59.6083 56.8269 59.5276C56.8729 59.3821 56.916 59.2355 56.9592 59.0888L56.9822 59.0106C56.9994 58.9544 57.0152 58.8982 57.0325 58.8407C57.0814 58.6684 57.1274 58.4936 57.1734 58.3188L57.1935 58.2443C57.2022 58.2113 57.2108 58.1795 57.2194 58.1465C57.2784 57.9118 57.3359 57.6747 57.3877 57.4437L57.425 57.2689C57.4639 57.0893 57.5027 56.9096 57.5386 56.7287C57.5501 56.6725 57.5602 56.6163 57.5717 56.5588L57.589 56.4647C57.6177 56.3107 57.6465 56.1567 57.6738 56.0027C57.6911 55.9074 57.7069 55.8108 57.7227 55.7143C57.7471 55.5651 57.7716 55.4148 57.7946 55.2645C57.809 55.1667 57.8233 55.0689 57.8377 54.9712C57.8593 54.8172 57.8809 54.6632 57.901 54.5092L57.9067 54.4664C57.9168 54.3869 57.9283 54.3063 57.9369 54.2268C57.9571 54.0582 57.9772 53.8883 57.9959 53.7184L58.0232 53.4776C58.0462 53.249 58.0692 53.0205 58.0894 52.7907L56.2517 50.6604C56.2431 50.7496 56.2344 50.8376 56.2244 50.9268L56.1971 51.17C56.1784 51.3411 56.1597 51.5123 56.1381 51.6821C56.128 51.764 56.118 51.8447 56.1065 51.9254L56.1007 51.9669C56.0806 52.1221 56.059 52.2786 56.0375 52.4326C56.0231 52.5316 56.0087 52.6306 55.9929 52.7284C55.9699 52.8799 55.9454 53.0315 55.921 53.1818C55.9052 53.2784 55.8893 53.3761 55.8721 53.4727C55.8448 53.6291 55.816 53.7844 55.7858 53.9396L55.7714 54.0154C55.7599 54.0789 55.747 54.1425 55.7355 54.2048C55.6995 54.3881 55.6607 54.5703 55.6205 54.7511L55.6046 54.8281C55.5975 54.8611 55.5903 54.8941 55.5831 54.9271C55.5284 55.1679 55.4709 55.4075 55.4134 55.6385C55.4048 55.6715 55.3961 55.7045 55.3875 55.7363L55.3674 55.812C55.3214 55.9893 55.2739 56.1653 55.225 56.34C55.2092 56.3975 55.192 56.4562 55.1747 56.5136L55.1517 56.5918C55.1086 56.7409 55.064 56.8888 55.0165 57.0355C54.9907 57.1174 54.9648 57.198 54.9375 57.2799L54.9288 57.3056C54.8828 57.4461 54.8354 57.5867 54.7865 57.7248C54.7548 57.8153 54.7232 57.9057 54.6901 57.9949C54.6384 58.1355 54.5852 58.2748 54.532 58.4129L54.509 58.4716C54.4831 58.5376 54.4572 58.6036 54.4313 58.6684C54.3709 58.8187 54.3062 58.9678 54.2429 59.1169L54.2084 59.1976C54.1897 59.2416 54.171 59.2856 54.1524 59.3284C54.0459 59.5667 53.9467 59.7781 53.8504 59.9761C53.8504 59.9774 53.8446 59.9884 53.8432 59.9896C53.7368 60.2059 53.6275 60.4161 53.5168 60.6227L53.4737 60.7009C53.3572 60.9136 53.2465 61.1091 53.1343 61.2986L53.1041 61.3487C52.9905 61.5357 52.887 61.7031 52.782 61.8645Z" fill="#F9FAFB"/>
<path d="M121.474 58.6895H114.408H110.213L112.442 61.2732H116.637H123.702L121.474 58.6895Z" fill="#D0D5DD"/>
<path d="M123.701 61.457H112.442C112.373 61.457 112.308 61.4289 112.268 61.3825L110.039 58.7999C109.992 58.7437 109.985 58.6704 110.021 58.608C110.057 58.5469 110.131 58.5078 110.213 58.5078H121.474C121.543 58.5078 121.607 58.5359 121.648 58.5824L123.876 61.1649C123.924 61.2211 123.931 61.2945 123.895 61.3568C123.858 61.4179 123.783 61.457 123.701 61.457ZM112.551 61.0904H123.275L121.363 58.8745H110.638L112.551 61.0904Z" fill="#F9FAFB"/>
<path d="M110.75 83.3867H109.774H89.9478L92.1765 85.9693H112.002H112.977L110.75 83.3867Z" fill="#D0D5DD"/>
<path d="M112.977 86.1524H92.1751C92.1061 86.1524 92.0413 86.1242 92.0011 86.0778L89.7723 83.4952C89.7249 83.439 89.7177 83.3657 89.7536 83.3033C89.7896 83.2422 89.8644 83.2031 89.9463 83.2031H110.749C110.818 83.2031 110.882 83.2312 110.923 83.2777L113.151 85.8602C113.199 85.9165 113.206 85.9898 113.17 86.0521C113.134 86.1145 113.059 86.1524 112.977 86.1524ZM92.2844 85.7857H112.552L110.641 83.5698H90.3734L92.2844 85.7857Z" fill="#F9FAFB"/>
<path d="M112.002 72.7852C112.341 72.7852 112.574 73.0113 112.522 73.2899C112.471 73.5686 112.151 73.7947 111.812 73.7947H95.5825C95.2417 73.7947 95.0102 73.5686 95.0619 73.2899C95.1137 73.0113 95.4315 72.7852 95.7722 72.7852H112.002Z" fill="#98A2B3"/>
<path d="M111.814 73.9766H95.5826C95.3554 73.9766 95.1455 73.8983 95.0075 73.7602C94.8709 73.6246 94.8148 73.4461 94.8493 73.2603C94.9183 72.8912 95.3238 72.6016 95.7724 72.6016H112.004C112.231 72.6016 112.441 72.681 112.579 72.8179C112.715 72.9548 112.771 73.132 112.737 73.3178C112.666 73.6869 112.262 73.9766 111.814 73.9766ZM95.7724 72.9682C95.538 72.9682 95.3109 73.1283 95.2749 73.3178C95.2605 73.396 95.2821 73.4693 95.3353 73.5219C95.3914 73.5781 95.4805 73.6099 95.5826 73.6099H111.814C112.048 73.6099 112.275 73.4498 112.311 73.2603C112.326 73.1821 112.304 73.1088 112.251 73.0562C112.195 73 112.106 72.9682 112.004 72.9682H95.7724Z" fill="#98A2B3"/>
<path d="M111.455 75.7051C111.794 75.7051 112.028 75.93 111.975 76.2099C111.923 76.4885 111.604 76.7134 111.265 76.7134H95.5457C95.2049 76.7134 94.9719 76.4885 95.0251 76.2099C95.0769 75.9312 95.3947 75.7051 95.7355 75.7051H111.455Z" fill="#98A2B3"/>
<path d="M111.266 76.8965H95.5455C95.3169 76.8965 95.1069 76.817 94.9689 76.6801C94.8323 76.5445 94.7762 76.3673 94.8107 76.1803C94.8797 75.8111 95.2852 75.5215 95.7339 75.5215H111.455C111.682 75.5215 111.892 75.6009 112.03 75.7378C112.166 75.8735 112.222 76.0519 112.188 76.2377C112.119 76.608 111.715 76.8965 111.266 76.8965ZM95.7353 75.8894C95.5009 75.8894 95.2737 76.0495 95.2378 76.2389C95.2234 76.3172 95.2435 76.3893 95.2982 76.443C95.3542 76.4993 95.4434 76.531 95.5469 76.531H111.268C111.502 76.531 111.729 76.3709 111.765 76.1815C111.779 76.1033 111.759 76.0299 111.705 75.9774C111.649 75.9211 111.559 75.8894 111.457 75.8894H95.7353Z" fill="#98A2B3"/>
<path d="M109.793 78.625C110.133 78.625 110.366 78.8499 110.313 79.1286C110.261 79.4072 109.944 79.6333 109.603 79.6333H94.6961C94.3553 79.6333 94.1223 79.4084 94.1755 79.1286C94.2273 78.8499 94.5451 78.625 94.8859 78.625H109.793Z" fill="#98A2B3"/>
<path d="M109.603 79.8164H94.6959C94.4672 79.8164 94.2573 79.7382 94.1193 79.6001C93.9827 79.4644 93.9266 79.286 93.9611 79.099C94.0301 78.7299 94.4356 78.4414 94.8842 78.4414H109.792C110.021 78.4414 110.231 78.5196 110.369 78.6577C110.506 78.7934 110.562 78.9706 110.527 79.1576C110.457 79.528 110.051 79.8164 109.603 79.8164ZM94.8842 78.8093C94.6499 78.8093 94.4227 78.9694 94.3867 79.1589C94.3723 79.2383 94.3925 79.3104 94.4471 79.3642C94.5032 79.4204 94.5923 79.4522 94.6944 79.4522H109.603C109.837 79.4522 110.064 79.2921 110.1 79.1026C110.115 79.0244 110.094 78.9523 110.04 78.8985C109.984 78.8423 109.895 78.8105 109.791 78.8105H94.8842V78.8093Z" fill="#98A2B3"/>
<path d="M120.181 55.6484C120.479 55.6484 120.685 55.8464 120.639 56.0909C120.593 56.3365 120.314 56.5345 120.016 56.5345H112.457C112.159 56.5345 111.954 56.3365 112 56.0909C112.046 55.8464 112.325 55.6484 112.622 55.6484H120.181Z" fill="#D0D5DD"/>
<path d="M120.015 56.7188H112.455C112.248 56.7188 112.057 56.6467 111.931 56.5208C111.806 56.3962 111.754 56.2336 111.785 56.0625C111.849 55.7276 112.215 55.4648 112.621 55.4648H120.18C120.387 55.4648 120.58 55.537 120.705 55.6628C120.83 55.7875 120.882 55.9501 120.85 56.12C120.788 56.4561 120.42 56.7188 120.015 56.7188ZM112.622 55.8327C112.43 55.8327 112.241 55.9647 112.212 56.1212C112.201 56.1847 112.217 56.241 112.26 56.2837C112.305 56.3277 112.375 56.3522 112.457 56.3522H120.016C120.209 56.3522 120.397 56.2202 120.426 56.0625C120.437 55.999 120.422 55.944 120.378 55.9012C120.334 55.8572 120.263 55.8315 120.181 55.8315H112.622V55.8327Z" fill="#D0D5DD"/>
<path d="M52.6627 52.2793C52.9603 52.2793 53.1659 52.4773 53.1199 52.7217C53.0739 52.9674 52.7949 53.1654 52.4973 53.1654H38.9378C38.6402 53.1654 38.4345 52.9674 38.4806 52.7217C38.5266 52.4773 38.8055 52.2793 39.1032 52.2793H52.6627Z" fill="#D0D5DD"/>
<path d="M52.4959 53.3497H38.9365C38.7294 53.3497 38.5382 53.2776 38.4116 53.1517C38.2865 53.027 38.2348 52.8645 38.2664 52.6934C38.3297 52.3585 38.6963 52.0957 39.1018 52.0957H52.6613C52.8684 52.0957 53.061 52.1678 53.1861 52.2937C53.3112 52.4184 53.363 52.5809 53.3299 52.7508C53.2695 53.0869 52.9014 53.3497 52.4959 53.3497ZM39.1033 52.4636C38.9106 52.4636 38.7222 52.5956 38.6935 52.752C38.6819 52.8156 38.6978 52.8718 38.7409 52.9146C38.7855 52.9586 38.8559 52.983 38.9379 52.983H52.4974C52.6901 52.983 52.8784 52.851 52.9072 52.6934C52.9187 52.6298 52.9029 52.5748 52.8597 52.532C52.8151 52.488 52.7447 52.4624 52.6627 52.4624H39.1033V52.4636Z" fill="#D0D5DD"/>
<path d="M52.1807 54.8457C52.4784 54.8457 52.684 55.0437 52.638 55.2881C52.592 55.5326 52.313 55.7306 52.0154 55.7306H38.4559C38.1582 55.7306 37.9526 55.5326 37.9986 55.2881C38.0446 55.0437 38.3236 54.8457 38.6212 54.8457H52.1807Z" fill="#D0D5DD"/>
<path d="M52.014 55.9149H38.4545C38.2475 55.9149 38.0548 55.8428 37.9297 55.7169C37.8046 55.5922 37.7528 55.4297 37.7845 55.2598C37.8477 54.9249 38.2144 54.6621 38.6199 54.6621H52.1794C52.3864 54.6621 52.5791 54.7342 52.7042 54.8601C52.8293 54.9848 52.8811 55.1473 52.848 55.3172C52.7876 55.6521 52.4209 55.9149 52.014 55.9149ZM38.6213 55.0288C38.4286 55.0288 38.2403 55.1608 38.2115 55.3172C38.2 55.3808 38.2158 55.4358 38.259 55.4786C38.3035 55.5226 38.374 55.5482 38.456 55.5482H52.0154C52.2081 55.5482 52.3965 55.4162 52.4252 55.2598C52.4367 55.1962 52.4209 55.1412 52.3778 55.0984C52.3332 55.0544 52.2628 55.0288 52.1808 55.0288H38.6213Z" fill="#D0D5DD"/>
<path d="M120.572 53.5664C120.87 53.5664 121.075 53.7644 121.029 54.0101C120.983 54.2545 120.704 54.4525 120.407 54.4525H112.847C112.55 54.4525 112.344 54.2545 112.39 54.0101C112.436 53.7644 112.715 53.5664 113.013 53.5664H120.572Z" fill="#D0D5DD"/>
<path d="M120.405 54.6356H112.846C112.639 54.6356 112.446 54.5635 112.321 54.4376C112.196 54.3129 112.144 54.1504 112.176 53.9805C112.239 53.6456 112.606 53.3828 113.013 53.3828H120.572C120.779 53.3828 120.97 53.4549 121.097 53.5808C121.222 53.7055 121.274 53.868 121.242 54.0391C121.179 54.3728 120.811 54.6356 120.405 54.6356ZM113.013 53.7495C112.82 53.7495 112.632 53.8815 112.603 54.0391C112.592 54.1027 112.607 54.1577 112.651 54.2005C112.695 54.2445 112.766 54.2701 112.848 54.2701H120.407C120.599 54.2701 120.788 54.1381 120.816 53.9817C120.828 53.9181 120.812 53.8619 120.769 53.8191C120.724 53.7751 120.654 53.7507 120.572 53.7507H113.013V53.7495Z" fill="#D0D5DD"/>
<path d="M123.475 36.5352L123.759 38.0422C123.93 38.9454 124.659 39.653 125.708 39.9317L127.461 40.3962L125.534 40.8606C124.381 41.1393 123.386 41.8469 122.876 42.7502L122.026 44.2572L121.741 42.7502C121.57 41.8469 120.841 41.1393 119.791 40.8606L118.04 40.3962L119.965 39.9317C121.119 39.653 122.114 38.9454 122.624 38.0422L123.475 36.5352Z" fill="#D0D5DD"/>
<path d="M42.7369 38.0625L42.954 39.2175C43.0849 39.9105 43.6442 40.4532 44.4494 40.6658L45.7924 41.0215L44.3157 41.3784C43.4314 41.5911 42.6679 42.1337 42.2768 42.8255L41.6254 43.9817L41.4083 42.8255C41.2774 42.1325 40.7181 41.5911 39.9128 41.3784L38.5698 41.0215L40.0466 40.6658C40.9309 40.4532 41.6944 39.9093 42.0855 39.2175L42.7369 38.0625Z" fill="#D0D5DD"/>
<path d="M118.35 82.8477L118.47 83.4918C118.544 83.8768 118.856 84.1799 119.304 84.2984L120.052 84.4964L119.23 84.6944C118.736 84.8142 118.311 85.1161 118.092 85.5011L117.728 86.1452L117.608 85.5011C117.534 85.1161 117.224 84.813 116.775 84.6944L116.026 84.4964L116.85 84.2984C117.343 84.1787 117.767 83.8768 117.986 83.4918L118.35 82.8477Z" fill="#D0D5DD"/>
<path d="M35.3691 80.3555L35.4899 80.9996C35.5632 81.3858 35.8753 81.6877 36.3239 81.8062L37.0716 82.0042L36.2491 82.2022C35.7559 82.322 35.3303 82.6239 35.1117 83.0101L34.7494 83.6542L34.6286 83.0101C34.5567 82.6239 34.2447 82.322 33.7961 82.2022L33.0483 82.0042L33.8708 81.8062C34.364 81.6877 34.7896 81.3858 35.0068 80.9996L35.3691 80.3555Z" fill="#D0D5DD"/>
</svg>
