<svg width="20" height="20" viewBox="0 0 20 20" fill="none" xmlns="http://www.w3.org/2000/svg">
<g id="majesticons:door-exit-line">
<path id="Vector" d="M13.3333 3.33296H15.8333C16.2754 3.33296 16.6993 3.50855 17.0118 3.82111C17.3244 4.13367 17.5 4.5576 17.5 4.99962V5.83296M13.3333 16.6663H15.8333C16.2754 16.6663 16.6993 16.4907 17.0118 16.1781C17.3244 15.8656 17.5 15.4417 17.5 14.9996V14.1663M13.3342 9.99962H17.5008M17.5008 9.99962L15.8342 8.33296M17.5008 9.99962L15.8342 11.6663M3.6875 16.1896L8.6875 17.6896C8.9364 17.7643 9.19933 17.7798 9.45528 17.7348C9.71122 17.6898 9.9531 17.5856 10.1616 17.4304C10.3701 17.2753 10.5394 17.0736 10.656 16.8413C10.7727 16.6091 10.8334 16.3528 10.8333 16.093V3.90629C10.8334 3.64642 10.7727 3.39013 10.656 3.1579C10.5394 2.92567 10.3701 2.72393 10.1616 2.5688C9.9531 2.41367 9.71122 2.30944 9.45528 2.26444C9.19933 2.21944 8.9364 2.23491 8.6875 2.30962L3.6875 3.80962C3.34418 3.91268 3.04324 4.12367 2.82932 4.41129C2.61541 4.69892 2.49992 5.04784 2.5 5.40629V14.593C2.49992 14.9514 2.61541 15.3003 2.82932 15.588C3.04324 15.8756 3.34418 16.0866 3.6875 16.1896Z" stroke="#D42620" stroke-width="1.5" stroke-linecap="round" stroke-linejoin="round"/>
</g>
</svg>
