<svg width="16" height="16" viewBox="0 0 16 16" fill="none" xmlns="http://www.w3.org/2000/svg">
<path d="M13.9366 2.002C7.08858 2.27606 3.93727 8.507 2.9396 12.6054C2.85327 12.9601 2.84278 13.4462 3.20047 13.5188C3.43033 13.5656 3.68595 13.421 3.79051 13.0689C4.57831 10.4163 5.3339 7.08409 8.3339 8.33295C9.31491 8.82346 10.9375 7.71001 9.73999 5.77935C9.71108 5.73274 9.74489 5.67033 9.79968 5.67291C11.871 5.77064 14.2976 5.5921 14.0062 2.06407C14.0033 2.02883 13.9719 2.00059 13.9366 2.002Z" stroke="#1671D9" stroke-linecap="round"/>
<path d="M2.40848 4.43278C2.30157 4.11206 2.0499 3.86039 1.72918 3.75348C1.40277 3.64468 1.40277 3.18299 1.72918 3.07419C2.0499 2.96728 2.30157 2.71561 2.40848 2.39489C2.51728 2.06848 2.97897 2.06848 3.08778 2.39489C3.19468 2.71561 3.44635 2.96728 3.76707 3.07419C4.09348 3.18299 4.09348 3.64468 3.76707 3.75348C3.44635 3.86039 3.19468 4.11206 3.08778 4.43278C2.97897 4.75919 2.51728 4.75919 2.40848 4.43278Z" stroke="#1671D9" stroke-linecap="round"/>
<path d="M8.39583 12.4201C8.71655 12.5271 8.96822 12.7787 9.07512 13.0994C9.18393 13.4259 9.64562 13.4259 9.75442 13.0994C9.86133 12.7787 10.113 12.5271 10.4337 12.4201C10.7601 12.3113 10.7601 11.8497 10.4337 11.7409C10.113 11.6339 9.86133 11.3823 9.75442 11.0616C9.64562 10.7351 9.18393 10.7351 9.07512 11.0616C8.96822 11.3823 8.71655 11.6339 8.39583 11.7409C8.06942 11.8497 8.06942 12.3113 8.39583 12.4201Z" stroke="#1671D9" stroke-linecap="round"/>
</svg>
