<svg width="20" height="20" viewBox="0 0 20 20" fill="none" xmlns="http://www.w3.org/2000/svg">
<g id="Icon-right">
<path id="icon" d="M12.8245 6.17033C13.4754 5.51945 14.5307 5.51945 15.1815 6.17033C15.8324 6.8212 15.8324 7.87648 15.1815 8.52735L8.99436 14.7145C7.85533 15.8536 6.0086 15.8536 4.86957 14.7145C3.73054 13.5755 3.73054 11.7288 4.86957 10.5897L10.9684 4.49095C11.2938 4.16551 11.2938 3.63787 10.9684 3.31244C10.6429 2.987 10.1153 2.987 9.78986 3.31244L3.69106 9.41123C1.90116 11.2011 1.90116 14.1031 3.69106 15.893C5.48096 17.6829 8.38297 17.6829 10.1729 15.893L16.3601 9.70586C17.6618 8.40411 17.6618 6.29356 16.3601 4.99182C15.0583 3.69007 12.9478 3.69007 11.646 4.99182L5.28205 11.3558C4.46846 12.1694 4.46846 13.4885 5.28205 14.3021C6.09564 15.1156 7.41474 15.1156 8.22833 14.3021L14.5039 8.02648C14.8293 7.70105 14.8293 7.17341 14.5039 6.84797C14.1785 6.52253 13.6508 6.52253 13.3254 6.84797L7.04982 13.1235C6.8871 13.2863 6.62328 13.2863 6.46056 13.1235C6.29784 12.9608 6.29784 12.697 6.46056 12.5343L12.8245 6.17033Z" fill="#98A2B3"/>
</g>
</svg>
