<svg width="24" height="24" viewBox="0 0 24 24" fill="none" xmlns="http://www.w3.org/2000/svg">
<g id="basil:document-outline">
<path id="Vector" d="M15.75 13C15.75 12.8011 15.671 12.6103 15.5303 12.4697C15.3897 12.329 15.1989 12.25 15 12.25H9C8.80109 12.25 8.61032 12.329 8.46967 12.4697C8.32902 12.6103 8.25 12.8011 8.25 13C8.25 13.1989 8.32902 13.3897 8.46967 13.5303C8.61032 13.671 8.80109 13.75 9 13.75H15C15.1989 13.75 15.3897 13.671 15.5303 13.5303C15.671 13.3897 15.75 13.1989 15.75 13ZM15.75 17C15.75 16.8011 15.671 16.6103 15.5303 16.4697C15.3897 16.329 15.1989 16.25 15 16.25H9C8.80109 16.25 8.61032 16.329 8.46967 16.4697C8.32902 16.6103 8.25 16.8011 8.25 17C8.25 17.1989 8.32902 17.3897 8.46967 17.5303C8.61032 17.671 8.80109 17.75 9 17.75H15C15.1989 17.75 15.3897 17.671 15.5303 17.5303C15.671 17.3897 15.75 17.1989 15.75 17Z" fill="#98A2B3"/>
<path id="Vector_2" fill-rule="evenodd" clip-rule="evenodd" d="M6.99951 2.25C6.27017 2.25 5.57069 2.53973 5.05497 3.05546C4.53924 3.57118 4.24951 4.27065 4.24951 5V19C4.24951 19.7293 4.53924 20.4288 5.05497 20.9445C5.57069 21.4603 6.27017 21.75 6.99951 21.75H16.9995C17.7289 21.75 18.4283 21.4603 18.9441 20.9445C19.4598 20.4288 19.7495 19.7293 19.7495 19V7.968C19.7495 7.587 19.6255 7.217 19.3955 6.913L16.3975 2.945C16.2344 2.72912 16.0234 2.554 15.7812 2.43341C15.539 2.31282 15.2721 2.25004 15.0015 2.25H6.99951ZM5.74951 5C5.74951 4.31 6.30951 3.75 6.99951 3.75H14.2495V8.147C14.2495 8.561 14.5855 8.897 14.9995 8.897H18.2495V19C18.2495 19.69 17.6895 20.25 16.9995 20.25H6.99951C6.30951 20.25 5.74951 19.69 5.74951 19V5Z" fill="#98A2B3"/>
</g>
</svg>
