<svg width="20" height="20" viewBox="0 0 20 20" fill="none" xmlns="http://www.w3.org/2000/svg">
<path d="M5.83333 10.0026C5.83333 9.54237 6.20643 9.16927 6.66667 9.16927H13.3333C13.7936 9.16927 14.1667 9.54237 14.1667 10.0026C14.1667 10.4628 13.7936 10.8359 13.3333 10.8359H6.66667C6.20643 10.8359 5.83333 10.4628 5.83333 10.0026Z" fill="black"/>
<path d="M6.66667 13.3359C6.20643 13.3359 5.83333 13.709 5.83333 14.1693C5.83333 14.6295 6.20643 15.0026 6.66667 15.0026H13.3333C13.7936 15.0026 14.1667 14.6295 14.1667 14.1693C14.1667 13.709 13.7936 13.3359 13.3333 13.3359H6.66667Z" fill="black"/>
<path fill-rule="evenodd" clip-rule="evenodd" d="M5.83333 0.835938C3.99238 0.835938 2.5 2.32832 2.5 4.16927V15.8359C2.5 17.6769 3.99238 19.1693 5.83333 19.1693H14.1667C16.0076 19.1693 17.5 17.6769 17.5 15.8359V7.57439C17.5 6.79461 17.2266 6.0395 16.7274 5.44045L13.8898 2.03532C13.2565 1.27535 12.3183 0.835938 11.3291 0.835938H5.83333ZM4.16667 4.16927C4.16667 3.2488 4.91286 2.5026 5.83333 2.5026H10.8333V5.0026C10.8333 6.84355 12.3257 8.33594 14.1667 8.33594H15.8333V15.8359C15.8333 16.7564 15.0871 17.5026 14.1667 17.5026H5.83333C4.91286 17.5026 4.16667 16.7564 4.16667 15.8359V4.16927ZM15.5661 6.66927C15.5299 6.61322 15.4901 6.55916 15.447 6.50742L12.6094 3.1023C12.5747 3.06065 12.5382 3.02094 12.5 2.98322V5.0026C12.5 5.92308 13.2462 6.66927 14.1667 6.66927H15.5661Z" fill="black"/>
</svg>
