<svg width="20" height="20" viewBox="0 0 20 20" fill="none" xmlns="http://www.w3.org/2000/svg">
<path d="M3.33325 4.99999C3.33325 4.53975 3.70635 4.16666 4.16659 4.16666H15.8333C16.2935 4.16666 16.6666 4.53975 16.6666 4.99999C16.6666 5.46023 16.2935 5.83332 15.8333 5.83332H4.16659C3.70635 5.83332 3.33325 5.46023 3.33325 4.99999Z" fill="#475367"/>
<path d="M4.99992 9.99999C4.99992 9.53975 5.37301 9.16666 5.83325 9.16666H14.1666C14.6268 9.16666 14.9999 9.53975 14.9999 9.99999C14.9999 10.4602 14.6268 10.8333 14.1666 10.8333H5.83325C5.37301 10.8333 4.99992 10.4602 4.99992 9.99999Z" fill="#475367"/>
<path d="M7.49992 14.1667C7.03968 14.1667 6.66659 14.5398 6.66659 15C6.66659 15.4602 7.03968 15.8333 7.49992 15.8333H12.4999C12.9602 15.8333 13.3333 15.4602 13.3333 15C13.3333 14.5398 12.9602 14.1667 12.4999 14.1667H7.49992Z" fill="#475367"/>
</svg>
