<svg width="20" height="20" viewBox="0 0 20 20" fill="none" xmlns="http://www.w3.org/2000/svg">
<path d="M10.8337 10.0003C10.8337 9.54009 10.4606 9.16699 10.0003 9.16699C9.54009 9.16699 9.16699 9.54009 9.16699 10.0003C9.16699 10.4606 9.54009 10.8337 10.0003 10.8337C10.4606 10.8337 10.8337 10.4606 10.8337 10.0003Z" fill="#175CFF"/>
<path fill-rule="evenodd" clip-rule="evenodd" d="M4.16699 4.16699H15.8337C17.2144 4.16699 18.3337 5.28628 18.3337 6.66699V13.3337C18.3337 14.7144 17.2144 15.8337 15.8337 15.8337H4.16699C2.78628 15.8337 1.66699 14.7144 1.66699 13.3337V6.66699C1.66699 5.28628 2.78628 4.16699 4.16699 4.16699ZM4.16699 5.41699C3.70675 5.41699 3.33366 5.79009 3.33366 6.25033C3.33366 6.71056 3.70675 7.08366 4.16699 7.08366H5.83366C6.2939 7.08366 6.66699 6.71056 6.66699 6.25033C6.66699 5.79009 6.2939 5.41699 5.83366 5.41699H4.16699ZM13.3337 6.25033C13.3337 5.79009 13.7068 5.41699 14.167 5.41699H15.8337C16.2939 5.41699 16.667 5.79009 16.667 6.25033C16.667 6.71056 16.2939 7.08366 15.8337 7.08366H14.167C13.7068 7.08366 13.3337 6.71056 13.3337 6.25033ZM4.16699 12.917C3.70675 12.917 3.33366 13.2901 3.33366 13.7503C3.33366 14.2106 3.70675 14.5837 4.16699 14.5837H5.83366C6.2939 14.5837 6.66699 14.2106 6.66699 13.7503C6.66699 13.2901 6.2939 12.917 5.83366 12.917H4.16699ZM13.3337 13.7503C13.3337 13.2901 13.7068 12.917 14.167 12.917H15.8337C16.2939 12.917 16.667 13.2901 16.667 13.7503C16.667 14.2106 16.2939 14.5837 15.8337 14.5837H14.167C13.7068 14.5837 13.3337 14.2106 13.3337 13.7503ZM10.0003 7.50033C11.381 7.50033 12.5003 8.61961 12.5003 10.0003C12.5003 11.381 11.381 12.5003 10.0003 12.5003C8.61961 12.5003 7.50033 11.381 7.50033 10.0003C7.50033 8.61961 8.61961 7.50033 10.0003 7.50033Z" fill="#175CFF"/>
</svg>
