<svg width="20" height="20" viewBox="0 0 20 20" fill="none" xmlns="http://www.w3.org/2000/svg">
<path d="M10.8337 9.99935C10.8337 9.53911 10.4606 9.16602 10.0003 9.16602C9.54009 9.16602 9.16699 9.53911 9.16699 9.99935C9.16699 10.4596 9.54009 10.8327 10.0003 10.8327C10.4606 10.8327 10.8337 10.4596 10.8337 9.99935Z" fill="#667185"/>
<path fill-rule="evenodd" clip-rule="evenodd" d="M4.16699 4.16602H15.8337C17.2144 4.16602 18.3337 5.2853 18.3337 6.66602V13.3327C18.3337 14.7134 17.2144 15.8327 15.8337 15.8327H4.16699C2.78628 15.8327 1.66699 14.7134 1.66699 13.3327V6.66602C1.66699 5.2853 2.78628 4.16602 4.16699 4.16602ZM4.16699 5.41602C3.70675 5.41602 3.33366 5.78911 3.33366 6.24935C3.33366 6.70959 3.70675 7.08268 4.16699 7.08268H5.83366C6.2939 7.08268 6.66699 6.70959 6.66699 6.24935C6.66699 5.78911 6.2939 5.41602 5.83366 5.41602H4.16699ZM13.3337 6.24935C13.3337 5.78911 13.7068 5.41602 14.167 5.41602H15.8337C16.2939 5.41602 16.667 5.78911 16.667 6.24935C16.667 6.70959 16.2939 7.08268 15.8337 7.08268H14.167C13.7068 7.08268 13.3337 6.70959 13.3337 6.24935ZM4.16699 12.916C3.70675 12.916 3.33366 13.2891 3.33366 13.7493C3.33366 14.2096 3.70675 14.5827 4.16699 14.5827H5.83366C6.2939 14.5827 6.66699 14.2096 6.66699 13.7493C6.66699 13.2891 6.2939 12.916 5.83366 12.916H4.16699ZM13.3337 13.7493C13.3337 13.2891 13.7068 12.916 14.167 12.916H15.8337C16.2939 12.916 16.667 13.2891 16.667 13.7493C16.667 14.2096 16.2939 14.5827 15.8337 14.5827H14.167C13.7068 14.5827 13.3337 14.2096 13.3337 13.7493ZM10.0003 7.49935C11.381 7.49935 12.5003 8.61864 12.5003 9.99935C12.5003 11.3801 11.381 12.4993 10.0003 12.4993C8.61961 12.4993 7.50033 11.3801 7.50033 9.99935C7.50033 8.61864 8.61961 7.49935 10.0003 7.49935Z" fill="#667185"/>
</svg>
