<svg width="20" height="20" viewBox="0 0 20 20" fill="none" xmlns="http://www.w3.org/2000/svg">
<path fill-rule="evenodd" clip-rule="evenodd" d="M4.67054 1.31784C4.97636 1.18629 5.33114 1.24938 5.57285 1.47829L5.57505 1.48037L5.58383 1.48863L5.62021 1.5226C5.65247 1.5526 5.70019 1.59666 5.76047 1.65146C5.88124 1.76125 6.05137 1.91318 6.24799 2.081C6.65108 2.42507 7.12906 2.80444 7.51368 3.03651C8.76964 3.79431 10.7506 4.01158 12.5542 3.99837C13.4315 3.99194 14.2226 3.932 14.7945 3.87351C15.0799 3.84431 15.3094 3.81562 15.4662 3.79445C15.5445 3.78386 15.6046 3.77517 15.6443 3.76925L15.6883 3.76257L15.6983 3.76099L15.7001 3.76071C15.9933 3.71338 16.2897 3.82559 16.4779 4.05535C16.6661 4.28517 16.7177 4.59781 16.6134 4.87596L15.5079 7.82398L17.3732 10.8084C17.5186 11.041 17.5402 11.3303 17.4309 11.582C17.3216 11.8336 17.0954 12.0154 16.8261 12.0679C12.436 12.9248 9.78118 12.3331 5.83317 11.2831V17.9167C5.83317 18.3769 5.46007 18.75 4.99984 18.75C4.5396 18.75 4.1665 18.3769 4.1665 17.9167V2.08335C4.1665 1.7504 4.36469 1.44941 4.67054 1.31784ZM12.5664 5.66499C13.3218 5.65946 14.0147 5.61713 14.5738 5.56845L13.8029 7.62408C13.7118 7.86696 13.739 8.13839 13.8765 8.35835L15.3001 10.6361C11.8562 11.1215 9.56691 10.5557 5.83317 9.5581V3.89229C6.102 4.09964 6.38514 4.30212 6.65266 4.46353C8.33571 5.47904 10.7298 5.67844 12.5664 5.66499Z" fill="#98A2B3"/>
</svg>
