<svg width="18" height="15" viewBox="0 0 18 15" fill="none" xmlns="http://www.w3.org/2000/svg">
<path d="M10.5508 14.5H12.5508L7.55078 0.5H5.55078L0.550781 14.5H2.55078L3.95078 10.5H9.05078L10.5508 14.5ZM4.65078 8.5L6.55078 3.3L8.45078 8.5H4.65078ZM17.4508 13C17.4508 13.2967 17.3628 13.5867 17.198 13.8334C17.0332 14.08 16.7989 14.2723 16.5248 14.3858C16.2507 14.4993 15.9491 14.5291 15.6581 14.4712C15.3672 14.4133 15.0999 14.2704 14.8901 14.0607C14.6803 13.8509 14.5375 13.5836 14.4796 13.2926C14.4217 13.0017 14.4514 12.7001 14.565 12.426C14.6785 12.1519 14.8708 11.9176 15.1174 11.7528C15.3641 11.588 15.6541 11.5 15.9508 11.5C16.3486 11.5 16.7301 11.658 17.0114 11.9393C17.2927 12.2206 17.4508 12.6022 17.4508 13ZM17.4508 9C17.4508 9.29667 17.3628 9.58668 17.198 9.83335C17.0332 10.08 16.7989 10.2723 16.5248 10.3858C16.2507 10.4994 15.9491 10.5291 15.6581 10.4712C15.3672 10.4133 15.0999 10.2704 14.8901 10.0607C14.6803 9.85088 14.5375 9.58361 14.4796 9.29264C14.4217 9.00166 14.4514 8.70006 14.565 8.42597C14.6785 8.15189 14.8708 7.91762 15.1174 7.7528C15.3641 7.58797 15.6541 7.5 15.9508 7.5C16.3486 7.5 16.7301 7.65804 17.0114 7.93934C17.2927 8.22064 17.4508 8.60218 17.4508 9ZM17.4508 5C17.4508 5.29667 17.3628 5.58668 17.198 5.83335C17.0332 6.08003 16.7989 6.27229 16.5248 6.38582C16.2507 6.49935 15.9491 6.52906 15.6581 6.47118C15.3672 6.4133 15.0999 6.27044 14.8901 6.06066C14.6803 5.85088 14.5375 5.58361 14.4796 5.29264C14.4217 5.00166 14.4514 4.70006 14.565 4.42597C14.6785 4.15189 14.8708 3.91762 15.1174 3.7528C15.3641 3.58797 15.6541 3.5 15.9508 3.5C16.3486 3.5 16.7301 3.65804 17.0114 3.93934C17.2927 4.22064 17.4508 4.60218 17.4508 5Z" fill="black"/>
</svg>
