<svg width="20" height="20" viewBox="0 0 20 20" fill="none" xmlns="http://www.w3.org/2000/svg">
<path d="M11.2499 12.5V16.6667C11.2499 17.357 11.8096 17.9167 12.4999 17.9167H16.6666C17.3569 17.9167 17.9166 17.357 17.9166 16.6667V12.5C17.9166 11.8097 17.3569 11.25 16.6666 11.25H12.4999C11.8096 11.25 11.2499 11.8097 11.2499 12.5Z" fill="#475367"/>
<path d="M2.08325 12.5L2.08325 16.6667C2.08325 17.357 2.6429 17.9167 3.33325 17.9167H7.49992C8.19028 17.9167 8.74992 17.357 8.74992 16.6667V12.5C8.74992 11.8097 8.19027 11.25 7.49992 11.25H3.33325C2.6429 11.25 2.08325 11.8097 2.08325 12.5Z" fill="#475367"/>
<path d="M2.08325 3.33334L2.08325 7.50001C2.08325 8.19037 2.6429 8.75001 3.33325 8.75001H7.49992C8.19028 8.75001 8.74992 8.19037 8.74992 7.50001V3.33334C8.74992 2.64299 8.19027 2.08334 7.49992 2.08334L3.33325 2.08334C2.6429 2.08334 2.08325 2.64299 2.08325 3.33334Z" fill="#475367"/>
<path d="M11.2499 3.33334V7.50001C11.2499 8.19037 11.8096 8.75001 12.4999 8.75001H16.6666C17.3569 8.75001 17.9166 8.19037 17.9166 7.50001V3.33334C17.9166 2.64299 17.3569 2.08334 16.6666 2.08334L12.4999 2.08334C11.8096 2.08334 11.2499 2.64299 11.2499 3.33334Z" fill="#475367"/>
<path d="M11.2499 12.5V16.6667C11.2499 17.357 11.8096 17.9167 12.4999 17.9167H16.6666C17.3569 17.9167 17.9166 17.357 17.9166 16.6667V12.5C17.9166 11.8097 17.3569 11.25 16.6666 11.25H12.4999C11.8096 11.25 11.2499 11.8097 11.2499 12.5Z" fill="#475367"/>
<path d="M2.08325 12.5L2.08325 16.6667C2.08325 17.357 2.6429 17.9167 3.33325 17.9167H7.49992C8.19028 17.9167 8.74992 17.357 8.74992 16.6667V12.5C8.74992 11.8097 8.19027 11.25 7.49992 11.25H3.33325C2.6429 11.25 2.08325 11.8097 2.08325 12.5Z" fill="#475367"/>
<path d="M2.08325 3.33334L2.08325 7.50001C2.08325 8.19037 2.6429 8.75001 3.33325 8.75001H7.49992C8.19028 8.75001 8.74992 8.19037 8.74992 7.50001V3.33334C8.74992 2.64299 8.19027 2.08334 7.49992 2.08334L3.33325 2.08334C2.6429 2.08334 2.08325 2.64299 2.08325 3.33334Z" fill="#475367"/>
<path d="M11.2499 3.33334V7.50001C11.2499 8.19037 11.8096 8.75001 12.4999 8.75001H16.6666C17.3569 8.75001 17.9166 8.19037 17.9166 7.50001V3.33334C17.9166 2.64299 17.3569 2.08334 16.6666 2.08334L12.4999 2.08334C11.8096 2.08334 11.2499 2.64299 11.2499 3.33334Z" fill="#475367"/>
</svg>
