<svg width="40" height="40" viewBox="0 0 40 40" fill="none" xmlns="http://www.w3.org/2000/svg">
<g id="Avatars">
<rect id="Image" width="40" height="40" rx="20" fill="#447CFB"/>
<g id="icon / user-group">
<g id="icon">
<path d="M20 20.8337C21.8409 20.8337 23.3333 19.3413 23.3333 17.5003C23.3333 15.6594 21.8409 14.167 20 14.167C18.159 14.167 16.6666 15.6594 16.6666 17.5003C16.6666 19.3413 18.159 20.8337 20 20.8337Z" fill="white"/>
<path d="M15.2183 25.0003C14.035 27.2254 17.9519 28.3337 20 28.3337C22.048 28.3337 25.9649 27.2254 24.7817 25.0003C23.8918 23.3271 22.092 21.667 20 21.667C17.908 21.667 16.1081 23.3271 15.2183 25.0003Z" fill="white"/>
<path d="M16.25 20.0003C16.25 20.9208 15.5038 21.667 14.5833 21.667C13.6628 21.667 12.9166 20.9208 12.9166 20.0003C12.9166 19.0799 13.6628 18.3337 14.5833 18.3337C15.5038 18.3337 16.25 19.0799 16.25 20.0003Z" fill="white"/>
<path d="M12.4131 26.2042C12.2085 26.6164 11.7084 26.7847 11.2962 26.5801C10.8839 26.3755 10.7156 25.8754 10.9202 25.4632C11.2264 24.8464 11.6898 24.227 12.2727 23.7532C12.8558 23.2791 13.6031 22.917 14.456 22.917C14.9162 22.917 15.2893 23.2901 15.2893 23.7503C15.2893 24.2106 14.9162 24.5837 14.456 24.5837C14.0885 24.5837 13.7006 24.7403 13.324 25.0465C12.9471 25.3528 12.626 25.7752 12.4131 26.2042Z" fill="white"/>
<path d="M27.3417 20.0003C27.3417 20.9208 26.5955 21.667 25.675 21.667C24.7546 21.667 24.0084 20.9208 24.0084 20.0003C24.0084 19.0799 24.7546 18.3337 25.675 18.3337C26.5955 18.3337 27.3417 19.0799 27.3417 20.0003Z" fill="white"/>
<path d="M29.0834 25.4632C29.288 25.8754 29.1197 26.3755 28.7075 26.5801C28.2952 26.7847 27.7952 26.6164 27.5905 26.2042C27.3776 25.7752 27.0565 25.3528 26.6796 25.0465C26.303 24.7403 25.9152 24.5837 25.5477 24.5837C25.0874 24.5837 24.7143 24.2106 24.7143 23.7503C24.7143 23.2901 25.0874 22.917 25.5477 22.917C26.4005 22.917 27.1478 23.2791 27.7309 23.7532C28.3139 24.227 28.7773 24.8463 29.0834 25.4632Z" fill="white"/>
</g>
</g>
</g>
</svg>
