<svg width="20" height="21" viewBox="0 0 20 21" fill="none" xmlns="http://www.w3.org/2000/svg">
<path fill-rule="evenodd" clip-rule="evenodd" d="M8.33366 2.16797C7.41318 2.16797 6.66699 2.91416 6.66699 3.83464V7.16797H3.33366C2.41318 7.16797 1.66699 7.91416 1.66699 8.83464V12.168C1.66699 13.0884 2.41318 13.8346 3.33366 13.8346H6.66699V17.168C6.66699 18.0884 7.41318 18.8346 8.33366 18.8346H11.667C12.5875 18.8346 13.3337 18.0884 13.3337 17.168V13.8346H16.667C17.5875 13.8346 18.3337 13.0884 18.3337 12.168V8.83464C18.3337 7.91416 17.5875 7.16797 16.667 7.16797H13.3337V3.83464C13.3337 2.91416 12.5875 2.16797 11.667 2.16797H8.33366ZM6.66699 8.83464C7.58747 8.83464 8.33366 8.08844 8.33366 7.16797V3.83464H11.667V7.16797C11.667 8.08844 12.4132 8.83464 13.3337 8.83464H16.667V12.168H13.3337C12.4132 12.168 11.667 12.9142 11.667 13.8346V17.168H8.33366V13.8346C8.33366 12.9142 7.58747 12.168 6.66699 12.168H3.33366V8.83464H6.66699Z" fill="#98A2B3"/>
</svg>
