<svg width="20" height="20" viewBox="0 0 20 20" fill="none" xmlns="http://www.w3.org/2000/svg">
<path d="M4.83287 2.4974C4.83287 2.03716 4.45977 1.66406 3.99953 1.66406C3.53929 1.66406 3.1662 2.03716 3.1662 2.4974V5.4974C3.1662 5.95763 3.53929 6.33073 3.99953 6.33073H7.00008C7.46032 6.33073 7.83341 5.95763 7.83341 5.4974C7.83341 5.03716 7.46032 4.66406 7.00008 4.66406H5.99922C7.11395 3.82637 8.49908 3.33073 10.0001 3.33073C13.682 3.33073 16.6667 6.3155 16.6667 9.9974C16.6667 13.6793 13.682 16.6641 10.0001 16.6641C6.31818 16.6641 3.33341 13.6793 3.33341 9.9974C3.33341 9.53716 2.96032 9.16406 2.50008 9.16406C2.03984 9.16406 1.66675 9.53716 1.66675 9.9974C1.66675 14.5998 5.39771 18.3307 10.0001 18.3307C14.6025 18.3307 18.3334 14.5998 18.3334 9.9974C18.3334 5.39502 14.6025 1.66406 10.0001 1.66406C8.04803 1.66406 6.25272 2.3357 4.83287 3.45919V2.4974Z" fill="#475367"/>
<path d="M10.0001 7.08073C10.0001 6.62049 9.62699 6.2474 9.16675 6.2474C8.70651 6.2474 8.33342 6.62049 8.33342 7.08073V11.2474C8.33342 11.7076 8.70651 12.0807 9.16675 12.0807H11.6667C12.127 12.0807 12.5001 11.7076 12.5001 11.2474C12.5001 10.7872 12.127 10.4141 11.6667 10.4141H10.0001V7.08073Z" fill="#475367"/>
</svg>
