<svg width="34" height="34" viewBox="0 0 34 34" fill="none" xmlns="http://www.w3.org/2000/svg">
<rect width="34" height="34" rx="8" fill="#E3EAFB"/>
<path fill-rule="evenodd" clip-rule="evenodd" d="M19.4118 8.98733C18.264 8.18391 16.7364 8.18391 15.5887 8.98733L9.85737 12.9992C8.89185 13.6751 8.355 14.8106 8.44539 15.9857L9.03291 23.6234C9.14371 25.0638 10.4489 26.1108 11.8791 25.9065L14.5204 25.5292C15.7521 25.3532 16.6669 24.2984 16.6669 23.0543V21.9998C16.6669 21.5396 17.04 21.1665 17.5002 21.1665C17.9605 21.1665 18.3336 21.5396 18.3336 21.9998V23.0543C18.3336 24.2984 19.2484 25.3532 20.48 25.5292L23.1214 25.9065C24.5516 26.1108 25.8567 25.0639 25.9675 23.6234L26.5551 15.9857C26.6454 14.8106 26.1086 13.6751 25.1431 12.9992L19.4118 8.98733ZM16.5445 10.3527C17.1183 9.95101 17.8821 9.95101 18.456 10.3527L24.1873 14.3646C24.6701 14.7026 24.9385 15.2703 24.8933 15.8578L24.3058 23.4955C24.2688 23.9757 23.8338 24.3247 23.3571 24.2566L20.7157 23.8793C20.3052 23.8206 20.0002 23.469 20.0002 23.0543V21.9998C20.0002 20.6191 18.8809 19.4998 17.5002 19.4998C16.1195 19.4998 15.0002 20.6191 15.0002 21.9998V23.0543C15.0002 23.469 14.6953 23.8206 14.2847 23.8793L11.6434 24.2566C11.1667 24.3247 10.7316 23.9757 10.6947 23.4955L10.1071 15.8578C10.062 15.2703 10.3304 14.7026 10.8131 14.3646L16.5445 10.3527Z" fill="#175CFF"/>
</svg>
