<svg width="20" height="20" viewBox="0 0 20 20" fill="none" xmlns="http://www.w3.org/2000/svg">
<g id="icon / image">
<g id="icon">
<path d="M4.31899 7.33222C4.71989 7.46585 5.03448 7.78044 5.16811 8.18134C5.30411 8.58935 5.88123 8.58935 6.01723 8.18134C6.15087 7.78044 6.46545 7.46585 6.86635 7.33222C7.27436 7.19622 7.27436 6.6191 6.86635 6.4831C6.46545 6.34946 6.15087 6.03488 6.01723 5.63398C5.88123 5.22597 5.30411 5.22597 5.16811 5.63398C5.03448 6.03488 4.71989 6.34946 4.31899 6.4831C3.91098 6.6191 3.91098 7.19622 4.31899 7.33222Z" fill="#98A2B3"/>
<path fill-rule="evenodd" clip-rule="evenodd" d="M4.16658 1.66699C2.32564 1.66699 0.833252 3.15938 0.833252 5.00033V15.0003C0.833252 16.8413 2.32564 18.3337 4.16658 18.3337H15.8333C17.6742 18.3337 19.1666 16.8413 19.1666 15.0003V5.00033C19.1666 3.15938 17.6742 1.66699 15.8333 1.66699H4.16658ZM17.4999 11.4988V5.00033C17.4999 4.07985 16.7537 3.33366 15.8333 3.33366H4.16658C3.24611 3.33366 2.49992 4.07985 2.49992 5.00033V15.0003C2.49992 15.9208 3.24611 16.667 4.16658 16.667H4.28548C4.20831 16.4306 4.16658 16.1782 4.16658 15.9161C4.16658 15.4203 4.31898 14.9366 4.60311 14.5304L6.94619 11.1806C7.68466 10.1248 9.10457 9.80315 10.2259 10.4376L10.489 10.5865L10.8829 10.0238C11.662 8.91082 13.1874 8.62374 14.3178 9.37735L17.4999 11.4988ZM9.52886 11.9582L9.40516 11.8882C9.03138 11.6767 8.55808 11.7839 8.31192 12.1358L5.96884 15.4857C5.88059 15.6118 5.83325 15.7621 5.83325 15.9161C5.83325 16.3308 6.16945 16.667 6.58417 16.667H7.51005C7.2548 15.952 7.31711 15.1178 7.8196 14.4L9.52886 11.9582ZM9.86768 16.667H15.8333C16.7537 16.667 17.4999 15.9208 17.4999 15.0003V13.9479C17.4999 13.6692 17.3607 13.409 17.1288 13.2545L13.3933 10.7641C13.0165 10.5129 12.508 10.6086 12.2483 10.9796L9.18499 15.3558C8.79836 15.9081 9.19349 16.667 9.86768 16.667Z" fill="#98A2B3"/>
</g>
</g>
</svg>
