<svg width="33" height="32" viewBox="0 0 33 32" fill="none" xmlns="http://www.w3.org/2000/svg">
<path d="M21.5003 15.9974C21.5003 16.9179 22.2465 17.6641 23.167 17.6641C24.0875 17.6641 24.8337 16.9179 24.8337 15.9974C24.8337 15.0769 24.0875 14.3307 23.167 14.3307C22.2465 14.3307 21.5003 15.0769 21.5003 15.9974Z" fill="#475367"/>
<path d="M16.5003 17.6641C15.5799 17.6641 14.8337 16.9179 14.8337 15.9974C14.8337 15.0769 15.5799 14.3307 16.5003 14.3307C17.4208 14.3307 18.167 15.0769 18.167 15.9974C18.167 16.9179 17.4208 17.6641 16.5003 17.6641Z" fill="#475367"/>
<path d="M8.16699 15.9974C8.16699 16.9179 8.91318 17.6641 9.83366 17.6641C10.7541 17.6641 11.5003 16.9179 11.5003 15.9974C11.5003 15.0769 10.7541 14.3307 9.83366 14.3307C8.91318 14.3307 8.16699 15.0769 8.16699 15.9974Z" fill="#475367"/>
<path fill-rule="evenodd" clip-rule="evenodd" d="M16.5003 2.66406C9.13653 2.66406 3.16699 8.6336 3.16699 15.9974C3.16699 17.1072 3.30286 18.187 3.5595 19.2205L3.90017 21.9458C3.90217 21.9618 3.90184 21.978 3.89919 21.9939L3.442 24.737C3.1773 26.3252 4.28765 27.8145 5.88535 28.0142L13.2772 28.9382C14.3107 29.1949 15.3906 29.3307 16.5003 29.3307C23.8641 29.3307 29.8337 23.3612 29.8337 15.9974C29.8337 8.6336 23.8641 2.66406 16.5003 2.66406ZM5.83366 15.9974C5.83366 10.1064 10.6093 5.33073 16.5003 5.33073C22.3914 5.33073 27.167 10.1064 27.167 15.9974C27.167 21.8884 22.3914 26.6641 16.5003 26.6641C15.5849 26.6641 14.6983 26.5491 13.8533 26.3334L13.7721 26.3127L6.21611 25.3682C6.12213 25.3564 6.05682 25.2688 6.07239 25.1754L6.52957 22.4323C6.5746 22.1621 6.58021 21.8868 6.54624 21.615L6.18506 18.7256L6.16434 18.6444C5.94866 17.7994 5.83366 16.9128 5.83366 15.9974Z" fill="#475367"/>
</svg>
