<svg width="18" height="19" viewBox="0 0 18 19" fill="none" xmlns="http://www.w3.org/2000/svg">
<path fill-rule="evenodd" clip-rule="evenodd" d="M18 9.5C18 14.4706 13.9706 18.5 9 18.5C4.02944 18.5 0 14.4706 0 9.5C0 4.52944 4.02944 0.5 9 0.5C13.9706 0.5 18 4.52944 18 9.5ZM9 3.5C9.55229 3.5 10 3.94772 10 4.5V11.5C10 12.0523 9.55228 12.5 9 12.5C8.44771 12.5 8 12.0523 8 11.5L8 4.5C8 3.94772 8.44771 3.5 9 3.5ZM7.75 14.25C7.75 14.9404 8.30964 15.5 9 15.5C9.69036 15.5 10.25 14.9404 10.25 14.25C10.25 13.5596 9.69036 13 9 13C8.30964 13 7.75 13.5596 7.75 14.25Z" fill="#1671D9"/>
</svg>
