<svg width="13" height="12" viewBox="0 0 13 12" fill="none" xmlns="http://www.w3.org/2000/svg">
<path fill-rule="evenodd" clip-rule="evenodd" d="M0.955446 8.78511L5.16289 0.936372C5.83216 -0.312123 7.66784 -0.312125 8.33711 0.93637L12.5446 8.78511C13.1664 9.94507 12.3017 11.3333 10.9574 11.3333H2.54256C1.19828 11.3333 0.333629 9.94507 0.955446 8.78511ZM6.75 2C7.11819 2 7.41667 2.29848 7.41667 2.66667V7.33333C7.41667 7.70152 7.11819 8 6.75 8C6.38181 8 6.08333 7.70152 6.08333 7.33333V2.66667C6.08333 2.29848 6.38181 2 6.75 2ZM5.91667 9.16667C5.91667 9.6269 6.28976 10 6.75 10C7.21024 10 7.58333 9.6269 7.58333 9.16667C7.58333 8.70643 7.21024 8.33333 6.75 8.33333C6.28976 8.33333 5.91667 8.70643 5.91667 9.16667Z" fill="#175CFF"/>
</svg>
