<svg width="17" height="16" viewBox="0 0 17 16" fill="none" xmlns="http://www.w3.org/2000/svg">
<path fill-rule="evenodd" clip-rule="evenodd" d="M2.95545 10.7851L7.16289 2.93637C7.83216 1.68788 9.66784 1.68788 10.3371 2.93637L14.5446 10.7851C15.1664 11.9451 14.3017 13.3333 12.9574 13.3333H4.54256C3.19828 13.3333 2.33363 11.9451 2.95545 10.7851ZM8.75 4C9.11819 4 9.41667 4.29848 9.41667 4.66667V9.33333C9.41667 9.70152 9.11819 10 8.75 10C8.38181 10 8.08333 9.70152 8.08333 9.33333V4.66667C8.08333 4.29848 8.38181 4 8.75 4ZM7.91667 11.1667C7.91667 11.6269 8.28976 12 8.75 12C9.21024 12 9.58333 11.6269 9.58333 11.1667C9.58333 10.7064 9.21024 10.3333 8.75 10.3333C8.28976 10.3333 7.91667 10.7064 7.91667 11.1667Z" fill="#175CFF"/>
</svg>
