<svg width="458" height="396" viewBox="0 0 458 396" fill="none" xmlns="http://www.w3.org/2000/svg">
<path d="M396.52 395.25H31.22C13.98 395.25 0 381.27 0 364.03V31.22C0 13.98 13.98 0 31.22 0H457.88L441.81 15.44C432.77 24.13 427.66 36.13 427.67 48.66L427.75 364C427.75 381.25 413.78 395.24 396.53 395.24L396.52 395.25Z" fill="#F0F2F5"/>
<g clip-path="url(#clip0_8398_166315)">
<path d="M286.591 108.192C279.738 107.865 272.885 108.297 266.059 109.003C260.004 109.631 253.988 110.455 247.946 111.109C241.89 111.776 235.835 112.155 229.754 112.364C223.712 112.587 217.67 112.809 211.693 113.816C205.756 114.823 199.818 116.314 193.75 116.118C192.795 116.092 191.945 114.954 192.573 114.064C195.306 110.193 198.04 106.322 200.773 102.451C209.928 89.4908 219.174 76.5565 229.584 64.5509C229.623 64.1716 229.806 63.8054 230.212 63.5569C230.395 63.4392 230.578 63.3346 230.774 63.23C230.839 63.1777 230.905 63.1384 230.97 63.1123C236.371 59.8166 242.257 57.2272 248.364 55.5662C251.294 54.7685 254.38 54.2977 257.388 54.9123C260.095 55.4747 262.541 56.9264 264.699 58.6004C269.014 61.9222 272.872 66.0679 275.462 70.8807C276.913 73.5486 277.934 76.4127 278.888 79.2768C279.882 82.2455 280.863 85.2142 281.844 88.1829C283.858 94.2643 285.885 100.359 287.899 106.44C288.174 107.264 287.441 108.205 286.578 108.166L286.591 108.192Z" fill="#092566"/>
<path d="M292.79 101.143C285.257 110.52 269.053 125.639 241.537 124.684C213.066 123.703 195.973 105.289 188.531 94.8396C188.976 94.7481 189.434 94.6565 189.891 94.5781C199.621 92.8649 209.587 93.4141 219.395 93.9765C225.176 94.3034 230.956 94.6958 236.724 95.1404C253.869 96.4613 270.962 98.2923 288.042 100.385C289.69 100.581 291.273 100.842 292.803 101.156L292.79 101.143Z" fill="#FFA895"/>
<path d="M261.584 109.997C258.223 110.965 254.692 110.978 251.331 110.024C249.644 109.54 248.912 112.168 250.612 112.652C254.431 113.738 258.498 113.725 262.317 112.626C264.004 112.142 263.284 109.501 261.597 109.997H261.584Z" fill="#F76D6D"/>
<path d="M367.621 216.78C364.731 215.328 148.891 193.789 148.891 193.789C149.806 182.057 153.337 168.129 158.398 141.319C163.42 114.771 169.855 98.7371 188.517 94.8398C195.959 105.289 213.052 123.703 241.523 124.684C269.039 125.639 285.243 110.52 292.776 101.143C298.465 102.334 303.369 104.491 308.129 108.833C314.106 114.3 321.613 122.918 326.112 129.562C334.822 142.431 342.394 160.296 348.894 174.368C359.735 197.856 368.249 215.433 367.621 216.78Z" fill="#FCC85C"/>
<path d="M346.017 199.295C345.978 199.373 345.991 199.386 346.043 199.334C346.043 199.334 346.043 199.308 346.017 199.295Z" fill="#175CFF"/>
<path d="M306.848 157.196C306.011 153.835 304.887 150.46 303.37 147.348C302.062 144.654 300.257 142.143 297.824 140.39C299.564 137.932 301.146 135.368 302.546 132.7C303.356 131.144 301.002 129.771 300.192 131.327C298.596 134.374 296.765 137.304 294.725 140.076C294.293 140.665 294.62 141.607 295.209 141.947C297.694 143.333 299.407 145.582 300.702 148.08C302.153 150.866 303.147 153.913 303.971 156.934C304.874 160.23 305.423 163.695 304.887 167.109C304.39 170.234 303.2 173.164 301.682 175.91C299.878 179.167 297.668 182.162 295.444 185.13C295 185.719 295.353 186.66 295.928 187.001C296.621 187.406 297.354 187.105 297.798 186.517C301.879 181.063 306.155 175.243 307.424 168.404C308.117 164.663 307.79 160.897 306.874 157.222L306.848 157.196Z" fill="white"/>
<path d="M284.603 138.036C283.923 137.853 283.073 138.258 282.929 138.991C282.445 141.345 279.855 142.652 277.514 142.365C274.755 142.012 272.662 139.527 271.512 137.12C269.929 133.812 269.772 129.954 269.249 126.383C268.7 122.604 267.837 118.876 266.673 115.241C265.378 111.174 263.717 107.224 261.742 103.444C260.931 101.888 258.577 103.261 259.388 104.818C263.155 111.997 265.639 119.818 266.725 127.848C267.261 131.785 267.614 135.878 269.628 139.396C271.315 142.352 274.179 144.85 277.684 145.098C281.085 145.346 284.825 143.202 285.544 139.71C285.688 138.991 285.335 138.232 284.59 138.036H284.603Z" fill="#092566"/>
<path d="M292.934 128.96C292.581 130.177 292.084 131.328 291.43 132.374C290.789 133.42 290.043 134.375 289.403 135.434C288.173 137.513 287.912 140.194 286.29 141.973C283.295 145.216 278.535 144.471 275.71 141.385C274.245 139.776 273.225 137.618 272.65 135.395C271.983 132.753 271.97 129.954 271.46 127.273C270.492 122.134 268.242 117.478 266.542 112.626C264.724 107.408 263.861 101.823 263.639 96.2129C263.443 91.2432 264.424 85.7243 268.321 82.8079C270.466 81.1993 273.513 81.0947 275.71 82.5594C275.88 81.9055 276.612 81.5524 277.148 81.7224C277.815 81.9317 278.077 82.6771 277.972 83.3964C277.894 83.9326 277.842 84.4819 277.802 85.0312C277.868 85.175 277.946 85.3058 277.999 85.4627C278.234 86.0774 278.182 86.7575 277.737 87.189C277.776 89.8439 278.234 92.4726 279.071 94.9443C279.895 97.3638 281.15 99.574 282.51 101.653C285.27 105.878 288.592 109.618 290.894 114.221C293.091 118.603 294.346 124.03 292.908 128.973L292.934 128.96Z" fill="#092566"/>
<path d="M237.561 139.697C235.495 143.542 231.114 145.452 226.863 145.268C222.286 145.072 218.363 142.091 216.048 138.259C213.301 133.694 212.935 128.241 214.243 123.153C214.962 120.381 216.113 117.765 217.591 115.32C219.121 112.796 220.978 110.481 222.587 108.009C224.405 105.197 225.699 102.111 226.523 98.8675C227.373 95.5326 227.805 92.1192 228.237 88.7058C228.328 87.9735 227.543 87.3457 226.876 87.3457C226.066 87.3457 225.608 87.9735 225.516 88.7058C224.732 94.8918 223.79 101.065 220.377 106.427C218.729 109.016 216.767 111.409 215.198 114.051C213.602 116.719 212.334 119.635 211.588 122.67C210.189 128.293 210.633 134.322 213.576 139.383C216.218 143.935 220.677 147.348 225.974 147.936C231.401 148.538 237.3 145.988 239.941 141.083C240.778 139.54 238.424 138.154 237.587 139.71L237.561 139.697Z" fill="#092566"/>
<path d="M243.76 111.356C244.009 114.234 243.486 117.281 242.309 119.766C241.275 121.95 239.261 123.846 239 126.514C238.751 129.116 240.02 131.654 240.622 134.047C241.302 136.728 241.288 139.553 240.033 141.972C238.856 144.222 236.947 145.882 234.867 146.51C232.395 147.243 229.78 146.68 227.465 145.477C223.149 143.241 219.265 139.173 216.989 134.034C214.596 128.633 214.099 121.91 216.231 116.261C217.277 113.488 218.912 111.186 220.272 108.662C221.593 106.217 222.482 103.549 223.018 100.672C224.117 94.7865 223.764 88.6006 223.411 82.6239C223.372 81.9046 223.921 81.2899 224.47 81.2638C225.438 79.1582 227.112 77.7719 229.126 77.4973C230.329 77.3273 231.558 77.5627 232.722 77.9681C233.873 78.3604 235.063 78.8835 236.057 79.7075C238.111 81.4207 238.882 84.2586 238.804 87.2535C238.712 90.4184 237.548 93.6225 237.98 96.8005C238.346 99.4423 239.889 101.535 241.132 103.601C242.544 105.942 243.499 108.414 243.76 111.356Z" fill="#092566"/>
<path d="M275.318 79.5129C272.414 87.8305 264.515 93.7941 255.204 93.7941C247.762 93.7941 241.223 89.9753 237.404 84.2079C245.853 83.7502 253.595 79.2906 260.212 74.0724C262.122 72.5815 263.953 71.0121 265.784 69.4297C268.229 72.5553 270.884 75.511 273.801 78.2182C274.284 78.6628 274.781 79.1075 275.305 79.539L275.318 79.5129Z" fill="#FFA895"/>
<path d="M287.532 88.9548C283.935 103.589 270.36 102.216 255.295 102.216C240.229 102.216 228.014 90.0011 228.014 74.9351C228.014 59.8692 240.229 47.6543 255.295 47.6543C270.36 47.6543 291.547 72.6465 287.532 88.9679V88.9548Z" fill="#092566"/>
<path d="M278.443 82.8995C278.443 85.5413 277.959 88.0784 277.083 90.4194C274.049 98.4755 266.268 104.204 257.152 104.204C248.037 104.204 240.321 98.5278 237.261 90.5371C236.502 88.5623 236.031 86.4567 235.9 84.2596C236.424 84.2596 236.92 84.2596 237.431 84.2204C237.849 84.1942 238.254 84.1681 238.66 84.1158C246.624 83.3311 253.935 79.0415 260.239 74.0718C260.971 73.4964 261.703 72.8948 262.423 72.2932C263.561 71.3516 264.685 70.3838 265.81 69.416C268.256 72.5417 270.91 75.4973 273.827 78.2045C274.311 78.6491 274.808 79.0938 275.331 79.5254C276.299 80.3231 277.332 81.0686 278.417 81.6832C278.443 82.0887 278.443 82.4941 278.443 82.8995Z" fill="#FFA895"/>
<path d="M242.426 86.0644C242.426 89.674 239.496 92.6035 235.887 92.6035C232.277 92.6035 229.348 89.674 229.348 86.0644C229.348 82.4549 232.277 79.5254 235.887 79.5254C239.496 79.5254 242.426 82.4549 242.426 86.0644Z" fill="#FFA895"/>
<path d="M377.116 179.311H215.576C212.018 179.311 209.154 182.188 209.154 185.732V317.781C209.154 321.325 212.031 324.202 215.576 324.202H377.116C380.66 324.202 383.537 321.325 383.537 317.781V185.732C383.537 182.188 380.66 179.311 377.116 179.311Z" fill="#092566"/>
<path d="M322.647 208.632L320.11 207.965C319.979 205.297 319.286 202.734 318.109 200.406L319.887 198.601C321.143 197.333 321.13 195.28 319.861 194.024L316.474 190.676C315.205 189.421 313.152 189.434 311.897 190.702L310.327 192.285C308.98 191.539 307.502 190.951 305.946 190.532C304.743 190.218 303.553 190.035 302.363 189.957L301.84 188.074C301.369 186.347 299.59 185.34 297.864 185.811L293.274 187.067C291.547 187.537 290.54 189.316 291.011 191.042L291.443 192.599C288.892 194.116 286.695 196.221 285.087 198.798L283.713 198.444C281.987 197.987 280.222 199.033 279.764 200.759L278.561 205.363C278.103 207.089 279.149 208.868 280.876 209.312L282.196 209.652C282.314 212.726 283.19 215.681 284.668 218.284L283.635 219.33C282.38 220.599 282.393 222.652 283.661 223.908L287.048 227.255C288.317 228.511 290.37 228.498 291.626 227.229L292.868 225.974C293.967 226.51 295.144 226.942 296.373 227.269C297.969 227.687 299.577 227.883 301.147 227.896L301.683 229.858C302.154 231.584 303.932 232.591 305.658 232.121L310.249 230.865C311.975 230.394 312.982 228.616 312.511 226.889L311.871 224.574C314.042 223.084 315.925 221.148 317.337 218.846L319.809 219.5C321.535 219.958 323.314 218.912 323.759 217.185L324.962 212.582C325.419 210.856 324.373 209.077 322.647 208.632ZM300.31 214.465C297.275 213.667 295.458 210.568 296.255 207.534C297.053 204.5 300.153 202.682 303.187 203.48C306.221 204.277 308.039 207.377 307.241 210.411C306.443 213.445 303.344 215.263 300.31 214.465Z" fill="#FCCA46"/>
<path d="M245.931 163.67C246.167 166.377 248.233 168.169 250.574 168.836C251.79 169.176 253.046 169.215 254.301 169.228C255.779 169.241 257.257 169.189 258.748 169.162C263.94 169.019 269.354 168.966 274.128 171.582C276.089 172.667 277.829 174.224 279.019 176.225C280.444 178.631 281.805 180.135 281.975 182.894C282.158 185.641 283.034 190.14 283.609 192.847C284.067 195.044 282.968 197.15 284.747 198.536C286.853 200.184 289.547 199.922 291.561 198.34C293.614 196.718 294.843 194.168 295.55 191.604C297.001 186.386 296.308 180.828 294.647 175.715C293.065 170.823 290.567 166.141 287.454 162.14C284.472 158.308 280.732 154.947 276.325 153.181C270.963 151.049 265.326 151.729 260.003 153.43C254.576 155.156 249.436 157.837 244.807 161.263C243.603 162.153 244.715 163.97 245.931 163.657V163.67Z" fill="#FFA895"/>
<path d="M237.038 181.625C239.052 186.032 242.269 189.825 245.382 193.487C246.872 195.252 248.35 197.162 250.364 198.352C252.365 199.529 254.758 199.673 257.008 199.346C261.585 198.653 266.071 196.717 269.968 194.258C271.891 193.042 273.696 191.656 275.343 190.086C276.913 188.595 278.391 186.895 279.031 184.79C279.764 182.383 279.254 179.925 278.678 177.545C278.09 175.138 277.37 172.784 276.468 170.469C275.644 168.351 274.676 166.297 273.591 164.31C273.735 164.126 273.839 163.917 273.879 163.682C274.101 162.675 273.983 161.615 273.604 160.648C272.819 158.686 271.028 157.221 269.04 156.633C266.751 155.953 264.345 156.24 262.03 156.646C257.073 157.522 252.012 158.594 247.291 160.386C243.067 161.982 239.156 164.545 236.894 168.56C234.592 172.653 235.141 177.479 237.038 181.612V181.625ZM269.17 162.465C269.079 162.465 269.118 162.439 269.17 162.465V162.465Z" fill="#FFA895"/>
<path d="M226.379 174.328C226.771 175.584 227.543 176.709 228.406 177.69C230.289 179.782 232.421 181.705 234.513 183.588C236.527 185.406 238.594 187.328 240.895 188.767C243.276 190.244 245.839 190.781 248.624 190.401C251.332 190.022 254.039 189.224 256.667 188.492C259.335 187.733 261.964 186.857 264.475 185.706C268.922 183.666 273.041 180.724 275.866 176.669C278.469 172.929 279.855 168.352 279.005 163.801C278.626 161.682 277.815 159.655 276.612 157.916C277.932 158.465 279.24 159.04 280.509 159.681C282.091 160.453 283.164 157.955 281.594 157.183C280.404 156.595 279.201 156.045 277.972 155.535C273.015 153.456 267.771 152.017 262.448 151.272C257.073 150.526 251.475 150.369 246.127 151.416C241.118 152.41 236.279 154.476 232.512 158.007C229.138 161.159 226.549 165.37 226.012 170.026C225.842 171.477 225.908 172.942 226.339 174.342L226.379 174.328Z" fill="#FFA895"/>
<path d="M242.099 183.771C243.839 188.1 245.67 192.73 249.528 195.62C251.241 196.902 253.229 197.647 255.374 197.699C257.741 197.765 260.147 197.137 262.357 196.352C266.621 194.835 270.557 192.337 273.683 189.042C275.252 187.394 276.769 185.55 277.567 183.392C278.404 181.143 278.038 178.684 277.266 176.474C275.475 171.36 272.114 166.678 268.177 163.003C267.641 162.506 267.471 161.696 267.942 161.094C268.373 160.558 269.315 160.362 269.851 160.859C273.788 164.52 277.057 168.967 279.189 173.924C280.327 176.552 281.085 179.482 280.627 182.359C280.222 184.935 278.797 187.237 277.162 189.212C273.879 193.174 269.603 196.326 264.855 198.301C260.108 200.276 254.367 201.531 249.619 198.903C244.257 195.921 241.746 190.232 239.562 184.804C238.908 183.17 241.432 182.137 242.086 183.771H242.099Z" fill="white"/>
<path d="M248.794 174.643C249.422 174.172 250.206 174.355 250.703 174.904C256.248 181.064 262.003 187.564 264.291 195.724C264.488 196.431 264.291 197.202 263.546 197.503C262.918 197.752 261.963 197.464 261.767 196.758C259.531 188.819 253.92 182.542 248.519 176.552C248.022 176.003 248.231 175.061 248.781 174.643H248.794Z" fill="white"/>
<path d="M260.395 168.155C267.719 173.36 272.819 181.325 274.624 190.113C274.768 190.832 274.127 191.552 273.434 191.63C272.649 191.722 272.061 191.159 271.917 190.44C270.256 182.358 265.43 175.073 258.708 170.3C257.27 169.28 258.97 167.135 260.395 168.155Z" fill="white"/>
<path d="M205.703 193.644L208.606 193.29C208.763 192.715 208.933 192.14 209.103 191.564C210.961 185.287 213.406 179.075 216.911 173.516C220.599 167.671 225.386 162.675 231.179 158.895C231.218 158.869 231.245 158.843 231.284 158.817C231.506 158.777 231.715 158.699 231.925 158.581C232.879 158.006 233.847 157.47 234.854 156.973C243.067 152.932 252.457 151.872 261.507 152.552C266.163 152.905 270.963 153.533 275.344 155.233C279.084 156.698 282.458 158.934 285.335 161.72C291.103 167.317 294.333 174.994 295.013 182.92C295.079 183.717 295.118 184.515 295.144 185.326C295.183 187.628 295.013 189.942 294.608 192.205C294.255 194.167 293.653 196.272 292.149 197.685C290.894 198.862 289.115 199.489 287.493 198.692C286.002 197.959 285.048 196.259 284.655 194.703C284.041 192.297 284.342 189.72 284.315 187.261C284.315 186.241 284.237 185.234 284.093 184.24C283.936 182.985 283.688 181.743 283.374 180.513C282.236 176.211 280.052 172.169 277.044 168.887C276.547 168.338 275.762 168.141 275.122 168.625C274.572 169.044 274.363 169.985 274.86 170.535C275.632 171.372 276.351 172.261 277.005 173.203C279.372 176.564 280.863 180.487 281.386 184.567C281.451 185.051 281.504 185.548 281.53 186.032C281.713 188.674 281.36 191.342 281.739 193.971C282.066 196.22 282.955 198.339 284.603 199.934C286.133 201.438 288.343 202.131 290.449 201.621C292.816 201.046 294.647 199.385 295.798 197.279C296.949 195.187 297.354 192.728 297.616 190.387C297.89 187.876 297.93 185.326 297.734 182.802C297.734 182.736 297.734 182.671 297.72 182.606C296.936 173.189 292.633 164.244 285.388 158.11C281.974 155.22 277.986 153.062 273.696 151.82C268.883 150.421 263.796 149.845 258.8 149.688C248.874 149.387 238.843 151.179 230.29 156.41C230.251 156.436 230.211 156.463 230.172 156.502C229.963 156.528 229.754 156.593 229.544 156.737C226.053 159.013 222.875 161.746 220.076 164.833C212.726 172.928 208.515 183.168 205.716 193.657L205.703 193.644Z" fill="white"/>
<path d="M84.4685 239.902C82.036 238.149 79.4858 236.541 76.9094 235.011C70.9589 231.48 64.7991 227.687 58.0508 225.882C55.5137 225.202 52.9111 224.875 50.3086 225.019C52.3749 222.09 58.6262 214.923 60.7318 212.019C60.7318 212.019 57.9593 191.251 60.4572 181.691C62.1312 175.27 71.2073 168.064 77.5764 165.501C82.703 162.297 91.9361 160.453 100.908 163.565C104.504 164.808 111.043 166.469 109.801 174.119C109.487 176.042 84.1939 176.342 82.6507 177.611C81.3428 178.67 79.6558 179.023 78.0995 179.547C76.5694 180.057 75.0131 180.645 73.5352 181.378C72.6198 183.182 71.9136 185.092 71.3774 187.066C69.5072 193.88 69.5987 200.982 69.1672 207.965C69.0495 209.848 68.9056 211.732 68.6702 213.602C68.6571 213.733 68.631 213.876 68.6179 214.007C73.5483 214.504 78.4134 216.754 81.9314 220.036C83.2915 221.305 88.9935 216.217 89.5951 217.996C90.1052 219.487 88.732 226.628 84.4685 239.876V239.902Z" fill="#FFA895"/>
<path d="M277.998 275.448L123.807 323.589C120.42 324.648 116.824 322.765 115.764 319.378L83.6184 216.401L83.383 215.655L82.5983 213.144L78.8711 201.204L245.185 148.748L271.393 232.709L272.374 235.835L282.235 267.418C283.294 270.806 281.411 274.402 278.024 275.461L277.998 275.448Z" fill="#EDEDED"/>
<path d="M204.081 178.774L239.941 167.397C241.615 166.86 240.791 164.271 239.117 164.794L203.257 176.172C201.583 176.708 202.407 179.298 204.081 178.774Z" fill="#E0E0E0"/>
<path d="M205.846 184.372L220.297 179.781C221.971 179.245 221.147 176.656 219.473 177.179L205.022 181.769C203.348 182.305 204.172 184.895 205.846 184.372Z" fill="#E0E0E0"/>
<path d="M240.974 170.365L224.718 175.518C223.162 176.015 223.986 178.618 225.542 178.121L241.798 172.968C243.355 172.471 242.531 169.869 240.974 170.365Z" fill="#E0E0E0"/>
<path d="M231.963 180.449L207.075 188.348C205.453 188.858 206.277 191.46 207.899 190.95L232.787 183.051C234.408 182.541 233.584 179.939 231.963 180.449Z" fill="#E0E0E0"/>
<path d="M242.858 176.996L237.312 178.748C236.593 178.971 236.096 179.795 236.358 180.488C236.619 181.181 237.378 181.6 238.136 181.351L243.682 179.599C244.401 179.376 244.898 178.552 244.636 177.859C244.375 177.166 243.616 176.748 242.858 176.996Z" fill="#E0E0E0"/>
<path d="M277.998 275.447L123.807 323.588C120.42 324.647 116.823 322.764 115.764 319.376L83.3828 215.654L134.636 233.545L158.386 220.925L216.348 243.288L232.041 222.769L272.361 235.821L282.222 267.404C283.281 270.791 281.398 274.388 278.011 275.447H277.998Z" fill="#9EB9FB"/>
<path d="M272.374 235.873L232.539 223.07L216.806 243.642L173.217 226.444L152.736 241.144L83.6056 216.4L74.0586 212.973L74.9741 210.41L82.5855 213.13L152.305 238.096L172.837 223.357L215.89 240.359L231.532 219.892L271.367 232.695L272.348 235.821L272.374 235.873Z" fill="#092566"/>
<path d="M300.297 258.211L319.796 254.706C321.208 254.445 321.64 252.627 320.489 251.763L304.586 239.941C303.631 239.235 302.271 239.732 301.997 240.883L301.513 242.949C301.29 243.877 300.336 244.427 299.433 244.152L259.768 232.016L265.287 245.813L297.563 252.352C298.479 252.535 299.054 253.437 298.832 254.34L298.387 256.223C298.112 257.374 299.119 258.433 300.283 258.224L300.297 258.211Z" fill="#9EB9FB"/>
<path d="M245.172 148.734L78.858 201.19L76.3994 193.33C75.34 189.943 77.2364 186.346 80.6105 185.287L234.814 137.147C238.201 136.087 241.798 137.97 242.857 141.358L245.159 148.721L245.172 148.734Z" fill="#E0E0E0"/>
<path d="M211.678 148.04C209.769 148.641 208.71 150.668 209.311 152.578C209.913 154.487 211.94 155.547 213.849 154.945C215.759 154.343 216.818 152.316 216.216 150.407C215.615 148.497 213.588 147.438 211.678 148.04Z" fill="white"/>
<path d="M222.024 144.797C220.115 145.399 219.055 147.426 219.657 149.336C220.258 151.245 222.286 152.304 224.195 151.703C226.104 151.101 227.164 149.074 226.562 147.165C225.961 145.255 223.933 144.196 222.024 144.797Z" fill="white"/>
<path d="M232.354 141.553C230.445 142.155 229.385 144.182 229.987 146.091C230.589 148.001 232.616 149.06 234.525 148.459C236.434 147.857 237.494 145.83 236.892 143.92C236.291 142.011 234.263 140.952 232.354 141.553Z" fill="white"/>
<path d="M129.776 275.668C131.872 262.757 123.104 250.591 110.193 248.495C97.2812 246.399 85.1153 255.167 83.0195 268.079C80.9236 280.99 89.6915 293.156 102.603 295.252C115.515 297.348 127.68 288.58 129.776 275.668Z" fill="#175CFF"/>
<path d="M72.3255 295.093C75.7533 280.57 66.7587 266.017 52.2353 262.59C37.712 259.162 23.1598 268.156 19.732 282.68C16.3042 297.203 25.2988 311.755 39.8221 315.183C54.3454 318.611 68.8977 309.616 72.3255 295.093Z" fill="#175CFF"/>
<path d="M267.261 313.374C257.622 312.707 247.931 312.642 238.28 313.178C235.089 313.361 231.897 313.609 228.706 313.923C228.746 305.867 228.759 300.152 228.693 299.89L265.037 297.393C265.037 297.393 265.966 304.18 267.261 313.374Z" fill="#FFA895"/>
<path d="M228.275 370.355C228.275 370.355 228.602 334.482 228.72 313.936C231.911 313.622 235.102 313.374 238.293 313.19C247.945 312.654 257.623 312.72 267.274 313.387C269.864 331.866 274.127 355.76 274.284 357.839C274.598 361.998 228.288 370.368 228.288 370.368L228.275 370.355Z" fill="#175CFF"/>
<path d="M274.573 361.972C274.573 377.064 262.332 389.71 247.239 389.71C232.147 389.71 219.906 377.064 219.906 361.972C219.906 346.88 232.147 334.639 247.239 334.639C262.332 334.639 274.573 346.88 274.573 361.972Z" fill="#175CFF"/>
<path d="M189.473 338.392C202.554 338.392 213.158 327.788 213.158 314.708C213.158 301.627 202.554 291.023 189.473 291.023C176.393 291.023 165.789 301.627 165.789 314.708C165.789 327.788 176.393 338.392 189.473 338.392Z" fill="#175CFF"/>
<path d="M257.635 345.207L238.476 388.207L189.472 366.498L187.916 368.813L170.156 395.126H30.9004C30.9004 395.126 73.8619 316.396 73.038 316.396C72.2141 316.396 31.3974 321.902 27.814 305.306C23.8252 286.813 39.7804 262.37 39.7804 262.37C39.7804 262.37 96.5916 249.188 101.496 248.691C106.4 248.181 119.988 244.676 151.964 264.803C183.94 284.917 196.416 287.702 207.703 297.406C222.586 310.21 257.635 345.22 257.635 345.22V345.207Z" fill="#175CFF"/>
<path d="M108.206 205.755C107.656 206.343 107.159 206.853 106.793 207.232C101.732 212.49 98.554 218.715 93.9898 224.417C91.2565 227.83 87.9608 233.009 83.4227 233.519C78.2961 234.082 69.4553 225.712 66.6174 221.487C63.7664 217.276 62.8771 212.163 62.694 207.232C62.3278 196.757 65.1003 186.046 71.8879 178.029C80.8463 167.462 97.6778 162.335 110.834 170.418C113.855 172.275 116.366 175.243 116.693 178.604C117.007 181.966 114.549 185.523 111.031 185.758C107.826 185.981 105.041 183.679 102.059 182.423C95.8469 179.821 87.9347 182.371 84.9136 187.968C82.9258 191.643 83.645 197.215 87.7516 198.889C91.2957 200.34 95.0753 198.195 98.3056 196.378C101.536 194.56 105.943 189.812 111.776 192.506C117.386 195.083 111.593 202.106 108.206 205.755Z" fill="#FFA895"/>
<path d="M84.4688 239.902C83.4618 243.054 82.2847 246.559 80.9246 250.417C75.8896 264.764 71.9792 275.122 64.8648 288.579C61.9222 294.137 48.6087 302.899 40.8927 302.899C37.44 303.867 33.6082 303.684 30.2733 302.35C27.1215 301.095 24.5058 298.924 22.6095 296.125C18.8169 290.554 18.2676 283.295 19.7716 276.874C21.5894 269.08 26.036 262.148 30.1817 255.413C36.5507 245.068 43.3121 234.959 50.3089 225.033C52.9114 224.889 55.5139 225.229 58.0511 225.896C64.7994 227.701 70.9461 231.493 76.9097 235.024C79.486 236.554 82.0363 238.15 84.4688 239.915V239.902Z" fill="#175CFF"/>
<path d="M261.847 266.645C261.742 268.659 261.036 270.66 259.925 272.269C258.669 274.087 257.034 275.499 255.543 277.068C254.066 278.625 252.915 280.312 252.509 282.535C252.104 284.771 252.483 287.139 253.032 289.309C253.621 291.69 254.837 294.135 254.628 296.659C254.445 298.87 253.385 300.766 251.934 302.283C250.495 303.774 248.769 304.899 247.03 305.932C244.924 307.187 242.714 308.299 240.294 308.626C237.522 308.992 234.462 307.763 232.853 305.382C232.382 305.644 231.794 305.618 231.31 305.082C230.617 304.323 230.002 303.473 229.479 302.571C227.399 299.013 226.863 294.619 227.373 290.5C227.936 286.001 229.766 281.986 232.33 278.429C235.037 274.675 238.437 271.628 241.929 268.777C243.878 267.181 245.879 265.638 247.88 264.108C249.737 262.696 251.594 261.296 253.765 260.538C255.74 259.858 257.963 259.871 259.676 261.257C261.245 262.526 261.991 264.566 261.873 266.658L261.847 266.645Z" fill="#FFA895"/>
<path d="M290.853 258.655C290.487 262.46 289.048 265.547 287.426 269.078C289.14 268.502 289.99 271.419 289.493 272.975C286.733 281.594 286.864 290.827 278.049 298.399C272.151 303.473 266.645 306.651 259.596 309.895C259.099 310.13 258.524 310.117 258.105 309.829C256.131 309.829 254.208 309.332 252.495 308.247C248.951 306.023 246.309 302.126 245.224 298.124C244.792 296.568 244.609 294.946 244.661 293.338C244.4 292.265 244.557 291.088 244.831 290.029C245.145 288.865 245.668 287.78 246.322 286.773C246.348 286.315 246.571 285.87 246.989 285.687C247.054 285.661 247.12 285.622 247.185 285.596C247.211 285.569 247.238 285.543 247.264 285.517C247.918 284.732 248.663 284.013 249.448 283.385C252.861 280.652 257.02 279.383 260.956 277.683C266.423 273.668 271.249 268.79 274.688 262.918C276.035 260.616 277.16 258.197 277.997 255.647C278.834 253.123 280.273 251.763 282.797 250.389C285.269 249.055 287.034 249.526 288.996 251.344C291.245 253.423 291.128 255.712 290.84 258.642L290.853 258.655Z" fill="#FFA895"/>
<path d="M169.722 262.62C185.886 258.283 195.473 241.664 191.136 225.5C186.799 209.337 170.18 199.749 154.017 204.087C137.853 208.424 128.266 225.043 132.603 241.206C136.94 257.37 153.559 266.957 169.722 262.62Z" fill="#092566"/>
<path d="M197.124 247.88C193.292 258.721 181.391 264.41 170.549 260.578C163.539 258.107 158.687 252.261 157.17 245.526C152.318 240.046 150.5 232.16 153.116 224.771C156.948 213.929 168.836 208.24 179.678 212.072C184.019 213.602 187.551 216.571 190.022 220.416C191.265 222.351 191.801 224.666 192.978 226.576C194.299 228.72 195.973 229.034 198.222 230.041C198.876 230.329 199.36 230.865 199.517 231.558C199.765 232.591 199.255 233.612 198.902 234.553C198.601 235.351 198.353 236.266 197.935 237.051C198.615 240.556 198.392 244.283 197.111 247.906L197.124 247.88Z" fill="#FFA895"/>
<path d="M192.702 235.743C192.467 234.985 192.231 234.239 191.983 233.481C191.957 233.298 191.891 233.141 191.774 232.997C191.695 232.84 191.565 232.709 191.421 232.617C191.264 232.5 191.107 232.434 190.911 232.408C190.741 232.356 190.557 232.356 190.374 232.395C190.034 232.474 189.707 232.657 189.511 232.958C189.459 233.062 189.407 233.18 189.341 233.284C189.263 233.52 189.237 233.755 189.289 233.991C189.524 234.749 189.76 235.495 190.008 236.253C190.034 236.436 190.1 236.593 190.217 236.737C190.296 236.894 190.414 237.025 190.571 237.116C190.728 237.234 190.884 237.299 191.081 237.326C191.251 237.378 191.434 237.378 191.617 237.339C191.957 237.26 192.284 237.077 192.48 236.776C192.532 236.672 192.585 236.554 192.65 236.449C192.728 236.214 192.755 235.979 192.702 235.743Z" fill="#092566"/>
<path d="M190.558 226.365C189.943 225.214 188.544 224.822 187.406 225.267C186.046 225.45 184.843 226.47 184.202 227.712C183.247 229.53 182.685 231.544 182.345 233.558C182.123 234.879 184.15 235.559 184.83 234.434C185.131 233.937 185.458 233.453 185.824 232.983C185.994 232.76 186.177 232.551 186.36 232.342C186.425 232.276 186.465 232.237 186.504 232.185C186.595 232.08 186.7 231.989 186.805 231.884C187.223 231.479 187.668 231.086 188.126 230.733C188.623 230.354 188.884 230.197 189.329 229.922C189.957 229.53 190.506 229.085 190.741 228.366C190.964 227.712 190.898 226.967 190.571 226.352L190.558 226.365Z" fill="#092566"/>
<path d="M199.111 239.05C198.366 238.828 197.673 239.181 197.372 239.888C197.307 240.031 197.241 240.162 197.176 240.306C196.862 240.881 196.483 241.418 196.064 241.928C195.999 241.993 195.946 242.045 195.881 242.111C195.763 242.228 195.633 242.346 195.502 242.464C195.227 242.712 194.926 242.935 194.612 243.144C194.338 243.327 194.155 243.772 194.129 244.086C194.102 244.413 194.22 244.818 194.442 245.066C194.691 245.328 195.018 245.537 195.384 245.55C195.763 245.55 196.051 245.446 196.365 245.236C197.96 244.151 199.177 242.569 199.935 240.803C200.21 240.149 199.778 239.273 199.098 239.064L199.111 239.05Z" fill="#F76D6D"/>
<path d="M190.585 208.253C189.708 207.128 188.44 206.539 187.132 206.422C187.524 204.617 187.067 202.655 186.007 200.994C184.111 198.025 180.357 197.149 177.049 197.777C176.12 197.947 175.205 198.222 174.342 198.562C173.426 198.928 172.602 199.438 171.726 199.869C171.674 199.896 171.556 199.922 171.504 199.961C171.19 199.752 170.915 199.281 170.64 199.019C169.947 198.405 169.11 197.986 168.221 197.738C164.35 196.652 160.91 198.889 157.942 201.125C153.94 204.133 149.951 207.141 145.949 210.162C144.537 211.221 146.211 213.392 147.623 212.333C149.833 210.672 152.043 209.011 154.241 207.35C153.626 209.482 153.377 211.731 153.809 213.837C151.076 217.185 149.127 221.134 148.028 225.306C146.76 230.119 146.681 235.272 147.989 240.085C148.081 240.411 148.251 240.699 148.473 240.922C148.342 243.289 148.46 245.669 149.519 247.84C150.88 250.599 153.534 252.286 156.647 252.129C159.733 251.986 162.715 250.508 165.292 248.899C166.625 248.062 167.907 247.147 169.11 246.114C170.3 245.093 171.778 243.929 172.341 242.412C172.981 240.699 172.262 238.816 171.739 237.168C171.36 235.991 170.915 234.827 170.418 233.689C171.164 233.65 171.922 233.428 172.602 233.114C174.276 232.316 175.558 230.838 176.238 229.125C177.363 226.339 176.382 223.305 174.302 221.383C176.029 220.729 177.598 219.8 179.076 218.702C181.051 218.061 183.025 217.59 185.066 217.198C187.001 216.819 189.015 216.282 190.388 214.765C191.997 212.987 192.062 210.149 190.598 208.266L190.585 208.253Z" fill="#092566"/>
<path d="M172.262 249.736C170.928 253.502 166.796 255.477 163.029 254.143C159.263 252.809 157.288 248.676 158.622 244.91C159.956 241.144 164.088 239.169 167.855 240.503C171.621 241.837 173.596 245.969 172.262 249.736Z" fill="#FFA895"/>
<path d="M173.112 247.015C170.562 246.283 168.286 245.381 165.958 244.164C165.33 243.837 164.441 243.981 164.088 244.648C163.761 245.276 163.905 246.165 164.572 246.518C166.324 247.434 168.155 248.232 170.026 248.885C168.495 250.206 166.978 251.54 165.448 252.861C164.912 253.332 164.925 254.313 165.448 254.784C166.024 255.307 166.795 255.281 167.371 254.784C169.476 252.953 171.582 251.122 173.687 249.291C174.485 248.598 174.014 247.277 173.086 247.015H173.112Z" fill="#F76D6D"/>
<path d="M254.418 342.315C245.97 333.187 237.521 324.058 229.086 314.93C225.11 310.627 221.121 306.324 216.753 302.401C212.686 298.752 208.344 295.404 203.78 292.409C198.679 289.061 193.291 286.158 187.694 283.712C187.014 283.425 186.229 283.516 185.823 284.196C185.483 284.772 185.627 285.766 186.307 286.066C196.155 290.356 205.362 296.097 213.471 303.146C217.826 306.926 221.801 311.098 225.712 315.322C229.883 319.834 234.055 324.346 238.227 328.858C242.975 333.984 247.722 339.124 252.469 344.251C253.659 345.545 255.595 343.61 254.392 342.328L254.418 342.315Z" fill="#9EB9FB"/>
<path d="M117.007 249.67C107.564 246.636 97.4679 247.303 87.8816 249.225C77.9292 251.213 68.1861 254.352 58.6129 257.674C53.1332 259.57 47.6796 261.571 42.2392 263.572C41.546 263.82 41.0752 264.5 41.2845 265.246C41.4676 265.913 42.2653 266.449 42.9585 266.201C52.4924 262.696 62.0263 259.191 71.7433 256.235C81.068 253.397 90.6803 250.742 100.476 250.337C105.838 250.115 111.174 250.638 116.3 252.285C117.974 252.822 118.694 250.193 117.02 249.657L117.007 249.67Z" fill="#9EB9FB"/>
<path d="M112.494 238.841C115.228 236.344 125.834 238.946 149.976 248.035C174.118 257.125 195.213 275.042 194.128 277.919C186.176 298.857 161.445 307.933 124.709 296.306C87.9728 284.68 109.761 241.326 112.494 238.828V238.841Z" fill="#175CFF"/>
<path d="M247.277 62.6235C253.569 56.3313 253.569 46.1296 247.277 39.8374C240.985 33.5452 230.783 33.5452 224.491 39.8374C218.198 46.1296 218.198 56.3313 224.491 62.6235C230.783 68.9157 240.985 68.9157 247.277 62.6235Z" fill="#092566"/>
<path d="M277.109 91.5302C277.109 102.555 268.176 110.807 257.165 110.807C247.304 110.807 237.221 102.542 237.221 91.5302C237.221 91.1902 237.221 90.8502 237.247 90.5232C237.351 88.2607 237.848 86.1028 238.646 84.1019C246.611 83.3172 253.921 79.0276 260.225 74.0579C260.957 73.4825 261.69 72.8809 262.409 72.2793C270.531 74.4895 276.586 81.6955 277.07 90.4055C277.096 90.7717 277.096 91.151 277.096 91.5302H277.109Z" fill="#FFA895"/>
<path d="M259.493 89.7391C259.323 89.1899 258.866 88.7583 258.212 88.6406C257.453 88.4967 256.76 88.8629 256.342 89.4776C255.923 90.1053 255.374 90.9292 255.596 91.727C255.858 92.6556 256.747 93.0087 257.636 92.7733C258.787 92.4725 259.86 90.9292 259.493 89.7391Z" fill="#092566"/>
<path d="M274.179 90.7468C274.153 89.9359 273.656 88.9682 272.754 88.9551C271.681 88.9551 271.001 90.3544 270.727 91.2176C270.596 91.623 270.557 92.0807 270.714 92.4731C270.923 93.0354 271.511 93.4278 272.113 93.4016C272.728 93.3755 272.989 92.9439 273.355 92.5254C273.8 92.0153 274.166 91.5707 274.192 90.8514C274.192 90.8122 274.192 90.7729 274.192 90.7337L274.179 90.7468Z" fill="#092566"/>
<path d="M263.181 83.3299C261.324 81.0805 257.584 80.6097 255.23 82.3229C254.654 82.7414 254.314 83.5261 254.746 84.1931C255.36 85.1478 256.864 85.0039 257.832 85.1085C258.944 85.2262 260.055 85.3439 261.167 85.4616C261.952 85.5401 262.946 85.8409 263.403 84.9777C263.704 84.4023 263.586 83.8138 263.194 83.3299H263.181Z" fill="#092566"/>
<path d="M271.458 98.8672C270.922 98.3702 270.059 98.3179 269.536 98.8672C269.366 99.0503 269.183 99.2072 268.987 99.3772C268.974 99.3772 268.934 99.4165 268.908 99.4426C268.817 99.508 268.725 99.5734 268.634 99.6388C268.424 99.7696 268.215 99.9004 267.993 100.018C267.914 100.057 267.823 100.097 267.744 100.136C267.522 100.24 267.666 100.162 267.744 100.136C267.692 100.136 267.6 100.201 267.574 100.214C267.13 100.384 266.659 100.502 266.188 100.594C266.005 100.607 265.887 100.62 265.769 100.633C265.508 100.633 265.246 100.633 264.985 100.633C264.265 100.593 263.585 101.287 263.625 101.993C263.664 102.764 264.226 103.314 264.985 103.353C267.378 103.497 269.798 102.529 271.472 100.816C271.968 100.306 272.021 99.3903 271.472 98.8933L271.458 98.8672Z" fill="#F76D6D"/>
<path d="M238.031 83.2784C238.594 84.3639 239.143 85.4363 239.705 86.5218C239.967 87.0187 240.229 87.5288 240.477 88.0258C240.791 88.6273 241.301 89.3074 241.092 90.0136C240.595 91.6615 238.515 90.6021 237.482 90.2359C236.344 89.8436 235.194 89.4382 234.056 89.0458C233.52 88.8628 233.14 88.235 233.35 87.6726C233.546 87.1234 234.147 86.7703 234.723 86.9664L237.417 87.9081C237.639 87.9865 237.875 88.065 238.097 88.1435C237.927 87.8165 237.757 87.5026 237.6 87.1757C237.103 86.2079 236.606 85.2401 236.109 84.2854C235.847 83.7754 236.044 83.0561 236.58 82.8207C237.116 82.5722 237.77 82.7422 238.045 83.2915L238.031 83.2784Z" fill="#F76D6D"/>
<path d="M277.004 100.28C273.015 100.28 269.771 96.6186 269.771 92.1197C269.771 87.6208 273.015 83.959 277.004 83.959C280.992 83.959 284.236 87.6208 284.236 92.1197C284.236 96.6186 280.992 100.28 277.004 100.28ZM277.004 86.1561C274.218 86.1561 271.956 88.8371 271.956 92.1328C271.956 95.4285 274.218 98.1095 277.004 98.1095C279.789 98.1095 282.052 95.4285 282.052 92.1328C282.052 88.8371 279.789 86.1561 277.004 86.1561Z" fill="white"/>
<path d="M271.329 83.6045C270.714 83.2514 269.799 83.4345 269.458 84.0884C268.438 86.0501 267.928 88.2734 268.072 90.4836C268.138 91.5822 268.36 92.6415 268.7 93.6877C268.765 93.9101 268.87 94.1455 268.883 94.3678C268.883 94.3678 268.87 94.4855 268.87 94.5378C268.713 94.8124 268.569 94.8909 268.281 94.9563C266.581 95.401 267.301 98.0297 269.001 97.585C270.152 97.2842 271.106 96.4472 271.473 95.3094C271.878 94.0539 271.211 92.8507 270.962 91.6476C270.518 89.5681 270.845 87.3318 271.826 85.4486C272.166 84.7946 271.996 83.9707 271.342 83.5784L271.329 83.6045Z" fill="#F76D6D"/>
<path d="M277.318 81.8794C277.043 81.7617 276.729 81.6571 276.455 81.5656C275.932 81.3694 275.369 81.2648 274.807 81.2255C274.127 81.1732 273.421 81.2648 272.767 81.4479C272.061 81.6571 271.354 81.9841 270.792 82.468C270.478 82.7426 270.23 83.148 270.112 83.5534C269.942 84.1943 270.138 84.7697 270.557 85.2667C270.936 85.7244 271.721 85.7767 272.204 85.4759C273.565 84.6651 275.16 84.325 276.729 84.5343C277.566 84.5604 278.377 83.985 278.299 83.0695C278.246 82.4156 277.815 82.1018 277.305 81.8664L277.318 81.8794Z" fill="#092566"/>
<path d="M186.595 221.54C185.143 222.285 183.417 222.22 181.978 221.553C181.324 223.58 179.676 225.202 177.348 225.712C174.34 226.379 170.888 224.168 171.149 221.043C170.077 218.519 170.365 215.485 172.117 213.274C173.02 212.137 174.275 211.208 175.661 210.724C177.296 210.162 178.957 210.279 180.657 210.436C183.469 210.711 187.418 210.606 189.158 213.301C190.976 216.125 189.459 220.075 186.595 221.527V221.54Z" fill="#092566"/>
<path d="M288.394 249.606C285.739 247.605 282.313 248.128 280.024 250.404C277.853 252.562 276.833 255.517 275.565 258.224C274.178 261.18 272.53 264.018 270.608 266.66C266.462 272.349 260.852 277.148 254.169 279.542C253.476 279.79 253.005 280.47 253.214 281.216C253.397 281.883 254.195 282.419 254.888 282.17C260.826 280.052 266.005 276.285 270.15 271.564C272.19 269.236 274.021 266.699 275.591 264.031C277.134 261.402 278.246 258.604 279.593 255.883C280.6 253.856 282.143 251.123 284.562 251.045C287.531 250.953 288.957 254.288 288.97 256.786C288.97 258.604 288.538 260.382 288.041 262.122C287.609 263.665 287.099 265.195 286.524 266.686C285.399 269.602 283.987 272.414 282.352 275.082C278.664 281.124 273.747 286.421 267.953 290.501C267.352 290.92 267.064 291.691 267.469 292.371C267.822 292.96 268.725 293.287 269.339 292.855C274.911 288.932 279.71 284.014 283.503 278.352C285.373 275.566 286.982 272.61 288.303 269.524C289.676 266.307 290.931 262.88 291.481 259.401C292.043 255.805 291.481 251.934 288.407 249.606H288.394Z" fill="#F76D6D"/>
<path d="M290.056 268.358C289.794 267.665 289.14 267.194 288.382 267.404C287.728 267.587 287.166 268.384 287.427 269.078C289.01 273.21 287.649 277.631 285.609 281.345C283.517 285.177 280.718 288.642 277.566 291.663C275.788 293.377 273.865 294.92 271.825 296.319C271.223 296.738 270.949 297.522 271.341 298.189C271.694 298.791 272.597 299.092 273.211 298.673C277.135 295.992 280.692 292.775 283.661 289.061C286.642 285.334 289.428 281.096 290.461 276.362C291.05 273.707 291.037 270.909 290.056 268.358Z" fill="#F76D6D"/>
<path d="M286.904 285.386C286.76 284.667 285.897 284.248 285.23 284.432C284.484 284.641 284.131 285.386 284.275 286.106C284.733 288.316 283.346 290.474 281.986 292.095C280.365 294.044 278.495 295.823 276.611 297.523C272.819 300.975 268.686 304.009 264.279 306.625C262.775 307.514 264.135 309.882 265.652 308.979C269.418 306.743 273.002 304.193 276.35 301.368C277.984 299.994 279.554 298.556 281.071 297.039C282.588 295.522 284.118 293.966 285.308 292.174C286.655 290.147 287.388 287.819 286.891 285.386H286.904Z" fill="#F76D6D"/>
<path d="M116.666 176.029C115.332 173.112 112.494 171.177 109.761 169.725C104.491 166.927 98.4746 165.632 92.5241 165.828C85.802 166.05 79.1191 168.156 73.6394 172.079C73.0378 172.511 72.7501 173.269 73.1555 173.949C73.4955 174.538 74.4241 174.865 75.0257 174.433C84.1018 167.92 96.7091 166.639 106.884 171.334C109.395 172.498 112.194 173.976 113.737 176.356C115.058 178.383 115.267 181.325 113.161 182.829C111.343 184.124 108.741 184.176 106.596 183.81C103.274 183.261 100.122 181.94 96.7876 181.391C93.3219 180.815 89.3854 180.907 86.4297 183.039C83.7618 184.961 82.0878 188.244 82.8856 191.553C83.3041 193.253 85.9328 192.533 85.5143 190.833C84.8996 188.322 86.6782 185.877 88.8492 184.765C91.7133 183.3 95.179 183.745 98.1738 184.477C101.391 185.262 104.543 186.491 107.878 186.701C110.493 186.857 113.331 186.374 115.345 184.582C117.791 182.424 117.961 178.867 116.666 176.055V176.029Z" fill="white"/>
<path d="M107.355 163.329C104.7 161.341 101.352 160.583 98.122 160.243C91.7922 159.589 85.2401 160.543 79.3157 162.845C75.9285 164.166 72.7244 165.879 69.7949 168.037C69.2064 168.469 68.9056 169.214 69.311 169.907C69.651 170.496 70.5796 170.836 71.1811 170.391C75.9023 166.926 81.3297 164.558 87.0841 163.447C89.8828 162.911 92.7469 162.701 95.5979 162.793C98.5143 162.897 101.588 163.238 104.216 164.571C106.688 165.827 108.898 168.142 109.068 171.045C109.173 172.784 111.893 172.798 111.802 171.045C111.619 167.893 109.866 165.199 107.381 163.329H107.355Z" fill="white"/>
<path d="M238.437 66.5912C236.606 69.3245 232.944 69.573 230.093 68.5921C227.124 67.572 224.574 65.3095 222.9 62.6808C221.278 60.1306 220.363 57.1619 220.376 54.1408C220.389 51.1983 221.357 48.3473 222.978 45.9017C224.77 43.1945 227.438 41.0235 230.485 39.925C231.178 39.6765 231.649 38.9964 231.44 38.251C231.257 37.584 230.459 37.0478 229.766 37.2963C223.031 39.7288 218.087 46.1501 217.669 53.3431C217.237 60.7845 221.84 68.2652 228.798 71.0246C232.996 72.6855 238.149 71.9139 240.778 67.9774C241.758 66.5127 239.391 65.1526 238.423 66.6042L238.437 66.5912Z" fill="#092566"/>
<path d="M161.891 299.486C147.688 300.846 132.138 301.382 119.478 293.706C114.456 290.658 110.062 286.434 107.303 281.203C104.02 275.004 103.876 267.889 105.145 261.115C106.583 253.438 109.814 246.075 114.6 239.889C115.045 239.314 115.163 238.529 114.6 237.967C114.129 237.496 113.122 237.378 112.678 237.967C108.127 243.852 104.792 250.639 103.052 257.898C101.326 265.104 100.868 272.964 103.732 279.934C108.937 292.594 121.95 299.891 134.937 302.049C143.869 303.527 152.932 303.069 161.904 302.206C162.636 302.141 163.264 301.631 163.264 300.846C163.264 300.166 162.636 299.408 161.904 299.486H161.891Z" fill="#9EB9FB"/>
<path d="M189.446 366.535L187.903 368.811C185.431 367.608 182.972 366.379 180.527 365.136C179.873 364.809 179.493 364.064 179.807 363.344C180.082 362.704 180.932 362.285 181.586 362.625C184.202 363.946 186.817 365.254 189.446 366.535Z" fill="white"/>
<path d="M397.428 262.173H392.916C392.38 260.499 391.726 258.89 390.954 257.347L394.119 254.182C396.303 251.998 396.303 248.467 394.119 246.283L388.312 240.476C386.128 238.292 382.597 238.292 380.413 240.476L377.523 243.367C375.901 242.477 374.188 241.706 372.422 241.091V237.155C372.422 234.068 369.925 231.57 366.838 231.57H358.625C355.539 231.57 353.041 234.068 353.041 237.155V240.45C351.027 241 349.078 241.745 347.234 242.661L345.05 240.476C342.866 238.292 339.335 238.292 337.151 240.476L331.344 246.283C329.16 248.467 329.16 251.998 331.344 254.182L333.162 256C332.064 257.949 331.161 260.015 330.481 262.186H328.036C324.949 262.186 322.451 264.684 322.451 267.77V275.983C322.451 279.07 324.949 281.568 328.036 281.568H330.376C331.043 283.778 331.946 285.884 333.044 287.871L331.344 289.572C329.16 291.756 329.16 295.287 331.344 297.471L337.151 303.277C339.335 305.461 342.866 305.461 345.05 303.277L347.012 301.316C348.921 302.27 350.935 303.055 353.041 303.63V306.599C353.041 309.686 355.539 312.184 358.625 312.184H366.838C369.925 312.184 372.422 309.686 372.422 306.599V302.99C374.28 302.349 376.045 301.538 377.732 300.596L380.413 303.277C382.597 305.461 386.128 305.461 388.312 303.277L394.119 297.471C396.303 295.287 396.303 291.756 394.119 289.572L391.059 286.511C391.843 284.929 392.497 283.281 393.02 281.568H397.441C400.527 281.568 403.025 279.07 403.025 275.983V267.77C403.025 264.684 400.527 262.186 397.441 262.186L397.428 262.173ZM361.685 284.798C354.636 284.798 348.908 279.083 348.908 272.021C348.908 264.959 354.623 259.243 361.685 259.243C368.748 259.243 374.463 264.959 374.463 272.021C374.463 279.083 368.748 284.798 361.685 284.798Z" fill="#9EB9FB"/>
<path d="M317.665 293.914L316.775 296.085C314.657 295.915 312.564 296.19 310.602 296.857L309.203 295.052C308.301 293.888 306.627 293.679 305.476 294.568L302.376 296.962C301.212 297.864 301.003 299.525 301.892 300.689L303.135 302.297C302.403 303.291 301.775 304.39 301.291 305.593C300.912 306.496 300.637 307.424 300.454 308.353L298.662 308.588C297.211 308.784 296.177 310.131 296.374 311.583L296.897 315.467C297.093 316.919 298.44 317.939 299.892 317.756L301.395 317.547C302.337 319.717 303.763 321.679 305.62 323.249L305.097 324.517C304.534 325.877 305.188 327.434 306.548 327.996L310.171 329.487C311.531 330.049 313.087 329.395 313.637 328.035L314.134 326.819C316.579 327.041 319.012 326.662 321.235 325.786L322.098 326.897C323 328.061 324.661 328.271 325.825 327.381L328.925 324.988C330.089 324.086 330.298 322.425 329.409 321.261L328.402 319.953C328.938 319.142 329.409 318.266 329.788 317.337C330.285 316.121 330.625 314.866 330.795 313.61L332.652 313.362C334.104 313.165 335.124 311.831 334.928 310.367L334.405 306.482C334.208 305.031 332.874 304.011 331.41 304.207L329.252 304.495C328.297 302.624 326.976 300.937 325.315 299.577L326.192 297.446C326.754 296.085 326.1 294.529 324.74 293.98L321.117 292.489C319.757 291.927 318.201 292.58 317.638 293.941L317.665 293.914ZM322.046 314.133C320.568 317.73 316.461 319.443 312.878 317.965C309.282 316.487 307.568 312.381 309.046 308.797C310.524 305.201 314.63 303.488 318.214 304.965C321.797 306.443 323.524 310.55 322.046 314.133Z" fill="#1ACD92"/>
<path d="M372.344 71.2986C372.344 79.25 365.896 85.6845 357.958 85.6845H322.32C320.842 86.5999 319.325 87.45 317.795 88.2739C313.715 90.471 309.412 92.6681 304.639 91.8965C303.658 91.7265 303.292 90.2487 304.037 89.621C305.62 88.287 307.032 86.8092 308.288 85.2006C305.227 84.3766 302.559 82.5719 300.663 80.1394C298.767 77.7068 297.629 74.6466 297.629 71.3117C297.629 63.3733 304.076 56.9258 312.015 56.9258H357.932C361.908 56.9258 365.504 58.5344 368.094 61.1369C370.696 63.7395 372.305 67.3359 372.305 71.3117L372.344 71.2986Z" fill="#E0E0E0"/>
<path d="M360.573 71.3384C360.089 70.8546 359.121 70.7761 358.65 71.3384C358.402 71.6262 358.127 71.8746 357.839 72.0839C357.761 71.7439 357.682 71.3908 357.604 71.0507C357.421 70.253 356.296 69.7298 355.603 70.2399C354.243 71.2338 352.87 72.2278 351.509 73.2217C350.856 71.8746 349.535 71.0769 348.031 71.0638C346.134 71.0507 344.46 72.1754 342.917 73.1432C342.172 73.614 341.439 74.0718 340.694 74.5426C341.047 73.941 341.426 73.3655 341.792 72.764C342.813 71.1161 343.663 69.2198 343.022 67.2712C342.799 66.6042 342.067 66.0811 341.348 66.3165C339.569 66.905 337.882 67.7551 336.339 68.8144C336.574 66.6565 336.221 64.3678 333.658 64.3809C332.415 64.3809 331.121 65.0348 330.022 65.571C328.976 66.068 327.982 66.6696 327.04 67.3366C326.936 67.415 326.844 67.4935 326.753 67.5589C325.837 65.9634 324.098 64.8517 322.215 65.1133C320.985 65.2833 319.913 65.9764 318.932 66.6957C318.017 65.2441 316.172 64.6686 314.459 64.9694C312.249 65.3618 310.797 67.2189 309.529 68.8928C309.084 69.4814 309.437 70.423 310.013 70.763C310.719 71.1684 311.438 70.8676 311.883 70.2791C312.628 69.2983 313.518 68.0428 314.76 67.7027C315.584 67.4673 316.526 67.6374 316.748 68.5005C316.526 68.7098 316.303 68.919 316.094 69.1283C314.198 71.0507 312.655 73.3263 311.582 75.8111C311.151 76.8182 311.674 77.7336 312.759 77.8644C315.035 78.139 317.166 76.5697 318.187 74.6341C318.749 73.5748 319.076 72.4108 319.272 71.2338C319.364 70.7369 319.442 70.2268 319.494 69.7168C320.017 69.2852 320.554 68.8798 321.129 68.5005C321.757 68.0951 322.515 67.5981 323.274 67.8858C323.862 68.1082 324.32 68.6574 324.556 69.2329C324.582 69.2852 324.595 69.3375 324.608 69.4029C323.588 70.3837 322.646 71.4561 321.809 72.6201C320.227 74.8434 319.089 77.4067 318.474 80.0615C318.239 81.1339 319.442 82.324 320.475 81.6047C322.463 80.2185 324.15 78.4922 325.432 76.4389C326.53 74.6734 327.459 72.5809 327.459 70.4622C328.806 69.3375 330.323 68.3828 331.945 67.6766C332.35 67.5066 332.756 67.3366 333.187 67.2189C333.344 67.1665 333.514 67.1535 333.658 67.1142C333.645 67.2581 333.697 67.4935 333.697 67.6243C333.697 67.8858 333.671 68.1343 333.645 68.3959C333.592 68.9321 333.501 69.4683 333.383 69.9914C333.226 70.6845 333.004 71.3646 332.742 72.0316C331.526 73.4179 330.506 74.9742 329.734 76.6743C329.46 77.289 329.499 77.9952 330.088 78.4398C330.611 78.8322 331.395 78.8322 331.879 78.3352C333.213 76.9359 334.299 75.3011 335.083 73.5225C336.561 71.9008 338.353 70.5668 340.367 69.6383C340.341 69.7298 340.315 69.8083 340.275 69.8999C339.962 70.6584 339.386 71.5085 338.915 72.2539C337.817 73.9933 336.94 75.7588 337.267 77.8644C337.398 78.7276 338.588 79.1068 339.268 78.6752L342.943 76.3604C344.107 75.6281 345.245 74.8041 346.487 74.2156C346.971 73.9802 347.508 73.784 348.057 73.784C348.462 73.784 348.632 73.8494 348.842 74.0718C349.051 74.281 349.116 74.4903 349.208 74.7649C349.208 74.7911 349.208 74.8172 349.208 74.8695C349.234 74.7387 349.234 74.7518 349.208 74.9088C348.672 75.3142 348.371 76.0596 348.776 76.7397C349.116 77.3282 350.045 77.6682 350.646 77.2236C352.242 76.0596 353.85 74.8957 355.446 73.7187C355.498 73.941 355.551 74.1633 355.59 74.3726C355.76 75.0919 356.584 75.5104 357.264 75.3273C358.559 74.9872 359.722 74.281 360.599 73.2609C361.07 72.6986 361.148 71.8877 360.599 71.3384H360.573Z" fill="white"/>
<path d="M349.181 74.908C349.129 74.908 349.181 74.8426 349.181 74.908V74.908Z" fill="white"/>
<path d="M333.174 209.521C333.004 209.234 332.69 208.972 332.363 208.894C331.722 208.75 330.794 209.09 330.689 209.848L329.878 215.642C329.826 216.021 329.813 216.348 330.022 216.688C330.192 216.976 330.506 217.237 330.833 217.316C331.474 217.46 332.402 217.12 332.507 216.361L333.318 210.568C333.37 210.188 333.383 209.861 333.187 209.521H333.174Z" fill="#E0E0E0"/>
<path d="M348.017 205.075C343.767 209.233 339.517 213.392 335.266 217.551C334.011 218.78 335.933 220.703 337.189 219.474C341.439 215.315 345.689 211.156 349.94 206.997C351.195 205.768 349.273 203.845 348.017 205.075Z" fill="#E0E0E0"/>
<path d="M346.135 222.09H339.936C339.217 222.09 338.537 222.718 338.576 223.45C338.615 224.195 339.177 224.81 339.936 224.81H346.135C346.854 224.81 347.534 224.182 347.495 223.45C347.456 222.718 346.893 222.09 346.135 222.09Z" fill="#E0E0E0"/>
<path d="M322.633 239.744C322.567 239.509 322.45 239.312 322.28 239.142L322.005 238.933C321.796 238.815 321.56 238.75 321.312 238.75H320.893C320.71 238.75 320.527 238.776 320.37 238.868C320.2 238.92 320.056 239.012 319.925 239.155C319.795 239.273 319.703 239.43 319.638 239.6C319.546 239.757 319.507 239.94 319.52 240.123C319.533 240.241 319.546 240.359 319.572 240.489C319.638 240.725 319.755 240.921 319.925 241.091C320.017 241.156 320.109 241.235 320.2 241.3C320.409 241.418 320.645 241.483 320.893 241.483H321.312C321.495 241.483 321.678 241.457 321.835 241.366C322.005 241.313 322.149 241.222 322.28 241.078C322.41 240.96 322.502 240.803 322.567 240.633C322.659 240.476 322.698 240.293 322.685 240.11C322.672 239.992 322.659 239.875 322.633 239.744Z" fill="#E0E0E0"/>
<path d="M318.842 233.244C317.089 233.244 317.089 235.977 318.842 235.977C320.594 235.977 320.594 233.244 318.842 233.244Z" fill="#E0E0E0"/>
<path d="M331.592 234.199C329.839 234.199 329.839 236.933 331.592 236.933C333.344 236.933 333.344 234.199 331.592 234.199Z" fill="#E0E0E0"/>
<path d="M137.369 223.317C137.199 222.781 136.715 222.376 136.166 222.324C136.192 222.062 136.14 221.8 135.983 221.565L132.334 216.229C132.007 215.745 131.392 215.405 130.791 215.601C130.229 215.785 129.771 216.295 129.784 216.922C129.836 218.518 130.228 220.035 130.935 221.421C129.941 221.709 129.038 222.232 128.319 223.043C127.992 223.409 127.835 223.88 127.966 224.364C128.084 224.795 128.463 225.227 128.921 225.318C131.406 225.815 133.982 225.724 136.414 224.991C137.094 224.782 137.591 224.024 137.369 223.317Z" fill="#092566"/>
<path d="M259.061 101.261C254.562 101.261 250.9 97.599 250.9 93.1002C250.9 88.6013 254.562 84.9395 259.061 84.9395C263.56 84.9395 267.222 88.6013 267.222 93.1002C267.222 97.599 263.56 101.261 259.061 101.261ZM259.061 87.1366C255.765 87.1366 253.084 89.8176 253.084 93.1132C253.084 96.4089 255.765 99.0899 259.061 99.0899C262.357 99.0899 265.038 96.4089 265.038 93.1132C265.038 89.8176 262.357 87.1366 259.061 87.1366Z" fill="white"/>
<path d="M272.322 90.9683C272.217 90.6545 272.008 90.2883 271.694 90.1575C270.779 89.7651 269.798 89.5297 268.791 89.6213C267.797 89.7128 266.829 89.9875 265.979 90.5367C265.378 90.9291 265.077 91.7661 265.495 92.4069C265.875 93.0085 266.725 93.3093 267.365 92.8908C267.535 92.7862 267.719 92.6816 267.902 92.6031C268.189 92.4985 268.477 92.42 268.778 92.3677C269.066 92.3415 269.366 92.3415 269.654 92.3677C269.981 92.42 270.295 92.5115 270.596 92.6292L270.347 92.5246C270.7 92.6685 271.001 92.76 271.394 92.6554C271.707 92.5639 272.047 92.3284 272.204 92.0276C272.374 91.7138 272.453 91.3214 272.348 90.9814L272.322 90.9683Z" fill="white"/>
</g>
<defs>
<clipPath id="clip0_8398_166315">
<rect width="384.011" height="360" fill="white" transform="translate(19 35.125)"/>
</clipPath>
</defs>
</svg>
