<svg width="20" height="20" viewBox="0 0 20 20" fill="none" xmlns="http://www.w3.org/2000/svg">
<path d="M7.11172 2.93766C8.1259 2.61851 9.02815 2.35703 9.54419 2.21072C9.84438 2.12561 10.1537 2.12947 10.4519 2.22138C11.8345 2.64753 16.0106 3.96678 17.6561 4.84809L14.7451 6.07374L7.11172 2.93766Z" fill="#667185"/>
<path d="M5.28809 3.53982C4.07579 3.96252 2.9261 4.41758 2.25907 4.81697C2.28137 4.82354 2.30353 4.83143 2.32545 4.84066L9.99957 8.07179L13.1206 6.75772L5.28809 3.53982Z" fill="#667185"/>
<path d="M1.57707 5.78391C1.38089 7.16612 1.53254 11.4919 1.61806 13.5173C1.64553 14.168 2.05384 14.7384 2.65852 14.9803L9.38063 17.6691C9.38704 17.6717 9.39347 17.6742 9.39991 17.6767C9.38342 17.6206 9.37457 17.5613 9.37457 17.4999V9.16491L1.84039 5.99271C1.73118 5.94673 1.64186 5.87334 1.57707 5.78391Z" fill="#667185"/>
<path d="M10.5992 17.6767C10.6057 17.6742 10.6121 17.6717 10.6186 17.6691L17.3407 14.9802C17.9454 14.7384 18.3537 14.168 18.3812 13.5173C18.4667 11.4918 18.6184 7.16596 18.4222 5.78382C18.3574 5.87329 18.268 5.94672 18.1588 5.99271L10.6246 9.16492V17.4999C10.6246 17.5613 10.6157 17.6207 10.5992 17.6767Z" fill="#667185"/>
</svg>
