<svg width="24" height="24" viewBox="0 0 24 24" fill="none" xmlns="http://www.w3.org/2000/svg">
<path fill-rule="evenodd" clip-rule="evenodd" d="M0.88843 6.90595C0.91148 6.72078 0.947856 6.4733 1.02555 6.2459C1.07322 6.0146 1.17814 5.82975 1.27038 5.70126C1.39713 5.52468 1.55234 5.38054 1.69472 5.26645C1.97984 5.03797 2.34698 4.82518 2.73176 4.63069C3.51135 4.23664 4.54399 3.82872 5.60621 3.44897C7.74092 2.6858 10.1304 1.98907 11.1803 1.6914C11.727 1.53637 12.2952 1.54371 12.8368 1.71063C13.8829 2.03305 16.2674 2.78316 18.3965 3.56339C19.4568 3.95193 20.4807 4.35766 21.2498 4.7291C21.6292 4.91231 21.9856 5.10559 22.2608 5.30256C22.3963 5.3996 22.5501 5.52408 22.6796 5.67716C22.7657 5.77893 22.9047 5.96745 22.9672 6.22777C23.0493 6.46007 23.087 6.71583 23.1107 6.90592C23.1464 7.19299 23.1709 7.53969 23.1878 7.91902C23.2216 8.68033 23.2273 9.63618 23.2174 10.6385C23.1976 12.6466 23.1143 14.8953 23.0565 16.2636C23.0068 17.4421 22.2671 18.4706 21.1803 18.9054L13.1137 22.132C12.3985 22.4181 11.6006 22.4181 10.8854 22.132L2.81884 18.9054C1.73201 18.4707 0.992322 17.4421 0.942562 16.2636C0.884789 14.8953 0.801574 12.6466 0.781721 10.6385C0.771812 9.63616 0.777519 8.68033 0.811357 7.91903C0.828217 7.5397 0.852698 7.19301 0.88843 6.90595ZM10.9995 20.0236V11.1751C10.962 11.1618 10.9247 11.1477 10.8876 11.1329L2.81428 7.90356L2.80938 8.00784C2.77793 8.71544 2.77184 9.62929 2.78162 10.6187C2.80115 12.5941 2.88328 14.8172 2.94078 16.1792C2.95696 16.5623 3.19723 16.9027 3.56162 17.0484L10.9995 20.0236ZM12.9995 20.0236V11.1751C13.037 11.1618 13.0743 11.1477 13.1115 11.1329L21.1849 7.90354L21.1898 8.00786C21.2212 8.71545 21.2273 9.6293 21.2175 10.6187C21.198 12.5941 21.1158 14.8173 21.0583 16.1792C21.0421 16.5623 20.8019 16.9027 20.4375 17.0484L12.9995 20.0236ZM17.7084 5.44127C18.5007 5.73163 19.2389 6.01988 19.8454 6.28524L17.0159 7.41704L9.67159 4.22029C10.5246 3.96008 11.2572 3.74843 11.7258 3.61555C11.8995 3.56631 12.0736 3.56825 12.2477 3.6219C13.2857 3.94183 15.6298 4.67957 17.7084 5.44127ZM6.79689 5.15028L14.4045 8.46161L12.3687 9.27595C12.1303 9.37131 11.8688 9.37131 11.6304 9.27595L4.01791 6.23095C4.64056 5.94443 5.42602 5.63736 6.27949 5.33224C6.45042 5.27113 6.62318 5.21041 6.79689 5.15028Z" fill="#667185"/>
</svg>