<svg width="20" height="20" viewBox="0 0 20 20" fill="none" xmlns="http://www.w3.org/2000/svg">
<g id="button-icon">
<g id="icon">
<path d="M16.4821 3.51726C14.8549 1.89008 12.2167 1.89008 10.5896 3.51726L8.23253 5.87429C7.90709 6.19972 7.90709 6.72736 8.23253 7.0528C8.55797 7.37823 9.0856 7.37823 9.41104 7.0528L11.7681 4.69577C12.7444 3.71946 14.3273 3.71946 15.3036 4.69577C16.2799 5.67209 16.2799 7.255 15.3036 8.23131L12.9466 10.5883C12.6211 10.9138 12.6211 11.4414 12.9466 11.7668C13.272 12.0923 13.7996 12.0923 14.1251 11.7668L16.4821 9.40982C18.1093 7.78264 18.1093 5.14445 16.4821 3.51726Z" fill="#175CFF"/>
<path d="M11.7681 9.40982C12.0935 9.08438 12.0935 8.55675 11.7681 8.23131C11.4426 7.90587 10.915 7.90587 10.5896 8.23131L8.23253 10.5883C7.90709 10.9138 7.90709 11.4414 8.23253 11.7668C8.55797 12.0923 9.0856 12.0923 9.41104 11.7668L11.7681 9.40982Z" fill="#175CFF"/>
<path d="M7.05402 9.40982C7.37945 9.08438 7.37945 8.55675 7.05402 8.23131C6.72858 7.90587 6.20094 7.90587 5.87551 8.23131L3.51848 10.5883C1.8913 12.2155 1.8913 14.8537 3.51848 16.4809C5.14567 18.1081 7.78386 18.1081 9.41104 16.4809L11.7681 14.1239C12.0935 13.7984 12.0935 13.2708 11.7681 12.9454C11.4426 12.6199 10.915 12.6199 10.5896 12.9454L8.23253 15.3024C7.25622 16.2787 5.67331 16.2787 4.697 15.3024C3.72068 14.3261 3.72068 12.7432 4.697 11.7668L7.05402 9.40982Z" fill="#175CFF"/>
</g>
</g>
</svg>
