<svg width="20" height="20" viewBox="0 0 20 20" fill="none" xmlns="http://www.w3.org/2000/svg">
<path fill-rule="evenodd" clip-rule="evenodd" d="M3.33333 1.25C2.18274 1.25 1.25 2.18274 1.25 3.33333V7.5C1.25 8.65059 2.18274 9.58333 3.33333 9.58333H15.8333C16.9839 9.58333 17.9167 8.65059 17.9167 7.5V3.33333C17.9167 2.18274 16.9839 1.25 15.8333 1.25H3.33333ZM2.91667 3.33333C2.91667 3.10321 3.10321 2.91667 3.33333 2.91667L15.8333 2.91667C16.0635 2.91667 16.25 3.10321 16.25 3.33333V7.5C16.25 7.73012 16.0635 7.91667 15.8333 7.91667H3.33333C3.10322 7.91667 2.91667 7.73012 2.91667 7.5L2.91667 3.33333Z" fill="#98A2B3"/>
<path fill-rule="evenodd" clip-rule="evenodd" d="M17.9167 12.5C17.9167 11.3494 16.9839 10.4167 15.8333 10.4167H3.33333C2.18274 10.4167 1.25 11.3494 1.25 12.5V16.6667C1.25 17.8173 2.18274 18.75 3.33333 18.75H15.8333C16.9839 18.75 17.9167 17.8173 17.9167 16.6667V12.5ZM15.8333 12.0833C16.0635 12.0833 16.25 12.2699 16.25 12.5V16.6667C16.25 16.8968 16.0635 17.0833 15.8333 17.0833H3.33333C3.10321 17.0833 2.91667 16.8968 2.91667 16.6667L2.91667 12.5C2.91667 12.2699 3.10321 12.0833 3.33333 12.0833L15.8333 12.0833Z" fill="#98A2B3"/>
</svg>
