<svg width="55" height="55" viewBox="0 0 55 55" fill="none" xmlns="http://www.w3.org/2000/svg">
<rect width="55" height="55" rx="16" fill="#E3EAFB"/>
<path d="M37 37.666H39V40.3327H17V37.666H19V14.9993C19 14.6457 19.1054 14.3066 19.2929 14.0565C19.4804 13.8065 19.7348 13.666 20 13.666H36C36.2652 13.666 36.5196 13.8065 36.7071 14.0565C36.8946 14.3066 37 14.6457 37 14.9993V37.666ZM27 21.666H25V24.3327H27V26.9993H29V24.3327H31V21.666H29V18.9993H27V21.666ZM30 37.666H32V29.666H24V37.666H26V32.3327H30V37.666Z" fill="#175CFF"/>
</svg>
