<svg width="20" height="20" viewBox="0 0 20 20" fill="none" xmlns="http://www.w3.org/2000/svg">
<path d="M10.8337 12.4987C10.8337 12.0385 10.4606 11.6654 10.0003 11.6654C9.54009 11.6654 9.16699 12.0385 9.16699 12.4987V14.1654C9.16699 14.6256 9.54009 14.9987 10.0003 14.9987C10.4606 14.9987 10.8337 14.6256 10.8337 14.1654V12.4987Z" fill="#98A2B3"/>
<path fill-rule="evenodd" clip-rule="evenodd" d="M15.0003 5.83203C15.0003 3.07061 12.7617 0.832031 10.0003 0.832031C7.2389 0.832031 5.00033 3.07061 5.00033 5.83203V7.4987C3.15938 7.4987 1.66699 8.99108 1.66699 10.832V15.832C1.66699 17.673 3.15938 19.1654 5.00033 19.1654H15.0003C16.8413 19.1654 18.3337 17.673 18.3337 15.832V10.832C18.3337 8.99108 16.8413 7.4987 15.0003 7.4987V5.83203ZM6.66699 5.83203C6.66699 3.99108 8.15938 2.4987 10.0003 2.4987C11.8413 2.4987 13.3337 3.99108 13.3337 5.83203V7.4987H6.66699V5.83203ZM3.33366 10.832C3.33366 9.91156 4.07985 9.16536 5.00033 9.16536H15.0003C15.9208 9.16536 16.667 9.91156 16.667 10.832V15.832C16.667 16.7525 15.9208 17.4987 15.0003 17.4987H5.00033C4.07985 17.4987 3.33366 16.7525 3.33366 15.832V10.832Z" fill="#98A2B3"/>
</svg>
