<svg width="19" height="18" viewBox="0 0 19 18" fill="none" xmlns="http://www.w3.org/2000/svg">
<path d="M5.24935 2.33268C5.70959 2.33268 6.08268 1.95959 6.08268 1.49935C6.08268 1.03911 5.70959 0.666016 5.24935 0.666016H3.99935C2.1584 0.666016 0.666016 2.1584 0.666016 3.99935V13.9993C0.666016 15.8403 2.1584 17.3327 3.99935 17.3327H5.24935C5.70959 17.3327 6.08268 16.9596 6.08268 16.4993C6.08268 16.0391 5.70959 15.666 5.24935 15.666H3.99935C3.07887 15.666 2.33268 14.9198 2.33268 13.9993L2.33268 3.99935C2.33268 3.07887 3.07888 2.33268 3.99935 2.33268H5.24935Z" fill="#9494B4"/>
<path d="M17.9219 9.5886C18.2474 9.26317 18.2474 8.73553 17.9219 8.41009L14.5886 5.07676C14.2632 4.75132 13.7355 4.75132 13.4101 5.07676C13.0847 5.4022 13.0847 5.92983 13.4101 6.25527L15.3208 8.16602L5.66602 8.16602C5.20578 8.16602 4.83268 8.53911 4.83268 8.99935C4.83268 9.45959 5.20578 9.83268 5.66602 9.83268L15.3208 9.83268L13.4101 11.7434C13.0847 12.0689 13.0847 12.5965 13.4101 12.9219C13.7355 13.2474 14.2632 13.2474 14.5886 12.9219L17.9219 9.5886Z" fill="#9494B4"/>
</svg>
