<svg width="20" height="20" viewBox="0 0 20 20" fill="none" xmlns="http://www.w3.org/2000/svg">
<g id="icon / loudspeaker">
<path id="icon" fill-rule="evenodd" clip-rule="evenodd" d="M19.167 2.85757C19.167 1.70017 18.0163 0.895134 16.929 1.29189L10.8474 3.51115L4.74047 3.98868C3.0056 4.12434 1.66699 5.5717 1.66699 7.31187V8.52092C1.66699 10.2611 3.0056 11.7084 4.74047 11.8441L5.0843 11.871L5.67073 16.9655C5.81511 18.2197 6.87701 19.1664 8.13955 19.1664C9.62887 19.1664 10.7837 17.8654 10.6072 16.3866L10.1149 12.2644L10.8474 12.3216L16.929 14.5409C18.0163 14.9377 19.167 14.1326 19.167 12.9752V2.85757ZM4.8704 5.65028L10.1926 5.2341V10.5987L4.8704 10.1825C4.00296 10.1147 3.33366 9.391 3.33366 8.52092V7.31187C3.33366 6.44179 4.00296 5.71811 4.8704 5.65028ZM17.5003 12.9752L11.8593 10.9167V4.91605L17.5003 2.85757L17.5003 12.9752ZM7.32646 16.7749L6.77721 12.0034L8.42058 12.1319L8.95224 16.5842C9.0104 17.0713 8.63005 17.4997 8.13955 17.4997C7.72374 17.4997 7.37401 17.1879 7.32646 16.7749Z" fill="#98A2B3"/>
</g>
</svg>
