<svg width="20" height="21" viewBox="0 0 20 21" fill="none" xmlns="http://www.w3.org/2000/svg">
<path fill-rule="evenodd" clip-rule="evenodd" d="M9.99964 5.08489C7.92857 5.08489 6.24964 6.76382 6.24964 8.83489C6.24964 10.906 7.92857 12.5849 9.99964 12.5849C12.0707 12.5849 13.7496 10.906 13.7496 8.83489C13.7496 6.76382 12.0707 5.08489 9.99964 5.08489ZM7.91631 8.83489C7.91631 7.6843 8.84905 6.75156 9.99964 6.75156C11.1502 6.75156 12.083 7.6843 12.083 8.83489C12.083 9.98549 11.1502 10.9182 9.99964 10.9182C8.84905 10.9182 7.91631 9.98549 7.91631 8.83489Z" fill="#98A2B3"/>
<path fill-rule="evenodd" clip-rule="evenodd" d="M6.50734 3.49488C8.62211 2.08504 11.3772 2.08504 13.4919 3.49488C16.351 5.40094 17.1537 9.2474 15.2956 12.1378L12.1026 17.1047C11.1185 18.6355 8.88078 18.6355 7.89669 17.1047L4.70372 12.1378C2.84558 9.2474 3.64826 5.40094 6.50734 3.49488ZM7.43184 4.88163C8.98677 3.84501 11.0125 3.84501 12.5674 4.88163C14.6696 6.28311 15.2598 9.11131 13.8936 11.2366L10.7006 16.2034C10.3726 16.7137 9.62669 16.7137 9.29866 16.2034L6.10569 11.2366C4.73944 9.11131 5.32963 6.28311 7.43184 4.88163Z" fill="#98A2B3"/>
</svg>
