<svg width="72" height="49" viewBox="0 0 72 49" fill="none" xmlns="http://www.w3.org/2000/svg">
<g id="Medsuppli Icon">
<path id="Vector" d="M70.9113 43.2018L59.2533 8.23061C58.6055 6.28414 57.4706 4.53568 55.9566 3.15142C54.4425 1.76716 52.5996 0.793093 50.6031 0.321783C48.6065 -0.149527 46.5225 -0.10242 44.5493 0.458639C42.576 1.0197 40.7791 2.07607 39.3291 3.52733L35.5578 7.31465L31.7784 3.52733C30.3283 2.07706 28.5315 1.02156 26.5586 0.461086C24.5858 -0.0993848 22.5024 -0.146218 20.5064 0.325024C18.5104 0.796266 16.668 1.76993 15.1541 3.15357C13.6403 4.53722 12.5053 6.2849 11.8569 8.23061L0.198917 43.2018C0.0422484 43.6553 -0.0229373 44.1353 0.00713524 44.6141C0.0372078 45.0929 0.16194 45.5609 0.374113 45.9912C0.586286 46.4215 0.881684 46.8054 1.24322 47.1207C1.60475 47.4361 2.02523 47.6766 2.48033 47.8283C2.93544 47.9801 3.41611 48.0401 3.89455 48.0048C4.37299 47.9696 4.83969 47.8398 5.26764 47.623C5.69559 47.4062 6.0763 47.1067 6.38772 46.7417C6.69913 46.3768 6.93508 45.9538 7.08191 45.497L18.7385 10.5245C18.9964 9.75273 19.447 9.05959 20.0477 8.51073C20.6483 7.96186 21.3792 7.57546 22.1711 7.38814C22.9629 7.20081 23.7894 7.21878 24.5724 7.44031C25.3553 7.66185 26.0687 8.07964 26.645 8.65407L31.1585 13.1768C28.7653 17.4384 25.0288 20.788 20.532 22.7028H20.52C19.8686 22.9831 19.3136 23.4481 18.9237 24.0404C18.5337 24.6327 18.3259 25.3263 18.3259 26.0355C18.3259 26.7446 18.5337 27.4382 18.9237 28.0305C19.3136 28.6228 19.8686 29.0879 20.52 29.3681C25.782 31.6122 29.9731 35.8029 32.2178 41.0646C32.4972 41.7173 32.9621 42.2736 33.5548 42.6645C34.1474 43.0555 34.8418 43.2639 35.5518 43.2639C36.2618 43.2639 36.9561 43.0555 37.5488 42.6645C38.1414 42.2736 38.6063 41.7173 38.8858 41.0646C41.1295 35.8028 45.3204 31.6119 50.5822 29.3681C51.234 29.088 51.7894 28.623 52.1797 28.0306C52.5699 27.4381 52.7779 26.7443 52.7779 26.0348C52.7779 25.3254 52.5699 24.6315 52.1797 24.0391C51.7894 23.4466 51.234 22.9816 50.5822 22.7015H50.5742C46.0801 20.7851 42.3461 17.4357 39.9544 13.1755L44.4678 8.66205C45.0438 8.08691 45.7571 7.6684 46.5402 7.44623C47.3232 7.22406 48.15 7.20557 48.9422 7.39251C49.7344 7.57946 50.4657 7.96566 51.0668 8.51447C51.6679 9.06328 52.1189 9.75652 52.377 10.5285L64.0336 45.501C64.3456 46.4041 65.0012 47.1476 65.8581 47.5701C66.715 47.9927 67.704 48.0602 68.6104 47.7579C69.5167 47.4557 70.2673 46.8081 70.6991 45.9558C71.1309 45.1036 71.209 44.1154 70.9166 43.2058L70.9113 43.2018ZM38.4782 28.9659C37.4194 30.0253 36.443 31.164 35.5578 32.3722C33.78 29.9542 31.646 27.8197 29.2283 26.0414C31.6453 24.2671 33.7794 22.1367 35.5578 19.7226C37.3356 22.139 39.4697 24.2718 41.8872 26.0481C40.6784 26.9326 39.5387 27.9081 38.4782 28.9659Z" fill="url(#paint0_linear_4_86102)"/>
</g>
<defs>
<linearGradient id="paint0_linear_4_86102" x1="6.59606" y1="6.56063" x2="63.9433" y2="54.881" gradientUnits="userSpaceOnUse">
<stop stop-color="#FF435D"/>
<stop offset="1" stop-color="#B0208E"/>
</linearGradient>
</defs>
</svg>
