<svg width="20" height="20" viewBox="0 0 20 20" fill="none" xmlns="http://www.w3.org/2000/svg">
<g id="Icon-right">
<g id="icon">
<path d="M8.33356 6.66699C8.7938 6.66699 9.16689 7.04009 9.16689 7.50033V10.8337C9.16689 11.2939 8.7938 11.667 8.33356 11.667C7.87332 11.667 7.50023 11.2939 7.50023 10.8337V7.50033C7.50023 7.04009 7.87332 6.66699 8.33356 6.66699Z" fill="#98A2B3"/>
<path d="M12.5002 7.50033C12.5002 7.04009 12.1271 6.66699 11.6669 6.66699C11.2067 6.66699 10.8336 7.04009 10.8336 7.50033V10.8337C10.8336 11.2939 11.2067 11.667 11.6669 11.667C12.1271 11.667 12.5002 11.2939 12.5002 10.8337V7.50033Z" fill="#98A2B3"/>
<path fill-rule="evenodd" clip-rule="evenodd" d="M10.0002 1.66699C6.77857 1.66699 4.16689 4.27866 4.16689 7.50033V10.8337C4.16689 14.0553 6.77857 16.667 10.0002 16.667C13.2219 16.667 15.8336 14.0553 15.8336 10.8337V7.50033C15.8336 4.27866 13.2219 1.66699 10.0002 1.66699ZM5.83356 7.50033C5.83356 5.19914 7.69904 3.33366 10.0002 3.33366C12.3014 3.33366 14.1669 5.19914 14.1669 7.50033V10.8337C14.1669 13.1348 12.3014 15.0003 10.0002 15.0003C7.69904 15.0003 5.83356 13.1348 5.83356 10.8337V7.50033Z" fill="#98A2B3"/>
<path d="M4.12413 13.0701C3.97859 12.6335 3.50666 12.3976 3.07004 12.5431C2.63342 12.6886 2.39745 13.1606 2.54299 13.5972C4.93182 20.7637 15.0686 20.7637 17.4575 13.5972C17.603 13.1606 17.367 12.6886 16.9304 12.5431C16.4938 12.3976 16.0219 12.6335 15.8763 13.0701C13.994 18.7171 6.00646 18.7171 4.12413 13.0701Z" fill="#98A2B3"/>
</g>
</g>
</svg>
