<svg width="20" height="20" viewBox="0 0 20 20" fill="none" xmlns="http://www.w3.org/2000/svg">
<path d="M8.33356 6.66406C8.7938 6.66406 9.16689 7.03716 9.16689 7.4974V10.8307C9.16689 11.291 8.7938 11.6641 8.33356 11.6641C7.87332 11.6641 7.50023 11.291 7.50023 10.8307V7.4974C7.50023 7.03716 7.87332 6.66406 8.33356 6.66406Z" fill="#98A2B3"/>
<path d="M12.5002 7.4974C12.5002 7.03716 12.1271 6.66406 11.6669 6.66406C11.2067 6.66406 10.8336 7.03716 10.8336 7.4974V10.8307C10.8336 11.291 11.2067 11.6641 11.6669 11.6641C12.1271 11.6641 12.5002 11.291 12.5002 10.8307V7.4974Z" fill="#98A2B3"/>
<path fill-rule="evenodd" clip-rule="evenodd" d="M10.0002 1.66406C6.77857 1.66406 4.16689 4.27573 4.16689 7.4974V10.8307C4.16689 14.0524 6.77857 16.6641 10.0002 16.6641C13.2219 16.6641 15.8336 14.0524 15.8336 10.8307V7.4974C15.8336 4.27573 13.2219 1.66406 10.0002 1.66406ZM5.83356 7.4974C5.83356 5.19621 7.69904 3.33073 10.0002 3.33073C12.3014 3.33073 14.1669 5.19621 14.1669 7.4974V10.8307C14.1669 13.1319 12.3014 14.9974 10.0002 14.9974C7.69904 14.9974 5.83356 13.1319 5.83356 10.8307V7.4974Z" fill="#98A2B3"/>
<path d="M4.12413 13.0672C3.97859 12.6306 3.50666 12.3946 3.07004 12.5402C2.63342 12.6857 2.39745 13.1576 2.54299 13.5943C4.93182 20.7607 15.0686 20.7607 17.4575 13.5943C17.603 13.1576 17.367 12.6857 16.9304 12.5402C16.4938 12.3946 16.0219 12.6306 15.8763 13.0672C13.994 18.7142 6.00646 18.7142 4.12413 13.0672Z" fill="#98A2B3"/>
</svg>
