<svg width="20" height="20" viewBox="0 0 20 20" fill="none" xmlns="http://www.w3.org/2000/svg">
<path d="M7.50008 9.16699C7.03984 9.16699 6.66675 9.54009 6.66675 10.0003C6.66675 10.4606 7.03984 10.8337 7.50008 10.8337H12.5001C12.9603 10.8337 13.3334 10.4606 13.3334 10.0003C13.3334 9.54009 12.9603 9.16699 12.5001 9.16699H7.50008Z" fill="#98A2B3"/>
<path fill-rule="evenodd" clip-rule="evenodd" d="M10.0001 1.66699C5.39771 1.66699 1.66675 5.39795 1.66675 10.0003C1.66675 14.6027 5.39771 18.3337 10.0001 18.3337C14.6025 18.3337 18.3334 14.6027 18.3334 10.0003C18.3334 5.39795 14.6025 1.66699 10.0001 1.66699ZM3.33341 10.0003C3.33341 6.31843 6.31818 3.33366 10.0001 3.33366C13.682 3.33366 16.6667 6.31843 16.6667 10.0003C16.6667 13.6822 13.682 16.667 10.0001 16.667C6.31818 16.667 3.33341 13.6822 3.33341 10.0003Z" fill="#98A2B3"/>
</svg>
