<svg width="20" height="21" viewBox="0 0 20 21" fill="none" xmlns="http://www.w3.org/2000/svg">
<path d="M4.16634 5.91536C3.7061 5.91536 3.33301 6.28846 3.33301 6.7487C3.33301 7.20894 3.7061 7.58203 4.16634 7.58203H5.83301C6.29324 7.58203 6.66634 7.20894 6.66634 6.7487C6.66634 6.28846 6.29324 5.91536 5.83301 5.91536H4.16634Z" fill="#98A2B3"/>
<path d="M13.333 6.7487C13.333 6.28846 13.7061 5.91536 14.1663 5.91536H15.833C16.2932 5.91536 16.6663 6.28846 16.6663 6.7487C16.6663 7.20894 16.2932 7.58203 15.833 7.58203H14.1663C13.7061 7.58203 13.333 7.20894 13.333 6.7487Z" fill="#98A2B3"/>
<path d="M4.16634 13.4154C3.7061 13.4154 3.33301 13.7885 3.33301 14.2487C3.33301 14.7089 3.7061 15.082 4.16634 15.082H5.83301C6.29324 15.082 6.66634 14.7089 6.66634 14.2487C6.66634 13.7885 6.29324 13.4154 5.83301 13.4154H4.16634Z" fill="#98A2B3"/>
<path d="M13.333 14.2487C13.333 13.7885 13.7061 13.4154 14.1663 13.4154H15.833C16.2932 13.4154 16.6663 13.7885 16.6663 14.2487C16.6663 14.7089 16.2932 15.082 15.833 15.082H14.1663C13.7061 15.082 13.333 14.7089 13.333 14.2487Z" fill="#98A2B3"/>
<path fill-rule="evenodd" clip-rule="evenodd" d="M9.99967 7.9987C11.3804 7.9987 12.4997 9.11799 12.4997 10.4987C12.4997 11.8794 11.3804 12.9987 9.99967 12.9987C8.61896 12.9987 7.49967 11.8794 7.49967 10.4987C7.49967 9.11799 8.61896 7.9987 9.99967 7.9987ZM10.833 10.4987C10.833 10.0385 10.4599 9.66536 9.99967 9.66536C9.53944 9.66536 9.16634 10.0385 9.16634 10.4987C9.16634 10.9589 9.53944 11.332 9.99967 11.332C10.4599 11.332 10.833 10.9589 10.833 10.4987Z" fill="#98A2B3"/>
<path fill-rule="evenodd" clip-rule="evenodd" d="M4.16634 3.83203C2.32539 3.83203 0.833008 5.32442 0.833008 7.16536V13.832C0.833008 15.673 2.32539 17.1654 4.16634 17.1654H15.833C17.674 17.1654 19.1663 15.673 19.1663 13.832V7.16536C19.1663 5.32442 17.674 3.83203 15.833 3.83203H4.16634ZM2.49967 7.16536C2.49967 6.24489 3.24587 5.4987 4.16634 5.4987H15.833C16.7535 5.4987 17.4997 6.24489 17.4997 7.16536V13.832C17.4997 14.7525 16.7535 15.4987 15.833 15.4987H4.16634C3.24587 15.4987 2.49967 14.7525 2.49967 13.832V7.16536Z" fill="#98A2B3"/>
</svg>
