<svg width="20" height="21" viewBox="0 0 20 21" fill="none" xmlns="http://www.w3.org/2000/svg">
<g id="icon / multiply">
<path id="icon" d="M5.87571 5.1972C5.55028 4.87177 5.02264 4.87177 4.6972 5.1972C4.37177 5.52264 4.37177 6.05028 4.6972 6.37571L8.82199 10.5005L4.6972 14.6253C4.37177 14.9507 4.37177 15.4784 4.6972 15.8038C5.02264 16.1292 5.55028 16.1292 5.87571 15.8038L10.0005 11.679L14.1253 15.8038C14.4507 16.1292 14.9784 16.1292 15.3038 15.8038C15.6292 15.4784 15.6292 14.9507 15.3038 14.6253L11.179 10.5005L15.3038 6.37571C15.6292 6.05028 15.6292 5.52264 15.3038 5.1972C14.9784 4.87177 14.4507 4.87177 14.1253 5.1972L10.0005 9.32199L5.87571 5.1972Z" fill="white"/>
</g>
</svg>
