<svg width="20" height="20" viewBox="0 0 20 20" fill="none" xmlns="http://www.w3.org/2000/svg">
<g id="icon / multiply-circle">
<g id="icon">
<path d="M8.8213 7.64297C8.49586 7.31753 7.96822 7.31753 7.64279 7.64297C7.31735 7.9684 7.31735 8.49604 7.64279 8.82148L8.8213 9.99999L7.64279 11.1785C7.31735 11.5039 7.31735 12.0316 7.64279 12.357C7.96822 12.6824 8.49586 12.6824 8.8213 12.357L9.99981 11.1785L11.1783 12.357C11.5038 12.6824 12.0314 12.6824 12.3568 12.357C12.6823 12.0316 12.6823 11.5039 12.3568 11.1785L11.1783 9.99999L12.3568 8.82148C12.6823 8.49604 12.6823 7.9684 12.3568 7.64297C12.0314 7.31753 11.5038 7.31753 11.1783 7.64297L9.99981 8.82148L8.8213 7.64297Z" fill="#98A2B3"/>
<path fill-rule="evenodd" clip-rule="evenodd" d="M9.99984 1.66666C5.39746 1.66666 1.6665 5.39762 1.6665 9.99999C1.6665 14.6024 5.39746 18.3333 9.99984 18.3333C14.6022 18.3333 18.3332 14.6024 18.3332 9.99999C18.3332 5.39762 14.6022 1.66666 9.99984 1.66666ZM3.33317 9.99999C3.33317 6.31809 6.31794 3.33332 9.99984 3.33332C13.6817 3.33332 16.6665 6.31809 16.6665 9.99999C16.6665 13.6819 13.6817 16.6667 9.99984 16.6667C6.31794 16.6667 3.33317 13.6819 3.33317 9.99999Z" fill="#98A2B3"/>
</g>
</g>
</svg>
