<svg width="19" height="19" viewBox="0 0 19 19" fill="none" xmlns="http://www.w3.org/2000/svg">
<path d="M18.6723 0.330015C18.9977 0.655452 18.9977 1.18309 18.6723 1.50853L2.0056 18.1752C1.68016 18.5006 1.15252 18.5006 0.827085 18.1752C0.501649 17.8498 0.501649 17.3221 0.827085 16.9967L17.4937 0.330015C17.8192 0.00457826 18.3468 0.00457826 18.6723 0.330015Z" fill="#344054" fill-opacity="0.49"/>
<path d="M3.99294 12.6524C3.95081 12.5446 3.911 12.4346 3.8736 12.3224C3.72806 11.8858 3.25613 11.6498 2.81951 11.7954C2.38289 11.9409 2.14692 12.4129 2.29246 12.8495C2.41753 13.2247 2.56383 13.5802 2.72915 13.9162L3.99294 12.6524Z" fill="#344054" fill-opacity="0.49"/>
<path d="M4.82434 16.535C8.76118 19.6701 15.3429 18.4416 17.2069 12.8495C17.3525 12.4129 17.1165 11.9409 16.6799 11.7954C16.2433 11.6498 15.7713 11.8858 15.6258 12.3224C14.1803 16.659 9.13439 17.6653 6.01784 15.3415L4.82434 16.535Z" fill="#344054" fill-opacity="0.49"/>
<path d="M9.74967 1.7526C11.1667 1.7526 12.4461 2.34212 13.356 3.28928L4.99821 11.647C4.83692 11.1559 4.74967 10.6311 4.74967 10.0859V6.7526C4.74967 3.99118 6.98825 1.7526 9.74967 1.7526Z" fill="#344054" fill-opacity="0.49"/>
<path d="M9.74967 15.0859C8.75893 15.0859 7.83549 14.7978 7.05859 14.3007L14.7477 6.61158C14.749 6.65843 14.7497 6.70544 14.7497 6.7526V10.0859C14.7497 12.8474 12.5111 15.0859 9.74967 15.0859Z" fill="#344054" fill-opacity="0.49"/>
</svg>
