<svg width="33" height="32" viewBox="0 0 33 32" fill="none" xmlns="http://www.w3.org/2000/svg">
<path d="M13.8337 10.6641C14.5701 10.6641 15.167 11.261 15.167 11.9974V17.3307C15.167 18.0671 14.5701 18.6641 13.8337 18.6641C13.0973 18.6641 12.5004 18.0671 12.5004 17.3307V11.9974C12.5004 11.261 13.0973 10.6641 13.8337 10.6641Z" fill="#475367"/>
<path d="M20.5004 11.9974C20.5004 11.261 19.9034 10.6641 19.167 10.6641C18.4306 10.6641 17.8337 11.261 17.8337 11.9974V17.3307C17.8337 18.0671 18.4306 18.6641 19.167 18.6641C19.9034 18.6641 20.5004 18.0671 20.5004 17.3307V11.9974Z" fill="#475367"/>
<path fill-rule="evenodd" clip-rule="evenodd" d="M16.5004 2.66406C11.3457 2.66406 7.16703 6.84274 7.16703 11.9974V17.3307C7.16703 22.4854 11.3457 26.6641 16.5004 26.6641C21.655 26.6641 25.8337 22.4854 25.8337 17.3307V11.9974C25.8337 6.84274 21.655 2.66406 16.5004 2.66406ZM9.8337 11.9974C9.8337 8.3155 12.8185 5.33073 16.5004 5.33073C20.1823 5.33073 23.167 8.3155 23.167 11.9974V17.3307C23.167 21.0126 20.1823 23.9974 16.5004 23.9974C12.8185 23.9974 9.8337 21.0126 9.8337 17.3307V11.9974Z" fill="#475367"/>
<path d="M7.09861 20.9091C6.86574 20.2105 6.11065 19.833 5.41206 20.0658C4.71347 20.2987 4.33592 21.0538 4.56878 21.7524C8.39091 33.2188 24.6098 33.2188 28.4319 21.7524C28.6648 21.0538 28.2873 20.2987 27.5887 20.0658C26.8901 19.833 26.135 20.2105 25.9021 20.9091C22.8904 29.9443 10.1103 29.9443 7.09861 20.9091Z" fill="#475367"/>
</svg>
