<svg width="73" height="72" viewBox="0 0 73 72" fill="none" xmlns="http://www.w3.org/2000/svg">
<rect x="0.5" width="72" height="72" rx="36" fill="#E3EAFB"/>
<path fill-rule="evenodd" clip-rule="evenodd" d="M26 32.666V27.666C26 22.1432 30.4772 17.666 36 17.666C41.5228 17.666 46 22.1432 46 27.666V32.666C48.7614 32.666 51 34.9046 51 37.666V47.666C51 50.4274 48.7614 52.666 46 52.666H26C23.2386 52.666 21 50.4274 21 47.666V37.666C21 34.9046 23.2386 32.666 26 32.666ZM29.3333 27.666C29.3333 23.9841 32.3181 20.9993 36 20.9993C39.6819 20.9993 42.6667 23.9841 42.6667 27.666V32.666H29.3333V27.666ZM36 39.3327C36.9205 39.3327 37.6667 40.0789 37.6667 40.9993V44.3327C37.6667 45.2532 36.9205 45.9993 36 45.9993C35.0795 45.9993 34.3333 45.2532 34.3333 44.3327V40.9993C34.3333 40.0789 35.0795 39.3327 36 39.3327Z" fill="#1671D9"/>
</svg>
