<svg width="18" height="15" viewBox="0 0 18 15" fill="none" xmlns="http://www.w3.org/2000/svg">
<path d="M4.68164 0.500538C3.7419 0.485336 2.82533 0.792681 2.08472 1.37134C1.3441 1.95 0.824193 2.76502 0.611645 3.68054C0.397522 4.71952 0.604883 5.80101 1.18811 6.68711C1.77135 7.57321 2.68268 8.19134 3.72164 8.40554L3.74864 8.41054C4.01786 8.47047 4.29284 8.50066 4.56864 8.50054V14.5005H6.56865V2.50054H8.56864V14.5005H10.5686V2.50054H12.5686V0.500538H4.68164ZM2.53164 4.50054C2.53164 3.9701 2.74236 3.4614 3.11743 3.08632C3.4925 2.71125 4.00121 2.50054 4.53164 2.50054V6.50054C4.00121 6.50054 3.4925 6.28982 3.11743 5.91475C2.74236 5.53968 2.53164 5.03097 2.53164 4.50054ZM17.4716 12.9915C17.4716 13.2882 17.3837 13.5782 17.2188 13.8249C17.054 14.0716 16.8198 14.2638 16.5457 14.3774C16.2716 14.4909 15.97 14.5206 15.679 14.4627C15.388 14.4048 15.1208 14.262 14.911 14.0522C14.7012 13.8424 14.5583 13.5751 14.5005 13.2842C14.4426 12.9932 14.4723 12.6916 14.5858 12.4175C14.6994 12.1434 14.8916 11.9092 15.1383 11.7443C15.385 11.5795 15.675 11.4915 15.9716 11.4915C16.3695 11.4915 16.751 11.6496 17.0323 11.9309C17.3136 12.2122 17.4716 12.5937 17.4716 12.9915ZM17.4716 8.99154C17.4716 9.28821 17.3837 9.57822 17.2188 9.82489C17.054 10.0716 16.8198 10.2638 16.5457 10.3774C16.2716 10.4909 15.97 10.5206 15.679 10.4627C15.388 10.4048 15.1208 10.262 14.911 10.0522C14.7012 9.84242 14.5583 9.57514 14.5005 9.28417C14.4426 8.9932 14.4723 8.6916 14.5858 8.41751C14.6994 8.14342 14.8916 7.90916 15.1383 7.74433C15.385 7.57951 15.675 7.49154 15.9716 7.49154C16.3695 7.49154 16.751 7.64957 17.0323 7.93088C17.3136 8.21218 17.4716 8.59371 17.4716 8.99154ZM17.4716 4.99154C17.4716 5.28821 17.3837 5.57822 17.2188 5.82489C17.054 6.07157 16.8198 6.26383 16.5457 6.37736C16.2716 6.49089 15.97 6.52059 15.679 6.46272C15.388 6.40484 15.1208 6.26198 14.911 6.0522C14.7012 5.84242 14.5583 5.57514 14.5005 5.28417C14.4426 4.9932 14.4723 4.6916 14.5858 4.41751C14.6994 4.14342 14.8916 3.90916 15.1383 3.74433C15.385 3.57951 15.675 3.49154 15.9716 3.49154C16.3695 3.49154 16.751 3.64957 17.0323 3.93088C17.3136 4.21218 17.4716 4.59371 17.4716 4.99154Z" fill="black"/>
</svg>
