<svg width="48" height="48" viewBox="0 0 48 48" fill="none" xmlns="http://www.w3.org/2000/svg">
<path fill-rule="evenodd" clip-rule="evenodd" d="M5 0C4.44772 0 4 0.447714 4 0.999999V47C4 47.5523 4.44771 48 5 48H43C43.5523 48 44 47.5523 44 47V8L36 0H5Z" fill="#E4E7EC"/>
<path fill-rule="evenodd" clip-rule="evenodd" d="M36 0V8H44L36 0Z" fill="#98A2B3"/>
<rect x="2" y="20" width="44" height="20" rx="1" fill="#CC400C"/>
<path d="M16.6641 32.908V27.0898H18.8459C19.2929 27.0898 19.6679 27.1732 19.9709 27.3398C20.2758 27.5065 20.5059 27.7357 20.6612 28.0273C20.8184 28.3171 20.897 28.6467 20.897 29.016C20.897 29.3891 20.8184 29.7205 20.6612 30.0103C20.504 30.3001 20.272 30.5283 19.9652 30.695C19.6584 30.8597 19.2805 30.9421 18.8317 30.9421H17.3857V30.0756H18.6896C18.951 30.0756 19.165 30.0302 19.3317 29.9393C19.4983 29.8484 19.6214 29.7234 19.701 29.5643C19.7824 29.4052 19.8232 29.2224 19.8232 29.016C19.8232 28.8095 19.7824 28.6277 19.701 28.4705C19.6214 28.3133 19.4974 28.1912 19.3288 28.104C19.1622 28.015 18.9472 27.9705 18.6839 27.9705H17.718V32.908H16.6641Z" fill="white"/>
<path d="M23.7841 32.908H21.8125V27.0898H23.8239C24.4015 27.0898 24.8977 27.2063 25.3125 27.4393C25.7292 27.6703 26.0492 28.0027 26.2727 28.4364C26.4962 28.8701 26.608 29.3891 26.608 29.9933C26.608 30.5993 26.4953 31.1201 26.2699 31.5558C26.0464 31.9914 25.7235 32.3256 25.3011 32.5586C24.8807 32.7915 24.375 32.908 23.7841 32.908ZM22.8665 31.9961H23.733C24.1383 31.9961 24.4763 31.9222 24.7472 31.7745C25.018 31.6249 25.2216 31.4023 25.358 31.1069C25.4943 30.8095 25.5625 30.4383 25.5625 29.9933C25.5625 29.5482 25.4943 29.1789 25.358 28.8853C25.2216 28.5898 25.0199 28.3692 24.7528 28.2234C24.4877 28.0756 24.1581 28.0018 23.7642 28.0018H22.8665V31.9961Z" fill="white"/>
<path d="M27.6094 32.908V27.0898H31.3366V27.9734H28.6634V29.5529H31.081V30.4364H28.6634V32.908H27.6094Z" fill="white"/>
</svg>
