<svg width="20" height="21" viewBox="0 0 20 21" fill="none" xmlns="http://www.w3.org/2000/svg">
<g id="icon / pencil-edit">
<g id="icon">
<path fill-rule="evenodd" clip-rule="evenodd" d="M17.1627 2.92365C16.0406 1.80149 14.2212 1.80149 13.099 2.92365L5.99448 10.0282C5.48449 10.5382 5.15367 11.1998 5.05167 11.9138L4.84579 13.355C4.68866 14.4549 5.63147 15.3977 6.73141 15.2406L8.17255 15.0347C8.88654 14.9327 9.54818 14.6019 10.0582 14.0919L17.1627 6.98734C18.2849 5.86518 18.2849 4.04581 17.1627 2.92365ZM14.4521 3.95742C14.9218 3.63719 15.5675 3.68544 15.9842 4.10216C16.4009 4.51888 16.4492 5.16453 16.129 5.63426L14.4521 3.95742ZM13.2587 5.12102L14.9654 6.82769L8.87966 12.9134C8.62466 13.1684 8.29384 13.3338 7.93685 13.3848L6.49571 13.5907L6.70159 12.1495C6.75259 11.7925 6.918 11.4617 7.17299 11.2067L13.2587 5.12102Z" fill="white"/>
<path d="M4.99935 2.16533C3.1584 2.16533 1.66602 3.65771 1.66602 5.49866V15.4987C1.66602 17.3396 3.1584 18.832 4.99935 18.832H14.9993C16.8403 18.832 18.3327 17.3396 18.3327 15.4987V10.4987C18.3327 10.0384 17.9596 9.66533 17.4993 9.66533C17.0391 9.66533 16.666 10.0384 16.666 10.4987V15.4987C16.666 16.4191 15.9198 17.1653 14.9993 17.1653H4.99935C4.07887 17.1653 3.33268 16.4191 3.33268 15.4987V5.49866C3.33268 4.57819 4.07888 3.83199 4.99935 3.83199H7.23619C7.69643 3.83199 8.06952 3.4589 8.06952 2.99866C8.06952 2.53842 7.69643 2.16533 7.23619 2.16533H4.99935Z" fill="white"/>
</g>
</g>
</svg>
