<svg width="21" height="21" viewBox="0 0 21 21" fill="none" xmlns="http://www.w3.org/2000/svg">
<path fill-rule="evenodd" clip-rule="evenodd" d="M17.6635 2.92487C16.5413 1.80271 14.7219 1.80271 13.5998 2.92487L6.49521 10.0294C5.98522 10.5394 5.6544 11.2011 5.5524 11.915L5.34653 13.3562C5.18939 14.4561 6.1322 15.3989 7.23214 15.2418L8.67328 15.0359C9.38727 14.9339 10.0489 14.6031 10.5589 14.0931L17.6635 6.98856C18.7856 5.8664 18.7856 4.04703 17.6635 2.92487ZM14.9528 3.95864C15.4226 3.63842 16.0682 3.68666 16.4849 4.10338C16.9017 4.5201 16.9499 5.16575 16.6297 5.63549L14.9528 3.95864ZM13.7594 5.12224L15.4661 6.82891L9.38039 12.9146C9.1254 13.1696 8.79458 13.335 8.43758 13.386L6.99644 13.5919L7.20232 12.1507C7.25332 11.7938 7.41873 11.4629 7.67372 11.2079L13.7594 5.12224Z" fill="#175CFF"/>
<path d="M5.50008 2.16655C3.65913 2.16655 2.16675 3.65893 2.16675 5.49988V15.4999C2.16675 17.3408 3.65913 18.8332 5.50008 18.8332H15.5001C17.341 18.8332 18.8334 17.3408 18.8334 15.4999V10.4999C18.8334 10.0396 18.4603 9.66655 18.0001 9.66655C17.5398 9.66655 17.1667 10.0396 17.1667 10.4999V15.4999C17.1667 16.4204 16.4206 17.1665 15.5001 17.1665H5.50008C4.57961 17.1665 3.83341 16.4204 3.83341 15.4999V5.49988C3.83341 4.57941 4.57961 3.83321 5.50008 3.83321H7.73692C8.19716 3.83321 8.57026 3.46012 8.57026 2.99988C8.57026 2.53964 8.19716 2.16655 7.73692 2.16655H5.50008Z" fill="#175CFF"/>
</svg>
