<svg width="20" height="21" viewBox="0 0 20 21" fill="none" xmlns="http://www.w3.org/2000/svg">
<path fill-rule="evenodd" clip-rule="evenodd" d="M8.22866 2.83959C6.92692 1.53784 4.81637 1.53785 3.51462 2.83959L3.06834 3.28587C2.45304 3.90118 2.03218 4.82324 2.27223 5.82207C2.64024 7.35333 3.74765 10.1437 7.05015 13.4462C10.3527 16.7487 13.143 17.8561 14.6743 18.2241C15.6731 18.4642 16.5952 18.0433 17.2105 17.428L17.6568 16.9817C18.9585 15.68 18.9585 13.5694 17.6568 12.2677L16.8827 11.4936C15.8216 10.4326 14.1824 10.2113 12.878 10.953L12.7976 10.9988C12.263 11.3027 11.649 11.2779 11.2139 10.963C10.8629 10.709 10.5274 10.4416 10.2911 10.2053C10.0547 9.96894 9.78737 9.63345 9.53333 9.28242C9.21849 8.8474 9.19365 8.23333 9.4976 7.6988L9.54334 7.61835C10.2851 6.31394 10.0638 4.67471 9.00273 3.61366L8.22866 2.83959ZM4.69313 4.0181C5.34401 3.36723 6.39928 3.36723 7.05015 4.0181L7.82422 4.79217C8.35474 5.32269 8.46539 6.14231 8.09452 6.79452L8.04878 6.87496C7.46136 7.90801 7.44075 9.23374 8.18315 10.2596C8.45584 10.6364 8.78355 11.0548 9.11255 11.3838C9.44154 11.7128 9.85999 12.0405 10.2368 12.3132C11.2626 13.0556 12.5883 13.035 13.6214 12.4476L13.7018 12.4018C14.354 12.031 15.1737 12.1416 15.7042 12.6721L16.4782 13.4462C17.1291 14.0971 17.1291 15.1523 16.4782 15.8032L16.032 16.2495C15.7096 16.5719 15.3543 16.6734 15.0637 16.6036C13.8395 16.3094 11.3201 15.3591 8.22866 12.2677C5.13727 9.17629 4.18697 6.65681 3.89275 5.43261C3.82293 5.14207 3.92448 4.78676 4.24685 4.46438L4.69313 4.0181Z" fill="#98A2B3"/>
</svg>
