<svg width="20" height="21" viewBox="0 0 20 21" fill="none" xmlns="http://www.w3.org/2000/svg">
<g id="button-icon">
<path id="icon" d="M10.8333 3.83333C10.8333 3.3731 10.4602 3 10 3C9.53976 3 9.16667 3.3731 9.16667 3.83333V9.66667H3.33333C2.8731 9.66667 2.5 10.0398 2.5 10.5C2.5 10.9602 2.8731 11.3333 3.33333 11.3333H9.16667V17.1667C9.16667 17.6269 9.53976 18 10 18C10.4602 18 10.8333 17.6269 10.8333 17.1667V11.3333H16.6667C17.1269 11.3333 17.5 10.9602 17.5 10.5C17.5 10.0398 17.1269 9.66667 16.6667 9.66667H10.8333V3.83333Z" fill="#175CFF"/>
</g>
</svg>
