<svg width="20" height="20" viewBox="0 0 20 20" fill="none" xmlns="http://www.w3.org/2000/svg">
<path d="M10.1171 8.45442C10.3523 8.27801 10.4087 7.94858 10.2456 7.70394C10.0517 7.41307 9.64018 7.37232 9.39298 7.61952L8.92291 8.08958C8.59748 8.41502 8.06984 8.41502 7.7444 8.08958C7.41897 7.76414 7.41897 7.23651 7.7444 6.91107L8.21447 6.441C9.20536 5.45011 10.8551 5.61347 11.6324 6.77944C12.2861 7.76007 12.0599 9.08061 11.1171 9.78775L11.0766 9.8181C10.9237 9.93281 10.8337 10.1128 10.8337 10.304L10.8337 10.417C10.8337 10.8772 10.4606 11.2503 10.0003 11.2503C9.54009 11.2503 9.16699 10.8772 9.16699 10.417L9.16699 10.304C9.16699 9.58825 9.504 8.91424 10.0766 8.48476L10.1171 8.45442Z" fill="black"/>
<path d="M9.16699 12.917C9.16699 13.3772 9.54009 13.7503 10.0003 13.7503C10.4606 13.7503 10.8337 13.3772 10.8337 12.917C10.8337 12.4568 10.4606 12.0837 10.0003 12.0837C9.54009 12.0837 9.16699 12.4568 9.16699 12.917Z" fill="black"/>
<path fill-rule="evenodd" clip-rule="evenodd" d="M1.66699 10.0003C1.66699 5.39795 5.39795 1.66699 10.0003 1.66699C14.6027 1.66699 18.3337 5.39795 18.3337 10.0003C18.3337 14.6027 14.6027 18.3337 10.0003 18.3337C5.39795 18.3337 1.66699 14.6027 1.66699 10.0003ZM10.0003 3.33366C6.31843 3.33366 3.33366 6.31843 3.33366 10.0003C3.33366 13.6822 6.31843 16.667 10.0003 16.667C13.6822 16.667 16.667 13.6822 16.667 10.0003C16.667 6.31843 13.6822 3.33366 10.0003 3.33366Z" fill="black"/>
</svg>
