<svg width="20" height="20" viewBox="0 0 20 20" fill="none" xmlns="http://www.w3.org/2000/svg">
<path fill-rule="evenodd" clip-rule="evenodd" d="M3.33334 15.6767V4.16666C3.33334 2.78595 4.45262 1.66666 5.83334 1.66666H14.1667C15.5474 1.66666 16.6667 2.78595 16.6667 4.16666V15.6767C16.6667 17.2801 14.9793 18.323 13.5451 17.6059C13.4044 17.5355 13.2563 17.4807 13.1036 17.4426L10.6063 16.8182C10.2082 16.7187 9.79176 16.7187 9.39366 16.8182L6.89637 17.4426C6.7437 17.4807 6.59565 17.5355 6.45489 17.6059C5.02074 18.323 3.33334 17.2801 3.33334 15.6767ZM6.66667 5C6.20643 5 5.83334 5.37309 5.83334 5.83333C5.83334 6.29357 6.20643 6.66666 6.66667 6.66666H13.3333C13.7936 6.66666 14.1667 6.29357 14.1667 5.83333C14.1667 5.37309 13.7936 5 13.3333 5H6.66667ZM5.83334 10C5.83334 9.53976 6.20643 9.16666 6.66667 9.16666H13.3333C13.7936 9.16666 14.1667 9.53976 14.1667 10C14.1667 10.4602 13.7936 10.8333 13.3333 10.8333H6.66667C6.20643 10.8333 5.83334 10.4602 5.83334 10ZM6.66667 13.3333C6.20643 13.3333 5.83334 13.7064 5.83334 14.1667C5.83334 14.6269 6.20643 15 6.66667 15H8.88889C9.34913 15 9.72222 14.6269 9.72222 14.1667C9.72222 13.7064 9.34913 13.3333 8.88889 13.3333H6.66667ZM11.1111 13.3333C10.6509 13.3333 10.2778 13.7064 10.2778 14.1667C10.2778 14.6269 10.6509 15 11.1111 15H13.3333C13.7936 15 14.1667 14.6269 14.1667 14.1667C14.1667 13.7064 13.7936 13.3333 13.3333 13.3333H11.1111Z" fill="#667185"/>
</svg>
