<svg width="20" height="20" viewBox="0 0 20 20" fill="none" xmlns="http://www.w3.org/2000/svg">
<path fill-rule="evenodd" clip-rule="evenodd" d="M4.16669 1.6665C2.78598 1.6665 1.66669 2.78579 1.66669 4.1665V15.8332C1.66669 17.2139 2.78597 18.3332 4.16669 18.3332H15.8334C17.2141 18.3332 18.3334 17.2139 18.3334 15.8332V4.1665C18.3334 2.78579 17.2141 1.6665 15.8334 1.6665H4.16669ZM17.0476 7.25576C17.373 6.93032 17.373 6.40269 17.0476 6.07725L13.7143 2.74392C13.3888 2.41848 12.8612 2.41848 12.5358 2.74392C12.2103 3.06935 12.2103 3.59699 12.5358 3.92243L14.4465 5.83317H8.12502C5.13348 5.83317 2.70835 8.2583 2.70835 11.2498C2.70835 14.2414 5.13348 16.6665 8.12502 16.6665H14.7917C15.2519 16.6665 15.625 16.2934 15.625 15.8332C15.625 15.3729 15.2519 14.9998 14.7917 14.9998H8.12502C6.05395 14.9998 4.37502 13.3209 4.37502 11.2498C4.37502 9.17877 6.05395 7.49984 8.12502 7.49984H14.4465L12.5358 9.41058C12.2103 9.73602 12.2103 10.2637 12.5358 10.5891C12.8612 10.9145 13.3888 10.9145 13.7143 10.5891L17.0476 7.25576Z" fill="#667185"/>
</svg>
