<svg width="20" height="20" viewBox="0 0 20 20" fill="none" xmlns="http://www.w3.org/2000/svg">
<path fill-rule="evenodd" clip-rule="evenodd" d="M4.16666 1.66666C2.78595 1.66666 1.66666 2.78594 1.66666 4.16666V15.8333C1.66666 17.214 2.78595 18.3333 4.16666 18.3333H15.8333C17.214 18.3333 18.3333 17.214 18.3333 15.8333V4.16666C18.3333 2.78594 17.214 1.66666 15.8333 1.66666H4.16666ZM3.86327 15.3033C3.86327 15.7635 4.23637 16.1366 4.6966 16.1366H9.41065C9.87089 16.1366 10.244 15.7635 10.244 15.3033C10.244 14.8431 9.87089 14.47 9.41065 14.47H6.70845L15.8925 5.28594C16.2179 4.9605 16.2179 4.43287 15.8925 4.10743C15.567 3.78199 15.0394 3.78199 14.714 4.10743L5.52994 13.2914V10.5892C5.52994 10.129 5.15684 9.75591 4.6966 9.75591C4.23637 9.75591 3.86327 10.129 3.86327 10.5892L3.86327 15.3033Z" fill="#667185"/>
</svg>
