<svg width="20" height="20" viewBox="0 0 20 20" fill="none" xmlns="http://www.w3.org/2000/svg">
<path d="M11.6673 11.6693C13.9685 11.6693 15.8339 9.80379 15.8339 7.5026C15.8339 5.20142 13.9685 3.33594 11.6673 3.33594C9.36608 3.33594 7.5006 5.20142 7.5006 7.5026C7.5006 9.80379 9.36608 11.6693 11.6673 11.6693Z" fill="#101928"/>
<path d="M6.79677 17.1086C6.55413 17.4997 6.0404 17.62 5.64932 17.3774C5.25824 17.1347 5.1379 16.621 5.38054 16.2299C6.52171 14.3906 8.85627 12.5026 11.6673 12.5026C14.4783 12.5026 16.8128 14.3906 17.954 16.2299C18.1967 16.621 18.0763 17.1347 17.6852 17.3774C17.2942 17.62 16.7804 17.4997 16.5378 17.1086C15.6027 15.6014 13.7376 14.1693 11.6673 14.1693C9.597 14.1693 7.7319 15.6014 6.79677 17.1086Z" fill="#101928"/>
<path d="M6.58215 5.46903C6.78479 5.88226 6.61407 6.38152 6.20084 6.58415C5.44362 6.95547 5.0006 7.6291 5.0006 8.33594C5.0006 9.04278 5.44362 9.7164 6.20084 10.0877C6.61407 10.2904 6.78479 10.7896 6.58215 11.2028C6.37952 11.6161 5.88026 11.7868 5.46703 11.5842C4.23636 10.9807 3.33394 9.78055 3.33394 8.33594C3.33394 6.89133 4.23636 5.69121 5.46703 5.08772C5.88026 4.88509 6.37952 5.05581 6.58215 5.46903Z" fill="#101928"/>
<path d="M3.46344 17.1086C3.2208 17.4997 2.70707 17.62 2.31599 17.3774C1.9249 17.1347 1.80457 16.621 2.04721 16.2299C2.52979 15.4521 3.3019 14.8029 4.1633 14.2992C4.5606 14.0669 5.071 14.2006 5.30332 14.5979C5.53564 14.9952 5.40189 15.5057 5.00459 15.738C4.28484 16.1588 3.75528 16.6382 3.46344 17.1086Z" fill="#101928"/>
</svg>
