<svg width="39" height="40" viewBox="0 0 39 40" fill="none" xmlns="http://www.w3.org/2000/svg">
<rect y="0.5" width="39" height="39" rx="8" fill="#E3EAFB"/>
<path d="M6.66699 15.6035V26.1675C6.66699 28.3766 8.45785 30.1675 10.667 30.1675H29.3337C31.5428 30.1675 33.3337 28.3766 33.3337 26.1675V15.6035L21.9811 20.1445C20.7095 20.6532 19.2911 20.6532 18.0196 20.1445L6.66699 15.6035Z" fill="#175CFF"/>
<path d="M10.667 8.83398H29.3337C31.5427 8.83398 33.3335 10.6247 33.3337 12.8336C33.1687 12.8336 33.001 12.8643 32.8385 12.9293L20.9907 17.6685C20.3549 17.9228 19.6457 17.9228 19.0099 17.6685L7.16218 12.9293C6.99967 12.8643 6.83194 12.8336 6.66699 12.8336C6.66718 10.6247 8.45797 8.83398 10.667 8.83398Z" fill="#FCC85C"/>
</svg>
