<svg width="20" height="20" viewBox="0 0 20 20" fill="none" xmlns="http://www.w3.org/2000/svg">
<g id="Icon-right">
<path id="icon" fill-rule="evenodd" clip-rule="evenodd" d="M16.9747 11.8994C18.6126 11.1623 18.6126 8.83676 16.9747 8.09971L5.19204 2.79751C3.60512 2.08339 1.89392 3.51438 2.31598 5.20263L3.13604 8.48285C3.32524 9.23965 3.91689 9.81645 4.65478 9.99955C3.91689 10.1827 3.32524 10.7594 3.13604 11.5162L2.31598 14.7965C1.89392 16.4847 3.60511 17.9157 5.19204 17.2016L16.9747 11.8994ZM4.5081 4.31738L14.9777 9.02868L5.13034 8.39337C4.94948 8.3817 4.7969 8.25446 4.75294 8.07863L3.93289 4.7984C3.84848 4.46075 4.19071 4.17455 4.5081 4.31738ZM5.13034 11.6057L14.9777 10.9704L4.5081 15.6817C4.19071 15.8245 3.84847 15.5383 3.93289 15.2007L4.75294 11.9205C4.7969 11.7446 4.94948 11.6174 5.13034 11.6057Z" fill="#175CFF"/>
</g>
</svg>
