<svg width="20" height="20" viewBox="0 0 20 20" fill="none" xmlns="http://www.w3.org/2000/svg">
<path fill-rule="evenodd" clip-rule="evenodd" d="M11.5054 2.28967C10.6661 1.47766 9.33394 1.47766 8.49457 2.28967C8.01458 2.75402 7.34716 2.97087 6.68591 2.87734C5.52955 2.71378 4.45185 3.49678 4.25007 4.64708C4.13469 5.30487 3.7222 5.87261 3.13226 6.18562C2.10061 6.73298 1.68896 7.9999 2.20185 9.04911C2.49514 9.6491 2.49514 10.3509 2.20185 10.9509C1.68896 12.0001 2.10061 13.267 3.13226 13.8143C3.7222 14.1274 4.13469 14.6951 4.25007 15.3529C4.45185 16.5032 5.52955 17.2862 6.68591 17.1226C7.34716 17.0291 8.01458 17.246 8.49457 17.7103C9.33394 18.5223 10.6661 18.5223 11.5054 17.7103C11.9854 17.246 12.6528 17.0291 13.3141 17.1226C14.4704 17.2862 15.5481 16.5032 15.7499 15.3529C15.8653 14.6951 16.2778 14.1274 16.8677 13.8143C17.8994 13.267 18.311 12.0001 17.7981 10.9509C17.5049 10.3509 17.5049 9.6491 17.7981 9.04911C18.311 7.9999 17.8994 6.73298 16.8677 6.18562C16.2778 5.87261 15.8653 5.30487 15.7499 4.64708C15.5481 3.49678 14.4704 2.71378 13.3141 2.87734C12.6528 2.97087 11.9854 2.75402 11.5054 2.28967ZM10 14.1667C12.3012 14.1667 14.1667 12.3012 14.1667 9.99998C14.1667 7.6988 12.3012 5.83332 10 5.83332C7.69881 5.83332 5.83333 7.6988 5.83333 9.99998C5.83333 12.3012 7.69881 14.1667 10 14.1667Z" fill="#667185"/>
</svg>
