<svg width="20" height="20" viewBox="0 0 20 20" fill="none" xmlns="http://www.w3.org/2000/svg">
<g id="icon / share-alt">
<path id="icon" fill-rule="evenodd" clip-rule="evenodd" d="M15.0519 2.34487C13.7735 1.66941 12.5 2.71649 12.5 3.95231C12.5 4.00583 12.4799 4.06256 12.427 4.11717C12.3712 4.17466 12.2875 4.21884 12.1919 4.22969C8.75471 4.61969 6.41964 6.73884 4.92073 9.14335C3.42923 11.536 2.71336 14.2833 2.50513 16.1574C2.46314 16.5353 2.68225 16.8937 3.03773 17.0286C3.39321 17.1635 3.79491 17.0407 4.01417 16.73C4.74962 15.6881 6.04444 14.1811 7.59526 12.9382C9.16346 11.6812 10.8747 10.7896 12.4645 10.7673L12.4659 10.7688C12.4797 10.7842 12.5 10.8215 12.5 10.8756C12.5 12.2053 13.9259 13.2094 15.193 12.4491C16.2449 11.818 17.4263 10.96 18.2499 9.97579C19.0571 9.01102 19.6863 7.70745 19.0993 6.33787C18.267 4.39586 16.4353 3.07576 15.0519 2.34487ZM14.1667 3.95231C14.1667 3.87238 14.2029 3.8308 14.2255 3.81566C14.2364 3.80831 14.2429 3.80789 14.2429 3.80789C14.2429 3.80789 14.2449 3.80776 14.2483 3.8085C14.2517 3.80922 14.26 3.81144 14.2734 3.8185C15.5335 4.48426 16.9589 5.57456 17.5674 6.9944C17.7785 7.48694 17.64 8.10743 16.9716 8.90627C16.3196 9.68561 15.3174 10.4308 14.3355 11.02C14.3066 11.0373 14.2901 11.0379 14.283 11.0378C14.273 11.0376 14.2578 11.0346 14.2396 11.0235C14.2037 11.0015 14.1667 10.955 14.1667 10.8756C14.1667 10.0053 13.514 9.08741 12.4504 9.1007C10.3014 9.12755 8.22456 10.2978 6.55291 11.6377C5.95828 12.1143 5.39983 12.6245 4.89039 13.1357C5.23827 12.1002 5.71263 11.0236 6.33509 10.025C7.66036 7.89907 9.60392 6.20069 12.3798 5.88573C13.313 5.77983 14.1667 5.01466 14.1667 3.95231Z" fill="#98A2B3"/>
</g>
</svg>
