<svg width="33" height="32" viewBox="0 0 33 32" fill="none" xmlns="http://www.w3.org/2000/svg">
<path d="M20.5396 9.95652C20.3521 9.76925 20.0979 9.66406 19.8329 9.66406C19.5679 9.66406 19.3137 9.76925 19.1262 9.95652L15.7929 13.2898C15.6946 13.3814 15.6158 13.4918 15.5612 13.6145C15.5065 13.7371 15.4771 13.8695 15.4748 14.0038C15.4724 14.1381 15.4971 14.2715 15.5474 14.396C15.5977 14.5205 15.6725 14.6336 15.7675 14.7286C15.8625 14.8235 15.9756 14.8984 16.1001 14.9487C16.2246 14.999 16.358 15.0237 16.4923 15.0213C16.6265 15.0189 16.7589 14.9895 16.8816 14.9349C17.0043 14.8802 17.1147 14.8014 17.2062 14.7032L18.8329 13.0765V21.3299C18.8329 21.5951 18.9382 21.8494 19.1258 22.037C19.3133 22.2245 19.5677 22.3299 19.8329 22.3299C20.0981 22.3299 20.3525 22.2245 20.54 22.037C20.7275 21.8494 20.8329 21.5951 20.8329 21.3299V13.0765L22.4596 14.7032C22.5511 14.8014 22.6615 14.8802 22.7842 14.9349C22.9068 14.9895 23.0393 15.0189 23.1735 15.0213C23.3078 15.0237 23.4412 14.999 23.5657 14.9487C23.6902 14.8984 23.8033 14.8235 23.8983 14.7286C23.9932 14.6336 24.0681 14.5205 24.1184 14.396C24.1687 14.2715 24.1934 14.1381 24.191 14.0038C24.1886 13.8695 24.1593 13.7371 24.1046 13.6145C24.0499 13.4918 23.9711 13.3814 23.8729 13.2898L20.5396 9.95652Z" fill="#475367"/>
<path fill-rule="evenodd" clip-rule="evenodd" d="M19.0933 1.66406H20.5733C22.396 1.66406 23.8667 1.66406 25.0227 1.82006C26.2227 1.98006 27.2333 2.32673 28.036 3.12806C28.8387 3.93073 29.1827 4.9414 29.3453 6.1414C29.5 7.2974 29.5 8.76806 29.5 10.5907V21.4041C29.5 23.2267 29.5 24.6974 29.3453 25.8534C29.1827 27.0534 28.8387 28.0641 28.036 28.8667C27.2333 29.6694 26.2227 30.0134 25.0227 30.1761C23.8667 30.3307 22.396 30.3307 20.5733 30.3307H19.0933C17.2707 30.3307 15.8 30.3307 14.644 30.1761C13.444 30.0134 12.4333 29.6694 11.6307 28.8667C11.0973 28.3334 10.7667 27.7081 10.5573 26.9974C9.28933 26.9961 8.232 26.9814 7.376 26.8667C6.35733 26.7294 5.47467 26.4334 4.76933 25.7281C4.064 25.0227 3.768 24.1414 3.63067 23.1214C3.5 22.1481 3.5 20.9134 3.5 19.4014V12.5934C3.5 11.0827 3.5 9.8494 3.63067 8.8734C3.768 7.85606 4.064 6.9734 4.76933 6.26806C5.47467 5.56273 6.356 5.26673 7.376 5.1294C8.232 5.01473 9.28933 5.00006 10.5573 4.99873C10.7667 4.28806 11.0987 3.66273 11.6307 3.1294C12.4333 2.32673 13.444 1.98273 14.644 1.8214C15.8 1.6654 17.2707 1.6654 19.0933 1.6654M10.1667 21.4041C10.1667 22.8041 10.1667 23.9947 10.2373 24.9961C9.124 24.9921 8.29733 24.9721 7.64267 24.8841C6.84533 24.7774 6.456 24.5854 6.184 24.3134C5.912 24.0414 5.72 23.6521 5.61333 22.8547C5.50267 22.0294 5.5 20.9307 5.5 19.3307V12.6641C5.5 11.0641 5.50267 9.9654 5.61333 9.14006C5.72 8.34273 5.912 7.9534 6.184 7.6814C6.456 7.4094 6.84533 7.2174 7.64267 7.11073C8.29733 7.02273 9.124 7.00406 10.2373 6.99873C10.1667 7.9974 10.1667 9.19073 10.1667 10.5907V21.4041ZM14.9107 3.8014C13.932 3.9334 13.4147 4.17473 13.0453 4.54273C12.676 4.91206 12.436 5.4294 12.304 6.4094C12.1693 7.4134 12.1667 8.7494 12.1667 10.6641V21.3307C12.1667 23.2441 12.1693 24.5787 12.304 25.5867C12.436 26.5654 12.6773 27.0827 13.0453 27.4521C13.4147 27.8214 13.932 28.0614 14.912 28.1934C15.9187 28.3281 17.2533 28.3307 19.1667 28.3307H20.5C22.4133 28.3307 23.748 28.3281 24.756 28.1934C25.7347 28.0614 26.252 27.8201 26.6213 27.4521C26.9907 27.0827 27.2307 26.5654 27.3627 25.5854C27.4973 24.5787 27.5 23.2441 27.5 21.3307V10.6641C27.5 8.75073 27.4973 7.41473 27.3627 6.40806C27.2307 5.4294 26.9893 4.91206 26.6213 4.54273C26.252 4.1734 25.7347 3.9334 24.7547 3.8014C23.748 3.66673 22.4133 3.66406 20.5 3.66406H19.1667C17.2533 3.66406 15.9173 3.66673 14.9107 3.8014Z" fill="#475367"/>
</svg>
