<svg width="33" height="32" viewBox="0 0 33 32" fill="none" xmlns="http://www.w3.org/2000/svg">
<g id="solar:screen-share-outline">
<path id="Vector" d="M20.54 9.96042C20.3525 9.77315 20.0984 9.66797 19.8334 9.66797C19.5684 9.66797 19.3142 9.77315 19.1267 9.96042L15.7934 13.2938C15.6951 13.3853 15.6163 13.4957 15.5617 13.6184C15.507 13.741 15.4776 13.8735 15.4753 14.0077C15.4729 14.142 15.4976 14.2754 15.5479 14.3999C15.5982 14.5244 15.673 14.6375 15.768 14.7325C15.863 14.8274 15.9761 14.9023 16.1006 14.9526C16.2251 15.0029 16.3585 15.0276 16.4927 15.0252C16.627 15.0228 16.7594 14.9935 16.8821 14.9388C17.0048 14.8841 17.1152 14.8053 17.2067 14.7071L18.8334 13.0804V21.3338C18.8334 21.599 18.9387 21.8533 19.1263 22.0409C19.3138 22.2284 19.5682 22.3338 19.8334 22.3338C20.0986 22.3338 20.3529 22.2284 20.5405 22.0409C20.728 21.8533 20.8334 21.599 20.8334 21.3338V13.0804L22.46 14.7071C22.5516 14.8053 22.662 14.8841 22.7847 14.9388C22.9073 14.9935 23.0397 15.0228 23.174 15.0252C23.3083 15.0276 23.4417 15.0029 23.5662 14.9526C23.6907 14.9023 23.8038 14.8274 23.8988 14.7325C23.9937 14.6375 24.0686 14.5244 24.1189 14.3999C24.1692 14.2754 24.1939 14.142 24.1915 14.0077C24.1891 13.8735 24.1597 13.741 24.1051 13.6184C24.0504 13.4957 23.9716 13.3853 23.8734 13.2938L20.54 9.96042Z" fill="#475367"/>
<path id="Vector_2" fill-rule="evenodd" clip-rule="evenodd" d="M19.0933 1.66699H20.5733C22.396 1.66699 23.8667 1.66699 25.0227 1.82299C26.2227 1.98299 27.2333 2.32966 28.036 3.13099C28.8387 3.93366 29.1827 4.94433 29.3453 6.14433C29.5 7.30033 29.5 8.77099 29.5 10.5937V21.407C29.5 23.2297 29.5 24.7003 29.3453 25.8563C29.1827 27.0563 28.8387 28.067 28.036 28.8697C27.2333 29.6723 26.2227 30.0163 25.0227 30.179C23.8667 30.3337 22.396 30.3337 20.5733 30.3337H19.0933C17.2707 30.3337 15.8 30.3337 14.644 30.179C13.444 30.0163 12.4333 29.6723 11.6307 28.8697C11.0973 28.3363 10.7667 27.711 10.5573 27.0003C9.28933 26.999 8.232 26.9843 7.376 26.8697C6.35733 26.7323 5.47467 26.4363 4.76933 25.731C4.064 25.0257 3.768 24.1443 3.63067 23.1243C3.5 22.151 3.5 20.9163 3.5 19.4043V12.5963C3.5 11.0857 3.5 9.85233 3.63067 8.87633C3.768 7.85899 4.064 6.97633 4.76933 6.27099C5.47467 5.56566 6.356 5.26966 7.376 5.13233C8.232 5.01766 9.28933 5.00299 10.5573 5.00166C10.7667 4.29099 11.0987 3.66566 11.6307 3.13233C12.4333 2.32966 13.444 1.98566 14.644 1.82433C15.8 1.66833 17.2707 1.66833 19.0933 1.66833M10.1667 21.407C10.1667 22.807 10.1667 23.9977 10.2373 24.999C9.124 24.995 8.29733 24.975 7.64267 24.887C6.84533 24.7803 6.456 24.5883 6.184 24.3163C5.912 24.0443 5.72 23.655 5.61333 22.8577C5.50267 22.0323 5.5 20.9337 5.5 19.3337V12.667C5.5 11.067 5.50267 9.96833 5.61333 9.14299C5.72 8.34566 5.912 7.95633 6.184 7.68433C6.456 7.41233 6.84533 7.22033 7.64267 7.11366C8.29733 7.02566 9.124 7.00699 10.2373 7.00166C10.1667 8.00033 10.1667 9.19366 10.1667 10.5937V21.407ZM14.9107 3.80433C13.932 3.93633 13.4147 4.17766 13.0453 4.54566C12.676 4.91499 12.436 5.43233 12.304 6.41233C12.1693 7.41633 12.1667 8.75233 12.1667 10.667V21.3337C12.1667 23.247 12.1693 24.5817 12.304 25.5897C12.436 26.5683 12.6773 27.0857 13.0453 27.455C13.4147 27.8243 13.932 28.0643 14.912 28.1963C15.9187 28.331 17.2533 28.3337 19.1667 28.3337H20.5C22.4133 28.3337 23.748 28.331 24.756 28.1963C25.7347 28.0643 26.252 27.823 26.6213 27.455C26.9907 27.0857 27.2307 26.5683 27.3627 25.5883C27.4973 24.5817 27.5 23.247 27.5 21.3337V10.667C27.5 8.75366 27.4973 7.41766 27.3627 6.41099C27.2307 5.43233 26.9893 4.91499 26.6213 4.54566C26.252 4.17633 25.7347 3.93633 24.7547 3.80433C23.748 3.66966 22.4133 3.66699 20.5 3.66699H19.1667C17.2533 3.66699 15.9173 3.66966 14.9107 3.80433Z" fill="#475367"/>
</g>
</svg>
