<svg width="20" height="20" viewBox="0 0 20 20" fill="none" xmlns="http://www.w3.org/2000/svg">
<path d="M12.2467 9.33746C12.5722 9.01203 12.5722 8.48439 12.2468 8.15895C11.9213 7.83352 11.3937 7.83352 11.0682 8.15895L9.45262 9.77456L9.21772 9.53966C8.89228 9.21422 8.36464 9.21422 8.03921 9.53966C7.71377 9.8651 7.71377 10.3927 8.03921 10.7182L8.86337 11.5423C9.1888 11.8678 9.71644 11.8678 10.0419 11.5423L12.2467 9.33746Z" fill="#98A2B3"/>
<path fill-rule="evenodd" clip-rule="evenodd" d="M11.2397 1.68051C10.444 1.3617 9.55602 1.36171 8.7603 1.68051L5.73815 2.89133C5.72875 2.8951 5.71943 2.89903 5.71017 2.90314L4.42056 3.4752C3.28954 3.97692 2.49989 5.08159 2.5 6.36796C2.50014 8.00731 2.61833 10.7821 3.38904 12.6859C3.9015 13.9518 4.82447 15.049 5.76253 15.9258C6.70731 16.8089 7.71386 17.5113 8.45422 17.9788C9.40298 18.5778 10.597 18.5778 11.5458 17.9788C12.2861 17.5113 13.2927 16.8089 14.2375 15.9258C15.1755 15.049 16.0985 13.9518 16.611 12.6859C17.3817 10.7821 17.4999 8.00731 17.5 6.36796C17.5001 5.08159 16.7105 3.97692 15.5794 3.4752L14.2898 2.90314C14.2806 2.89903 14.2712 2.8951 14.2618 2.89133L11.2397 1.68051ZM9.38015 3.22763C9.77801 3.06822 10.222 3.06822 10.6198 3.22762L13.6279 4.4328L14.9036 4.9987C15.4776 5.25333 15.8334 5.78895 15.8333 6.36782C15.8332 8.0185 15.7013 10.4914 15.0661 12.0605C14.6811 13.0115 13.9489 13.9141 13.0994 14.7082C12.2565 15.496 11.343 16.1357 10.6559 16.5695C10.2508 16.8254 9.74924 16.8254 9.34406 16.5695C8.65702 16.1357 7.74346 15.496 6.90062 14.7082C6.05106 13.9141 5.3189 13.0115 4.93392 12.0605C4.29872 10.4914 4.16681 8.0185 4.16667 6.36782C4.16662 5.78895 4.52237 5.25333 5.09638 4.9987L6.37211 4.4328L9.38015 3.22763Z" fill="#98A2B3"/>
</svg>
