<svg width="20" height="21" viewBox="0 0 20 21" fill="none" xmlns="http://www.w3.org/2000/svg">
<path d="M11.2762 2.71523C11.8515 2.15341 12.6252 1.84102 13.4293 1.84576C14.2335 1.8505 15.0034 2.17199 15.5721 2.74055C16.1408 3.3091 16.4625 4.0789 16.4675 4.88306C16.4725 5.68722 16.1603 6.46093 15.5987 7.03648L15.2587 7.37523L15.3662 7.48273C15.8348 7.95155 16.0981 8.58732 16.0981 9.25023C16.0981 9.91314 15.8348 10.5489 15.3662 11.0177L13.5662 12.8177C13.4483 12.9316 13.2904 12.9946 13.1265 12.9931C12.9627 12.9917 12.8059 12.926 12.69 12.8101C12.5741 12.6942 12.5084 12.5375 12.507 12.3736C12.5056 12.2097 12.5686 12.0519 12.6824 11.934L14.4824 10.134C14.7167 9.89957 14.8484 9.58168 14.8484 9.25023C14.8484 8.91877 14.7167 8.60089 14.4824 8.36648L14.3749 8.25898L7.31741 15.3177C7.23698 15.3977 7.1363 15.4543 7.02616 15.4815L2.02616 16.7315C1.91758 16.7584 1.80376 16.7558 1.69656 16.7238C1.58937 16.6917 1.49274 16.6315 1.41676 16.5494C1.34077 16.4673 1.28822 16.3663 1.26459 16.2569C1.24096 16.1476 1.24711 16.0339 1.28241 15.9277L2.84491 11.2402C2.87538 11.1485 2.92673 11.065 2.99491 10.9965L11.2762 2.71523ZM14.7137 3.59898C14.375 3.26083 13.916 3.0709 13.4374 3.0709C12.9588 3.0709 12.4998 3.26083 12.1612 3.59898L3.98366 11.7752L2.82741 15.2427L6.55491 14.3115L14.7149 6.15273C15.0534 5.81402 15.2436 5.35473 15.2436 4.87585C15.2436 4.39697 15.0534 3.93769 14.7149 3.59898M6.20866 19.2502C4.66491 19.2502 3.44866 18.5427 2.63991 17.8665L4.24491 17.4665C4.84216 17.8105 5.51818 17.9944 6.20741 18.0002C6.71491 18.0002 7.23741 17.7952 7.79491 17.429C8.35241 17.0627 8.89241 16.5702 9.43741 16.0602L9.57866 15.9265C10.0599 15.4752 10.5587 15.0052 11.0362 14.6815C11.5462 14.334 12.2237 14.019 12.9324 14.2927C13.4024 14.4727 13.7074 14.8052 13.9212 15.2127C14.1224 15.5952 14.2612 16.0727 14.3962 16.594C14.4587 16.8315 14.5624 17.0615 14.6837 17.2165C14.7233 17.2705 14.7715 17.3178 14.8262 17.3565C14.8574 17.3752 14.8712 17.3752 14.8749 17.3752C15.0274 17.3752 15.2887 17.2727 15.6624 17.0177C15.8937 16.8602 16.0924 16.7027 16.2899 16.544C16.4116 16.4465 16.5374 16.3486 16.6674 16.2502C17.0162 15.989 17.3174 15.814 17.5387 15.7027C17.6518 15.6452 17.7678 15.5935 17.8862 15.5477L17.9112 15.5377L17.9199 15.5352L17.9237 15.534H17.9249L18.1249 16.1252L17.9262 15.5327C18.0825 15.4819 18.2526 15.4946 18.3996 15.5683C18.5466 15.642 18.6587 15.7707 18.7115 15.9264C18.7642 16.0822 18.7535 16.2524 18.6816 16.4003C18.6098 16.5482 18.4825 16.6618 18.3274 16.7165L18.3224 16.719L18.2837 16.734C18.2453 16.749 18.1853 16.7769 18.1037 16.8177C17.9412 16.899 17.7024 17.0365 17.4162 17.2515C17.3424 17.3052 17.2474 17.3815 17.1374 17.469C16.9112 17.6477 16.6262 17.874 16.3649 18.0515C15.9774 18.3165 15.4387 18.6265 14.8749 18.6265C14.3299 18.6265 13.9362 18.2952 13.6924 17.9802C13.454 17.66 13.2819 17.2954 13.1862 16.9077C13.0487 16.379 12.9412 16.0327 12.8162 15.7952C12.7037 15.5852 12.6037 15.5052 12.4837 15.4577C12.3812 15.4202 12.1774 15.4165 11.7399 15.7152C11.3487 15.9802 10.9212 16.3815 10.4174 16.8552L10.2924 16.9715C9.75366 17.4777 9.14241 18.0402 8.48116 18.474C7.81866 18.909 7.05616 19.2502 6.20866 19.2502Z" fill="white"/>
</svg>