<svg width="20" height="20" viewBox="0 0 20 20" fill="none" xmlns="http://www.w3.org/2000/svg">
<path d="M6.25 3.33329C6.71024 3.33329 7.08333 2.9602 7.08333 2.49996C7.08333 2.03972 6.71024 1.66663 6.25 1.66663H5C3.15905 1.66663 1.66666 3.15901 1.66666 4.99996V15C1.66666 16.8409 3.15905 18.3333 5 18.3333H6.25C6.71023 18.3333 7.08333 17.9602 7.08333 17.5C7.08333 17.0397 6.71024 16.6666 6.25 16.6666H5C4.07952 16.6666 3.33333 15.9204 3.33333 15L3.33333 4.99996C3.33333 4.07948 4.07952 3.33329 5 3.33329H6.25Z" fill="white"/>
<path d="M18.9226 10.5892C19.248 10.2638 19.248 9.73614 18.9226 9.4107L15.5893 6.07737C15.2638 5.75193 14.7362 5.75193 14.4107 6.07737C14.0853 6.40281 14.0853 6.93044 14.4107 7.25588L16.3215 9.16663L6.66666 9.16663C6.20643 9.16663 5.83333 9.53972 5.83333 9.99996C5.83333 10.4602 6.20643 10.8333 6.66666 10.8333L16.3215 10.8333L14.4107 12.744C14.0853 13.0695 14.0853 13.5971 14.4107 13.9225C14.7362 14.248 15.2638 14.248 15.5893 13.9225L18.9226 10.5892Z" fill="white"/>
</svg>
