<svg width="19" height="18" viewBox="0 0 19 18" fill="none" xmlns="http://www.w3.org/2000/svg">
<path d="M5.25002 2.33317C5.71026 2.33317 6.08335 1.96007 6.08335 1.49984C6.08335 1.0396 5.71026 0.666504 5.25002 0.666504H4.00002C2.15907 0.666504 0.666687 2.15889 0.666687 3.99984V13.9998C0.666687 15.8408 2.15907 17.3332 4.00002 17.3332H5.25002C5.71026 17.3332 6.08335 16.9601 6.08335 16.4998C6.08335 16.0396 5.71026 15.6665 5.25002 15.6665H4.00002C3.07955 15.6665 2.33335 14.9203 2.33335 13.9998L2.33335 3.99984C2.33335 3.07936 3.07955 2.33317 4.00002 2.33317H5.25002Z" fill="black"/>
<path d="M17.9226 9.58909C18.248 9.26366 18.248 8.73602 17.9226 8.41058L14.5893 5.07725C14.2638 4.75181 13.7362 4.75181 13.4108 5.07725C13.0853 5.40269 13.0853 5.93032 13.4108 6.25576L15.3215 8.1665L5.66669 8.1665C5.20645 8.1665 4.83335 8.5396 4.83335 8.99984C4.83335 9.46007 5.20645 9.83317 5.66669 9.83317L15.3215 9.83317L13.4108 11.7439C13.0853 12.0694 13.0853 12.597 13.4108 12.9224C13.7362 13.2479 14.2638 13.2479 14.5893 12.9224L17.9226 9.58909Z" fill="black"/>
</svg>
