<svg width="16" height="16" viewBox="0 0 16 16" fill="none" xmlns="http://www.w3.org/2000/svg">
<g id="icon / star">
<path id="Star 13" d="M6.84856 2.30103C7.38028 1.45565 8.62493 1.45565 9.15665 2.30103L10.4426 4.34552C10.6296 4.64296 10.9268 4.85641 11.2708 4.94038L13.6352 5.51755C14.6128 5.75621 14.9974 6.92637 14.3484 7.6875L12.7788 9.52824C12.5504 9.79603 12.4369 10.1414 12.4624 10.4907L12.6378 12.8919C12.7103 13.8848 11.7033 14.608 10.7705 14.233L8.51449 13.3262C8.18628 13.1943 7.81893 13.1943 7.49072 13.3262L5.23472 14.233C4.30189 14.608 3.29494 13.8848 3.36744 12.8919L3.54278 10.4907C3.56829 10.1414 3.45477 9.79603 3.22642 9.52824L1.6568 7.6875C1.00778 6.92637 1.3924 5.75621 2.37004 5.51755L4.73439 4.94038C5.07837 4.85641 5.37557 4.64296 5.56265 4.34552L6.84856 2.30103Z" fill="#F3A218"/>
</g>
</svg>
