<svg width="16" height="16" viewBox="0 0 16 16" fill="none" xmlns="http://www.w3.org/2000/svg">
<g id="icon / star">
<path id="Star 13" d="M6.84466 2.30054C7.37637 1.45516 8.62103 1.45516 9.15274 2.30054L10.4387 4.34504C10.6257 4.64248 10.9229 4.85593 11.2669 4.93989L13.6313 5.51706C14.6089 5.75572 14.9935 6.92588 14.3445 7.68701L12.7749 9.52775C12.5465 9.79555 12.433 10.1409 12.4585 10.4903L12.6339 12.8915C12.7064 13.8843 11.6994 14.6075 10.7666 14.2326L8.51059 13.3257C8.18238 13.1938 7.81502 13.1938 7.48681 13.3257L5.23082 14.2326C4.29798 14.6075 3.29104 13.8843 3.36354 12.8915L3.53887 10.4903C3.56438 10.1409 3.45086 9.79555 3.22251 9.52775L1.65289 7.68701C1.00387 6.92588 1.38849 5.75572 2.36613 5.51706L4.73049 4.93989C5.07446 4.85593 5.37166 4.64248 5.55874 4.34504L6.84466 2.30054Z" fill="#175CFF"/>
</g>
</svg>
