<svg width="114" height="103" viewBox="0 0 114 103" fill="none" xmlns="http://www.w3.org/2000/svg">
<path d="M72.2407 95.4447L33.5293 102.628L43.5431 86.2461L72.2407 95.4447Z" fill="#1ACD92"/>
<path d="M0 79.1568L72.2405 95.4446V77.7241L0 79.1568Z" fill="black"/>
<path d="M114 84.428L0 79.1568V0H109.692L114 84.428Z" fill="#1ACD92"/>
<path d="M79.7941 17.8836C77.4178 16.3571 74.261 17.0487 72.7345 19.42L50.4394 54.1447L40.5886 44.2939C38.5928 42.2981 35.357 42.2981 33.3611 44.2939C31.3653 46.2898 31.3653 49.5256 33.3611 51.5214L47.6976 65.8579C48.6609 66.8212 49.9651 67.3548 51.3089 67.3548C51.4917 67.3548 51.6745 67.3449 51.8572 67.3251C53.3936 67.1621 54.772 66.3074 55.6118 65.0082L81.3354 24.9481C82.8619 22.5719 82.1703 19.4151 79.799 17.8886L79.7941 17.8836Z" fill="white"/>
</svg>
