<svg width="88" height="88" viewBox="0 0 88 88" fill="none" xmlns="http://www.w3.org/2000/svg">
<rect width="88" height="88" rx="44" fill="#E7F6EC"/>
<path fill-rule="evenodd" clip-rule="evenodd" d="M43.389 65.8464C55.7924 65.8464 65.8473 55.7914 65.8473 43.388C65.8473 30.9846 55.7924 20.9297 43.389 20.9297C30.9856 20.9297 20.9307 30.9846 20.9307 43.388C20.9307 55.7914 30.9856 65.8464 43.389 65.8464ZM52.5605 40.2375C53.5768 39.3067 53.6461 37.7282 52.7153 36.7119C51.7845 35.6956 50.2061 35.6263 49.1897 36.5571L39.9766 44.995L37.5883 42.8076C36.5719 41.8768 34.9935 41.9461 34.0627 42.9624C33.1319 43.9787 33.2012 45.5572 34.2175 46.488L38.2913 50.219C39.245 51.0925 40.7082 51.0925 41.662 50.219L52.5605 40.2375Z" fill="#0F973D"/>
</svg>
