<svg width="20" height="20" viewBox="0 0 20 20" fill="none" xmlns="http://www.w3.org/2000/svg">
<path fill-rule="evenodd" clip-rule="evenodd" d="M3.6665 6.67647V4.5H8.83317V6.67647H3.6665ZM1.6665 3.5C1.6665 2.94772 2.11422 2.5 2.6665 2.5H9.83317C9.88995 2.5 9.94563 2.50473 9.99984 2.51383C10.054 2.50473 10.1097 2.5 10.1665 2.5H17.3332C17.8855 2.5 18.3332 2.94772 18.3332 3.5V7.67647C18.3332 7.71627 18.3308 7.75553 18.3263 7.79412C18.3308 7.8327 18.3332 7.87196 18.3332 7.91176V12.0882C18.3332 12.128 18.3308 12.1673 18.3263 12.2059C18.3308 12.2445 18.3332 12.2837 18.3332 12.3235V16.5C18.3332 17.0523 17.8855 17.5 17.3332 17.5H10.1665C10.1097 17.5 10.054 17.4953 9.99984 17.4862C9.94564 17.4953 9.88996 17.5 9.83317 17.5H2.66651C2.11422 17.5 1.6665 17.0523 1.6665 16.5V12.3235C1.6665 12.2837 1.66883 12.2445 1.67335 12.2059C1.66883 12.1673 1.6665 12.128 1.6665 12.0882V7.91177C1.6665 7.87196 1.66883 7.83271 1.67335 7.79412C1.66883 7.75553 1.6665 7.71627 1.6665 7.67647V3.5ZM3.6665 11.0882V8.91176H8.83317V11.0882H3.6665ZM3.6665 13.3235V15.5H8.83317V13.3235H3.6665ZM11.1665 6.67647V4.5H16.3332V6.67647H11.1665ZM11.1665 8.91176V11.0882H16.3332V8.91176H11.1665ZM11.1665 15.5V13.3235H16.3332V15.5H11.1665Z" fill="#98A2B3"/>
</svg>
