<svg width="20" height="20" viewBox="0 0 20 20" fill="none" xmlns="http://www.w3.org/2000/svg">
<path fill-rule="evenodd" clip-rule="evenodd" d="M2.66663 2.5C2.11434 2.5 1.66663 2.94771 1.66663 3.5V5.78571C1.66663 6.338 2.11434 6.78571 2.66663 6.78571H8.56136C9.11365 6.78571 9.56136 6.338 9.56136 5.78571V3.5C9.56136 2.94772 9.11365 2.5 8.56136 2.5H2.66663ZM2.66663 7.85715C2.11434 7.85715 1.66663 8.30487 1.66663 8.85715V11.1429C1.66663 11.6952 2.11434 12.1429 2.66663 12.1429H8.56136C9.11365 12.1429 9.56136 11.6952 9.56136 11.1429V8.85715C9.56136 8.30487 9.11365 7.85715 8.56136 7.85715H2.66663ZM1.66663 14.2143C1.66663 13.662 2.11434 13.2143 2.66663 13.2143H8.56136C9.11365 13.2143 9.56136 13.662 9.56136 14.2143V16.5C9.56136 17.0523 9.11365 17.5 8.56136 17.5H2.66663C2.11434 17.5 1.66663 17.0523 1.66663 16.5V14.2143ZM11.4386 2.5C10.8863 2.5 10.4386 2.94771 10.4386 3.5V5.78571C10.4386 6.338 10.8863 6.78571 11.4386 6.78571H17.3333C17.8856 6.78571 18.3333 6.338 18.3333 5.78571V3.5C18.3333 2.94772 17.8856 2.5 17.3333 2.5H11.4386ZM10.4386 8.85715C10.4386 8.30487 10.8863 7.85715 11.4386 7.85715H17.3333C17.8856 7.85715 18.3333 8.30487 18.3333 8.85715V11.1429C18.3333 11.6952 17.8856 12.1429 17.3333 12.1429H11.4386C10.8863 12.1429 10.4386 11.6952 10.4386 11.1429V8.85715ZM11.4386 13.2143C10.8863 13.2143 10.4386 13.662 10.4386 14.2143V16.5C10.4386 17.0523 10.8863 17.5 11.4386 17.5H17.3333C17.8856 17.5 18.3333 17.0523 18.3333 16.5V14.2143C18.3333 13.662 17.8856 13.2143 17.3333 13.2143H11.4386Z" fill="#475367"/>
</svg>
