<svg width="32" height="36" viewBox="0 0 32 36" fill="none" xmlns="http://www.w3.org/2000/svg">
<g clip-path="url(#clip0_15_7609)">
<path d="M27.0425 32.3254C24.755 31.5926 22.8725 29.9766 21.5325 27.8438C21.1625 27.2586 20.485 25.8203 19.665 26.2961C18.6225 26.9031 19.195 28.6941 19.54 29.5609C20.1075 30.991 21.0575 32.3582 22.2275 33.4082C23.555 34.6031 25.175 35.3934 26.85 35.4125C27.7075 35.4234 28.3575 34.6496 28.35 33.7363C28.345 32.8504 27.72 32.5441 27.0425 32.3254ZM17.22 17.8715C16.9475 17.1551 16.76 16.25 16.2525 15.6785C15.8375 15.2137 13.6925 15.7688 13.1425 15.8563C10.7525 16.2309 8.34248 17.2863 6.62248 19.1922C5.20998 20.7535 4.38498 23.4469 5.30498 25.5195C5.59498 26.1758 6.05498 26.7199 6.60998 27.1191C7.50748 27.7645 8.58248 27.368 9.50498 27.8164C10.105 28.1063 10.33 28.8637 10.8625 29.2492C11.6425 29.818 12.5825 30.0805 13.5175 30.0395C13.625 30.0367 13.735 30.0285 13.84 30.0148C15.4575 29.8344 17.2975 28.284 17.9925 26.7309C18.785 24.9563 18.6825 22.8453 18.235 20.9805C17.9775 19.9086 17.61 18.8914 17.22 17.8715ZM29.835 16.5316C28.6025 12.8238 24.435 12.6707 21.4275 13.234C20.4575 13.4145 19.1325 13.7207 18.3025 14.3113C18.195 14.3879 18.0275 14.5109 17.955 14.623C17.87 14.7488 17.875 14.8336 17.915 14.9266C18.5325 16.4113 19.0525 17.9453 19.485 19.5066C19.8925 20.9887 20.1025 22.602 20.755 23.9883C21.6525 25.9051 22.91 26.6188 24.83 26.8512C25.535 26.9359 26.22 26.6352 26.765 26.1867C27.5625 25.5359 28.2275 24.7457 28.4725 23.6602C28.58 23.1789 28.5825 22.7223 28.5825 22.2164C28.5825 21.6504 28.305 21.0324 28.8575 20.6688C30.2675 19.7445 30.34 18.052 29.835 16.5316ZM13.7375 14.2977C14.2425 14.1418 14.7575 14.0488 15.2675 13.9723C15.8575 13.882 15.32 12.1813 15.2375 11.8805C14.345 8.60742 13.16 4.46758 9.65748 3.67734C8.15998 3.33828 5.87498 4.07656 5.25748 5.73633C5.02998 6.34883 5.10498 6.96406 5.01748 7.59844C3.03998 8.42422 1.37498 10.8961 2.01998 13.2176C2.51498 14.9949 4.09998 15.9109 5.74748 15.9848C8.59498 16.1133 11.0525 15.1234 13.7375 14.2977ZM17.28 13.2012C18.2275 13.1328 19.1675 12.5859 20.0725 12.3043C22.0825 11.6727 24.325 11.7301 26.15 10.4941C26.6175 10.1797 26.8775 9.5836 27.075 9.03945C27.565 7.70234 27.68 6.00156 26.8775 4.7793C25.9625 3.39024 23.815 2.99102 22.36 3.37383C22.0825 3.44766 21.88 3.42305 21.77 3.1168C21.5425 2.5043 21.1975 1.97656 20.775 1.56641C19.9025 0.72422 18.7 0.363282 17.5 0.732423C16.5425 1.025 15.795 1.79883 15.3775 2.76953C14.1225 5.69531 15.505 9.88164 16.7175 12.5996C16.8325 12.8594 16.9975 13.223 17.28 13.2012Z" fill="url(#paint0_linear_15_7609)"/>
<g clip-path="url(#clip1_15_7609)">
<path d="M11.2152 10.4821C11.2989 10.4444 11.3925 10.4862 11.4243 10.5754L11.5106 10.8178L11.2075 10.9543L11.1212 10.7119C11.0894 10.6226 11.1315 10.5198 11.2152 10.4821Z" fill="#B3D0FF" fill-opacity="0.6"/>
<path d="M12.4486 10.4892L11.5394 10.8986L11.5969 11.0602C11.6287 11.1494 11.5866 11.2523 11.5029 11.29C11.4192 11.3277 11.3256 11.2859 11.2938 11.1967L11.2363 11.0351L11.0848 11.1033C10.8337 11.2164 10.7074 11.5251 10.8028 11.7928L10.8315 11.8736L13.5592 10.6454L13.5304 10.5646C13.4351 10.2968 13.1543 10.1714 12.9032 10.2845L12.7517 10.3527L12.8092 10.5143C12.841 10.6036 12.7989 10.7065 12.7152 10.7441C12.6315 10.7818 12.5379 10.74 12.5061 10.6508L12.4486 10.4892Z" fill="#B3D0FF" fill-opacity="0.6"/>
<path fill-rule="evenodd" clip-rule="evenodd" d="M10.9466 12.1968L11.4357 13.5703C11.5311 13.838 11.8119 13.9634 12.0629 13.8503L13.8814 13.0315C14.1325 12.9185 14.2587 12.6098 14.1634 12.3421L13.6743 10.9685L10.9466 12.1968ZM11.6812 13.2722C11.6495 13.183 11.6916 13.0801 11.7752 13.0424L12.836 12.5648C12.9197 12.5271 13.0133 12.5689 13.0451 12.6581C13.0769 12.7474 13.0348 12.8502 12.9511 12.8879L11.8903 13.3656C11.8066 13.4033 11.713 13.3615 11.6812 13.2722ZM13.2906 12.36C13.2069 12.3977 13.1648 12.5006 13.1966 12.5899C13.2284 12.6791 13.322 12.7209 13.4057 12.6832L13.7088 12.5468C13.7925 12.5091 13.8345 12.4062 13.8028 12.3169C13.771 12.2277 13.6774 12.1859 13.5937 12.2236L13.2906 12.36Z" fill="#B3D0FF" fill-opacity="0.6"/>
<path d="M12.6366 10.0295C12.6048 9.9403 12.5112 9.89851 12.4275 9.93619C12.3438 9.97388 12.3017 10.0768 12.3335 10.166L12.4198 10.4084L12.7229 10.2719L12.6366 10.0295Z" fill="#B3D0FF" fill-opacity="0.6"/>
</g>
<g clip-path="url(#clip2_15_7609)">
<path fill-rule="evenodd" clip-rule="evenodd" d="M19.6671 9.67279C19.8896 10.2975 19.595 11.0178 19.0092 11.2816C18.9183 11.3225 18.8258 11.35 18.7335 11.365L18.0416 11.5744C17.9633 11.5981 17.8849 11.5472 17.869 11.4623L17.8174 11.1856C17.8147 11.1711 17.81 11.1573 17.8036 11.1444L17.6784 10.8939C17.625 10.8138 17.5801 10.7249 17.5456 10.6281C17.3232 10.0034 17.6177 9.2831 18.2036 9.0193C18.7894 8.75551 19.4447 9.04809 19.6671 9.67279ZM18.0578 10.585C17.9741 10.6227 17.8805 10.5809 17.8487 10.4916C17.8169 10.4024 17.859 10.2995 17.9427 10.2618C18.0264 10.2241 18.12 10.2659 18.1518 10.3551C18.1835 10.4444 18.1415 10.5473 18.0578 10.585ZM18.4548 10.2187C18.4866 10.3079 18.5802 10.3497 18.6639 10.312C18.7476 10.2743 18.7897 10.1714 18.7579 10.0822C18.7261 9.99296 18.6325 9.95116 18.5488 9.98885C18.4651 10.0265 18.423 10.1294 18.4548 10.2187ZM19.2701 10.0391C19.1864 10.0768 19.0928 10.035 19.061 9.94573C19.0292 9.85649 19.0713 9.75359 19.155 9.71591C19.2387 9.67822 19.3323 9.72002 19.364 9.80926C19.3958 9.89851 19.3537 10.0014 19.2701 10.0391Z" fill="#B3D0FF" fill-opacity="0.6"/>
<path fill-rule="evenodd" clip-rule="evenodd" d="M19.928 8.43029C19.7691 7.98407 19.3011 7.77508 18.8826 7.96351C18.593 8.09391 18.4031 8.38048 18.3662 8.69252C18.9374 8.55985 19.5172 8.8295 19.8046 9.36708L20.0865 9.19437C20.1374 9.16321 20.1556 9.09341 20.1266 9.04078L20.032 8.86909C20.027 8.86013 20.0234 8.85041 20.021 8.84021L19.9759 8.64129C19.9684 8.57029 19.9527 8.49947 19.928 8.43029Z" fill="#B3D0FF" fill-opacity="0.6"/>
</g>
<g clip-path="url(#clip3_15_7609)">
<path d="M13.3054 18.3134C13.4677 18.1684 13.6138 18.0438 13.6975 17.9732C13.7462 17.9321 13.8027 17.9076 13.8633 17.901C14.1441 17.8704 14.9946 17.7843 15.3547 17.8204L14.91 18.2964L13.3054 18.3134Z" fill="#B3D0FF" fill-opacity="0.6"/>
<path d="M13.0153 18.5794C12.8241 18.7607 12.6464 18.9431 12.5527 19.0751C12.5572 19.0746 12.5618 19.0743 12.5664 19.0743L14.185 19.0724L14.6618 18.5621L13.0153 18.5794Z" fill="#B3D0FF" fill-opacity="0.6"/>
<path d="M12.4954 19.3185C12.5552 19.6025 12.8815 20.4289 13.0369 20.8147C13.0868 20.9386 13.2004 21.0158 13.3271 21.0132L14.7351 20.9841C14.7365 20.9841 14.7378 20.9841 14.7392 20.984C14.7323 20.9745 14.7266 20.9637 14.7224 20.9518L14.1468 19.3356L12.5577 19.3374C12.5347 19.3374 12.5134 19.3305 12.4954 19.3185Z" fill="#B3D0FF" fill-opacity="0.6"/>
<path d="M14.9573 20.8858C14.9583 20.8848 14.9593 20.8838 14.9603 20.8828L15.997 19.811C16.0902 19.7145 16.1251 19.5705 16.0852 19.4421C15.9609 19.0423 15.6897 18.1911 15.5586 17.9391C15.553 17.9618 15.5418 17.9833 15.5251 18.0012L14.3741 19.2332L14.9497 20.8495C14.9539 20.8614 14.9564 20.8736 14.9573 20.8858Z" fill="#B3D0FF" fill-opacity="0.6"/>
</g>
<g clip-path="url(#clip4_15_7609)">
<path fill-rule="evenodd" clip-rule="evenodd" d="M20.8924 15.0367L19.9832 15.4461C19.7321 15.5592 19.6059 15.8679 19.7012 16.1356L20.5068 18.3979C20.6021 18.6656 20.8829 18.791 21.134 18.6779L22.6494 17.9956C22.9004 17.8825 23.0267 17.5738 22.9313 17.3061L22.4135 15.8518L21.9589 16.0565C21.6241 16.2072 21.2497 16.04 21.1226 15.6831L20.8924 15.0367ZM20.5586 17.062C20.5268 16.9728 20.5689 16.8699 20.6526 16.8322L21.8649 16.2863C21.9486 16.2486 22.0422 16.2904 22.0739 16.3797C22.1057 16.4689 22.0636 16.5718 21.98 16.6095L20.7677 17.1554C20.684 17.1931 20.5904 17.1513 20.5586 17.062ZM20.9403 17.6401C20.8566 17.6778 20.8145 17.7807 20.8463 17.87C20.8781 17.9592 20.9717 18.001 21.0554 17.9633L22.2677 17.4174C22.3513 17.3798 22.3934 17.2769 22.3617 17.1876C22.3299 17.0984 22.2363 17.0566 22.1526 17.0943L20.9403 17.6401Z" fill="#B3D0FF" fill-opacity="0.6"/>
<path d="M22.2676 15.5425C22.2326 15.5019 22.1913 15.4676 22.145 15.4412L21.3939 15.0133C21.3382 14.9815 21.2776 14.9626 21.2156 14.9567L21.4256 15.5466C21.4892 15.7251 21.6764 15.8087 21.8438 15.7333L22.2676 15.5425Z" fill="#B3D0FF" fill-opacity="0.6"/>
</g>
</g>
<defs>
<linearGradient id="paint0_linear_15_7609" x1="16" y1="-11.6875" x2="15.9996" y2="35.4126" gradientUnits="userSpaceOnUse">
<stop stop-color="#175CFF"/>
<stop offset="0.331667" stop-color="#0E42B1"/>
<stop offset="0.636667" stop-color="#6A96FF"/>
<stop offset="1" stop-color="#BB33DD"/>
</linearGradient>
<clipPath id="clip0_15_7609">
<rect width="32" height="35" fill="white" transform="translate(0 0.5)"/>
</clipPath>
<clipPath id="clip1_15_7609">
<rect width="3.98593" height="4.11455" fill="white" transform="matrix(0.912429 -0.410853 0.335634 0.94255 9.88794 10.7048)"/>
</clipPath>
<clipPath id="clip2_15_7609">
<rect width="3.98593" height="4.11455" fill="white" transform="matrix(0.912429 -0.410853 0.335633 0.94255 16.2854 8.5705)"/>
</clipPath>
<clipPath id="clip3_15_7609">
<rect width="3.98593" height="4.11455" fill="white" transform="matrix(0.912429 -0.410854 0.335633 0.94255 11.8093 18.326)"/>
</clipPath>
<clipPath id="clip4_15_7609">
<rect width="3.98593" height="4.11455" fill="white" transform="matrix(0.912429 -0.410854 0.335633 0.94255 18.8074 15.6006)"/>
</clipPath>
</defs>
</svg>
