<svg width="20" height="20" viewBox="0 0 20 20" fill="none" xmlns="http://www.w3.org/2000/svg">
<path d="M7.9161 1.46094C7.56972 1.46094 7.25945 1.67521 7.13678 1.99915L6.94545 2.50438C6.5353 2.4634 6.15741 2.42249 5.8515 2.38814C5.62282 2.36247 5.43484 2.34051 5.30427 2.325L5.15364 2.30692L5.10249 2.30067C4.64574 2.24411 4.22898 2.56845 4.17242 3.02519C4.11586 3.48194 4.44027 3.89806 4.89702 3.95462L4.95268 3.96143L5.10766 3.98003C5.24128 3.9959 5.43284 4.01828 5.66553 4.0444C6.1305 4.09661 6.76158 4.16401 7.4237 4.22444C8.31685 4.30595 9.29587 4.3776 9.99944 4.3776C10.703 4.3776 11.682 4.30595 12.5752 4.22444C13.2373 4.16401 13.8684 4.09661 14.3333 4.0444C14.566 4.01828 14.7576 3.9959 14.8912 3.98003L15.0462 3.96143L15.1017 3.95463C15.5585 3.89807 15.883 3.48194 15.8265 3.02519C15.7699 2.56845 15.3538 2.24403 14.897 2.30059L14.8452 2.30692L14.6946 2.325C14.564 2.34051 14.376 2.36247 14.1474 2.38814C13.8415 2.42249 13.4636 2.4634 13.0534 2.50438L12.8621 1.99915C12.7394 1.67521 12.4292 1.46094 12.0828 1.46094H7.9161Z" fill="#D42620"/>
<path d="M9.1661 9.79427C9.1661 9.33403 8.79301 8.96094 8.33277 8.96094C7.87253 8.96094 7.49944 9.33403 7.49944 9.79427V13.9609C7.49944 14.4212 7.87253 14.7943 8.33277 14.7943C8.79301 14.7943 9.1661 14.4212 9.1661 13.9609V9.79427Z" fill="#D42620"/>
<path d="M11.6661 8.96094C12.1263 8.96094 12.4994 9.33403 12.4994 9.79427V13.9609C12.4994 14.4212 12.1263 14.7943 11.6661 14.7943C11.2059 14.7943 10.8328 14.4212 10.8328 13.9609V9.79427C10.8328 9.33403 11.2059 8.96094 11.6661 8.96094Z" fill="#D42620"/>
<path fill-rule="evenodd" clip-rule="evenodd" d="M15.7575 6.7114C15.833 5.6541 14.9215 4.80646 13.8855 4.92619C12.8255 5.04869 11.1897 5.21094 9.99944 5.21094C8.80915 5.21094 7.17339 5.04869 6.11336 4.92619C5.07742 4.80647 4.16587 5.6541 4.24139 6.7114L4.95534 16.7066C5.00946 17.4643 5.57382 18.1049 6.34831 18.2214C7.17881 18.3463 8.70272 18.5458 10.0004 18.5443C11.2821 18.5428 12.8122 18.3442 13.6464 18.2204C14.4222 18.1053 14.9894 17.4643 15.0437 16.7044L15.7575 6.7114ZM14.0769 6.58183C14.0797 6.5815 14.082 6.5817 14.082 6.5817L14.0842 6.5822C14.086 6.58284 14.0889 6.58436 14.0918 6.58708C14.0937 6.58888 14.0951 6.59108 14.0951 6.59108L14.095 6.59266L13.382 16.5747C12.5565 16.6967 11.1415 16.8763 9.99847 16.8776C8.84301 16.8789 7.43683 16.6992 6.61695 16.5764L5.90382 6.59266L5.90376 6.59108C5.90376 6.59108 5.90518 6.58888 5.90708 6.58708C5.90995 6.58436 5.91286 6.58284 5.91471 6.5822L5.91691 6.5817C5.91691 6.5817 5.91913 6.5815 5.92202 6.58183C6.98392 6.70455 8.70397 6.8776 9.99944 6.8776C11.2949 6.8776 13.0149 6.70455 14.0769 6.58183Z" fill="#D42620"/>
</svg>
