<svg width="17" height="16" viewBox="0 0 17 16" fill="none" xmlns="http://www.w3.org/2000/svg">
<path d="M8.24992 2.66667C9.35449 2.66667 10.2499 3.5621 10.2499 4.66667V12H7.58325C7.58325 10.5272 6.38935 9.33333 4.91659 9.33333C3.44383 9.33333 2.24992 10.5272 2.24992 12C1.88173 12 1.58325 11.7015 1.58325 11.3333V4.66667C1.58325 3.5621 2.47868 2.66667 3.58325 2.66667H8.24992Z" fill="#175CFF"/>
<path d="M10.9166 10.2361V6.33333H12.2835C13.0739 6.33333 13.7901 6.7988 14.1111 7.52106L14.7442 8.94548C14.8579 9.2012 14.9166 9.47793 14.9166 9.75776V10.2361C14.428 9.6825 13.713 9.33333 12.9166 9.33333C12.1201 9.33333 11.4052 9.6825 10.9166 10.2361Z" fill="#175CFF"/>
<path fill-rule="evenodd" clip-rule="evenodd" d="M4.91659 10C3.81202 10 2.91659 10.8954 2.91659 12C2.91659 13.1046 3.81202 14 4.91659 14C6.02116 14 6.91659 13.1046 6.91659 12C6.91659 10.8954 6.02116 10 4.91659 10ZM4.24992 12C4.24992 11.6318 4.5484 11.3333 4.91659 11.3333C5.28478 11.3333 5.58325 11.6318 5.58325 12C5.58325 12.3682 5.28478 12.6667 4.91659 12.6667C4.5484 12.6667 4.24992 12.3682 4.24992 12Z" fill="#175CFF"/>
<path fill-rule="evenodd" clip-rule="evenodd" d="M12.9166 10C11.812 10 10.9166 10.8954 10.9166 12C10.9166 13.1046 11.812 14 12.9166 14C14.0212 14 14.9166 13.1046 14.9166 12C14.9166 10.8954 14.0212 10 12.9166 10ZM12.2499 12C12.2499 11.6318 12.5484 11.3333 12.9166 11.3333C13.2848 11.3333 13.5833 11.6318 13.5833 12C13.5833 12.3682 13.2848 12.6667 12.9166 12.6667C12.5484 12.6667 12.2499 12.3682 12.2499 12Z" fill="#175CFF"/>
</svg>
