<svg width="32" height="32" viewBox="0 0 32 32" fill="none" xmlns="http://www.w3.org/2000/svg">
<g id="icon / truck">
<path id="icon" fill-rule="evenodd" clip-rule="evenodd" d="M9.33331 28C11.0749 28 12.5566 26.8869 13.1057 25.3333H21.5609C22.11 26.8869 23.5917 28 25.3333 28C27.0749 28 28.5566 26.8869 29.1057 25.3333H29.3333C30.0697 25.3333 30.6666 24.7364 30.6666 24V19.5155C30.6666 18.7693 30.51 18.0314 30.207 17.3495L28.9408 14.5006C28.0848 12.5746 26.1748 11.3333 24.0672 11.3333H21.3333V9.33333C21.3333 6.38781 18.9455 4 16 4H6.66665C3.72113 4 1.33331 6.38782 1.33331 9.33333V22.6667C1.33331 24.1394 2.52722 25.3333 3.99998 25.3333H5.56092C6.11004 26.8869 7.59169 28 9.33331 28ZM3.99998 9.33333C3.99998 7.86057 5.19389 6.66667 6.66665 6.66667H16C17.4727 6.66667 18.6666 7.86057 18.6666 9.33333V22.6667H13.1057C12.5566 21.1131 11.0749 20 9.33331 20C7.59169 20 6.11004 21.1131 5.56092 22.6667H3.99998V9.33333ZM27.7701 18.4325C27.9217 18.7734 28 19.1424 28 19.5155V21.0185C27.2923 20.3851 26.3578 20 25.3333 20C23.5917 20 22.11 21.1131 21.5609 22.6667H21.3333V14H24.0672C25.121 14 26.076 14.6206 26.504 15.5836L27.7701 18.4325ZM7.99998 24C7.99998 23.2636 8.59693 22.6667 9.33331 22.6667C10.0697 22.6667 10.6666 23.2636 10.6666 24C10.6666 24.7364 10.0697 25.3333 9.33331 25.3333C8.59693 25.3333 7.99998 24.7364 7.99998 24ZM24 24C24 23.2636 24.5969 22.6667 25.3333 22.6667C26.0697 22.6667 26.6666 23.2636 26.6666 24C26.6666 24.7364 26.0697 25.3333 25.3333 25.3333C24.5969 25.3333 24 24.7364 24 24Z" fill="#175CFF"/>
</g>
</svg>