<svg width="21" height="21" viewBox="0 0 21 21" fill="none" xmlns="http://www.w3.org/2000/svg">
<g id="icon / upload">
<g id="icon">
<path d="M11.0892 2.41205C10.7638 2.08661 10.2361 2.08661 9.9107 2.41205L6.57737 5.74538C6.25193 6.07082 6.25193 6.59845 6.57737 6.92389C6.90281 7.24933 7.43045 7.24933 7.75588 6.92389L9.66663 5.01315V14.668C9.66663 15.1282 10.0397 15.5013 10.5 15.5013C10.9602 15.5013 11.3333 15.1282 11.3333 14.668V5.01315L13.244 6.92389C13.5695 7.24933 14.0971 7.24933 14.4225 6.92389C14.748 6.59845 14.748 6.07082 14.4225 5.74538L11.0892 2.41205Z" fill="#175CFF"/>
<path d="M3.83329 15.0846C3.83329 14.6244 3.4602 14.2513 2.99996 14.2513C2.53972 14.2513 2.16663 14.6244 2.16663 15.0846V16.3346C2.16663 18.1756 3.65901 19.668 5.49996 19.668H15.5C17.3409 19.668 18.8333 18.1756 18.8333 16.3346V15.0846C18.8333 14.6244 18.4602 14.2513 18 14.2513C17.5397 14.2513 17.1666 14.6244 17.1666 15.0846V16.3346C17.1666 17.2551 16.4204 18.0013 15.5 18.0013H5.49996C4.57948 18.0013 3.83329 17.2551 3.83329 16.3346V15.0846Z" fill="#175CFF"/>
</g>
</g>
</svg>
