<svg width="20" height="20" viewBox="0 0 20 20" fill="none" xmlns="http://www.w3.org/2000/svg">
<g id="icon / upload">
<g id="icon">
<path d="M10.5896 1.91009C10.2641 1.58466 9.73651 1.58466 9.41107 1.91009L6.07774 5.24343C5.7523 5.56886 5.7523 6.0965 6.07774 6.42194C6.40317 6.74737 6.93081 6.74737 7.25625 6.42194L9.16699 4.51119V14.166C9.16699 14.6263 9.54009 14.9993 10.0003 14.9993C10.4606 14.9993 10.8337 14.6263 10.8337 14.166V4.51119L12.7444 6.42194C13.0698 6.74737 13.5975 6.74737 13.9229 6.42194C14.2484 6.0965 14.2484 5.56886 13.9229 5.24343L10.5896 1.91009Z" fill="#475367"/>
<path d="M3.33366 14.5827C3.33366 14.1224 2.96056 13.7493 2.50033 13.7493C2.04009 13.7493 1.66699 14.1224 1.66699 14.5827V15.8327C1.66699 17.6736 3.15938 19.166 5.00033 19.166H15.0003C16.8413 19.166 18.3337 17.6736 18.3337 15.8327V14.5827C18.3337 14.1224 17.9606 13.7493 17.5003 13.7493C17.0401 13.7493 16.667 14.1224 16.667 14.5827V15.8327C16.667 16.7532 15.9208 17.4993 15.0003 17.4993H5.00033C4.07985 17.4993 3.33366 16.7532 3.33366 15.8327V14.5827Z" fill="#475367"/>
</g>
</g>
</svg>
