<svg width="20" height="20" viewBox="0 0 20 20" fill="none" xmlns="http://www.w3.org/2000/svg">
<g id="icon / user-group">
<g id="icon">
<path fill-rule="evenodd" clip-rule="evenodd" d="M9.99986 4.16699C8.15891 4.16699 6.66653 5.65938 6.66653 7.50033C6.66653 9.34128 8.15891 10.8337 9.99986 10.8337C11.8408 10.8337 13.3332 9.34128 13.3332 7.50033C13.3332 5.65938 11.8408 4.16699 9.99986 4.16699ZM8.33319 7.50033C8.33319 6.57985 9.07938 5.83366 9.99986 5.83366C10.9203 5.83366 11.6665 6.57985 11.6665 7.50033C11.6665 8.4208 10.9203 9.16699 9.99986 9.16699C9.07938 9.16699 8.33319 8.4208 8.33319 7.50033Z" fill="#98A2B3"/>
<path fill-rule="evenodd" clip-rule="evenodd" d="M9.99986 18.3337C9.05245 18.3337 7.68642 18.1097 6.64973 17.6333C6.14119 17.3996 5.59554 17.053 5.27369 16.5344C5.10378 16.2607 4.99643 15.9379 4.99994 15.5787C5.00342 15.223 5.11499 14.8856 5.29768 14.5764C6.13308 13.1626 7.86615 11.667 9.99986 11.667C12.1336 11.667 13.8666 13.1626 14.702 14.5764C14.8847 14.8856 14.9963 15.223 14.9998 15.5787C15.0033 15.9379 14.8959 16.2607 14.726 16.5344C14.4042 17.053 13.8585 17.3996 13.35 17.6333C12.3133 18.1097 10.9473 18.3337 9.99986 18.3337ZM6.73257 15.4243C6.66875 15.5323 6.66662 15.5859 6.66653 15.595C6.66646 15.601 6.66625 15.6176 6.68979 15.6555C6.75595 15.7621 6.94811 15.9362 7.34568 16.1189C8.12119 16.4753 9.24055 16.667 9.99986 16.667C10.7592 16.667 11.8785 16.4753 12.654 16.1189C13.0516 15.9362 13.2438 15.7621 13.3099 15.6555C13.3335 15.6176 13.3333 15.6015 13.3332 15.5954C13.3331 15.5863 13.331 15.5323 13.2671 15.4243C12.6195 14.3282 11.3528 13.3337 9.99986 13.3337C8.64693 13.3337 7.38025 14.3282 6.73257 15.4243Z" fill="#98A2B3"/>
<path fill-rule="evenodd" clip-rule="evenodd" d="M2.08319 10.0003C2.08319 8.61961 3.20248 7.50033 4.58319 7.50033C5.9639 7.50033 7.08319 8.61961 7.08319 10.0003C7.08319 11.381 5.9639 12.5003 4.58319 12.5003C3.20248 12.5003 2.08319 11.381 2.08319 10.0003ZM4.58319 9.16699C4.12295 9.16699 3.74986 9.54009 3.74986 10.0003C3.74986 10.4606 4.12295 10.8337 4.58319 10.8337C5.04343 10.8337 5.41653 10.4606 5.41653 10.0003C5.41653 9.54009 5.04343 9.16699 4.58319 9.16699Z" fill="#98A2B3"/>
<path d="M2.41297 16.2042C2.20835 16.6164 1.70828 16.7847 1.29603 16.5801C0.883782 16.3755 0.715463 15.8754 0.920082 15.4632C1.22624 14.8464 1.68963 14.227 2.27257 13.7532C2.85573 13.2791 3.603 12.917 4.45584 12.917C4.91607 12.917 5.28917 13.2901 5.28917 13.7503C5.28917 14.2106 4.91607 14.5837 4.45584 14.5837C4.08835 14.5837 3.70051 14.7403 3.32386 15.0465C2.94699 15.3528 2.62589 15.7752 2.41297 16.2042Z" fill="#98A2B3"/>
<path fill-rule="evenodd" clip-rule="evenodd" d="M13.1749 10.0003C13.1749 8.61961 14.2942 7.50033 15.6749 7.50033C17.0556 7.50033 18.1749 8.61961 18.1749 10.0003C18.1749 11.381 17.0556 12.5003 15.6749 12.5003C14.2942 12.5003 13.1749 11.381 13.1749 10.0003ZM15.6749 9.16699C15.2147 9.16699 14.8416 9.54009 14.8416 10.0003C14.8416 10.4606 15.2147 10.8337 15.6749 10.8337C16.1351 10.8337 16.5082 10.4606 16.5082 10.0003C16.5082 9.54009 16.1351 9.16699 15.6749 9.16699Z" fill="#98A2B3"/>
<path d="M19.0833 15.4632C19.2879 15.8754 19.1196 16.3755 18.7074 16.5801C18.2951 16.7847 17.795 16.6164 17.5904 16.2042C17.3775 15.7752 17.0564 15.3528 16.6795 15.0465C16.3029 14.7403 15.915 14.5837 15.5475 14.5837C15.0873 14.5837 14.7142 14.2106 14.7142 13.7503C14.7142 13.2901 15.0873 12.917 15.5475 12.917C16.4004 12.917 17.1477 13.2791 17.7308 13.7532C18.3138 14.227 18.7772 14.8463 19.0833 15.4632Z" fill="#98A2B3"/>
</g>
</g>
</svg>
