<svg width="26" height="27" viewBox="0 0 26 27" fill="none" xmlns="http://www.w3.org/2000/svg">
<g id="icon / user-group">
<g id="icon">
<path fill-rule="evenodd" clip-rule="evenodd" d="M13.0832 5.96387C10.7053 5.96387 8.77764 7.89153 8.77764 10.2694C8.77764 12.6473 10.7053 14.575 13.0832 14.575C15.4611 14.575 17.3887 12.6473 17.3887 10.2694C17.3887 7.89153 15.4611 5.96387 13.0832 5.96387ZM10.9304 10.2694C10.9304 9.08048 11.8942 8.11665 13.0832 8.11665C14.2721 8.11665 15.236 9.08048 15.236 10.2694C15.236 11.4584 14.2721 12.4222 13.0832 12.4222C11.8942 12.4222 10.9304 11.4584 10.9304 10.2694Z" fill="#344054"/>
<path fill-rule="evenodd" clip-rule="evenodd" d="M13.0832 24.2625C11.8595 24.2625 10.095 23.9733 8.75594 23.3579C8.09908 23.056 7.39428 22.6083 6.97855 21.9385C6.75909 21.5848 6.62043 21.168 6.62497 20.704C6.62946 20.2445 6.77357 19.8087 7.00955 19.4093C8.0886 17.5832 10.3271 15.6514 13.0832 15.6514C15.8392 15.6514 18.0778 17.5832 19.1568 19.4093C19.3928 19.8087 19.5369 20.2445 19.5414 20.704C19.546 21.168 19.4073 21.5848 19.1878 21.9385C18.7721 22.6083 18.0673 23.056 17.4104 23.3579C16.0714 23.9733 14.3069 24.2625 13.0832 24.2625ZM8.86295 20.5045C8.78051 20.644 8.77776 20.7133 8.77764 20.7251C8.77754 20.7328 8.77728 20.7542 8.80769 20.8032C8.89315 20.9409 9.14135 21.1658 9.65487 21.4018C10.6566 21.8621 12.1024 22.1097 13.0832 22.1097C14.064 22.1097 15.5098 21.8621 16.5115 21.4018C17.025 21.1658 17.2732 20.9409 17.3587 20.8032C17.3891 20.7542 17.3888 20.7334 17.3887 20.7256C17.3886 20.7138 17.3859 20.644 17.3034 20.5045C16.4669 19.0887 14.8307 17.8041 13.0832 17.8041C11.3357 17.8041 9.69953 19.0887 8.86295 20.5045Z" fill="#344054"/>
<path fill-rule="evenodd" clip-rule="evenodd" d="M2.8575 13.4986C2.8575 11.7152 4.30324 10.2694 6.08666 10.2694C7.87008 10.2694 9.31583 11.7152 9.31583 13.4986C9.31583 15.282 7.87008 16.7278 6.08666 16.7278C4.30324 16.7278 2.8575 15.282 2.8575 13.4986ZM6.08666 12.4222C5.49219 12.4222 5.01027 12.9041 5.01027 13.4986C5.01027 14.0931 5.49219 14.575 6.08666 14.575C6.68114 14.575 7.16305 14.0931 7.16305 13.4986C7.16305 12.9041 6.68114 12.4222 6.08666 12.4222Z" fill="#344054"/>
<path d="M3.28346 21.5119C3.01916 22.0444 2.37324 22.2618 1.84075 21.9975C1.30826 21.7332 1.09085 21.0872 1.35515 20.5548C1.75059 19.758 2.34915 18.9581 3.10211 18.346C3.85535 17.7337 4.82058 17.266 5.92216 17.266C6.51663 17.266 6.99855 17.7479 6.99855 18.3423C6.99855 18.9368 6.51663 19.4187 5.92216 19.4187C5.44749 19.4187 4.94653 19.621 4.46003 20.0165C3.97323 20.4122 3.55848 20.9578 3.28346 21.5119Z" fill="#344054"/>
<path fill-rule="evenodd" clip-rule="evenodd" d="M17.1843 13.4986C17.1843 11.7152 18.63 10.2694 20.4135 10.2694C22.1969 10.2694 23.6426 11.7152 23.6426 13.4986C23.6426 15.282 22.1969 16.7278 20.4135 16.7278C18.63 16.7278 17.1843 15.282 17.1843 13.4986ZM20.4135 12.4222C19.819 12.4222 19.3371 12.9041 19.3371 13.4986C19.3371 14.0931 19.819 14.575 20.4135 14.575C21.0079 14.575 21.4899 14.0931 21.4899 13.4986C21.4899 12.9041 21.0079 12.4222 20.4135 12.4222Z" fill="#344054"/>
<path d="M24.816 20.5548C25.0803 21.0872 24.8629 21.7332 24.3304 21.9975C23.7979 22.2618 23.152 22.0444 22.8877 21.5119C22.6126 20.9578 22.1979 20.4122 21.7111 20.0165C21.2246 19.621 20.7236 19.4187 20.249 19.4187C19.6545 19.4187 19.1726 18.9368 19.1726 18.3423C19.1726 17.7479 19.6545 17.266 20.249 17.266C21.3505 17.266 22.3158 17.7337 23.069 18.346C23.822 18.9581 24.4205 19.758 24.816 20.5548Z" fill="#344054"/>
</g>
</g>
</svg>
