<svg width="20" height="20" viewBox="0 0 20 20" fill="none" xmlns="http://www.w3.org/2000/svg">
<g id="icon / user-add">
<g id="icon">
<path fill-rule="evenodd" clip-rule="evenodd" d="M5.8335 5.83366C5.8335 3.53247 7.69898 1.66699 10.0002 1.66699C12.3013 1.66699 14.1668 3.53247 14.1668 5.83366C14.1668 8.13485 12.3013 10.0003 10.0002 10.0003C7.69898 10.0003 5.8335 8.13485 5.8335 5.83366ZM10.0002 3.33366C8.61945 3.33366 7.50016 4.45295 7.50016 5.83366C7.50016 7.21437 8.61945 8.33366 10.0002 8.33366C11.3809 8.33366 12.5002 7.21437 12.5002 5.83366C12.5002 4.45295 11.3809 3.33366 10.0002 3.33366Z" fill="#667185"/>
<path fill-rule="evenodd" clip-rule="evenodd" d="M5.46302 18.2648C6.85834 18.8755 8.71641 19.167 10.0002 19.167C11.2839 19.167 13.142 18.8755 14.5373 18.2648C15.2223 17.965 15.919 17.5359 16.3237 16.9148C16.5366 16.5882 16.6711 16.2034 16.6667 15.7738C16.6624 15.3482 16.5223 14.9404 16.2869 14.561C15.1457 12.7217 12.8112 10.8337 10.0002 10.8337C7.18915 10.8337 4.85459 12.7217 3.71343 14.561C3.47803 14.9404 3.33797 15.3482 3.3336 15.7738C3.32919 16.2034 3.46376 16.5882 3.67662 16.9148C4.08137 17.5359 4.77802 17.965 5.46302 18.2648ZM5.00018 15.7909C5.0008 15.7301 5.01993 15.6165 5.12966 15.4397C6.06478 13.9324 7.92988 12.5003 10.0002 12.5003C12.0704 12.5003 13.9355 13.9324 14.8707 15.4397C14.9804 15.6165 14.9995 15.7301 15.0001 15.7909C15.0007 15.8479 14.9861 15.9147 14.9274 16.0049C14.7889 16.2174 14.4526 16.4826 13.8691 16.738C12.7273 17.2377 11.1058 17.5003 10.0002 17.5003C8.89453 17.5003 7.27303 17.2377 6.13127 16.738C5.54772 16.4826 5.21145 16.2174 5.07297 16.0049C5.01422 15.9147 4.9996 15.8479 5.00018 15.7909Z" fill="#667185"/>
<path d="M17.5002 2.50033C17.5002 2.04009 17.1271 1.66699 16.6668 1.66699C16.2066 1.66699 15.8335 2.04009 15.8335 2.50033V3.33366H15.0002C14.5399 3.33366 14.1668 3.70675 14.1668 4.16699C14.1668 4.62723 14.5399 5.00033 15.0002 5.00033H15.8335V5.83366C15.8335 6.2939 16.2066 6.66699 16.6668 6.66699C17.1271 6.66699 17.5002 6.2939 17.5002 5.83366V5.00033H18.3335C18.7937 5.00033 19.1668 4.62723 19.1668 4.16699C19.1668 3.70675 18.7937 3.33366 18.3335 3.33366H17.5002V2.50033Z" fill="#667185"/>
</g>
</g>
</svg>
