<svg width="16" height="16" viewBox="0 0 16 16" fill="none" xmlns="http://www.w3.org/2000/svg">
<g id="Icon-left">
<g id="icon">
<path fill-rule="evenodd" clip-rule="evenodd" d="M7.99984 1.33301C6.15889 1.33301 4.6665 2.82539 4.6665 4.66634C4.6665 6.50729 6.15889 7.99967 7.99984 7.99967C9.84079 7.99967 11.3332 6.50729 11.3332 4.66634C11.3332 2.82539 9.84079 1.33301 7.99984 1.33301ZM5.99984 4.66634C5.99984 3.56177 6.89527 2.66634 7.99984 2.66634C9.10441 2.66634 9.99984 3.56177 9.99984 4.66634C9.99984 5.77091 9.10441 6.66634 7.99984 6.66634C6.89527 6.66634 5.99984 5.77091 5.99984 4.66634Z" fill="white"/>
<path fill-rule="evenodd" clip-rule="evenodd" d="M7.99984 15.333C6.97283 15.333 5.48638 15.0998 4.37012 14.6113C3.82212 14.3714 3.26481 14.0282 2.94101 13.5313C2.77071 13.27 2.66306 12.9621 2.66659 12.6185C2.67008 12.278 2.78213 11.9517 2.97045 11.6482C3.88338 10.1768 5.75103 8.66634 7.99984 8.66634C10.2486 8.66634 12.1163 10.1768 13.0292 11.6482C13.2175 11.9517 13.3296 12.278 13.3331 12.6185C13.3366 12.9621 13.229 13.27 13.0587 13.5313C12.7349 14.0282 12.1775 14.3714 11.6295 14.6113C10.5133 15.0998 9.02684 15.333 7.99984 15.333ZM4.10343 12.3511C4.01565 12.4926 4.00035 12.5835 3.99985 12.6322C3.99938 12.6777 4.01108 12.7312 4.05808 12.8033C4.16886 12.9733 4.43788 13.1855 4.90472 13.3898C5.81813 13.7896 7.11533 13.9997 7.99984 13.9997C8.88434 13.9997 10.1815 13.7896 11.095 13.3898C11.5618 13.1855 11.8308 12.9733 11.9416 12.8033C11.9886 12.7312 12.0003 12.6777 11.9998 12.6322C11.9993 12.5835 11.984 12.4926 11.8962 12.3511C11.1481 11.1454 9.65606 9.99967 7.99984 9.99967C6.34361 9.99967 4.85153 11.1454 4.10343 12.3511Z" fill="white"/>
</g>
</g>
</svg>
