<svg width="62" height="61" viewBox="0 0 62 61" fill="none" xmlns="http://www.w3.org/2000/svg">
<circle cx="31" cy="30.5" r="30.5" fill="#FBEAE9"/>
<path d="M28.0251 26.0503C27.3416 25.3668 26.2336 25.3668 25.5502 26.0503C24.8668 26.7337 24.8668 27.8417 25.5502 28.5251L28.0251 31L25.5502 33.4749C24.8668 34.1583 24.8668 35.2663 25.5502 35.9497C26.2336 36.6332 27.3416 36.6332 28.0251 35.9497L30.4999 33.4749L32.9748 35.9497C33.6582 36.6332 34.7663 36.6332 35.4497 35.9497C36.1331 35.2663 36.1331 34.1583 35.4497 33.4749L32.9748 31L35.4497 28.5251C36.1331 27.8417 36.1331 26.7337 35.4497 26.0503C34.7663 25.3668 33.6582 25.3668 32.9748 26.0503L30.4999 28.5251L28.0251 26.0503Z" fill="#D42620"/>
<path fill-rule="evenodd" clip-rule="evenodd" d="M30.5 13.5C20.835 13.5 13 21.335 13 31C13 40.665 20.835 48.5 30.5 48.5C40.165 48.5 48 40.665 48 31C48 21.335 40.165 13.5 30.5 13.5ZM16.5 31C16.5 23.268 22.768 17 30.5 17C38.232 17 44.5 23.268 44.5 31C44.5 38.732 38.232 45 30.5 45C22.768 45 16.5 38.732 16.5 31Z" fill="#D42620"/>
</svg>
