<svg width="20" height="20" viewBox="0 0 20 20" fill="none" xmlns="http://www.w3.org/2000/svg">
<path fill-rule="evenodd" clip-rule="evenodd" d="M6.28174 5.55542H4.35185C3.3291 5.55542 2.5 6.38452 2.5 7.40727V7.80927L8.55531 10.0573C8.89842 10.1847 9.26139 10.2499 9.62727 10.2499H10.3727C10.7386 10.2499 11.1016 10.1847 11.4447 10.0573L17.5 7.80927V7.40727C17.5 6.38452 16.6709 5.55542 15.6481 5.55542H13.7183C13.3555 4.27299 12.1764 3.33333 10.7778 3.33333H9.22224C7.82365 3.33333 6.64453 4.27299 6.28174 5.55542ZM8.11113 5.55542H11.8889C11.6355 5.21815 11.2321 5 10.7778 5H9.22224C8.76791 5 8.36453 5.21815 8.11113 5.55542ZM10.8333 7.91667C10.8333 7.45643 10.4602 7.08333 10 7.08333C9.53976 7.08333 9.16667 7.45643 9.16667 7.91667V8.65741C9.16667 9.11765 9.53976 9.49074 10 9.49074C10.4602 9.49074 10.8333 9.11765 10.8333 8.65741V7.91667Z" fill="#667185"/>
<path d="M3.77239 14.4185L3.25002 9.25924L8.82982 11.3258C9.10774 11.4288 9.40174 11.4815 9.69811 11.4815H10.3019C10.5983 11.4815 10.8923 11.4288 11.1702 11.3258L16.75 9.25924L16.2276 14.4185C16.0984 15.6952 15.0236 16.6666 13.7404 16.6666H6.25968C4.97648 16.6666 3.90166 15.6952 3.77239 14.4185Z" fill="#667185"/>
</svg>
