<svg width="20" height="20" viewBox="0 0 20 20" fill="none" xmlns="http://www.w3.org/2000/svg">
<path d="M3.82711 8.02534C4.22801 8.15897 4.54259 8.47356 4.67623 8.87446C4.81223 9.28247 5.38935 9.28247 5.52535 8.87446C5.65898 8.47356 5.97357 8.15897 6.37447 8.02534C6.78248 7.88933 6.78248 7.31222 6.37447 7.17621C5.97357 7.04258 5.65898 6.72799 5.52535 6.32709C5.38935 5.91908 4.81223 5.91908 4.67623 6.32709C4.54259 6.72799 4.22801 7.04258 3.82711 7.17621C3.4191 7.31222 3.4191 7.88933 3.82711 8.02534Z" fill="#98A2B3"/>
<path fill-rule="evenodd" clip-rule="evenodd" d="M4.16634 3.33301C2.32539 3.33301 0.833008 4.82539 0.833008 6.66634V13.333C0.833008 15.174 2.32539 16.6663 4.16634 16.6663H12.4997C14.0767 16.6663 15.398 15.5712 15.7444 14.0999L16.4997 14.6663C17.5984 15.4904 19.1663 14.7064 19.1663 13.333V6.66634C19.1663 5.29293 17.5984 4.50896 16.4997 5.33301L15.7444 5.89948C15.398 4.42819 14.0767 3.33301 12.4997 3.33301H4.16634ZM17.4997 13.333L15.833 12.083V7.91634L17.4997 6.66634V13.333ZM2.49967 6.66634C2.49967 5.74587 3.24587 4.99967 4.16634 4.99967H12.4997C13.4201 4.99967 14.1663 5.74587 14.1663 6.66634V13.333C14.1663 14.2535 13.4201 14.9997 12.4997 14.9997H4.16634C3.24587 14.9997 2.49967 14.2535 2.49967 13.333V6.66634Z" fill="#98A2B3"/>
</svg>
