<svg width="33" height="32" viewBox="0 0 33 32" fill="none" xmlns="http://www.w3.org/2000/svg">
<path d="M6.62356 12.8437C7.26501 13.0575 7.76835 13.5608 7.98216 14.2023C8.19976 14.8551 9.12315 14.8551 9.34076 14.2023C9.55457 13.5608 10.0579 13.0575 10.6994 12.8437C11.3522 12.6261 11.3522 11.7027 10.6994 11.4851C10.0579 11.2713 9.55457 10.7679 9.34076 10.1265C9.12315 9.47366 8.19976 9.47366 7.98216 10.1265C7.76835 10.7679 7.26501 11.2713 6.62356 11.4851C5.97075 11.7027 5.97075 12.6261 6.62356 12.8437Z" fill="#475367"/>
<path fill-rule="evenodd" clip-rule="evenodd" d="M7.16634 5.33594C4.22082 5.33594 1.83301 7.72375 1.83301 10.6693V21.3359C1.83301 24.2815 4.22082 26.6693 7.16634 26.6693H20.4997C23.0229 26.6693 25.1369 24.917 25.6912 22.5629L26.8997 23.4693C28.6576 24.7877 31.1663 23.5334 31.1663 21.3359V10.6693C31.1663 8.47182 28.6576 7.21746 26.8997 8.53594L25.6912 9.4423C25.1369 7.08822 23.0229 5.33594 20.4997 5.33594H7.16634ZM28.4997 21.3359L25.833 19.3359V12.6693L28.4997 10.6693V21.3359ZM4.49967 10.6693C4.49967 9.19651 5.69358 8.0026 7.16634 8.0026H20.4997C21.9724 8.0026 23.1663 9.19651 23.1663 10.6693V21.3359C23.1663 22.8087 21.9724 24.0026 20.4997 24.0026H7.16634C5.69358 24.0026 4.49967 22.8087 4.49967 21.3359V10.6693Z" fill="#475367"/>
</svg>
