<svg width="21" height="20" viewBox="0 0 21 20" fill="none" xmlns="http://www.w3.org/2000/svg">
<g id="icon / upload">
<g id="icon">
<path d="M11.0896 1.91107C10.7641 1.58563 10.2365 1.58563 9.91107 1.91107L6.57774 5.2444C6.2523 5.56984 6.2523 6.09748 6.57774 6.42291C6.90317 6.74835 7.43081 6.74835 7.75625 6.42291L9.66699 4.51217V14.167C9.66699 14.6272 10.0401 15.0003 10.5003 15.0003C10.9606 15.0003 11.3337 14.6272 11.3337 14.167V4.51217L13.2444 6.42291C13.5698 6.74835 14.0975 6.74835 14.4229 6.42291C14.7484 6.09748 14.7484 5.56984 14.4229 5.2444L11.0896 1.91107Z" fill="white"/>
<path d="M3.83366 14.5837C3.83366 14.1234 3.46056 13.7503 3.00033 13.7503C2.54009 13.7503 2.16699 14.1234 2.16699 14.5837V15.8337C2.16699 17.6746 3.65938 19.167 5.50033 19.167H15.5003C17.3413 19.167 18.8337 17.6746 18.8337 15.8337V14.5837C18.8337 14.1234 18.4606 13.7503 18.0003 13.7503C17.5401 13.7503 17.167 14.1234 17.167 14.5837V15.8337C17.167 16.7541 16.4208 17.5003 15.5003 17.5003H5.50033C4.57985 17.5003 3.83366 16.7541 3.83366 15.8337V14.5837Z" fill="white"/>
</g>
</g>
</svg>